<svg width="23" height="31" viewBox="0 0 23 31" fill="none" xmlns="http://www.w3.org/2000/svg">
<path d="M8.20807 12.4409C8.68439 14.2185 10.4889 15.2798 12.2381 14.8111C13.9877 14.3423 15.0195 12.5211 14.5432 10.7434C14.0669 8.96576 12.2626 7.90443 10.5131 8.37321C8.76384 8.84193 7.73175 10.6633 8.20807 12.4409Z" fill="#ED2F2F" fill-opacity="0.8"/>
<path d="M16.4222 30.4262C13.1669 28.3625 2.64216 21.2325 0.817114 14.4213C-0.770759 8.49528 2.66942 2.4248 8.50058 0.862347C14.332 -0.700175 20.3463 2.83699 21.9341 8.76301C23.7609 15.5807 18.2108 27.0109 16.4222 30.4262ZM9.9381 6.22725C7.02265 7.00844 5.30243 10.0437 6.09637 13.0067C6.8903 15.9697 9.89769 17.7383 12.8131 16.9571C15.7288 16.1758 17.4488 13.1406 16.6549 10.1776C15.858 7.21704 12.8535 5.45 9.9381 6.22725Z" fill="#ED2F2F" fill-opacity="0.8"/>
</svg>
