<svg width="31" height="36" viewBox="0 0 31 36" fill="none" xmlns="http://www.w3.org/2000/svg">
<path d="M30.9925 14.9384C30.8925 9.77037 30.1666 5.95869 30.1765 5.95517C29.8745 5.37087 29.345 4.8822 28.6971 4.63258C24.4436 2.9964 20.261 1.43474 16.1834 0.102306C15.7665 -0.0341019 15.327 -0.0341019 14.9109 0.102306C10.8339 1.43122 6.65205 2.99007 2.39929 4.62415C1.8272 4.84423 1.34727 5.25134 1.03464 5.74635C1.05874 5.74916 0.160551 8.53004 0.00742606 14.6719C-0.0833145 20.8145 0.687981 22.6546 0.66246 22.6567C1.08001 24.0067 1.86123 25.3799 2.9806 26.7763C4.23183 28.3359 5.92258 29.9467 7.96495 31.5302C11.3457 34.162 14.5096 35.7349 14.6422 35.7905C14.9293 35.9297 15.2334 36.0007 15.5468 36C15.8608 36 16.1649 35.929 16.4513 35.7891C16.5846 35.7335 19.752 34.1557 23.1314 31.5246C25.1745 29.9397 26.8652 28.3288 28.1172 26.77C29.3166 25.2744 30.1276 23.807 30.5197 22.3656C30.5041 22.3635 31.0712 20.1078 30.9925 14.9391V14.9384ZM17.2297 18.9694V22.2439C17.2297 23.1664 16.4761 23.9139 15.546 23.9146C14.616 23.9146 13.8617 23.1671 13.8617 22.2446V19.0158C12.648 18.4175 11.8129 17.1758 11.8129 15.7407C11.8129 13.7213 13.4633 12.0837 15.4993 12.0837C17.5352 12.0837 19.1856 13.7206 19.1863 15.74C19.1863 17.1392 18.3937 18.3549 17.2297 18.9694Z" fill="#212F84"/>
</svg>
