<svg width="36" height="36" viewBox="0 0 36 36" fill="none" xmlns="http://www.w3.org/2000/svg">
<path d="M18.5299 33.9833L34.1818 18.3314C34.8082 17.6962 35.1997 16.8262 35.1997 15.8692V3.68867C35.1997 1.76584 33.6424 0.208496 31.7196 0.208496H19.5391C18.5733 0.208496 17.7033 0.600013 17.0768 1.23517L1.41618 16.8958C0.789751 17.5223 0.398234 18.3923 0.398234 19.3493C0.398234 20.3064 0.789751 21.1851 1.41618 21.8116L13.5967 33.9921C14.2318 34.6185 15.1018 35.01 16.0589 35.01C17.0246 35.01 17.8947 34.6185 18.5299 33.9833ZM26.4994 6.29878C26.4994 4.85449 27.6652 3.68867 29.1095 3.68867C30.5538 3.68867 31.7196 4.85449 31.7196 6.29878C31.7196 7.74307 30.5538 8.90889 29.1095 8.90889C27.6652 8.90889 26.4994 7.74299 26.4994 6.29878Z" fill="#ED2F2F" fill-opacity="0.8"/>
</svg>
