<svg width="36" height="36" viewBox="0 0 36 36" fill="none" xmlns="http://www.w3.org/2000/svg">
<path d="M32.5307 13.7033C30.1228 16.8538 27.0747 20.3006 23.6864 23.6886C20.299 27.0756 16.8518 30.1234 13.7009 32.5311C15.1328 32.9764 16.6394 33.208 18.1817 33.208C22.1952 33.208 25.9686 31.6452 28.8066 28.8074C31.6447 25.9697 33.2077 22.1967 33.2076 18.1836C33.2076 16.6415 32.9759 15.1351 32.5307 13.7033Z" fill="#212F84"/>
<path d="M35.3691 0.998163C34.0428 -0.328106 31.5833 0.779682 30.7752 1.1437C29.1801 1.8622 27.1672 3.10419 24.9268 4.74958C24.2162 4.39189 23.478 4.0933 22.7189 3.85387C21.2702 3.39714 19.7444 3.15917 18.1819 3.15924C14.1684 3.15917 10.395 4.72209 7.55706 7.55977C4.71901 10.3975 3.15608 14.1704 3.15601 18.1835C3.15608 20.3533 3.61376 22.4525 4.48193 24.3719C4.56643 24.5587 4.65484 24.7438 4.74714 24.9269C4.24365 25.612 3.77588 26.2777 3.35335 26.9119C3.35321 26.9121 3.35314 26.9121 3.35307 26.9122C2.09829 28.7945 1.2263 30.408 0.761377 31.7075C0.161902 33.3831 0.240421 34.615 0.994708 35.3694C1.74906 36.1237 2.98171 36.2018 4.65825 35.6018C5.95848 35.1366 7.57279 34.264 9.45642 33.0084C13.2401 30.4862 17.7694 26.6518 22.2102 22.2114C22.2107 22.2109 22.2108 22.2109 22.2113 22.2103C26.6514 17.7707 30.486 13.2419 33.0082 9.459C34.2639 7.57557 35.1365 5.96149 35.6019 4.66125C36.2017 2.98489 36.1235 1.75244 35.3691 0.998163ZM8.65528 31.0299C4.56267 33.8158 2.80378 34.0359 2.47418 33.8896C2.33559 33.5754 2.52778 31.9152 5.09087 28.0705C5.09094 28.0703 5.09101 28.0702 5.09101 28.0702C5.34988 27.6817 5.62672 27.2806 5.91908 26.8696C6.30987 27.4186 6.73901 27.9448 7.20671 28.4442C7.32143 28.5667 7.43754 28.6881 7.55685 28.8074C7.64476 28.8954 7.73359 28.982 7.82331 29.0675C8.35102 29.5703 8.9095 30.0299 9.49373 30.4457H9.49394C9.2107 30.6471 8.93087 30.8422 8.65528 31.0299ZM31.0292 8.65837C30.8418 8.93371 30.6463 9.21358 30.445 9.49666C30.0292 8.91241 29.5695 8.35407 29.0667 7.82627C28.9812 7.73663 28.8945 7.64781 28.8068 7.55998C28.7188 7.472 28.63 7.38541 28.5404 7.30001C28.0126 6.79728 27.4543 6.33755 26.87 5.92189H26.8699C28.5799 4.70615 30.1179 3.7645 31.3702 3.16968C33.1729 2.31323 33.7902 2.44693 33.8906 2.48013C34.0346 2.81534 33.809 4.5753 31.0292 8.65837Z" fill="#212F84"/>
</svg>
