<svg width="25" height="39" viewBox="0 0 25 39" fill="none" xmlns="http://www.w3.org/2000/svg">
<path d="M24.7034 34.6698L24.7034 12.5346C24.6973 11.6425 24.3589 10.7505 23.6822 10.0738L15.0692 1.46086C13.7096 0.101205 11.5072 0.101205 10.1475 1.46086L1.53462 10.0738C0.851743 10.7566 0.513359 11.6487 0.51953 12.5408L0.51953 34.6883C0.51953 35.5742 0.857914 36.4663 1.53462 37.143C2.21134 37.8197 3.10958 38.1643 3.99548 38.1643H21.2213C22.1134 38.1581 23.0054 37.8198 23.6822 37.143C24.365 36.4601 24.7034 35.5681 24.7034 34.6698ZM10.7628 9.45859C9.7415 8.43733 9.7415 6.78861 10.7628 5.76734C11.784 4.74607 13.4328 4.74607 14.454 5.76734C15.4753 6.78861 15.4753 8.43733 14.454 9.45859C13.4328 10.4799 11.784 10.4798 10.7628 9.45859Z" fill="#212F84"/>
</svg>
