<svg width="37" height="37" viewBox="0 0 37 37" fill="none" xmlns="http://www.w3.org/2000/svg">
<path d="M16.8124 17.2368L15.577 12.6283C16.8843 12.3056 20.6728 10.7423 21.6625 13.5358C22.1486 16.5534 18.1136 16.9038 16.8124 17.2368Z" fill="#212F84"/>
<path d="M24.5053 20.4517C24.9638 23.8465 20.2463 24.2618 18.6881 24.6718L17.3324 19.5936C18.8957 19.1835 23.7283 17.4609 24.5053 20.4517Z" fill="#212F84"/>
<path d="M18.5 0C8.28282 0 0 8.28282 0 18.5C0 28.7172 8.28282 37 18.5 37C28.7172 37 37 28.7172 37 18.5C37 8.28282 28.7172 0 18.5 0ZM23.5042 26.3563L24.494 30.1879L22.1867 30.784L21.2031 26.9412C20.6018 27.0994 19.9842 27.2526 19.35 27.4006L20.3388 31.265L18.0324 31.8611L17.0427 28.0233C16.501 28.16 12.3797 29.2156 12.3797 29.2156L12.1279 26.3336C12.1279 26.3336 13.8443 25.9236 13.8062 25.902C14.4516 25.7272 14.5061 25.2134 14.4732 24.9122L11.7835 14.5142C11.5759 14.0712 11.1329 13.6016 10.1925 13.8472C10.2089 13.8093 8.51419 14.2851 8.51419 14.2851L7.88001 11.8143C7.88001 11.8143 12.0404 10.7475 12.5379 10.6057L11.5595 6.81219L13.8659 6.21612L14.8289 9.9768C15.4465 9.80204 16.0693 9.67155 16.6758 9.51837L15.7138 5.73512L18.0211 5.13905L18.9995 8.93254C22.0448 8.42478 24.532 8.94894 25.6142 11.4044C26.3306 13.3561 25.7458 14.8485 24.5927 15.87C26.4673 16.0622 28.7253 17.757 29.0533 19.8229C29.5671 23.2504 27.0583 25.492 23.5042 26.3563Z" fill="#212F84"/>
</svg>
