<svg width="45" height="19" viewBox="0 0 45 19" fill="none" xmlns="http://www.w3.org/2000/svg">
<path fill-rule="evenodd" clip-rule="evenodd" d="M44.2729 10.1098C44.273 11.5148 43.929 12.8985 43.2711 14.14C42.6131 15.3815 41.6612 16.443 40.4985 17.2319C39.3358 18.0207 37.9976 18.5128 36.6008 18.6653C35.2041 18.8178 33.7912 18.6261 32.4857 18.1067C31.1801 17.5874 30.0216 16.7563 29.1113 15.686C28.2009 14.6158 27.5664 13.3389 27.2633 11.967C26.9601 10.595 26.9974 9.16969 27.372 7.81549C27.7467 6.4613 28.4471 5.21941 29.4123 4.1983C29.0224 3.88897 28.609 3.61058 28.1758 3.36568C26.5751 2.4565 24.6188 1.92305 22.4986 1.92305C20.3812 1.92305 18.4249 2.4566 16.8242 3.36568C16.391 3.6106 15.9775 3.88899 15.5877 4.1983C17.1005 5.80373 17.9369 7.9301 17.9233 10.136C17.9096 12.3418 17.047 14.4577 15.5145 16.0443C13.982 17.6309 11.8973 18.5664 9.69328 18.6566C7.48922 18.7467 5.33512 17.9845 3.67818 16.5283C2.02124 15.0721 0.988755 13.0337 0.795081 10.8364C0.601407 8.63898 1.26142 6.45142 2.6381 4.72783C4.01478 3.00425 6.00236 1.87705 8.1882 1.58026C10.374 1.28347 12.5902 1.83988 14.3766 3.13399C14.896 2.70197 15.4524 2.31655 16.0394 1.9822C18.0198 0.896827 20.2417 0.327881 22.5 0.327881C24.7583 0.327881 26.9802 0.896827 28.9606 1.9822C29.5476 2.31657 30.104 2.70199 30.6234 3.13399C31.9084 2.20503 33.4251 1.6491 35.006 1.52754C36.587 1.40598 38.1708 1.72351 39.5828 2.4451C40.9947 3.16669 42.1799 4.26429 43.0075 5.6168C43.8351 6.9693 44.273 8.52415 44.2729 10.1098Z" fill="#212F84"/>
</svg>
