<svg width="27" height="37" viewBox="0 0 27 37" fill="none" xmlns="http://www.w3.org/2000/svg">
<path d="M17.55 13.4287C17.55 15.6535 15.7366 17.4573 13.5 17.4573C11.2631 17.4573 9.45 15.6535 9.45 13.4287C9.45 11.2039 11.2631 9.40007 13.5 9.40007C15.7366 9.40007 17.55 11.2039 17.55 13.4287Z" fill="#212F84"/>
<path d="M13.5 37C16.7237 33.5717 27 21.9531 27 13.4287C27 6.01209 20.9557 0 13.5 0C6.04402 0 0 6.01209 0 13.4287C0 21.9613 10.2746 33.5717 13.5 37ZM13.5 6.71434C17.2277 6.71434 20.25 9.72038 20.25 13.4287C20.25 17.137 17.2277 20.143 13.5 20.143C9.77201 20.143 6.75 17.137 6.75 13.4287C6.75428 9.72235 9.77366 6.71893 13.5 6.71434Z" fill="#212F84"/>
</svg>
