<svg width="24" height="24" viewBox="0 0 24 24" fill="none" xmlns="http://www.w3.org/2000/svg">
<path d="M12 0C5.37281 0 0 5.37281 0 12C0 18.6272 5.37281 24 12 24C18.6272 24 24 18.6272 24 12C24 5.37281 18.6272 0 12 0ZM7.58953 7.98281H14.5055L14.1591 7.64062C13.8984 7.38375 13.6284 7.11844 13.3655 6.85453C13.2814 6.77304 13.2143 6.67579 13.1679 6.56833C13.1215 6.46087 13.0967 6.34532 13.095 6.22828C13.0957 6.01951 13.1787 5.81943 13.3259 5.67141C13.4732 5.52339 13.6728 5.43935 13.8816 5.4375C13.9961 5.43665 14.1096 5.45874 14.2155 5.50245C14.3214 5.54616 14.4174 5.61062 14.498 5.69203C15.3525 6.53578 16.1948 7.37953 17.0006 8.19469C17.1613 8.35039 17.2535 8.56351 17.257 8.78719C17.2539 9.0071 17.1637 9.2168 17.0062 9.37031C16.1995 10.1864 15.3891 10.9936 14.4895 11.8884C14.3924 11.9889 14.2708 12.0623 14.1366 12.1015C14.0025 12.1406 13.8604 12.1441 13.7245 12.1116C13.5816 12.0849 13.4494 12.0177 13.3437 11.918C13.238 11.8182 13.1632 11.6902 13.1283 11.5491C13.107 11.4727 13.0961 11.3939 13.0959 11.3147C13.0971 11.2029 13.1211 11.0926 13.1664 10.9904C13.2117 10.8882 13.2774 10.7963 13.3594 10.7203C13.6106 10.47 13.867 10.2173 14.115 9.97266L14.5027 9.58969H7.5975C7.21406 9.58969 6.93375 9.41625 6.80813 9.10266C6.7655 8.99849 6.74337 8.88708 6.74297 8.77453C6.74297 8.32359 7.10672 7.98375 7.58953 7.98281ZM16.4105 16.0172C15.2855 16.0172 12.7425 16.0172 10.8867 16.0172H9.49641C9.61109 16.1306 9.72609 16.2439 9.84141 16.357C10.102 16.6139 10.3716 16.8792 10.6345 17.1431C10.7186 17.2246 10.7857 17.3219 10.8321 17.4293C10.8785 17.5368 10.9033 17.6523 10.905 17.7694C10.9049 17.9786 10.8222 18.1792 10.6749 18.3278C10.5276 18.4763 10.3276 18.5606 10.1184 18.5625C10.0039 18.5633 9.89036 18.5413 9.7845 18.4976C9.67864 18.4538 9.5826 18.3894 9.50203 18.308C8.6475 17.4619 7.80563 16.6205 6.99938 15.8053C6.83874 15.6496 6.74651 15.4365 6.74297 15.2128C6.74607 14.9929 6.83625 14.7832 6.99375 14.6297C7.79953 13.8141 8.61047 13.0064 9.51047 12.1116C9.60759 12.0111 9.72923 11.9377 9.86338 11.8985C9.99753 11.8594 10.1396 11.8559 10.2755 11.8884C10.4187 11.9152 10.5511 11.9828 10.6569 12.083C10.7626 12.1832 10.8372 12.3117 10.8717 12.4533C10.893 12.5296 10.9039 12.6084 10.9041 12.6877C10.9025 12.799 10.8784 12.9089 10.8331 13.0107C10.7878 13.1125 10.7224 13.204 10.6406 13.2797C10.3898 13.5295 10.1334 13.7822 9.88547 14.0269L9.49734 14.4103H16.4025C16.7859 14.4103 17.0662 14.5837 17.1919 14.8973C17.2345 15.0015 17.2566 15.1129 17.257 15.2255C17.257 15.6764 16.8933 16.0163 16.4105 16.0172Z" fill="#ED2F2F" fill-opacity="0.8"/>
</svg>
