<svg width="43" height="23" viewBox="0 0 43 23" fill="none" xmlns="http://www.w3.org/2000/svg">
<path fill-rule="evenodd" clip-rule="evenodd" d="M31.1669 2.54562C31.0738 2.31873 30.9507 2.1053 30.801 1.91097C30.0819 0.984363 28.7671 0.62602 27.2822 0.632601C25.6891 0.640224 23.9254 1.06834 22.4387 1.67675C22.0198 1.84612 21.6106 2.03881 21.2132 2.25392C22.4606 2.80926 23.5722 3.62928 24.4711 4.6571C24.5864 4.79196 24.6439 4.96687 24.631 5.14385C24.6181 5.32083 24.5359 5.48558 24.4023 5.60231C24.2686 5.71905 24.0943 5.77834 23.9172 5.76731C23.7401 5.75628 23.5745 5.67582 23.4564 5.5434C20.8775 2.60333 15.5598 1.62005 11.9213 2.49456C10.4779 2.84289 9.28671 3.50495 8.80974 4.57652C8.70979 4.80059 8.64124 5.03739 8.60606 5.2802L7.08282 15.5203L35.0899 12.1259L31.1669 2.54562ZM39.4667 12.9534L3.03283 17.3691C2.40251 17.4455 1.82836 17.7691 1.43668 18.2689C1.045 18.7686 0.867873 19.4034 0.944266 20.0337C1.02066 20.664 1.34431 21.2382 1.84403 21.6299C2.34375 22.0216 2.97859 22.1987 3.60891 22.1223L40.0428 17.7066C40.6731 17.6302 41.2473 17.3065 41.6389 16.8068C42.0306 16.3071 42.2078 15.6722 42.1314 15.0419C42.055 14.4116 41.7313 13.8375 41.2316 13.4458C40.7319 13.0541 40.097 12.877 39.4667 12.9534Z" fill="#ED2F2F" fill-opacity="0.8"/>
</svg>
