<svg width="29" height="20" viewBox="0 0 29 20" fill="none" xmlns="http://www.w3.org/2000/svg">
<path d="M29 4.71591V3.18182C29 1.42455 27.5799 0 25.8281 0H3.17188C1.42009 0 0 1.42455 0 3.18182V4.71591C0 4.87278 0.126818 5 0.283203 5H28.7168C28.8732 5 29 4.87278 29 4.71591Z" fill="#ED2F2F" fill-opacity="0.8"/>
<path d="M0 7.10227V16.8182C0 18.5755 1.42009 20 3.17188 20H25.8281C27.5799 20 29 18.5755 29 16.8182V7.10227C29 6.9454 28.8732 6.81818 28.7168 6.81818H0.283203C0.126818 6.81818 0 6.9454 0 7.10227ZM7.25 14.5455C7.25 15.0475 6.84423 15.4545 6.34375 15.4545H5.4375C4.93702 15.4545 4.53125 15.0475 4.53125 14.5455V13.6364C4.53125 13.1343 4.93702 12.7273 5.4375 12.7273H6.34375C6.84423 12.7273 7.25 13.1343 7.25 13.6364V14.5455Z" fill="#ED2F2F" fill-opacity="0.8"/>
</svg>
