<svg width="154" height="210" viewBox="0 0 154 210" fill="none" xmlns="http://www.w3.org/2000/svg">
<path d="M69.8144 170.573C70.2721 170.198 70.0333 169.456 69.4427 169.418L61.0657 168.886C60.8171 168.87 60.5993 168.714 60.5045 168.484L57.3319 160.782C57.1103 160.244 56.3485 160.244 56.1269 160.782L52.9543 168.484C52.8595 168.714 52.6417 168.87 52.3932 168.886L44.0256 169.418C43.4353 169.456 43.1964 170.197 43.6537 170.572L50.047 175.818C50.244 175.98 50.3287 176.242 50.2637 176.488L48.1599 184.468C48.0102 185.036 48.6286 185.497 49.1296 185.191L56.3897 180.756C56.5983 180.628 56.8605 180.628 57.0691 180.756L64.3292 185.191C64.8302 185.497 65.4486 185.036 65.299 184.468L63.1952 176.488C63.1301 176.242 63.215 175.98 63.4123 175.818L69.8144 170.573Z" fill="#ED2F2F"/>
<g clip-path="url(#clip0_4008_1148)">
<path d="M68.062 150.507C68.1017 150.049 68.5613 149.837 68.4912 149.41C68.3845 148.764 68.3749 148.765 67.4637 148.48C66.5524 148.195 68.2497 150.224 67.2269 149.871C66.2042 149.518 65.8917 149.632 65.0121 149.328C64.425 149.125 63.8196 148.976 63.2254 148.8C62.683 148.676 62.1505 148.512 61.632 148.31C60.5192 147.793 59.8152 146.941 59.7392 145.662C59.7325 145.279 59.4076 145.147 59.4076 145.147C59.4076 145.147 59.2157 145.024 59.0961 145.264C58.9935 145.474 58.8436 145.658 58.6581 145.801C58.4725 145.943 58.2565 146.041 58.0269 146.086C57.7972 146.131 57.5603 146.123 57.3346 146.061C57.1089 145.999 56.9005 145.886 56.7259 145.73C56.6045 145.588 56.531 145.411 56.5158 145.225C56.4939 144.933 56.4592 144.752 56.3124 144.495C55.9985 143.946 55.4315 143.903 54.8908 143.718C54.5434 143.609 54.1869 143.532 53.8256 143.488C52.634 143.305 51.6045 143.005 51.0311 141.722C50.743 141.077 49.9969 140.646 49.4978 140.082C48.9988 139.518 48.5311 139.053 48.4931 138.468C48.4804 138.271 48.7897 138.015 49.1129 138.127C49.8247 138.373 50.5257 138.676 51.2406 138.893C51.8934 139.091 52.569 139.21 53.2381 139.354C54.0895 139.54 54.6271 139.248 54.8908 138.468C55.177 137.62 54.4916 136.985 53.9436 136.436C53.3955 135.887 52.7207 135.482 51.9789 135.256C50.7698 134.853 49.5289 134.548 48.4047 133.892C47.8524 133.568 47.1731 133.48 46.5465 133.266C44.91 132.701 43.7776 131.736 41.6512 131.951C40.2775 132.091 39.3712 132.849 38.0146 132.866C37.0209 132.874 36.2297 133.129 35.6548 133.966C35.2356 134.576 34.6175 134.656 33.996 134.407C33.7565 134.306 33.4942 134.27 33.2363 134.304C32.9784 134.337 32.7342 134.439 32.5287 134.599C32.1973 134.812 31.8548 135.007 31.5028 135.183C30.6501 135.624 30.3641 135.557 29.7609 134.811C29.6205 134.634 29.3467 134.32 29.3467 134.32L29.1038 134.314C29.1038 134.314 28.2581 134.676 27.798 134.674C27.3379 134.672 26.8872 134.544 26.4951 134.304C26.285 134.211 26.0674 134.135 25.8446 134.079C24.533 133.601 23.9492 133.793 23.1436 134.96C22.7578 135.513 22.5841 136.176 21.777 136.187C21.439 136.191 20.7027 136.124 20.4738 136.024C19.8502 135.736 19.8291 135.927 19.1421 135.927C18.4551 135.927 17.7763 136.076 17.1527 136.364C16.5346 136.629 15.155 137.392 15.1695 136.611C15.1772 136.195 15.483 135.962 15.7484 135.717C16.546 134.985 16.4802 134.42 15.4215 134.164C14.4829 133.938 13.477 133.861 12.5238 134.235C11.6132 134.591 10.7073 134.318 10.2437 133.505C10.1773 133.386 10.1344 133.224 10.2134 133.076C10.3104 132.894 10.5015 132.853 10.7055 132.884C10.7799 132.895 10.8366 132.904 10.8875 132.947C11.6864 133.504 12.5741 133.366 13.4511 133.273C14.0712 133.208 14.713 133.219 15.3034 133.047C16.5405 132.687 17.4425 133.257 18.3267 133.965C18.3955 134.006 18.4522 134.047 18.5439 134.065C18.9293 134.14 18.765 133.425 18.7932 133.091C18.7876 132.862 18.763 132.634 18.7197 132.409C18.674 131.759 18.4014 131.003 18.6455 130.515C19.0919 129.6 19.6758 128.691 20.706 128.221C21.6236 127.791 22.4728 127.029 23.418 126.897C24.9389 126.683 26.4132 126.279 27.9186 126.043C28.6788 125.923 29.4891 126.049 30.2684 126.133C31.4558 126.261 31.3213 126.505 32.3657 125.728C33.4102 124.951 34.3858 125.907 34.8093 125.728C35.2327 125.549 35.4484 125.877 35.8387 125.728C36.7349 125.383 37.7237 125.362 38.6336 125.669C39.9474 126.075 41.2716 126.457 42.5964 126.79C43.3499 126.992 44.1207 127.122 44.8986 127.178C45.8773 127.234 46.8615 127.169 47.8472 127.145C48.043 127.141 48.3011 127.196 48.4253 127.095C49.2738 126.408 50.0276 127.142 50.8157 127.233C51.3557 127.301 51.8692 127.597 52.4056 127.675C53.0202 127.738 53.6039 127.976 54.0873 128.361C55.2305 129.286 56.6039 129.745 57.9807 130.147C58.7789 130.381 59.39 130.286 59.4076 131.137C59.4352 131.275 59.9934 131.491 60.0592 131.615C60.9633 131.224 61.2063 131.792 62.1093 131.829C62.2911 131.826 62.4684 131.885 62.6113 131.998C62.7543 132.11 62.8543 132.268 62.8945 132.445C62.9853 132.726 63.0891 133.002 63.1984 133.276C63.5182 134.087 63.8654 134.255 64.7253 134.032C65.3175 133.882 65.2437 133.746 65.9237 133.58C66.6037 133.415 66.8273 134.373 67.7156 134.558C68.604 134.743 68.393 135.04 69.2619 135.129C69.6388 135.142 70.0018 135.274 70.298 135.507C70.5943 135.741 70.8084 136.062 70.909 136.426C71.1444 137.07 71.6015 137.517 72.1241 137.933C72.282 138.074 72.4692 138.18 72.6723 138.241C72.8753 138.302 73.0894 138.319 73.2994 138.288C73.7862 138.218 74.7692 138.182 74.7692 138.182C74.7692 138.182 75.098 138.35 75.2619 138.439C75.4259 138.528 75.2497 138.573 75.222 138.654C75.058 139.132 73.816 138.489 73.9526 138.903C74.0891 139.316 74.2914 139.54 74.7181 139.504C74.8166 139.501 74.9142 139.485 75.0088 139.458C76.3792 138.976 77.1476 139.894 77.9084 140.747C78.2022 141.126 78.4701 141.524 78.71 141.94C78.9499 142.355 78.9559 142.377 78.9559 142.377C79.1188 142.54 79.0004 142.496 79.6076 142.866C80.2147 143.236 80.3718 143.592 80.9658 143.913C81.3523 144.12 81.5939 144.375 81.611 144.823C81.6969 146.776 82.7332 148.356 83.6521 149.978C83.8369 150.284 84.0899 150.543 84.3913 150.735C85.3265 151.342 86.2822 151.889 87.4048 152.126C88.2351 152.3 89.0301 152.643 89.8553 152.853C90.4218 152.996 90.7911 153.272 90.9074 153.857C90.945 154.046 91.0067 154.232 91.079 154.507C91.1514 154.781 91.6295 153.463 91.8904 153.768C92.1513 154.073 92.3748 154.354 92.6123 154.608C93.197 155.222 93.8218 155.799 94.3803 156.436C94.9388 157.073 95.4921 157.805 96.0267 158.504C96.4694 159.085 96.7828 158.772 97.2145 159.043C98.9208 160.111 97.5435 164.223 99.4802 163.673C100.266 163.45 101.246 162.928 101.097 162.345C100.948 161.763 100.296 162.726 100.133 161.763C99.9704 160.8 98.8833 159.01 98.8833 159.01C98.8833 159.01 99.3704 157.427 98.4615 157.108C97.6331 156.822 97.2125 156.35 97.2273 155.471C97.2381 154.85 96.9066 154.557 96.3377 154.248C95.4956 153.794 94.4552 154.261 93.5959 153.569C93.0405 153.122 93.0929 152.48 92.5394 152.081C91.9859 151.681 93.1338 151.311 93.3682 151.437C93.6026 151.563 93.8269 151.707 94.0391 151.868C94.2644 152.084 94.5303 152.252 94.8215 152.364C95.1126 152.476 95.423 152.529 95.7348 152.52C95.9645 152.498 96.1946 152.556 96.3867 152.684C96.5789 152.811 96.7215 153.001 96.7908 153.221C97.1585 154.099 97.9343 154.637 98.6087 155.25C99.1631 155.753 99.8376 156.166 99.5695 157.109C99.5187 157.256 99.7321 157.519 99.8803 157.674C100.185 157.972 100.509 158.249 100.851 158.503C101.139 158.722 101.207 158.977 101.235 159.339C101.341 160.717 101.7 161.972 103.183 162.53C103.297 162.587 103.407 162.652 103.512 162.726C103.616 162.799 103.409 163.622 103.06 164.035C102.472 164.729 100.359 163.556 100.785 164.532C101.21 165.508 101.132 165.267 101.54 166.028C101.682 166.281 102.049 166.433 102.344 166.558C102.956 166.805 103.458 167.266 103.755 167.855C104.156 168.571 104.597 169.263 105.05 169.946C105.437 170.538 105.749 171.126 105.726 171.855C105.7 172.05 105.745 172.248 105.854 172.412C105.963 172.576 106.128 172.695 106.318 172.747C106.77 172.903 106.986 172.622 107.246 172.38C107.387 172.25 107.567 172.162 107.679 171.953C108.044 171.273 106.767 171.002 106.275 170.564C105.439 169.888 105.151 168.837 105.778 168.064C106.58 167.075 107.347 169.593 107.9 170.539C108.002 170.7 108.023 170.943 108.159 171.047C109.064 171.742 109.367 172.815 109.858 173.765C110.089 174.23 110.402 174.648 110.783 175C111.646 175.805 112.468 176.654 113.245 177.542C113.786 178.15 114.377 178.62 115.196 178.761C115.552 178.817 115.892 178.946 116.195 179.139C116.499 179.332 116.759 179.586 116.96 179.885C117.228 180.217 117.53 180.519 117.862 180.787C118.239 181.099 118.509 181.52 118.636 181.993C118.861 182.881 119.566 183.319 120.462 183.234C121.577 183.129 122.613 183.492 123.585 183.905C124.09 184.12 124.5 184.743 124.77 185.273C125.1 185.921 124.939 186.19 124.309 186.669C124.026 186.885 123.745 187.101 123.453 187.325C123.16 187.549 123.433 187.795 122.777 187.664C122.121 187.534 122.303 188.213 121.637 188.153C121.195 188.642 121.403 188.454 121.195 188.938C120.986 189.423 122.015 189.785 122.015 189.785C122.178 189.731 122.328 189.721 122.418 189.645C123.24 188.935 123.981 189.282 124.746 189.773C126.231 190.728 127.728 191.666 129.237 192.585C129.538 192.776 129.884 192.885 130.241 192.902C130.517 192.898 130.79 192.957 131.04 193.075C131.29 193.193 131.509 193.366 131.681 193.582C132.136 194.089 132.576 194.624 133.286 194.837C133.387 194.879 133.476 194.945 133.547 195.029C133.617 195.113 133.666 195.213 133.689 195.319C133.702 196.011 134.166 196.446 134.47 196.978C134.803 197.538 135.095 198.121 135.344 198.723C135.894 200.14 136.684 201.246 138.336 201.463C139.132 201.571 139.43 201.96 139.546 202.751C139.614 203.219 139.474 203.523 138.991 203.622C138.544 203.695 138.119 203.872 137.753 204.14C137.508 204.323 136.999 204.255 136.639 204.168C134.922 203.744 133.218 203.263 131.501 202.824C130.542 202.578 129.571 202.448 128.586 202.733C128.398 202.787 128.154 202.784 128.031 202.903C127.164 203.735 126.264 203.159 125.334 203.076C124.403 202.993 125.283 202.355 124.895 202.163C124.667 202.05 124.406 202 124.406 202C124.406 202 122.81 202.269 121.656 201.872C121.564 201.84 121.488 201.741 121.399 201.733C120.063 201.627 119.172 200.692 118.199 199.942C117.461 199.392 116.629 198.982 115.744 198.732C115.092 198.53 114.471 198.226 113.834 197.972C112.984 197.635 112.15 197.251 111.278 196.984C109.994 196.594 108.68 196.296 107.381 195.946C106.478 195.703 105.585 195.426 104.68 195.196C104.118 195.028 103.529 194.97 102.946 195.026C102.193 195.128 101.428 194.994 100.755 194.642C99.8263 194.161 98.8483 193.778 97.8892 193.353C97.8892 193.353 97.467 193.669 97.167 193.82C95.3078 194.758 92.116 194.539 92.0119 192.459C91.9183 190.589 95.9934 189.786 95.9934 189.786C95.9934 189.786 98.9266 188.89 100.488 188.857C101.793 188.829 102.645 188.079 103.268 186.971C103.167 186.788 103.05 186.615 102.918 186.454C102.258 185.791 101.913 185.088 102.168 184.084C102.359 183.33 101.577 182.419 100.793 182.389C98.8415 182.313 97.2128 181.414 95.6086 180.45C95.1231 180.127 94.5549 179.95 93.9716 179.94C93.5441 179.947 93.122 179.843 92.7456 179.641C92.3692 179.438 92.051 179.142 91.8214 178.781C90.6862 176.977 89.6212 175.128 88.4935 173.321C88.1679 172.799 88.297 172.312 88.4221 171.811C88.7133 170.629 89.0128 169.437 88.8971 168.22C88.8 167.31 88.6097 166.413 88.329 165.542C88.233 165.237 88.329 165.387 88.2414 165.184C88.1538 164.98 88.239 164.971 87.9156 164.369C87.5922 163.768 87.051 163.514 86.4157 163.405C84.7367 163.116 83.0607 162.792 81.3779 162.527C80.9246 162.465 80.5012 162.265 80.1652 161.954C78.6832 160.61 77.068 159.42 75.3448 158.404C74.8062 158.122 74.2537 157.868 73.6893 157.642C73.1249 157.416 72.937 157.373 72.7656 157.201C72.6027 157.039 72.2431 157.143 72.211 156.493C72.179 155.843 71.8653 155.412 71.2502 155.078C70.2296 154.527 69.7772 153.437 69.156 152.524C68.7764 151.926 67.9849 151.4 68.062 150.507ZM92.2575 156.683L91.4599 155.492C91.4646 156.526 91.4646 156.526 92.2575 156.683Z" fill="#212F84"/>
<path d="M31.561 145.618C31.8198 145.108 32.552 145.864 32.9907 145.933C33.9267 146.08 34.102 145.877 33.8775 144.916C33.7362 144.311 33.5708 143.709 33.4219 143.106C33.3747 142.918 33.2466 142.715 33.2912 142.463C33.3764 141.982 33.9555 141.958 34.3091 141.736C35.0794 141.315 35.7732 141.209 36.6725 141.714C37.8589 142.382 38.7766 143.086 38.9186 144.525C38.944 144.776 39.1153 145.01 39.1921 145.258C39.2391 145.407 39.2399 145.716 39.2399 145.716C39.2399 145.716 39.6453 147.385 38.9512 147.879C38.6317 148.106 38.3137 148.087 37.9847 148.152C36.7122 148.31 35.4101 148.407 34.1947 147.956C33.4121 147.636 32.6783 147.208 32.0149 146.684C31.7508 146.487 31.3562 146.021 31.561 145.618Z" fill="#212F84"/>
</g>
<g clip-path="url(#clip1_4008_1148)">
<path d="M90.7155 93.079C90.5444 91.4082 89.4322 91.2673 88.1539 91.5189C86.6039 91.8209 85.4212 93.2602 85.7835 94.614C86.164 96.0702 86.7129 97.4771 87.4192 98.8062C88.9038 101.524 89.714 101.786 92.7487 101.167C93.5993 100.99 94.5051 101.101 95.3657 100.97C96.2263 100.839 97.2932 100.804 97.9475 100.311C99.0798 99.4504 99.885 99.5712 100.937 100.381C103.529 102.394 103.795 102.309 105.552 99.6366C106.896 99.9687 106.976 101.051 106.921 102.123C106.835 103.834 107.721 104.09 109.065 103.633C110.232 103.215 111.339 102.626 112.512 102.223C117.107 100.714 121.022 102.651 124.741 104.921C126.251 105.832 126.78 105.701 127.635 104.282C128.727 102.385 130.023 100.613 131.5 98.9974C132.705 97.7318 133.506 96.1356 133.8 94.4127C134.444 91.2924 135.385 88.2376 136.155 85.1425C136.709 82.9231 137.162 80.6886 137.716 78.3686C139.004 78.4441 139.391 79.4607 139.497 80.5326C139.824 84.0253 140.051 87.523 140.358 91.0156C140.461 91.4707 140.631 91.9081 140.861 92.3141C141.299 92.1228 141.867 92.0473 142.144 91.7202C142.794 90.8993 143.402 90.046 143.966 89.1636C145.34 90.603 145.224 92.5456 143.845 93.693C143.604 93.8893 143.277 93.9849 143.045 94.1963C142.039 95.0669 140.197 96.0936 140.302 96.8233C140.534 98.4287 141.505 100.13 143.659 100.412L143.775 100.915C143.095 101.252 142.446 101.75 141.727 101.891C138.566 102.515 137.444 103.668 137.127 106.894C136.975 107.825 136.928 108.77 136.986 109.712C137.199 110.731 137.496 111.731 137.872 112.701C134.787 114.568 132.975 117.794 132.597 121.81C132.441 123.486 131.762 124.03 130.187 123.673C128.215 123.23 126.154 123.442 124.314 124.276C122.064 125.228 121.294 127.014 121.017 129.128C120.957 129.566 121.606 130.301 122.109 130.572C129.89 134.825 137.71 139.007 145.491 143.234C149.255 145.278 149.014 144.493 147.408 148.348C143.382 158.086 140.675 168.222 137.987 178.372C137.746 179.278 137.449 180.164 137.172 181.055C137.172 181.085 137.061 181.085 136.699 181.186C137.202 178.196 137.61 175.323 138.113 172.459C139.391 165.152 140.75 157.864 141.928 150.537C141.979 150.005 141.913 149.468 141.734 148.965C141.554 148.461 141.267 148.003 140.891 147.623C136.729 144.286 132.451 141.08 128.133 137.95C125.743 136.214 123.247 134.619 120.705 133.114C119.11 132.173 117.348 131.513 115.426 130.597L115.622 128.851L111.656 129.153C112.376 130.089 112.728 130.779 113.277 131.227C117.072 134.332 120.881 137.422 124.751 140.436C125.758 141.221 125.989 141.946 125.597 143.149C123.705 149.012 122.074 154.976 119.98 160.763C119.105 163.154 119.261 165.293 119.628 167.608C120.222 171.332 118.704 165.672 117.89 163.717C117.965 164.244 117.787 163.717 117.075 161.274C116.703 159.995 115.748 158.327 115.426 157.038C112.329 144.725 113.611 151.85 110.534 139.53C110.277 138.494 110.222 137.397 109.865 136.4C109.397 135.102 108.722 133.884 108.118 132.58C104.394 134.951 102.341 135.182 100.605 133.632C99.1503 132.334 99.0949 131.025 100.464 128.152C99.3491 127.508 98.1884 126.948 96.9913 126.476C96.6829 126.455 96.3743 126.511 96.0931 126.64C95.812 126.768 95.5672 126.964 95.3808 127.211C94.1176 129.37 92.9349 131.584 91.858 133.844C90.8514 135.977 90.011 138.192 88.9893 140.633C87.6507 136.048 90.1921 123.698 93.0155 121.005L88.8786 118.489C79.1287 112.638 69.3653 106.778 59.5886 100.91C58.906 100.501 58.1335 100.266 57.339 100.225C55.7436 100.18 54.1382 100.336 52.4472 100.2C55.7939 96.5717 54.0778 92.1732 54.6817 88.2225C54.7421 87.84 54.0023 87.1254 53.489 86.904C51.3551 85.988 49.1307 85.2885 47.0069 84.3474C42.1907 82.2085 39.7951 78.3786 39.2214 73.19C38.2558 64.2678 39.5163 55.2454 42.8902 46.9296C46.6345 37.4581 51.8685 28.812 58.1039 20.7598C59.4769 18.9634 60.5634 16.9652 61.3248 14.8363C63.4939 8.87263 67.2432 4.70559 73.4686 2.95926C76.5536 2.09364 79.5682 0.946194 82.6885 0.281883C86.8958 -0.608897 90.7407 0.689528 94.3038 3.02971C89.8348 2.75795 85.3709 1.01665 80.922 2.92906C76.755 4.72069 72.3665 6.0795 68.8084 9.17459L72.0947 8.63106C71.8984 9.0538 71.8531 9.31047 71.7022 9.43628C65.663 14.4991 61.7677 21.0114 58.8337 28.2282C57.7667 30.8402 56.3979 33.3263 55.3108 35.9282C55.029 36.5925 55.2152 37.438 55.19 38.2331C55.9298 38.0318 56.8407 38.0419 57.3943 37.599C70.8818 26.8191 86.8303 22.0481 103.393 18.9329C108.058 18.0572 112.889 17.8559 117.655 17.8056C123.695 17.7402 130.468 22.7124 132.305 28.2333C131.475 27.3425 130.831 26.6077 130.146 25.9182C128.037 23.6998 125.152 22.3832 122.094 22.2444C112.502 21.7411 102.97 21.7411 93.7653 25.0778C86.6731 27.6784 80.1078 31.5364 74.3846 36.4667C85.2551 31.7058 95.7985 26.0038 107.942 25.1281L108.118 25.581C107.233 25.8931 106.342 26.195 105.456 26.5171C97.9072 29.28 90.3582 32.0178 82.8092 34.816C77.7061 36.7384 74.2185 40.4274 73.3529 45.6915C72.3463 51.8062 72.1903 58.0618 71.7827 64.262C71.8241 64.6257 71.9565 64.9732 72.1676 65.2722C72.3787 65.5713 72.6617 65.8123 72.9905 65.9731C74.0474 66.26 74.5808 65.5806 74.3846 64.403C74.3493 64.1966 74.7721 63.8997 74.9835 63.6632C75.2552 63.95 75.7887 64.2721 75.7535 64.5137C75.6411 65.3737 75.3949 66.2109 75.0237 66.9948C73.9266 69.1487 74.8627 71.1065 77.2431 71.6852C78.6426 72.0273 80.0111 72.4852 81.3347 73.0541C83.388 73.9348 84.5505 75.5704 84.9884 77.7647C85.5319 80.4974 86.4982 81.1315 89.3467 80.7138C90.1368 81.7606 89.9002 82.4299 88.6521 82.9433C87.6456 83.3559 86.317 83.7133 86.6391 85.2331C86.9511 86.6423 87.852 87.5582 89.4221 87.5733C89.5474 87.5575 89.6745 87.5767 89.7895 87.6287C90.8565 88.4087 92.4216 89.0177 92.8091 90.0594C93.101 90.8395 91.8781 92.1883 91.3245 93.2854L90.7155 93.079ZM55.9298 70.4874C52.7089 69.8282 50.0668 64.3778 51.2897 61.2877C51.8634 59.8283 52.6435 58.4544 53.2625 57.01C53.7004 56.0035 54.0375 54.9164 52.6334 54.3074C51.3199 53.7337 49.2314 54.1716 49.0351 55.2737C48.6567 57.083 48.5499 58.9386 48.718 60.7794C49.3672 66.0486 50.3234 71.2323 54.4804 75.1577C55.2394 75.9708 55.7463 76.9865 55.9399 78.0817C57.141 84.0605 58.2633 90.0527 59.3067 96.0584C59.387 96.6727 59.6234 97.2562 59.9935 97.7532C60.3636 98.2501 60.8548 98.6438 61.4204 98.8968C64.7621 100.648 68.0535 102.49 71.37 104.287C73.5441 105.464 75.7333 106.617 78.2195 107.945C77.4142 105.646 75.834 104.785 74.1933 103.919C73.529 103.567 72.6835 103.044 72.4822 102.41C71.8343 100.278 70.3932 98.4769 68.4561 97.3769C64.7219 95.2884 63.5694 92.0977 63.6147 88.0715C63.6499 84.911 63.2272 81.8663 59.815 80.3414C59.5684 80.2307 59.4175 79.9186 59.1759 79.6418C60.05 79.4555 60.8706 79.0737 61.5761 78.5249C62.2816 77.9761 62.8536 77.2747 63.2492 76.4733C63.6448 75.6718 63.8538 74.7912 63.8605 73.8974C63.8671 73.0037 63.6712 72.12 63.2876 71.3128C62.3867 69.4306 62.281 67.5182 63.7304 65.2736C63.7352 65.6983 63.7824 66.1215 63.8714 66.5368C64.1532 67.2464 64.4904 67.9359 64.8074 68.6304C65.2654 67.9107 66.0404 67.2212 66.121 66.4613C66.3323 64.4482 66.2317 62.4352 65.1144 60.5328C64.2937 58.9749 63.5693 57.3682 62.9453 55.7216C60.9625 51.1067 59.4879 50.3719 54.5811 51.5948C54.1281 51.7056 53.6853 51.8666 53.0713 52.0629C57.9731 53.0191 60.8669 55.1328 60.9625 57.941C60.453 57.535 59.893 57.1967 59.2967 56.9345C58.5569 56.7332 57.6661 56.5067 56.9967 56.7382C53.645 57.8957 51.7125 63.2807 53.4739 66.3657C54.2036 67.7396 55.0592 69.0229 55.9298 70.4874Z" fill="#212F84"/>
<path d="M73.4173 141.888C73.3368 142.256 73.3257 148.935 76.0755 144.984C73.992 147.032 77.3286 143.561 78.2848 145.68C82.0795 154.236 88.1388 161.07 94.3893 167.824C98.2192 171.976 101.838 176.324 105.552 180.587L105.205 180.929C104.384 180.048 103.594 179.142 102.749 178.287C93.871 169.303 85.0236 160.29 76.0755 151.377C72.1551 147.472 63.546 136.913 57.7786 137.653C54.6834 135.372 50.5657 133.773 46.2125 130.159C43.9084 128.307 42.1328 132.393 41.4883 129.508C39.8477 122.668 38.6174 119.319 36.7503 112.535C36.0357 109.943 36.6698 108.378 38.8137 106.863C42.2862 104.412 45.6833 101.831 49.3471 99.5005C47.9782 101.136 46.6143 102.782 45.2354 104.412C43.4538 106.526 41.6169 108.6 39.8957 110.759C39.7094 111.009 39.58 111.298 39.5165 111.604C39.4531 111.91 39.4571 112.226 39.5283 112.53C42.1252 119.123 47.28 122.233 49.7964 128.856C50.4758 130.648 52.5006 132.348 54.3576 132.766C60.4824 134.14 63.0208 138.579 69.2009 139.641C71.7877 140.084 69.8801 141.406 72.6028 141.074C72.9198 141.044 72.9543 141.919 73.4173 141.888Z" fill="#212F84"/>
<path d="M125.562 73.819L122.819 75.0168C123.654 76.5898 124.568 78.12 125.557 79.6015C126.405 80.6966 127.387 81.6807 128.481 82.5305C131.395 84.911 131.681 88.0363 131.183 91.4232C131.157 91.7329 131.064 92.0333 130.911 92.304C130.203 93.3575 129.469 94.3925 128.707 95.4091C128.509 95.6339 128.282 95.8319 128.033 95.9979C126.699 93.9245 125.436 91.9164 124.127 89.9587C123.625 89.1152 122.901 88.4256 122.034 87.965C121.167 87.5044 120.191 87.2906 119.21 87.3468C118.457 87.4198 117.697 87.3146 116.991 87.0398C112.759 84.9512 108.164 86.2144 103.775 85.5753C103.272 85.5048 102.557 86.0786 102.13 86.5818C100.765 88.0985 98.8962 89.0679 96.8705 89.3095C96.4931 86.3956 97.6355 84.0303 99.2358 81.9166C100.499 80.3408 101.882 78.8652 103.373 77.5029C104.048 76.8557 104.935 76.4759 105.869 76.4342C106.803 76.3926 107.721 76.6919 108.451 77.2765C110.937 75.4496 111.113 75.3892 112.547 76.0082L113.378 73.3459L114.822 75.7214H118.425L118.591 76.2246L119.759 74.2569L121.093 77.5532L121.727 77.4375C121.96 76.6909 122.114 75.9216 122.185 75.1426C122.154 74.8921 122.069 74.6515 121.935 74.4376C121.801 74.2237 121.622 74.0417 121.41 73.9046C120.418 73.314 119.365 72.8331 118.269 72.4703C117.45 72.2503 116.6 72.167 115.753 72.2237C115.28 72.2237 114.772 72.7622 114.349 72.6867C112.869 72.4149 111.068 72.3696 110.081 71.4788C109.432 70.89 109.789 68.9625 110.026 67.6943C110.187 66.8387 110.922 66.0939 111.707 65.4497C111.375 66.27 110.856 67.0702 110.751 67.9207C110.574 68.9329 110.664 69.9737 111.012 70.9403C111.556 72.128 112.618 72.4501 113.755 71.3933C114.209 70.9489 114.716 70.5618 115.265 70.2408C116.412 69.5966 117.66 69.4708 118.491 70.6283C119.497 72.0022 120.469 72.581 122.285 72.2186C123.252 72.0224 124.439 72.9232 125.526 73.3308L125.562 73.819ZM105.386 83.3005L105.441 84.2668C106.448 84.2668 107.52 84.4228 108.501 84.2215C109.482 84.0202 110.323 83.3458 111.279 83.1194C111.937 83.0203 112.61 83.1312 113.201 83.4364C114.57 84.0907 115.839 84.9462 117.228 85.6055C119.779 86.8284 123.267 85.691 125.124 88.7056C125.159 88.761 125.35 88.7056 125.627 88.7056L123.835 82.752L122.26 83.6931C121.923 83.0892 121.581 82.4853 121.254 81.8763C121.206 81.7604 121.176 81.6384 121.163 81.5139C120.776 79.5764 119.382 78.9976 117.64 78.7309C115.899 78.4642 115.713 79.7374 115.124 80.744C114.908 81.1113 114.661 81.4687 114.475 81.7505H110.771L105.386 83.3005Z" fill="#212F84"/>
<path d="M125.823 43.3411L127.776 46.3607C129.744 45.1679 131.802 44.7099 133.548 47.2263L131.087 48.3989C132.929 49.4054 134.354 50.4119 135.929 50.9957C137.504 51.5795 137.831 52.5055 137.851 54.1562L130.549 51.1618L130.076 51.5896C130.507 52.367 130.986 53.1167 131.51 53.8342C132.703 55.2836 134.057 56.6122 135.199 58.0968C136.276 59.5009 136.095 61.0862 135.456 62.9986L131.475 56.5115C130.151 59.0782 128.616 60.1401 126.261 58.3333L126.86 66.6574H126.306C125.229 58.8819 122.497 51.1819 125.823 43.3411Z" fill="#212F84"/>
<path d="M136.316 39.0935C136.295 38.9703 136.295 38.8443 136.316 38.7211C138.657 31.766 136.623 25.4248 133.332 19.3957C131.112 15.2508 128.612 11.2624 125.848 7.45823C122.743 3.27106 118.325 1.68074 113.065 2.20414C108.445 2.66211 103.8 2.82819 99.1653 3.11002C99.0093 3.11002 98.8432 3.01943 98.5966 2.5212C100.937 2.01793 103.257 1.25297 105.642 1.0416C109.89 0.66918 114.168 0.538331 118.435 0.467874C121.525 0.412514 124.308 1.4744 126.276 3.91021C131.772 10.7748 136.115 18.3187 138.757 26.7283C139.337 28.5336 139.526 30.4418 139.311 32.3257C139.096 34.2097 138.481 36.0262 137.509 37.6542C137.154 38.1568 136.751 38.6237 136.306 39.0482L136.316 39.0935Z" fill="#212F84"/>
<path d="M122.109 95.3084C121.616 95.0893 121.102 94.9207 120.574 94.8051C119.88 94.7246 118.783 94.5283 118.561 94.8655C118.18 95.5969 118.039 96.4299 118.159 97.2459C118.278 97.9203 118.488 98.5755 118.783 99.1936L114.963 100.905C114.942 100.551 114.904 100.198 114.847 99.8478C114.706 99.1583 114.53 98.4739 114.344 97.7895C113.629 97.9253 112.933 98.1519 112.275 98.4638C111.449 99.0556 110.665 99.7047 109.93 100.406L109.427 100.069C109.89 99.1131 110.157 97.9706 110.856 97.2359C111.863 96.1992 111.581 95.5751 110.705 94.7598C110.172 94.2286 109.699 93.6395 109.296 93.0034C108.597 91.9667 108.863 90.9098 110.086 90.9904C113.171 91.1615 116.453 89.3346 119.321 91.7201C120.459 92.6662 121.45 93.7835 122.507 94.8252L122.109 95.3084Z" fill="#212F84"/>
<path d="M114.5 44.6797L116.01 41.8564L117.298 45.2282C115.84 45.6839 114.345 46.0073 112.829 46.1945C110.529 46.4814 109.246 45.9378 107.379 44.7199C104.092 42.576 100.202 42.7824 96.4375 43.9147C95.7867 44.0594 95.1253 44.1519 94.4597 44.1915C94.4193 44.0266 94.3957 43.8579 94.3892 43.6882C97.122 41.9721 99.9252 40.1654 103.282 40.5932C104.792 40.7794 105.979 40.8498 107.092 39.8181C108.053 38.9223 108.687 38.872 109.678 40.0094C110.313 40.7341 111.692 40.8096 113.121 41.3128L114.5 44.6797Z" fill="#212F84"/>
<path d="M136.296 39.0535C136.766 40.9961 137.236 42.9387 137.705 44.8813C137.967 45.9583 138.231 47.0336 138.496 48.1072L137.992 48.3538C137.586 47.8335 137.219 47.2834 136.895 46.7081C134.907 42.5059 132.98 38.2734 130.987 34.0711C128.652 29.1542 124.686 26.5624 119.321 26.0189C117.509 25.8327 115.698 25.6263 113.886 25.3898C113.238 25.307 112.614 25.0911 112.054 24.7557C114.981 23.8169 118.114 23.7314 121.088 24.5091C128.133 26.1799 133.236 30.0752 135.406 37.2568C135.654 37.8972 135.953 38.5165 136.301 39.1088L136.296 39.0535Z" fill="#212F84"/>
<path d="M101.36 4.44385C101.654 4.49586 101.943 4.57159 102.225 4.67032C106.926 6.78197 111.911 8.19108 117.021 8.85245C121.676 9.43121 124.263 12.9591 127.378 15.9686C123.679 16.6078 108.073 9.81369 101.36 4.44385Z" fill="#212F84"/>
<path d="M101.757 50.1854C102.522 51.0258 102.487 51.6398 101.153 51.6096C100.024 51.5623 98.8995 51.4412 97.7863 51.2473C95.9595 50.9654 94.1427 50.6232 92.5473 50.3464C94.2434 48.0566 99.427 46.5568 107.766 46.3455L106.82 47.7596C107.927 48.2629 108.903 48.8366 109.94 49.2241C112.758 50.286 113.242 52.1481 111.163 54.3725C110.503 54.9974 109.802 55.5775 109.065 56.1088L108.707 55.7414C109.21 55.1878 109.714 54.599 110.287 54.0907C111.42 53.0842 111.208 52.1531 110.192 51.2473C109.822 50.9086 109.43 50.5942 109.019 50.3062C108.133 49.6336 107.122 49.1443 106.045 48.8668L109.11 52.2035L108.607 52.7772C107.54 51.9267 106.488 51.0611 105.411 50.2256C104.334 49.3902 103.081 48.5095 101.757 50.1854Z" fill="#212F84"/>
<path d="M58.2699 64.9919C57.354 61.8263 57.9277 60.3769 60.283 59.6874C60.6655 59.5767 61.5412 59.9491 61.6267 60.2511C61.7978 60.8701 61.8129 61.7609 61.4607 62.2239C61.1084 62.6869 60.1169 62.7272 59.5734 63.1348C59.0299 63.5425 58.8034 64.2068 58.2699 64.9919Z" fill="#212F84"/>
</g>
<defs>
<clipPath id="clip0_4008_1148">
<rect width="145.348" height="50.7408" fill="white" transform="matrix(0.94542 0.325854 -0.32685 0.945076 16.5847 114.684)"/>
</clipPath>
<clipPath id="clip1_4008_1148">
<rect width="112.269" height="181.171" fill="white" transform="translate(36.5006)"/>
</clipPath>
</defs>
</svg>
