<svg width="15" height="7" viewBox="0 0 15 7" fill="none" xmlns="http://www.w3.org/2000/svg">
<path d="M14.5937 3.89789H4.09331C3.86985 3.89789 3.68703 3.71915 3.68703 3.50069C3.68703 3.28223 3.86985 3.10349 4.09331 3.10349H14.5937C14.8172 3.10349 15 3.28223 15 3.50069C15 3.71915 14.8172 3.89789 14.5937 3.89789Z" fill="#212F84"/>
<path fill-rule="evenodd" clip-rule="evenodd" d="M0.406284 3.10349C0.62974 3.10349 0.812568 3.28223 0.812568 3.50069C0.812568 3.71915 0.62974 3.89789 0.406284 3.89789C0.182828 3.89789 0 3.71915 0 3.50069C0 3.28223 0.180797 3.10349 0.406284 3.10349Z" fill="#212F84"/>
<path d="M2.24878 3.89789C2.47317 3.89789 2.65507 3.72005 2.65507 3.50069C2.65507 3.28132 2.47317 3.10349 2.24878 3.10349C2.0244 3.10349 1.8425 3.28132 1.8425 3.50069C1.8425 3.72005 2.0244 3.89789 2.24878 3.89789Z" fill="#212F84"/>
<path d="M11.894 7C11.8005 7 11.7071 6.96822 11.6319 6.90467C11.4613 6.76168 11.441 6.51145 11.5852 6.34462L14.0595 3.50069L11.5852 0.654766C11.4389 0.487943 11.4613 0.237709 11.6319 0.0947177C11.8025 -0.0482735 12.0585 -0.026427 12.2048 0.140396L14.9025 3.24251C15.0305 3.39146 15.0305 3.60793 14.9025 3.75688L12.2048 6.86098C12.1235 6.95432 12.0098 7 11.894 7Z" fill="#212F84"/>
</svg>
