<svg width="16" height="16" viewBox="0 0 16 16" fill="none" xmlns="http://www.w3.org/2000/svg">
<path d="M2.82667 3.84H1.06667C0.48 3.84 0.0533335 3.36 0.0533335 2.82667V1.01333C2.02656e-07 0.48 0.426666 0 1.01333 0H2.77333C3.36 0 3.78667 0.48 3.78667 1.01333V2.82667C3.84 3.36 3.36 3.84 2.82667 3.84ZM2.77333 1.01333L1.01333 1.06667L1.06667 2.82667L2.77333 2.77333V1.01333ZM2.82667 2.77333C2.77333 2.77333 2.77333 2.77333 2.82667 2.77333V2.77333ZM16 2.08C16 1.76 15.7867 1.54667 15.4667 1.54667H5.86667C5.54667 1.54667 5.33333 1.76 5.33333 2.08C5.33333 2.4 5.54667 2.61333 5.86667 2.61333H15.4667C15.7867 2.61333 16 2.34667 16 2.08ZM2.82667 9.92H1.06667C0.48 9.92 0.0533335 9.44 0.0533335 8.90667V7.14667C0.0533335 6.56 0.533333 6.13333 1.06667 6.13333H2.82667C3.41333 6.13333 3.84 6.61333 3.84 7.14667V8.90667C3.84 9.44 3.36 9.92 2.82667 9.92ZM2.77333 7.09333L1.01333 7.14667L1.06667 8.90667L2.77333 8.85333V7.09333ZM2.82667 8.85333C2.77333 8.85333 2.77333 8.85333 2.82667 8.85333V8.85333ZM16 8.16C16 7.84 15.7867 7.62667 15.4667 7.62667H5.86667C5.54667 7.62667 5.33333 7.84 5.33333 8.16C5.33333 8.48 5.54667 8.69333 5.86667 8.69333H15.4667C15.7867 8.69333 16 8.42667 16 8.16ZM2.82667 16H1.06667C0.426667 16 0 15.52 0 14.9867V13.1733C0 12.5867 0.48 12.16 1.01333 12.16H2.77333C3.36 12.16 3.78667 12.64 3.78667 13.1733V14.9867C3.84 15.52 3.36 16 2.82667 16ZM2.77333 13.1733L1.01333 13.2267L1.06667 14.9867L2.77333 14.9333V13.1733ZM2.82667 14.9333C2.77333 14.9333 2.77333 14.9333 2.82667 14.9333V14.9333ZM16 14.24C16 13.92 15.7867 13.7067 15.4667 13.7067H5.86667C5.54667 13.7067 5.33333 13.92 5.33333 14.24C5.33333 14.56 5.54667 14.7733 5.86667 14.7733H15.4667C15.7867 14.7733 16 14.5067 16 14.24Z" fill="#212F84"/>
</svg>
