<svg width="16" height="16" viewBox="0 0 16 16" fill="none" xmlns="http://www.w3.org/2000/svg">
<path d="M15.9372 14.4893L14.8388 11.2926C15.3671 10.2247 15.6465 9.03432 15.6484 7.83657C15.6515 5.77401 14.8535 3.82373 13.4012 2.3451C11.9486 0.866199 10.013 0.0337616 7.951 0.0010429C6.87065 -0.0163008 5.82233 0.182761 4.83357 0.592042C3.87991 0.986823 3.02469 1.55867 2.29169 2.29167C1.55865 3.02467 0.986802 3.87988 0.59205 4.83354C0.182766 5.82229 -0.0160786 6.87113 0.00101521 7.95094C0.0336717 10.013 0.866145 11.9486 2.34506 13.4011C3.82082 14.8506 5.76608 15.6484 7.82422 15.6483C7.82825 15.6483 7.8325 15.6483 7.83653 15.6483C9.03429 15.6465 10.2246 15.3671 11.2926 14.8388L14.4893 15.9372C14.6122 15.9794 14.7382 16 14.8629 16C15.1589 16 15.4469 15.8837 15.6653 15.6652C15.9756 15.355 16.0798 14.9043 15.9372 14.4893ZM14.9945 14.9945C14.963 15.026 14.8957 15.0737 14.7975 15.04L11.4102 13.8761C11.3601 13.8589 11.308 13.8503 11.2561 13.8503C11.1795 13.8503 11.1033 13.8689 11.0342 13.9054C10.0553 14.4233 8.94901 14.698 7.83503 14.6997C4.09907 14.7057 1.00868 11.6713 0.94949 7.93591C0.919708 6.05657 1.63459 4.29029 2.96244 2.96245C4.29029 1.63464 6.05605 0.919886 7.93594 0.949605C11.6713 1.00882 14.7055 4.09766 14.6997 7.8351C14.6979 8.9491 14.4233 10.0553 13.9054 11.0343C13.8441 11.1501 13.8335 11.2862 13.8761 11.4102L15.04 14.7975C15.0738 14.8956 15.026 14.9631 14.9945 14.9945Z" fill="#212F84"/>
<path d="M7.74716 11.3359C7.49906 11.3359 7.26137 11.554 7.27284 11.8102C7.28434 12.0672 7.48125 12.2845 7.74716 12.2845C7.99525 12.2845 8.23294 12.0663 8.22147 11.8102C8.20997 11.5532 8.01306 11.3359 7.74716 11.3359Z" fill="#212F84"/>
<path d="M7.74716 3.98982C6.44593 3.98982 5.3873 5.04845 5.3873 6.34966C5.3873 6.6116 5.59967 6.82398 5.86161 6.82398C6.12355 6.82398 6.33593 6.6116 6.33593 6.34966C6.33593 5.57154 6.96903 4.93845 7.74716 4.93845C8.52528 4.93845 9.15838 5.57154 9.15838 6.34966C9.15838 7.12779 8.52528 7.76088 7.74716 7.76088C7.48522 7.76088 7.27284 7.97326 7.27284 8.23519V10.1697C7.27284 10.4317 7.48522 10.644 7.74716 10.644C8.00909 10.644 8.22147 10.4317 8.22147 10.1697V8.6616C9.29613 8.44144 10.107 7.48847 10.107 6.34966C10.107 5.04845 9.04838 3.98982 7.74716 3.98982Z" fill="#212F84"/>
</svg>
