<svg width="16" height="16" viewBox="0 0 16 16" fill="none" xmlns="http://www.w3.org/2000/svg">
<path d="M13.6565 2.34347C12.1456 0.832533 10.1365 0 8 0C5.86347 0 3.8544 0.832533 2.34347 2.34347C0.832533 3.8544 0 5.86347 0 8C0 10.1365 0.832533 12.1456 2.34347 13.6565C3.8544 15.1675 5.86347 16 8 16C10.1365 16 12.1456 15.1675 13.6565 13.6565C15.1675 12.1456 16 10.1365 16 8C16 5.86347 15.1675 3.8544 13.6565 2.34347ZM11.7488 10.9952C13.1445 9.25013 13.1445 6.7504 11.7488 5.00533L13.2613 3.4928C14.3403 4.74827 14.9333 6.32747 14.9333 8C14.9333 9.67253 14.3397 11.2517 13.2613 12.5072L11.7488 10.9952ZM5.35947 5.36053C6.81547 3.90507 9.18453 3.90507 10.6395 5.36053C12.0944 6.816 12.0949 9.18453 10.6395 10.64C9.184 12.096 6.81493 12.0955 5.35947 10.64C3.904 9.18453 3.904 6.816 5.35947 5.36053ZM12.5067 2.7392L10.9941 4.25173C9.24907 2.856 6.74987 2.856 5.0048 4.25173L3.49227 2.7392C4.74773 1.6608 6.3264 1.0672 7.99947 1.0672C9.67253 1.0672 11.2512 1.6608 12.5067 2.7392ZM2.73813 3.49333L4.25067 5.00587C2.85493 6.75093 2.85493 9.25067 4.25067 10.9957L2.73813 12.5083C1.6592 11.2528 1.06613 9.6736 1.06613 8.00107C1.06613 6.32853 1.65973 4.7488 2.73813 3.49333ZM3.49227 13.2619L5.0048 11.7493C5.87733 12.4475 6.93813 12.7979 7.99947 12.7979C9.0608 12.7979 10.1216 12.4469 10.9941 11.7493L12.5067 13.2619C11.2512 14.3403 9.67253 14.9339 7.99947 14.9339C6.3264 14.9339 4.74773 14.3403 3.49227 13.2619Z" fill="#212F84"/>
</svg>
