<svg width="16" height="16" viewBox="0 0 16 16" fill="none" xmlns="http://www.w3.org/2000/svg">
<path d="M12.197 16H1.80303C0.82197 16 0 15.201 0 14.1889V6.11902C0 5.58635 0.238636 5.08032 0.662879 4.73408L5.85985 0.419476C6.52273 -0.139825 7.47727 -0.139825 8.14015 0.419476L13.3371 4.70745C13.7614 5.05368 14 5.55972 14 6.09238V14.1623C14 15.201 13.178 16 12.197 16ZM7 1.08531C6.84091 1.08531 6.6553 1.13858 6.52273 1.24511L1.32576 5.55972C1.16667 5.69288 1.06061 5.90595 1.06061 6.11902V14.1889C1.06061 14.5884 1.37879 14.9347 1.80303 14.9347H12.197C12.5947 14.9347 12.9394 14.6151 12.9394 14.1889V6.11902C12.9394 5.90595 12.8333 5.69288 12.6742 5.55972L7.47727 1.24511C7.3447 1.13858 7.15909 1.08531 7 1.08531Z" fill="#5561AB"/>
<path d="M10.1818 13.6563H3.81818C3.52651 13.6563 3.28788 13.4166 3.28788 13.1236C3.28788 12.8306 3.52651 12.5909 3.81818 12.5909H10.1818C10.4735 12.5909 10.7121 12.8306 10.7121 13.1236C10.7121 13.4166 10.4735 13.6563 10.1818 13.6563Z" fill="#5561AB"/>
</svg>
