<svg width="71" height="56" viewBox="0 0 71 56" fill="none" xmlns="http://www.w3.org/2000/svg">
<g filter="url(#filter0_d_4057_13)">
<path d="M52.8136 17.015L21.4209 6.12944C19.851 5.58562 18.1217 6.40615 17.5669 7.95979L16.7722 10.1862L53.8609 23.0469L54.6559 20.8207C55.2105 19.2668 54.3841 17.5597 52.8136 17.015Z" fill="url(#paint0_linear_4057_13)"/>
<path d="M33.4387 5.42365C33.6542 4.82022 34.0943 4.33522 34.6779 4.05807C35.2621 3.78084 35.9191 3.74448 36.5292 3.95596L42.4146 5.9967C43.674 6.43352 44.3366 7.8024 43.8919 9.04822L43.3559 10.5496L46.221 11.5432L46.757 10.0418C47.7597 7.23309 46.2658 4.1467 43.4267 3.16211L37.5411 1.1214C36.1661 0.644553 34.6838 0.725718 33.3676 1.351C32.0516 1.97584 31.0593 3.06945 30.5736 4.43031L30.0379 5.93146L32.9027 6.92504L33.4387 5.42365Z" fill="url(#paint1_linear_4057_13)"/>
</g>
<defs>
<filter id="filter0_d_4057_13" x="0.772156" y="0.814697" width="70.0563" height="54.2322" filterUnits="userSpaceOnUse" color-interpolation-filters="sRGB">
<feFlood flood-opacity="0" result="BackgroundImageFix"/>
<feColorMatrix in="SourceAlpha" type="matrix" values="0 0 0 0 0 0 0 0 0 0 0 0 0 0 0 0 0 0 127 0" result="hardAlpha"/>
<feOffset dy="16"/>
<feGaussianBlur stdDeviation="8"/>
<feComposite in2="hardAlpha" operator="out"/>
<feColorMatrix type="matrix" values="0 0 0 0 0.129412 0 0 0 0 0.184314 0 0 0 0 0.517647 0 0 0 0.16 0"/>
<feBlend mode="normal" in2="BackgroundImageFix" result="effect1_dropShadow_4057_13"/>
<feBlend mode="normal" in="SourceGraphic" in2="effect1_dropShadow_4057_13" result="shape"/>
</filter>
<linearGradient id="paint0_linear_4057_13" x1="20.949" y1="34.5212" x2="56.0045" y2="30.8235" gradientUnits="userSpaceOnUse">
<stop stop-color="#ED2F2F"/>
<stop offset="1" stop-color="#FF8383"/>
</linearGradient>
<linearGradient id="paint1_linear_4057_13" x1="20.949" y1="34.5212" x2="56.0045" y2="30.8235" gradientUnits="userSpaceOnUse">
<stop stop-color="#ED2F2F"/>
<stop offset="1" stop-color="#FF8383"/>
</linearGradient>
</defs>
</svg>
