<svg width="96" height="87" viewBox="0 0 96 87" fill="none" xmlns="http://www.w3.org/2000/svg">
<path d="M2.63435 41.6203H17.6779V45.8491H7.31378V51.5685H15.8061V55.7973H7.31378V64.4976H2.63435V41.6203ZM22.5707 41.6203H27.2501V64.4976H22.5707V41.6203ZM33.8753 41.6203H41.3624C43.7887 41.6203 45.9494 42.094 47.8442 43.0415C49.7391 43.9889 51.2065 45.3177 52.2464 47.0277C53.3094 48.7377 53.8409 50.725 53.8409 52.9896C53.8409 55.208 53.3094 57.1953 52.2464 58.9516C51.2065 60.6847 49.7391 62.0481 47.8442 63.0417C45.9494 64.0123 43.7887 64.4976 41.3624 64.4976H33.8753V41.6203ZM41.3277 60.2687C42.8528 60.2687 44.1931 59.9683 45.3485 59.3675C46.5271 58.7667 47.4283 57.9232 48.0522 56.8372C48.6992 55.728 49.0228 54.4454 49.0228 52.9896C49.0228 50.7712 48.318 49.0265 46.9084 47.7556C45.5219 46.4846 43.6616 45.8491 41.3277 45.8491H38.5547V60.2687H41.3277ZM59.1938 41.6203H74.5839V45.8491H63.8732V50.4939H71.7416V54.4801H63.8732V60.2687H74.9999V64.4976H59.1938V41.6203ZM80.4503 41.6203H85.1297V60.2687H95.1472V64.4976H80.4503V41.6203Z" fill="#212F84"/>
<rect x="2.8634" y="70.229" width="92.2323" height="16.2763" fill="#212F84"/>
<path d="M13.5187 81.5854V74.2603H15.694C16.9075 74.2603 17.8731 74.6007 18.5908 75.2814C19.3159 75.9547 19.6784 76.8315 19.6784 77.9118C19.6784 78.9846 19.3159 79.8651 18.5908 80.5533C17.8657 81.2414 16.9001 81.5854 15.694 81.5854H13.5187ZM14.3844 80.8085H15.6829C16.63 80.8085 17.381 80.5385 17.9359 79.9983C18.4983 79.4582 18.7794 78.7627 18.7794 77.9118C18.7794 77.0535 18.502 76.3616 17.947 75.8363C17.3921 75.3036 16.6374 75.0372 15.6829 75.0372H14.3844V80.8085ZM26.6411 74.2603H27.5068V81.7075H27.196L22.5345 76.0916V81.5854H21.6688V74.1382H21.9796L26.6411 79.7653V74.2603ZM29.4158 80.1315L30.0596 79.6543C30.6071 80.4904 31.2878 80.9084 32.1017 80.9084C32.5457 80.9084 32.9008 80.7974 33.1672 80.5755C33.441 80.3535 33.5779 80.0575 33.5779 79.6876C33.5779 79.3768 33.4891 79.1437 33.3115 78.9883C33.1413 78.8256 32.8232 78.6295 32.357 78.4001L31.5357 78.0117C30.9808 77.7527 30.5664 77.4752 30.2926 77.1793C30.0189 76.8833 29.882 76.5059 29.882 76.0472C29.882 75.4848 30.0966 75.0261 30.5257 74.6709C30.9549 74.3158 31.4765 74.1382 32.0906 74.1382C32.5716 74.1382 33.0118 74.2529 33.4114 74.4823C33.8183 74.7042 34.1439 75.0039 34.3881 75.3813L33.7554 75.8585C33.3411 75.2444 32.7825 74.9373 32.0795 74.9373C31.7096 74.9373 31.3988 75.0335 31.1472 75.2259C30.9031 75.4183 30.781 75.6772 30.781 76.0028C30.781 76.2174 30.8291 76.3949 30.9253 76.5355C31.0141 76.6687 31.1287 76.7797 31.2693 76.8685C31.4099 76.9573 31.6393 77.0794 31.9575 77.2347L32.7677 77.6232C33.367 77.9192 33.7998 78.2188 34.0662 78.5222C34.34 78.8256 34.4769 79.2066 34.4769 79.6654C34.4769 80.2647 34.2549 80.7567 33.8109 81.1415C33.367 81.5189 32.801 81.7075 32.1128 81.7075C31.5505 81.7075 31.0326 81.5707 30.559 81.2969C30.0855 81.0157 29.7044 80.6273 29.4158 80.1315ZM39.6033 80.1315L40.247 79.6543C40.7945 80.4904 41.4752 80.9084 42.2892 80.9084C42.7331 80.9084 43.0883 80.7974 43.3546 80.5755C43.6284 80.3535 43.7653 80.0575 43.7653 79.6876C43.7653 79.3768 43.6765 79.1437 43.4989 78.9883C43.3287 78.8256 43.0106 78.6295 42.5444 78.4001L41.7231 78.0117C41.1682 77.7527 40.7538 77.4752 40.4801 77.1793C40.2063 76.8833 40.0694 76.5059 40.0694 76.0472C40.0694 75.4848 40.284 75.0261 40.7131 74.6709C41.1423 74.3158 41.6639 74.1382 42.2781 74.1382C42.759 74.1382 43.1992 74.2529 43.5988 74.4823C44.0058 74.7042 44.3313 75.0039 44.5755 75.3813L43.9429 75.8585C43.5285 75.2444 42.9699 74.9373 42.267 74.9373C41.897 74.9373 41.5862 75.0335 41.3347 75.2259C41.0905 75.4183 40.9684 75.6772 40.9684 76.0028C40.9684 76.2174 41.0165 76.3949 41.1127 76.5355C41.2015 76.6687 41.3162 76.7797 41.4567 76.8685C41.5973 76.9573 41.8267 77.0794 42.1449 77.2347L42.9551 77.6232C43.5544 77.9192 43.9873 78.2188 44.2536 78.5222C44.5274 78.8256 44.6643 79.2066 44.6643 79.6654C44.6643 80.2647 44.4423 80.7567 43.9984 81.1415C43.5544 81.5189 42.9884 81.7075 42.3002 81.7075C41.7379 81.7075 41.22 81.5707 40.7464 81.2969C40.2729 81.0157 39.8918 80.6273 39.6033 80.1315ZM46.791 81.5854V74.2603H51.4857V75.0372H47.6567V77.2791H50.5868V78.0561H47.6567V80.8085H51.6189V81.5854H46.791ZM59.2372 81.5854H58.2272L55.9519 78.5111H54.387V81.5854H53.5213V74.2603H56.0962C56.7991 74.2603 57.3652 74.4601 57.7943 74.8596C58.2235 75.2518 58.4381 75.7586 58.4381 76.3801C58.4381 76.8759 58.3012 77.305 58.0274 77.6676C57.7536 78.0228 57.3763 78.2706 56.8953 78.4112L59.2372 81.5854ZM54.387 75.0372V77.7342H56.0629C56.5291 77.7342 56.8916 77.6158 57.1506 77.379C57.4096 77.1349 57.5391 76.8056 57.5391 76.3912C57.5391 75.9843 57.4059 75.6587 57.1395 75.4146C56.8805 75.163 56.5217 75.0372 56.0629 75.0372H54.387ZM65.5292 74.2603H66.4837L63.3094 81.7075H62.9876L59.8133 74.2603H60.7678L63.1541 80.0094L65.5292 74.2603ZM68.2826 81.5854V74.2603H69.1483V81.5854H68.2826ZM71.1216 77.9229C71.0994 76.8796 71.4656 75.9843 72.2203 75.237C72.9824 74.4897 73.8851 74.1234 74.9284 74.1382C75.5721 74.1382 76.1604 74.2788 76.6931 74.56C77.2333 74.8411 77.6587 75.2259 77.9695 75.7142L77.3257 76.2248C76.7264 75.3665 75.931 74.9373 74.9395 74.9373C74.1108 74.9373 73.4153 75.2222 72.853 75.7919C72.298 76.3616 72.0206 77.072 72.0206 77.9229C72.0206 78.7738 72.298 79.4841 72.853 80.0538C73.4153 80.6236 74.1108 80.9084 74.9395 80.9084C75.931 80.9084 76.7264 80.4793 77.3257 79.621L77.9695 80.1315C77.6587 80.6199 77.2333 81.0046 76.6931 81.2858C76.1604 81.567 75.5721 81.7075 74.9284 81.7075C73.8851 81.7223 72.9824 81.3561 72.2203 80.6088C71.4656 79.8614 71.0994 78.9661 71.1216 77.9229ZM79.9766 81.5854V74.2603H84.6714V75.0372H80.8423V77.2791H83.7724V78.0561H80.8423V80.8085H84.8046V81.5854H79.9766Z" fill="white"/>
<g clip-path="url(#clip0_4002_12)">
<path d="M41.2345 10.838C41.6471 10.5794 41.3954 10.3318 41.2648 10.0898C41.0667 9.72395 41.0612 9.7267 40.4547 9.74458L41.0227 10.7623C40.3351 10.7623 39.7492 10.7623 39.1578 10.7623C38.7631 10.7623 38.3684 10.7981 37.975 10.8159C37.6234 10.8535 37.2694 10.8655 36.916 10.8517C36.1404 10.7719 35.5407 10.4061 35.2299 9.65381C35.1465 9.42519 35.0152 9.21701 34.8448 9.04317C34.8173 9.21096 34.7829 9.37875 34.7609 9.54791C34.7429 9.69554 34.691 9.837 34.6091 9.96117C34.5273 10.0853 34.4177 10.1889 34.2892 10.2636C34.1606 10.3384 34.0164 10.3823 33.868 10.392C33.7196 10.4017 33.571 10.3769 33.4338 10.3195C33.3313 10.2592 33.2505 10.1683 33.2027 10.0595C33.1291 9.88892 33.0662 9.71392 33.0143 9.53553C32.6471 9.51903 32.2771 9.49015 31.9141 9.49152C31.6828 9.49815 31.4526 9.52577 31.2264 9.57404C30.4727 9.71157 29.792 9.74458 29.1813 9.09268C28.8746 8.76536 28.3369 8.66084 27.9202 8.42566C27.5034 8.19048 27.117 7.92092 26.725 7.67199C26.813 7.29103 27.0661 7.33091 27.2834 7.33091C27.762 7.33091 28.2461 7.36805 28.7206 7.35017C29.1538 7.33366 29.5843 7.2649 30.0161 7.21264C30.5662 7.148 30.8757 6.84543 30.95 6.24992C30.6607 5.85088 30.2777 5.52922 29.8347 5.31334C29.3916 5.09746 28.9023 4.99402 28.4098 5.01214C27.5997 5.02039 26.791 5.09466 25.9796 4.93375C25.5808 4.85398 25.1544 4.942 24.7336 4.94338C23.6333 4.94338 22.5331 4.94338 21.3984 4.94338C21.0354 5.71493 20.3367 6.18116 19.5253 6.47272C18.9298 6.68314 18.5075 7.00084 18.3356 7.62248C18.2105 8.07633 17.8556 8.25237 17.4307 8.23174C17.2658 8.22052 17.1008 8.25347 16.9529 8.32721C16.8049 8.40094 16.6793 8.51278 16.589 8.65121C16.434 8.84778 16.2688 9.03601 16.0939 9.21509C15.673 9.65656 15.4874 9.67581 14.9702 9.35262C14.8492 9.2756 14.7241 9.20546 14.6195 9.14357C14.548 9.16558 14.4958 9.1642 14.4724 9.19033C14.285 9.41474 14.0395 9.58333 13.7627 9.67768C13.486 9.77203 13.1886 9.78851 12.9032 9.72533C12.7576 9.71298 12.6113 9.71298 12.4658 9.72533C11.5787 9.7102 11.2679 9.94675 11.0259 10.8146C10.909 11.2272 10.7852 11.6398 10.6587 12.0757C10.429 12.0757 10.2667 12.0881 10.1085 12.0757C9.67412 12.0319 9.23536 12.083 8.82264 12.2255C8.40992 12.3679 8.03309 12.5984 7.71825 12.9009C7.40192 13.1884 7.10348 13.5473 6.57811 13.4607C6.39245 13.1856 6.63175 13.0054 6.7404 12.8033C7.06772 12.1981 6.91094 11.8722 6.22191 11.9382C5.61127 11.9973 4.99101 12.1596 4.4959 12.5818C4.02279 12.9848 3.42178 13.0082 2.97481 12.6162C2.91017 12.5585 2.83727 12.4209 2.86753 12.3645C2.93404 12.2725 3.0218 12.198 3.12334 12.1472C3.16276 12.1322 3.20632 12.1322 3.24574 12.1472C3.84125 12.3164 4.34599 12.0496 4.85348 11.8117C5.21243 11.6439 5.60027 11.5174 5.91934 11.2918C6.58774 10.8187 7.24789 10.9741 7.92592 11.2162C7.97571 11.2263 8.02639 11.2313 8.0772 11.2313C8.1941 11.0126 8.0772 10.8008 8.02494 10.5945C7.97406 10.458 7.91196 10.326 7.83927 10.1998C7.67699 9.81885 7.35654 9.42138 7.40192 9.07756C7.48032 8.43529 7.6426 7.76826 8.16385 7.27177C8.62595 6.82342 8.97803 6.18941 9.51852 5.91435C10.3877 5.47012 11.1895 4.92137 12.045 4.46752C12.4768 4.23784 12.9898 4.1457 13.4753 4.0343C14.2152 3.86514 14.9345 3.67259 15.4007 2.98906L16.1214 3.18573C16.3387 2.99044 16.534 2.80615 16.7375 2.63561C17.2043 2.2423 17.794 2.0248 18.4044 2.02085C19.2777 1.99196 20.1524 1.94658 21.0175 1.87231C21.5119 1.83709 22.0019 1.75512 22.4808 1.62751C23.0804 1.45834 23.6581 1.21492 24.2453 0.996241C24.3622 0.953606 24.5286 0.932977 24.5823 0.846332C24.9495 0.2577 25.5546 0.542389 26.047 0.43374C26.3853 0.362224 26.7553 0.43374 27.0936 0.3691C27.4759 0.279479 27.8759 0.301436 28.2461 0.432365C29.1249 0.751436 30.045 0.741809 30.9555 0.697799C31.4836 0.673044 31.8384 0.807824 32.0255 1.31531C32.0706 1.39222 32.1266 1.46218 32.1919 1.52298C32.654 1.10076 33.2344 1.01687 33.7845 0.851834C33.8931 0.812365 34.0119 0.811462 34.1211 0.849277C34.2303 0.887093 34.3232 0.961323 34.3841 1.05951C34.4969 1.20941 34.6165 1.35382 34.7389 1.49548C35.0993 1.91632 35.3427 1.9452 35.8131 1.63301C36.1376 1.41984 36.4663 1.21216 36.8404 0.971485L37.0893 1.57662C37.6615 1.50373 38.2253 1.4776 38.7658 1.35107C38.9948 1.28044 39.2404 1.28477 39.4667 1.36344C39.6931 1.44211 39.8884 1.591 40.0243 1.78842C40.2993 2.12674 40.6665 2.30003 41.0667 2.44169C41.191 2.49401 41.3253 2.51842 41.46 2.51319C41.5947 2.50796 41.7267 2.47323 41.8465 2.41143C42.1244 2.26835 42.4121 2.14518 42.7075 2.04285C42.8065 2.00847 42.9399 2.07586 43.0568 2.09511L43.0774 2.23264L42.3664 2.64524C42.5342 2.86529 42.702 2.95743 42.9509 2.84741C43.0094 2.82507 43.0648 2.7955 43.1159 2.75939C43.8394 2.18588 44.4913 2.57785 45.1253 2.93268C45.3804 3.09936 45.6239 3.28315 45.8542 3.4828L46.4043 3.29713L46.3355 3.92565C46.777 4.02192 47.1951 4.13057 47.6187 4.20071C47.8938 4.24472 48.0918 4.34787 48.195 4.6133C48.6516 5.76856 49.6019 6.50298 50.4903 7.2869C50.6648 7.43229 50.8705 7.53537 51.0914 7.5881C51.779 7.75863 52.4667 7.88929 53.1901 7.79852C53.7251 7.73113 54.2738 7.77239 54.8129 7.727C55.1829 7.69537 55.4621 7.78477 55.6533 8.11209C55.7151 8.21799 55.7908 8.31701 55.8912 8.46692L56.2254 7.85491C56.4454 7.98419 56.638 8.10659 56.8333 8.20974C57.3119 8.45729 57.807 8.67459 58.2746 8.9414C58.7422 9.20821 59.2263 9.53278 59.6925 9.84223C60.079 10.0994 60.0749 10.1077 60.5177 9.91924C61.6262 10.3318 62.1227 11.3771 62.8392 12.2311C63.278 11.9478 63.1886 11.4527 63.5352 11.0979H62.8888C62.8489 10.2191 62.0361 10.0128 61.5135 9.55341C61.7253 8.9469 61.4777 8.5013 60.8657 8.49855C60.3087 8.49855 59.958 8.30188 59.7847 7.77101C59.6623 7.39555 59.4024 7.28828 58.9966 7.22089C58.3966 7.1229 57.7816 7.17825 57.2087 7.3818C57.1015 6.87294 56.6806 6.83168 56.2653 6.70652L56.6297 6.14815C56.7967 6.17523 56.9613 6.21523 57.1221 6.2678C57.3022 6.35061 57.4969 6.39678 57.695 6.40363C57.8931 6.41048 58.0906 6.37786 58.276 6.30768C58.4095 6.24712 58.5597 6.23414 58.7016 6.27093C58.8435 6.30772 58.9685 6.39205 59.0558 6.50985C59.4587 6.96096 60.0364 7.12324 60.5686 7.35154C61.006 7.53859 61.4969 7.64723 61.5313 8.26887C61.5313 8.3679 61.7142 8.48205 61.8353 8.54394C62.0799 8.66003 62.3322 8.75928 62.5903 8.841C62.809 8.91252 62.9025 9.05142 62.9947 9.26322C63.344 10.0692 63.8198 10.7486 64.8266 10.7761C64.907 10.7866 64.9865 10.8031 65.0645 10.8256V11.7058L63.3495 11.9217C63.8075 12.4196 64.1623 12.8459 64.5653 13.2186C64.7028 13.341 64.9545 13.3561 65.158 13.3699C65.577 13.3914 65.9739 13.5644 66.2748 13.8568C66.664 14.2033 67.0724 14.5279 67.4864 14.8442C67.8412 15.1193 68.1507 15.4081 68.2882 15.851C68.313 15.9736 68.3814 16.083 68.4808 16.1589C68.5803 16.2348 68.7039 16.272 68.8287 16.2635C69.1327 16.2635 69.2042 16.0504 69.3101 15.851C69.3678 15.7437 69.4187 15.6323 69.482 15.5044C69.1143 15.3039 68.7365 15.1226 68.3501 14.9611C67.7078 14.7287 67.5662 14.235 67.5332 13.5624C68.187 13.8013 68.7926 14.1558 69.3211 14.609C69.416 14.6847 69.4792 14.8263 69.5824 14.8607C70.27 15.0904 70.6744 15.6722 71.1667 16.1411C71.4015 16.3724 71.6765 16.5588 71.9782 16.6913C72.6638 16.9958 73.3335 17.3351 73.9847 17.7076C74.4358 17.9607 74.8883 18.1202 75.4096 18.0349C75.6348 17.995 75.8658 18.0019 76.0882 18.0551C76.3106 18.1083 76.5197 18.2068 76.7024 18.3444C76.932 18.4882 77.1764 18.6072 77.4313 18.6992C77.7223 18.8085 77.9722 19.0056 78.1464 19.2631C78.4655 19.75 78.9799 19.8669 79.5011 19.6303C80.1489 19.336 80.8462 19.3387 81.5159 19.3855C81.8639 19.4102 82.2393 19.6991 82.5117 19.9617C82.8445 20.2822 82.8032 20.4775 82.524 20.8956C82.3989 21.084 82.2751 21.2724 82.1458 21.4677L82.6959 21.8473C82.2748 21.9049 81.8571 21.9848 81.4444 22.0866C81.0511 22.2049 81.1487 22.5707 81.124 22.9049L81.7924 23.2432C81.879 23.1772 81.967 23.1401 82.0055 23.0754C82.3521 22.4786 82.8692 22.5336 83.4304 22.6697C84.5205 22.9356 85.6144 23.1882 86.7119 23.4275C86.9324 23.48 87.1628 23.4738 87.3803 23.4096C87.5453 23.35 87.7219 23.3289 87.8964 23.348C88.0709 23.3671 88.2387 23.4258 88.387 23.5197C88.7652 23.7301 89.1406 23.9598 89.611 23.9405C89.6805 23.9449 89.7478 23.9659 89.8074 24.0018C89.8671 24.0377 89.9171 24.0875 89.9535 24.1468C90.1047 24.5594 90.4733 24.7244 90.7663 24.9816C91.0825 25.2486 91.379 25.5382 91.6533 25.8481C92.2777 26.5852 92.9819 27.0858 94.0189 26.8741C94.5195 26.7737 94.7794 26.9456 95.0132 27.3967C95.1507 27.6635 95.1301 27.8753 94.8606 28.0348C94.6067 28.1716 94.3885 28.3661 94.2238 28.6028C94.1151 28.7637 93.7947 28.8284 93.5609 28.8504C92.4414 28.9521 91.3178 29.0168 90.1955 29.1089C89.5684 29.1598 88.9577 29.2836 88.4255 29.659C88.3237 29.7306 88.1766 29.7787 88.1271 29.8763C87.7791 30.5558 87.1189 30.3962 86.5427 30.5392L86.3722 29.9066C86.3116 29.9066 86.2525 29.9066 86.2346 29.9231C85.6845 30.6754 84.8593 30.5778 84.0836 30.5791C84.0218 30.5791 83.9557 30.5351 83.9007 30.5489C83.0755 30.762 82.3466 30.3852 81.6067 30.1363C81.0495 29.9591 80.4645 29.8854 79.8807 29.919C79.4475 29.9327 79.0115 29.8791 78.5755 29.8585C77.9951 29.8323 77.4148 29.7746 76.8358 29.7952C75.9831 29.8268 75.1318 29.9204 74.2791 29.9795C73.6863 30.0208 73.0922 30.04 72.5008 30.0895C72.1286 30.1047 71.7628 30.192 71.4239 30.3467C70.9931 30.5642 70.5053 30.6426 70.028 30.5709C69.3706 30.4746 68.7036 30.4471 68.0393 30.3907L67.7023 30.8212L64.3232 31.0729C64.9682 30.1487 65.3382 29.2588 66.1606 28.6413C66.95 28.0486 67.7367 27.4943 68.6678 27.1505C69.4462 26.863 69.8024 26.2359 69.9468 25.441C69.8483 25.3523 69.742 25.2726 69.6291 25.2031C69.0955 24.9417 68.7421 24.591 68.6871 23.935C68.6458 23.4427 67.987 23.0576 67.5098 23.202C66.3215 23.5609 65.1566 23.3588 63.9931 23.1126C63.6344 23.0191 63.2563 23.0305 62.9039 23.1456C62.6484 23.2382 62.3734 23.2638 62.1052 23.2199C61.837 23.1761 61.5845 23.0644 61.3718 22.8953C60.3156 22.0467 59.2923 21.1569 58.2402 20.3056C57.9363 20.0594 57.9129 19.7403 57.884 19.413C57.8139 18.6428 57.7465 17.8644 57.4247 17.1575C57.1777 16.6311 56.8772 16.1315 56.528 15.6667C56.4069 15.503 56.0947 15.4824 55.821 15.3778L56.0356 15.0134C55.7165 14.7191 55.3397 14.7136 54.9353 14.7796C53.8667 14.9542 52.7926 15.1069 51.7268 15.2967C51.4416 15.3536 51.1458 15.3214 50.8796 15.2046C49.7105 14.7044 48.4935 14.3247 47.2474 14.0713C46.8654 14.0138 46.4807 13.9757 46.0949 13.9572L46.0041 13.5734H44.9685C44.8144 13.1897 44.5366 12.9958 44.0979 12.9229C43.3704 12.8033 42.8725 12.2421 42.31 11.8227C41.9579 11.5421 41.6389 11.2079 41.2345 10.838ZM57.0506 9.53003L56.3244 8.97991C56.5417 9.60017 56.5417 9.60017 57.0506 9.53003Z" fill="#ED2F2F"/>
<path d="M18.293 15.4713C18.6547 15.43 18.9394 15.4135 19.2172 15.364C19.8099 15.2581 19.8732 15.0999 19.539 14.5691C19.3286 14.2349 19.1044 13.9075 18.8899 13.5761C18.8225 13.4729 18.7647 13.3643 18.6781 13.2171C18.8185 12.9922 18.9723 12.7758 19.1388 12.5694C19.5142 12.1568 19.909 11.9491 20.554 12.066C21.4053 12.2214 22.1026 12.4538 22.4863 13.2887C22.5537 13.4344 22.705 13.539 22.8026 13.6724C22.8617 13.7521 22.9539 13.8869 22.9264 13.9378C22.6389 14.4425 23.0928 14.7987 23.2014 15.2966C23.0368 15.4319 22.8616 15.5538 22.6775 15.6611C21.9458 16.02 21.1839 16.3487 20.3601 16.3295C19.8236 16.2997 19.2939 16.1946 18.7867 16.0173C18.5873 15.954 18.4649 15.6789 18.293 15.4713Z" fill="#ED2F2F"/>
<path d="M65.5594 11.8936C66.21 12.2635 66.7065 12.7971 67.2098 13.4298C67.0723 13.4298 66.9073 13.4862 66.7876 13.4367C66.1054 13.1588 65.73 12.6142 65.5594 11.8936Z" fill="#ED2F2F"/>
<path d="M40.4616 0.29716C39.9431 0.463572 39.4796 0.305412 39.0038 0.192636C39.6392 -0.0851761 39.8455 -0.0727983 40.4616 0.29716Z" fill="#ED2F2F"/>
<path d="M31.4601 14.6484L32.0542 14.6099C31.7214 14.8533 31.7214 14.8533 31.4601 14.6484Z" fill="#ED2F2F"/>
<path d="M49.8988 5.00574L49.4601 4.76644L49.5316 4.62891L49.991 4.86271L49.8988 5.00574Z" fill="#ED2F2F"/>
<path d="M44.4584 20.8813L39.8037 20.5821L38.0508 16.2764L36.2978 20.5821L31.6483 20.8813L35.2145 23.8419L34.0442 28.3329L38.0508 25.8568L42.0574 28.3329L40.8871 23.8419L44.4584 20.8813Z" fill="#ED2F2F"/>
</g>
<defs>
<clipPath id="clip0_4002_12">
<rect width="92.2323" height="31.0737" fill="white" transform="translate(2.8634)"/>
</clipPath>
</defs>
</svg>
