<svg width="38" height="48" viewBox="0 0 38 48" fill="none" xmlns="http://www.w3.org/2000/svg">
<line x1="37.5" y1="-2.18557e-08" x2="37.5" y2="48" stroke="url(#paint0_linear_4025_843)" stroke-opacity="0.3" stroke-dasharray="4 4"/>
<path d="M8.88392 24L15.8169 17.067C16.061 16.8229 16.061 16.4271 15.8169 16.1831C15.5728 15.939 15.1771 15.939 14.933 16.1831L7.99998 23.1161L1.06697 16.1831C0.82288 15.939 0.427132 15.939 0.18307 16.1831C-0.060992 16.4272 -0.0610233 16.8229 0.18307 17.067L7.11608 24L0.18307 30.9331C-0.0610233 31.1772 -0.0610233 31.5729 0.18307 31.817C0.305101 31.939 0.465069 32 0.625037 32C0.785005 32 0.944943 31.939 1.067 31.817L7.99998 24.8839L14.933 31.817C15.055 31.939 15.215 32 15.375 32C15.5349 32 15.6949 31.939 15.8169 31.817C16.061 31.5729 16.061 31.1771 15.8169 30.9331L8.88392 24Z" fill="#5561AB"/>
<defs>
<linearGradient id="paint0_linear_4025_843" x1="30.0001" y1="48" x2="30.0001" y2="-5.0387e-06" gradientUnits="userSpaceOnUse">
<stop stop-color="#212F84" stop-opacity="0"/>
<stop offset="0.510417" stop-color="#212F84"/>
<stop offset="1" stop-color="#212F84" stop-opacity="0"/>
</linearGradient>
</defs>
</svg>
