<svg width="266" height="264" viewBox="0 0 266 264" fill="none" xmlns="http://www.w3.org/2000/svg">
<path d="M93.9626 112.275L112.529 2.13705L111.034 1.50769L113.276 0.196529C113.546 0.0492416 113.852 -0.0179024 114.159 0.00300384C114.465 0.0239101 114.759 0.131996 115.007 0.314534L263.43 86.0122C264.058 86.4138 264.567 86.9753 264.906 87.6389C265.245 88.3026 265.401 89.0445 265.358 89.7883L246.687 200.831C246.665 201.071 246.581 201.301 246.443 201.499C246.305 201.696 246.118 201.855 245.9 201.958L243.711 203.27L243.33 201.224H243.461L95.9031 116.051C95.2731 115.651 94.7611 115.09 94.42 114.426C94.0789 113.763 93.921 113.02 93.9626 112.275Z" fill="url(#paint0_linear_4128_1257)"/>
<path d="M262.604 89.0146L265.043 87.9394C265.319 88.5094 265.428 89.1457 265.358 89.775L246.687 200.831C246.665 201.071 246.581 201.301 246.443 201.498C246.305 201.696 246.118 201.855 245.9 201.958L243.711 203.269L243.33 201.224H243.461L236.001 196.91L262.604 89.0146Z" fill="url(#paint1_linear_4128_1257)"/>
<path d="M93.5565 117.388L241.98 203.073C243.121 203.728 244.104 203.348 244.314 202.168L263.038 91.1126C263.078 90.3709 262.921 89.6317 262.582 88.9705C262.244 88.3094 261.736 87.75 261.11 87.3495L112.686 1.65189C111.533 0.996313 110.562 1.31099 110.326 2.62216L91.6422 113.612C91.5979 114.355 91.7518 115.096 92.0882 115.759C92.4246 116.423 92.9313 116.985 93.5565 117.388Z" fill="#242993"/>
<g opacity="0.51">
<path d="M114.628 8.74527L257.689 91.3355L239.949 195.927L96.9795 113.389L114.628 8.74527Z" fill="#453C9E"/>
</g>
<path d="M0.268555 169.966L8.37154 174.201L89.585 127.3C90.4169 126.929 91.3235 126.756 92.2336 126.795C93.1436 126.834 94.0323 127.083 94.8297 127.523L234.914 208.396C236.226 207.649 242.362 204.712 242.362 204.712L239.451 212.408C239.295 212.803 239.002 213.129 238.625 213.326L153.072 262.731C152.24 263.102 151.333 263.275 150.423 263.236C149.513 263.197 148.624 262.948 147.827 262.508L4.42494 179.747C3.88216 179.464 3.45542 179 3.21867 178.436L0.268555 169.966Z" fill="url(#paint2_linear_4128_1257)"/>
<path d="M1.50062 171.29L148.351 256.109C149.176 256.568 150.096 256.826 151.039 256.865C151.981 256.904 152.92 256.721 153.779 256.332L241.444 205.721C242.833 204.922 242.663 203.519 241.05 202.588L94.1999 117.769C93.3753 117.31 92.4548 117.052 91.5122 117.013C90.5697 116.974 89.6311 117.157 88.7717 117.546L1.1335 168.157C-0.269447 168.956 -0.0858844 170.359 1.50062 171.29Z" fill="url(#paint3_linear_4128_1257)"/>
<path d="M192.747 237.766V236.153C192.747 235.996 192.656 235.931 192.538 235.996L186.86 239.274C186.797 239.319 186.745 239.378 186.709 239.446C186.672 239.514 186.652 239.59 186.65 239.667V241.254C186.65 241.411 186.742 241.477 186.86 241.411L192.538 238.133C192.597 238.091 192.647 238.037 192.683 237.973C192.72 237.91 192.741 237.839 192.747 237.766Z" fill="#2842A2"/>
<path d="M184.251 242.67V241.058C184.251 240.9 184.159 240.835 184.041 240.9L178.364 244.178C178.301 244.223 178.249 244.282 178.213 244.35C178.176 244.418 178.156 244.494 178.154 244.571V246.184C178.154 246.342 178.246 246.407 178.364 246.342L184.041 243.064C184.105 243.019 184.156 242.96 184.193 242.892C184.229 242.823 184.249 242.748 184.251 242.67Z" fill="#2842A2"/>
<path d="M218.668 200.988L96.5856 130.5C96.187 130.27 95.7348 130.149 95.2744 130.149C94.8141 130.149 94.3619 130.27 93.9633 130.5L50.4851 155.648C50.3404 155.729 50.2199 155.847 50.136 155.99C50.052 156.133 50.0078 156.296 50.0078 156.461C50.0078 156.627 50.052 156.79 50.136 156.933C50.2199 157.075 50.3404 157.193 50.4851 157.274L172.515 227.723C172.914 227.953 173.366 228.074 173.826 228.074C174.287 228.074 174.739 227.953 175.137 227.723L218.668 202.601C218.81 202.519 218.927 202.402 219.009 202.26C219.091 202.119 219.134 201.958 219.134 201.795C219.134 201.631 219.091 201.471 219.009 201.329C218.927 201.188 218.81 201.07 218.668 200.988Z" fill="#ADC8FF"/>
<path d="M218.67 202.601L218.237 202.85L96.5871 132.624C96.1885 132.394 95.7363 132.273 95.276 132.273C94.8157 132.273 94.3635 132.394 93.9648 132.624L50.9324 157.536L50.4998 157.287C50.355 157.207 50.2345 157.089 50.1506 156.946C50.0667 156.803 50.0225 156.64 50.0225 156.474C50.0225 156.309 50.0667 156.146 50.1506 156.003C50.2345 155.86 50.355 155.742 50.4998 155.661L93.9648 130.5C94.3635 130.27 94.8157 130.149 95.276 130.149C95.7363 130.149 96.1885 130.27 96.5871 130.5L218.67 200.988C218.811 201.07 218.929 201.188 219.011 201.329C219.092 201.471 219.135 201.631 219.135 201.795C219.135 201.958 219.092 202.119 219.011 202.26C218.929 202.402 218.811 202.519 218.67 202.601Z" fill="#91AFFF"/>
<path d="M90.6855 136.872L196.732 198.091L201.44 195.376L95.3926 134.145L90.6855 136.872Z" fill="#242993"/>
<path d="M79.1211 143.546L178.586 200.975L183.306 198.248L83.8413 140.819L79.1211 143.546Z" fill="#242993"/>
<path d="M71.5957 147.886L188.709 215.502L193.416 212.788L76.3028 145.172L71.5957 147.886Z" fill="#242993"/>
<path d="M64.0693 152.239L181.169 219.855L185.89 217.128L68.7764 149.512L64.0693 152.239Z" fill="#242993"/>
<path d="M56.5293 156.579L173.642 224.196L178.363 221.482L61.2495 153.865L56.5293 156.579Z" fill="#242993"/>
<path d="M203.13 201.801L207.85 204.515L212.557 201.801L207.85 199.074L203.13 201.801Z" fill="#242993"/>
<path d="M186.505 205.538L196.286 211.189L201.006 208.475L191.212 202.824L186.505 205.538Z" fill="#242993"/>
<path d="M91.8913 218.033L58.968 199.035C58.6856 198.941 58.44 198.761 58.2659 198.519C58.0917 198.278 57.998 197.988 57.998 197.691C57.998 197.393 58.0917 197.103 58.2659 196.862C58.44 196.621 58.6856 196.441 58.968 196.347L81.4806 183.353C82.2021 182.988 82.9994 182.798 83.808 182.798C84.6166 182.798 85.4138 182.988 86.1353 183.353L119.059 202.352C119.341 202.446 119.587 202.626 119.761 202.867C119.935 203.108 120.029 203.398 120.029 203.696C120.029 203.993 119.935 204.283 119.761 204.525C119.587 204.766 119.341 204.946 119.059 205.04L96.5459 218.047C95.8234 218.41 95.0257 218.598 94.217 218.596C93.4084 218.593 92.6117 218.401 91.8913 218.033Z" fill="url(#paint4_linear_4128_1257)"/>
<path d="M119.06 203.453L86.1369 184.455C85.4154 184.089 84.6182 183.899 83.8095 183.899C83.0009 183.899 82.2037 184.089 81.4822 184.455L58.9695 197.448C58.6274 197.631 58.3451 197.909 58.1566 198.248C57.8157 197.592 58.078 196.871 58.9695 196.347L81.4822 183.353C82.2037 182.988 83.0009 182.798 83.8095 182.798C84.6182 182.798 85.4154 182.988 86.1369 183.353L119.06 202.352C119.952 202.863 120.214 203.598 119.873 204.253C119.685 203.914 119.402 203.636 119.06 203.453Z" fill="#9198DB"/>
<g opacity="0.11">
<mask id="mask0_4128_1257" style="mask-type:luminance" maskUnits="userSpaceOnUse" x="96" y="8" width="162" height="188">
<path d="M114.626 8.74527L257.687 91.3355L239.947 195.927L96.9775 113.389L114.626 8.74527Z" fill="white"/>
</mask>
<g mask="url(#mask0_4128_1257)">
<path d="M94.082 117.598L240.932 202.417C241.757 202.875 242.677 203.134 243.62 203.173C244.563 203.212 245.501 203.029 246.361 202.64L334.025 152.029C335.415 151.229 335.244 149.826 333.632 148.895L186.781 64.0763C185.957 63.6181 185.036 63.3593 184.094 63.3206C183.151 63.2819 182.213 63.4644 181.353 63.8534L93.6887 114.451C92.2989 115.264 92.4824 116.693 94.082 117.598Z" fill="url(#paint5_linear_4128_1257)"/>
<path d="M241.443 132.795L208.52 113.796C208.237 113.702 207.992 113.522 207.818 113.281C207.644 113.039 207.55 112.749 207.55 112.452C207.55 112.154 207.644 111.864 207.818 111.623C207.992 111.382 208.237 111.202 208.52 111.108L231.032 98.1143C231.754 97.7491 232.551 97.5588 233.36 97.5588C234.168 97.5588 234.966 97.7491 235.687 98.1143L268.61 117.113C268.893 117.207 269.138 117.387 269.312 117.628C269.487 117.87 269.58 118.159 269.58 118.457C269.58 118.754 269.487 119.044 269.312 119.286C269.138 119.527 268.893 119.707 268.61 119.801L246.098 132.795C245.376 133.16 244.579 133.35 243.77 133.35C242.962 133.35 242.164 133.16 241.443 132.795Z" fill="url(#paint6_linear_4128_1257)"/>
<path d="M268.597 118.214L235.687 99.2157C234.965 98.8504 234.168 98.6601 233.359 98.6601C232.551 98.6601 231.753 98.8504 231.032 99.2157L208.519 112.209C208.177 112.392 207.895 112.67 207.706 113.009C207.366 112.354 207.628 111.632 208.519 111.108L231.032 98.1143C231.753 97.7491 232.551 97.5588 233.359 97.5588C234.168 97.5588 234.965 97.7491 235.687 98.1143L268.61 117.113C269.502 117.624 269.764 118.359 269.423 119.014C269.231 118.673 268.944 118.395 268.597 118.214Z" fill="#9198DB"/>
<path d="M283.072 162.505L160.99 92.0169C160.591 91.7867 160.139 91.6656 159.679 91.6656C159.218 91.6656 158.766 91.7867 158.368 92.0169L114.889 117.165C114.745 117.246 114.624 117.364 114.54 117.507C114.456 117.649 114.412 117.812 114.412 117.978C114.412 118.144 114.456 118.306 114.54 118.449C114.624 118.592 114.745 118.71 114.889 118.791L236.919 189.24C237.318 189.47 237.77 189.591 238.231 189.591C238.691 189.591 239.143 189.47 239.542 189.24L283.072 164.118C283.214 164.036 283.332 163.919 283.413 163.777C283.495 163.635 283.538 163.475 283.538 163.311C283.538 163.148 283.495 162.987 283.413 162.846C283.332 162.704 283.214 162.587 283.072 162.505Z" fill="#ADB1F2"/>
<path d="M283.073 164.118L282.64 164.367L160.99 94.1413C160.592 93.9111 160.14 93.79 159.679 93.79C159.219 93.79 158.767 93.9111 158.368 94.1413L115.336 119.053L114.903 118.804C114.758 118.724 114.638 118.606 114.554 118.463C114.47 118.32 114.426 118.157 114.426 117.991C114.426 117.826 114.47 117.663 114.554 117.52C114.638 117.377 114.758 117.259 114.903 117.178L158.381 92.0303C158.78 91.8002 159.232 91.679 159.692 91.679C160.153 91.679 160.605 91.8002 161.004 92.0303L283.086 162.518C283.224 162.602 283.338 162.72 283.416 162.861C283.495 163.002 283.535 163.161 283.534 163.322C283.533 163.483 283.49 163.641 283.409 163.781C283.328 163.921 283.212 164.037 283.073 164.118Z" fill="#9198DB"/>
<path d="M126.258 115.46L232.619 176.862L228.41 179.288L122.049 117.886L126.258 115.46Z" fill="#24126A"/>
<path d="M137.468 108.983L238.558 167.343L234.349 169.782L133.259 111.422L137.468 108.983Z" fill="#24126A"/>
<path d="M246.111 171.71L255.551 177.164L251.329 179.59L241.889 174.136L246.111 171.71Z" fill="#24126A"/>
<path d="M237.772 179.826L244.341 183.628L240.132 186.054L233.55 182.265L237.772 179.826Z" fill="#24126A"/>
<path d="M144.495 104.932L262.566 173.1L258.357 175.538L140.273 107.358L144.495 104.932Z" fill="#24126A"/>
<path d="M151.511 100.881L269.594 169.048L265.372 171.487L147.302 103.306L151.511 100.881Z" fill="#24126A"/>
<path d="M158.538 96.8161L276.609 164.997L272.4 167.422L154.316 99.2549L158.538 96.8161Z" fill="#24126A"/>
</g>
</g>
<path opacity="0.42" d="M162.104 194.708L193.755 175.224L122.598 134.145L89.0195 156.723L162.104 194.708Z" fill="url(#paint7_radial_4128_1257)"/>
<path opacity="0.42" d="M193.756 175.224L201.007 129.438L134.229 91.1258V140.766L193.756 175.224Z" fill="url(#paint8_radial_4128_1257)"/>
<path d="M127.241 68.8884L134.308 64.8238C134.361 64.7899 134.423 64.7719 134.485 64.7719C134.548 64.7719 134.61 64.7899 134.662 64.8238L223.179 115.959C223.335 116.076 223.463 116.226 223.554 116.398C223.644 116.571 223.696 116.761 223.704 116.956V133.66C223.709 133.732 223.7 133.805 223.675 133.872C223.65 133.94 223.61 134.002 223.559 134.053L216.427 138.157V130.08L134.741 82.8785C134.585 82.7618 134.457 82.6118 134.366 82.4395C134.276 82.2671 134.225 82.0767 134.217 81.882V76.2047L127.241 68.8884Z" fill="url(#paint9_linear_4128_1257)"/>
<path d="M127.556 87.0346L216.072 138.17C216.361 138.34 216.597 138.17 216.597 137.777V121.033C216.589 120.838 216.538 120.648 216.447 120.476C216.356 120.303 216.228 120.153 216.072 120.037L127.556 68.9012C127.267 68.7308 127.031 68.9012 127.031 69.2946V86.025C127.037 86.2219 127.087 86.4149 127.178 86.5897C127.269 86.7645 127.398 86.9165 127.556 87.0346Z" fill="url(#paint10_linear_4128_1257)"/>
<path opacity="0.6" d="M139.763 83.6391L208.664 124.167C206.481 126.061 204.476 128.15 202.672 130.408L133.181 90.326C135.147 87.8834 137.352 85.6433 139.763 83.6391Z" fill="#24126A"/>
<path d="M130.086 82.0128L213.555 130.198C213.751 130.316 213.909 130.198 213.909 129.923V125.727C213.907 125.594 213.874 125.462 213.813 125.344C213.751 125.226 213.663 125.123 213.555 125.045L130.086 76.8599C129.889 76.7419 129.732 76.8599 129.732 77.1353V81.2917C129.727 81.4317 129.757 81.5708 129.819 81.6966C129.88 81.8224 129.972 81.931 130.086 82.0128Z" fill="#1B1773"/>
<path d="M130.086 76.8599L131.778 77.8433V80.1116C131.779 80.2451 131.812 80.3763 131.873 80.4947C131.935 80.6131 132.023 80.7154 132.132 80.7934L213.909 127.995V129.936C213.909 130.198 213.752 130.316 213.555 130.211L130.086 82.0128C129.978 81.9348 129.889 81.8325 129.828 81.7141C129.766 81.5956 129.734 81.4644 129.732 81.331V77.1353C129.719 76.8599 129.889 76.7419 130.086 76.8599Z" fill="#5778FF"/>
<path opacity="0.96" d="M83.186 262.823L13.6943 222.727C22.6496 217.561 30.2019 206.233 32.5095 195.416C32.9479 193.237 33.8428 191.175 35.1356 189.367C36.4283 187.559 38.0893 186.046 40.0094 184.926L92.4559 154.638C99.6695 150.51 105.746 144.656 110.139 137.601C114.533 130.546 117.107 122.51 117.63 114.215C118.469 99.9891 129.221 85.999 137.573 81.187L207.065 121.282C198.844 126.029 189.784 139.298 188.708 153.275C188.166 161.563 185.601 169.592 181.237 176.659C176.874 183.727 170.845 189.618 163.678 193.816L109.527 225.074C107.607 226.194 105.946 227.707 104.653 229.515C103.361 231.323 102.466 233.385 102.027 235.563C99.7198 246.394 92.1675 257.709 83.2122 262.875L83.186 262.823Z" fill="url(#paint11_linear_4128_1257)"/>
<path opacity="0.8" d="M137.56 81.1743L207.052 121.27C206.501 121.597 205.951 121.938 205.4 122.305L135.908 82.2101C136.459 81.8429 137.01 81.502 137.56 81.1743Z" fill="#1B1773"/>
<g opacity="0.32">
<path d="M163.677 128.598L175.857 135.652L175.949 134.25L163.795 127.222L163.677 128.598Z" fill="#5778FF"/>
<path d="M157.541 125.032L161.842 127.536L161.96 126.159L157.672 123.681L157.541 125.032Z" fill="#5778FF"/>
<path d="M152.834 122.305L155.719 123.983L155.85 122.633L152.965 120.955L152.834 122.305Z" fill="#5778FF"/>
<path d="M168.936 134.984L175.622 138.878L175.727 137.462L169.04 133.581L168.936 134.984Z" fill="#5778FF"/>
<path d="M159.01 129.201L167.073 133.895L167.178 132.506L159.128 127.825L159.01 129.201Z" fill="#5778FF"/>
<path d="M154.263 126.435L157.173 128.126L157.305 126.763L154.394 125.071L154.263 126.435Z" fill="#5778FF"/>
<path d="M149.779 123.826L152.677 125.504L152.808 124.153L149.924 122.475L149.779 123.826Z" fill="#5778FF"/>
<path d="M170.521 139.285L175.399 142.143L175.504 140.714L170.639 137.868L170.521 139.285Z" fill="#5778FF"/>
<path d="M166.995 137.212L168.647 138.183L168.765 136.767L167.113 135.81L166.995 137.212Z" fill="#5778FF"/>
<path d="M162.17 134.38L165.133 136.124L165.251 134.721L162.288 132.991L162.17 134.38Z" fill="#5778FF"/>
<path d="M157.332 134.918L175.164 145.42L175.269 143.978L157.463 133.515L157.332 134.918Z" fill="#5778FF"/>
<path d="M151.182 131.286L155.482 133.83L155.626 132.44L151.326 129.909L151.182 131.286Z" fill="#5778FF"/>
<path d="M170.023 145.827L174.94 148.725L175.032 147.282L170.141 144.385L170.023 145.827Z" fill="#5778FF"/>
<path d="M158.669 139.101L168.136 144.699L168.24 143.27L158.8 137.685L158.669 139.101Z" fill="#5778FF"/>
<path d="M153.87 136.255L156.82 137.999L156.951 136.596L154.001 134.852L153.87 136.255Z" fill="#5778FF"/>
<path d="M164.661 146.089L174.705 152.068L174.81 150.6L164.779 144.647L164.661 146.089Z" fill="#5778FF"/>
<path d="M155.653 140.727L162.773 144.975L162.904 143.533L155.784 139.311L155.653 140.727Z" fill="#5778FF"/>
<path d="M149.059 136.807L153.805 139.626L153.949 138.21L149.216 135.404L149.059 136.807Z" fill="#5778FF"/>
<path d="M171.032 153.379L174.467 155.438L174.572 153.956L171.15 151.911L171.032 153.379Z" fill="#5778FF"/>
<path d="M164.648 149.564L169.12 152.239L169.237 150.784L164.766 148.109L164.648 149.564Z" fill="#5778FF"/>
<path d="M155.641 144.175L162.76 148.423L162.878 146.981L155.785 142.733L155.641 144.175Z" fill="#5778FF"/>
<path d="M163.757 152.527L174.233 158.834L174.325 157.339L163.875 151.072L163.757 152.527Z" fill="#5778FF"/>
<path d="M152.257 145.618L161.855 151.387L161.986 149.931L152.401 144.175L152.257 145.618Z" fill="#5778FF"/>
<path d="M147.445 142.72L150.409 144.503L150.553 143.074L147.603 141.29L147.445 142.72Z" fill="#5778FF"/>
<path d="M142.883 139.966L145.807 141.723L145.964 140.307L143.04 138.55L142.883 139.966Z" fill="#5778FF"/>
<path d="M167.664 158.427L173.984 162.256L174.089 160.761L167.782 156.946L167.664 158.427Z" fill="#5778FF"/>
<path d="M139.801 114.753L131.882 110.163L132.052 108.865L139.959 113.441L139.801 114.753Z" fill="#5778FF"/>
<path d="M137.716 116.798L131.488 113.166L131.659 111.842L137.887 115.461L137.716 116.798Z" fill="#5778FF"/>
<path d="M135.606 118.83L131.082 116.181L131.252 114.857L135.776 117.493L135.606 118.83Z" fill="#5778FF"/>
<path d="M137.297 123.118L130.676 119.223L130.859 117.886L137.455 121.767L137.297 123.118Z" fill="#5778FF"/>
<path d="M134.832 124.98L130.282 122.292L130.453 120.941L135.002 123.629L134.832 124.98Z" fill="#5778FF"/>
<path d="M135.672 128.834L129.863 125.373L130.047 124.023L135.842 127.458L135.672 128.834Z" fill="#5778FF"/>
<path d="M132.617 130.395L129.457 128.494L129.641 127.13L132.801 129.018L132.617 130.395Z" fill="#5778FF"/>
<path d="M135.213 135.351L129.037 131.64L129.221 130.263L135.383 133.961L135.213 135.351Z" fill="#5778FF"/>
<path d="M134.491 138.367L128.617 134.8L128.801 133.411L134.662 136.951L134.491 138.367Z" fill="#5778FF"/>
<path d="M163.087 155.661L165.749 157.273L165.867 155.792L163.205 154.192L163.087 155.661Z" fill="#5778FF"/>
<path d="M155.273 150.941L161.187 154.52L161.318 153.038L155.418 149.485L155.273 150.941Z" fill="#5778FF"/>
</g>
<defs>
<linearGradient id="paint0_linear_4128_1257" x1="265.377" y1="101.655" x2="93.9357" y2="101.655" gradientUnits="userSpaceOnUse">
<stop stop-color="#C0D6FF"/>
<stop offset="0.3" stop-color="#C5DBFF"/>
<stop offset="0.65" stop-color="#D3E9FF"/>
<stop offset="1" stop-color="#E9FFFF"/>
</linearGradient>
<linearGradient id="paint1_linear_4128_1257" x1="265.385" y1="145.618" x2="235.992" y2="145.618" gradientUnits="userSpaceOnUse">
<stop stop-color="#5778FF"/>
<stop offset="0.18" stop-color="#5C7DFF"/>
<stop offset="0.39" stop-color="#6A8AFF"/>
<stop offset="0.61" stop-color="#82A0FF"/>
<stop offset="0.85" stop-color="#A3BEFF"/>
<stop offset="1" stop-color="#BCD5FF"/>
</linearGradient>
<linearGradient id="paint2_linear_4128_1257" x1="242.371" y1="195.011" x2="0.277761" y2="195.011" gradientUnits="userSpaceOnUse">
<stop stop-color="#5778FF"/>
<stop offset="0.18" stop-color="#5C7DFF"/>
<stop offset="0.39" stop-color="#6A8AFF"/>
<stop offset="0.61" stop-color="#82A0FF"/>
<stop offset="0.85" stop-color="#A3BEFF"/>
<stop offset="1" stop-color="#BCD5FF"/>
</linearGradient>
<linearGradient id="paint3_linear_4128_1257" x1="160.998" y1="186.925" x2="-81.1961" y2="186.925" gradientUnits="userSpaceOnUse">
<stop stop-color="#C0D6FF"/>
<stop offset="0.3" stop-color="#C5DBFF"/>
<stop offset="0.65" stop-color="#D3E9FF"/>
<stop offset="1" stop-color="#E9FFFF"/>
</linearGradient>
<linearGradient id="paint4_linear_4128_1257" x1="120.029" y1="200.7" x2="58.0108" y2="200.7" gradientUnits="userSpaceOnUse">
<stop stop-color="#C0BFF6"/>
<stop offset="0.29" stop-color="#C5C4F7"/>
<stop offset="0.64" stop-color="#D3D2F9"/>
<stop offset="1" stop-color="#E9E9FD"/>
</linearGradient>
<linearGradient id="paint5_linear_4128_1257" x1="253.624" y1="133.24" x2="11.3345" y2="133.24" gradientUnits="userSpaceOnUse">
<stop stop-color="#C0BFF6"/>
<stop offset="0.29" stop-color="#C5C4F7"/>
<stop offset="0.64" stop-color="#D3D2F9"/>
<stop offset="1" stop-color="#E9E9FD"/>
</linearGradient>
<linearGradient id="paint6_linear_4128_1257" x1="269.568" y1="115.461" x2="207.549" y2="115.461" gradientUnits="userSpaceOnUse">
<stop stop-color="#C0BFF6"/>
<stop offset="0.29" stop-color="#C5C4F7"/>
<stop offset="0.64" stop-color="#D3D2F9"/>
<stop offset="1" stop-color="#E9E9FD"/>
</linearGradient>
<radialGradient id="paint7_radial_4128_1257" cx="0" cy="0" r="1" gradientUnits="userSpaceOnUse" gradientTransform="translate(171.846 164.42) rotate(180) scale(69.4523 69.4523)">
<stop stop-color="#2B237C"/>
<stop offset="1" stop-color="#180D5B"/>
</radialGradient>
<radialGradient id="paint8_radial_4128_1257" cx="0" cy="0" r="1" gradientUnits="userSpaceOnUse" gradientTransform="translate(187.03 133.175) rotate(180) scale(53.1677 53.1677)">
<stop stop-color="#2B237C"/>
<stop offset="1" stop-color="#180D5B"/>
</radialGradient>
<linearGradient id="paint9_linear_4128_1257" x1="212.122" y1="120.679" x2="157.048" y2="49.783" gradientUnits="userSpaceOnUse">
<stop stop-color="#5778FF"/>
<stop offset="0.18" stop-color="#5C7DFF"/>
<stop offset="0.39" stop-color="#6A8AFF"/>
<stop offset="0.61" stop-color="#82A0FF"/>
<stop offset="0.85" stop-color="#A3BEFF"/>
<stop offset="1" stop-color="#BCD5FF"/>
</linearGradient>
<linearGradient id="paint10_linear_4128_1257" x1="171.663" y1="121.177" x2="184.097" y2="88.579" gradientUnits="userSpaceOnUse">
<stop stop-color="#C0D6FF"/>
<stop offset="0.3" stop-color="#C5DBFF"/>
<stop offset="0.65" stop-color="#D3E9FF"/>
<stop offset="1" stop-color="#E9FFFF"/>
</linearGradient>
<linearGradient id="paint11_linear_4128_1257" x1="64.397" y1="258.365" x2="163.455" y2="82.826" gradientUnits="userSpaceOnUse">
<stop stop-color="#7594FF"/>
<stop offset="0.08" stop-color="#A6C1FF"/>
<stop offset="0.13" stop-color="#B9D2FF"/>
<stop offset="0.18" stop-color="#D6E4FF"/>
<stop offset="0.21" stop-color="#E2EFFF"/>
<stop offset="0.26" stop-color="#D7E5FE"/>
<stop offset="0.32" stop-color="#BBD3FE"/>
<stop offset="0.39" stop-color="#A9C3FE"/>
<stop offset="0.51" stop-color="#AAC4FE"/>
<stop offset="0.62" stop-color="#D7E4FE"/>
<stop offset="0.75" stop-color="#DEECFF"/>
<stop offset="1" stop-color="#A8C2FE"/>
</linearGradient>
</defs>
</svg>
