<svg width="300" height="298" viewBox="0 0 300 298" fill="none" xmlns="http://www.w3.org/2000/svg">
<mask id="mask0_4223_2" style="mask-type:alpha" maskUnits="userSpaceOnUse" x="13" y="22" width="265" height="264">
<path d="M13 22L86.5 140L109 143L122.5 155H152.5L154.5 178L196 192L213 217L257.5 227.5L278 286H13V22Z" fill="#D9D9D9"/>
</mask>
<g mask="url(#mask0_4223_2)">
<path d="M106.963 134.275L125.529 24.1371L124.034 23.5077L126.276 22.1965C126.546 22.0492 126.852 21.9821 127.159 22.003C127.465 22.0239 127.759 22.132 128.007 22.3145L276.43 108.012C277.058 108.414 277.567 108.975 277.906 109.639C278.245 110.303 278.401 111.044 278.358 111.788L259.687 222.831C259.665 223.071 259.581 223.301 259.443 223.499C259.305 223.696 259.118 223.855 258.9 223.958L256.711 225.27L256.33 223.224H256.461L108.903 138.051C108.273 137.651 107.761 137.09 107.42 136.426C107.079 135.763 106.921 135.02 106.963 134.275Z" fill="url(#paint0_linear_4223_2)"/>
<path d="M275.604 111.015L278.043 109.939C278.319 110.509 278.428 111.146 278.358 111.775L259.687 222.831C259.665 223.071 259.581 223.301 259.443 223.498C259.305 223.696 259.118 223.855 258.9 223.958L256.711 225.269L256.33 223.224H256.461L249.001 218.91L275.604 111.015Z" fill="url(#paint1_linear_4223_2)"/>
<path d="M106.557 139.388L254.98 225.073C256.121 225.728 257.104 225.348 257.314 224.168L276.038 113.113C276.078 112.371 275.921 111.632 275.582 110.971C275.244 110.309 274.736 109.75 274.11 109.35L125.686 23.6519C124.533 22.9963 123.562 23.311 123.326 24.6222L104.642 135.612C104.598 136.355 104.752 137.096 105.088 137.759C105.425 138.423 105.931 138.985 106.557 139.388Z" fill="#242993"/>
<g opacity="0.51">
<path d="M127.628 30.7453L270.689 113.335L252.949 217.927L109.979 135.389L127.628 30.7453Z" fill="#453C9E"/>
</g>
<path d="M13.2686 191.966L21.3715 196.201L102.585 149.3C103.417 148.929 104.324 148.756 105.234 148.795C106.144 148.834 107.032 149.083 107.83 149.523L247.914 230.396C249.226 229.649 255.362 226.712 255.362 226.712L252.451 234.408C252.295 234.803 252.002 235.129 251.625 235.326L166.072 284.731C165.24 285.102 164.333 285.275 163.423 285.236C162.513 285.197 161.624 284.948 160.827 284.508L17.4249 201.747C16.8822 201.464 16.4554 201 16.2187 200.436L13.2686 191.966Z" fill="url(#paint2_linear_4223_2)"/>
<path d="M14.5006 193.29L161.351 278.109C162.176 278.568 163.096 278.826 164.039 278.865C164.981 278.904 165.92 278.721 166.779 278.332L254.444 227.721C255.833 226.922 255.663 225.519 254.05 224.588L107.2 139.769C106.375 139.31 105.455 139.052 104.512 139.013C103.57 138.974 102.631 139.157 101.772 139.546L14.1335 190.157C12.7306 190.956 12.9141 192.359 14.5006 193.29Z" fill="url(#paint3_linear_4223_2)"/>
<path d="M205.747 259.766V258.153C205.747 257.996 205.656 257.931 205.538 257.996L199.86 261.274C199.797 261.319 199.745 261.378 199.709 261.446C199.672 261.514 199.652 261.59 199.65 261.667V263.254C199.65 263.411 199.742 263.477 199.86 263.411L205.538 260.133C205.597 260.091 205.647 260.037 205.683 259.973C205.72 259.91 205.741 259.839 205.747 259.766Z" fill="#2842A2"/>
<path d="M197.251 264.67V263.058C197.251 262.9 197.159 262.835 197.041 262.9L191.364 266.178C191.301 266.223 191.249 266.282 191.213 266.35C191.176 266.418 191.156 266.494 191.154 266.571V268.184C191.154 268.342 191.246 268.407 191.364 268.342L197.041 265.064C197.105 265.019 197.156 264.96 197.193 264.892C197.229 264.823 197.249 264.748 197.251 264.67Z" fill="#2842A2"/>
<path d="M231.668 222.988L109.586 152.5C109.187 152.27 108.735 152.149 108.274 152.149C107.814 152.149 107.362 152.27 106.963 152.5L63.4851 177.648C63.3404 177.729 63.2199 177.847 63.136 177.99C63.052 178.133 63.0078 178.296 63.0078 178.461C63.0078 178.627 63.052 178.79 63.136 178.933C63.2199 179.075 63.3404 179.193 63.4851 179.274L185.515 249.723C185.914 249.953 186.366 250.074 186.826 250.074C187.287 250.074 187.739 249.953 188.137 249.723L231.668 224.601C231.81 224.519 231.927 224.402 232.009 224.26C232.091 224.119 232.134 223.958 232.134 223.795C232.134 223.631 232.091 223.471 232.009 223.329C231.927 223.188 231.81 223.07 231.668 222.988Z" fill="#ADC8FF"/>
<path d="M231.67 224.601L231.237 224.85L109.587 154.624C109.189 154.394 108.736 154.273 108.276 154.273C107.816 154.273 107.363 154.394 106.965 154.624L63.9324 179.536L63.4998 179.287C63.355 179.207 63.2345 179.089 63.1506 178.946C63.0667 178.803 63.0225 178.64 63.0225 178.474C63.0225 178.309 63.0667 178.146 63.1506 178.003C63.2345 177.86 63.355 177.742 63.4998 177.661L106.965 152.5C107.363 152.27 107.816 152.149 108.276 152.149C108.736 152.149 109.189 152.27 109.587 152.5L231.67 222.988C231.811 223.07 231.929 223.188 232.011 223.329C232.092 223.471 232.135 223.631 232.135 223.795C232.135 223.958 232.092 224.119 232.011 224.26C231.929 224.402 231.811 224.519 231.67 224.601Z" fill="#91AFFF"/>
<path d="M103.686 158.872L209.732 220.091L214.44 217.376L108.393 156.145L103.686 158.872Z" fill="#242993"/>
<path d="M92.1211 165.546L191.586 222.975L196.306 220.248L96.8413 162.819L92.1211 165.546Z" fill="#242993"/>
<path d="M84.5957 169.886L201.709 237.502L206.416 234.788L89.3028 167.172L84.5957 169.886Z" fill="#242993"/>
<path d="M77.0693 174.239L194.169 241.855L198.89 239.128L81.7764 171.512L77.0693 174.239Z" fill="#242993"/>
<path d="M69.5293 178.579L186.642 246.196L191.363 243.482L74.2495 175.865L69.5293 178.579Z" fill="#242993"/>
<path d="M216.13 223.801L220.85 226.515L225.557 223.801L220.85 221.074L216.13 223.801Z" fill="#242993"/>
<path d="M199.505 227.538L209.286 233.189L214.006 230.475L204.212 224.824L199.505 227.538Z" fill="#242993"/>
<path d="M104.891 240.033L71.968 221.035C71.6856 220.941 71.44 220.761 71.2659 220.519C71.0917 220.278 70.998 219.988 70.998 219.691C70.998 219.393 71.0917 219.103 71.2659 218.862C71.44 218.621 71.6856 218.441 71.968 218.347L94.4806 205.353C95.2021 204.988 95.9994 204.798 96.808 204.798C97.6166 204.798 98.4138 204.988 99.1353 205.353L132.059 224.352C132.341 224.446 132.587 224.626 132.761 224.867C132.935 225.108 133.029 225.398 133.029 225.696C133.029 225.993 132.935 226.283 132.761 226.525C132.587 226.766 132.341 226.946 132.059 227.04L109.546 240.047C108.823 240.41 108.026 240.598 107.217 240.596C106.408 240.593 105.612 240.401 104.891 240.033Z" fill="url(#paint4_linear_4223_2)"/>
<path d="M132.06 225.453L99.1369 206.455C98.4154 206.089 97.6182 205.899 96.8095 205.899C96.0009 205.899 95.2037 206.089 94.4822 206.455L71.9695 219.448C71.6274 219.631 71.3451 219.909 71.1566 220.248C70.8157 219.592 71.078 218.871 71.9695 218.347L94.4822 205.353C95.2037 204.988 96.0009 204.798 96.8095 204.798C97.6182 204.798 98.4154 204.988 99.1369 205.353L132.06 224.352C132.952 224.863 133.214 225.598 132.873 226.253C132.685 225.914 132.402 225.636 132.06 225.453Z" fill="#9198DB"/>
<g opacity="0.11">
<mask id="mask1_4223_2" style="mask-type:luminance" maskUnits="userSpaceOnUse" x="109" y="30" width="162" height="188">
<path d="M127.626 30.7453L270.687 113.335L252.947 217.927L109.978 135.389L127.626 30.7453Z" fill="white"/>
</mask>
<g mask="url(#mask1_4223_2)">
<path d="M107.082 139.598L253.932 224.417C254.757 224.875 255.677 225.134 256.62 225.173C257.563 225.212 258.501 225.029 259.361 224.64L347.025 174.029C348.415 173.229 348.244 171.826 346.632 170.895L199.781 86.0763C198.957 85.6181 198.036 85.3593 197.094 85.3206C196.151 85.2819 195.213 85.4644 194.353 85.8534L106.689 136.451C105.299 137.264 105.482 138.693 107.082 139.598Z" fill="url(#paint5_linear_4223_2)"/>
<path d="M254.443 154.795L221.52 135.796C221.237 135.702 220.992 135.522 220.818 135.281C220.644 135.039 220.55 134.749 220.55 134.452C220.55 134.154 220.644 133.864 220.818 133.623C220.992 133.382 221.237 133.202 221.52 133.108L244.032 120.114C244.754 119.749 245.551 119.559 246.36 119.559C247.168 119.559 247.966 119.749 248.687 120.114L281.61 139.113C281.893 139.207 282.138 139.387 282.312 139.628C282.487 139.87 282.58 140.159 282.58 140.457C282.58 140.754 282.487 141.044 282.312 141.286C282.138 141.527 281.893 141.707 281.61 141.801L259.098 154.795C258.376 155.16 257.579 155.35 256.77 155.35C255.962 155.35 255.164 155.16 254.443 154.795Z" fill="url(#paint6_linear_4223_2)"/>
<path d="M281.597 140.214L248.687 121.216C247.965 120.85 247.168 120.66 246.359 120.66C245.551 120.66 244.753 120.85 244.032 121.216L221.519 134.209C221.177 134.392 220.895 134.67 220.706 135.009C220.366 134.354 220.628 133.632 221.519 133.108L244.032 120.114C244.753 119.749 245.551 119.559 246.359 119.559C247.168 119.559 247.965 119.749 248.687 120.114L281.61 139.113C282.502 139.624 282.764 140.359 282.423 141.014C282.231 140.673 281.944 140.395 281.597 140.214Z" fill="#9198DB"/>
<path d="M296.072 184.505L173.99 114.017C173.591 113.787 173.139 113.666 172.679 113.666C172.218 113.666 171.766 113.787 171.368 114.017L127.889 139.165C127.745 139.246 127.624 139.364 127.54 139.507C127.456 139.649 127.412 139.812 127.412 139.978C127.412 140.144 127.456 140.306 127.54 140.449C127.624 140.592 127.745 140.71 127.889 140.791L249.919 211.24C250.318 211.47 250.77 211.591 251.231 211.591C251.691 211.591 252.143 211.47 252.542 211.24L296.072 186.118C296.214 186.036 296.332 185.919 296.413 185.777C296.495 185.635 296.538 185.475 296.538 185.311C296.538 185.148 296.495 184.987 296.413 184.846C296.332 184.704 296.214 184.587 296.072 184.505Z" fill="#ADB1F2"/>
<path d="M296.073 186.118L295.64 186.367L173.99 116.141C173.592 115.911 173.14 115.79 172.679 115.79C172.219 115.79 171.767 115.911 171.368 116.141L128.336 141.053L127.903 140.804C127.758 140.724 127.638 140.606 127.554 140.463C127.47 140.32 127.426 140.157 127.426 139.991C127.426 139.826 127.47 139.663 127.554 139.52C127.638 139.377 127.758 139.259 127.903 139.178L171.381 114.03C171.78 113.8 172.232 113.679 172.692 113.679C173.153 113.679 173.605 113.8 174.004 114.03L296.086 184.518C296.224 184.602 296.338 184.72 296.416 184.861C296.495 185.002 296.535 185.161 296.534 185.322C296.533 185.483 296.49 185.641 296.409 185.781C296.328 185.921 296.212 186.037 296.073 186.118Z" fill="#9198DB"/>
<path d="M139.258 137.46L245.619 198.862L241.41 201.288L135.049 139.886L139.258 137.46Z" fill="#24126A"/>
<path d="M150.468 130.983L251.558 189.343L247.349 191.782L146.259 133.422L150.468 130.983Z" fill="#24126A"/>
<path d="M259.111 193.71L268.551 199.164L264.329 201.59L254.889 196.136L259.111 193.71Z" fill="#24126A"/>
<path d="M250.772 201.826L257.341 205.628L253.132 208.054L246.55 204.265L250.772 201.826Z" fill="#24126A"/>
<path d="M157.495 126.932L275.566 195.1L271.357 197.538L153.273 129.358L157.495 126.932Z" fill="#24126A"/>
<path d="M164.511 122.881L282.594 191.048L278.372 193.487L160.302 125.306L164.511 122.881Z" fill="#24126A"/>
<path d="M171.538 118.816L289.609 186.997L285.4 189.422L167.316 121.255L171.538 118.816Z" fill="#24126A"/>
</g>
</g>
<path opacity="0.42" d="M175.104 216.708L206.755 197.224L135.598 156.145L102.02 178.723L175.104 216.708Z" fill="url(#paint7_radial_4223_2)"/>
<path opacity="0.42" d="M206.756 197.224L214.007 151.438L147.229 113.126V162.766L206.756 197.224Z" fill="url(#paint8_radial_4223_2)"/>
<path d="M140.241 90.8884L147.308 86.8238C147.361 86.7899 147.423 86.7719 147.485 86.7719C147.548 86.7719 147.61 86.7899 147.662 86.8238L236.179 137.959C236.335 138.076 236.463 138.226 236.554 138.398C236.644 138.571 236.696 138.761 236.704 138.956V155.66C236.709 155.732 236.7 155.805 236.675 155.872C236.65 155.94 236.61 156.002 236.559 156.053L229.427 160.157V152.08L147.741 104.879C147.585 104.762 147.457 104.612 147.366 104.439C147.276 104.267 147.225 104.077 147.217 103.882V98.2047L140.241 90.8884Z" fill="url(#paint9_linear_4223_2)"/>
<path d="M140.556 109.035L229.072 160.17C229.361 160.34 229.597 160.17 229.597 159.777V143.033C229.589 142.838 229.538 142.648 229.447 142.476C229.356 142.303 229.228 142.153 229.072 142.037L140.556 90.9012C140.267 90.7308 140.031 90.9012 140.031 91.2946V108.025C140.037 108.222 140.087 108.415 140.178 108.59C140.269 108.764 140.398 108.917 140.556 109.035Z" fill="url(#paint10_linear_4223_2)"/>
<path opacity="0.6" d="M152.763 105.639L221.664 146.167C219.481 148.061 217.476 150.15 215.672 152.408L146.181 112.326C148.147 109.883 150.352 107.643 152.763 105.639Z" fill="#24126A"/>
<path d="M143.086 104.013L226.555 152.198C226.751 152.316 226.909 152.198 226.909 151.923V147.727C226.907 147.594 226.874 147.462 226.813 147.344C226.751 147.226 226.663 147.123 226.555 147.045L143.086 98.8599C142.889 98.7419 142.732 98.8599 142.732 99.1353V103.292C142.727 103.432 142.757 103.571 142.819 103.697C142.88 103.822 142.972 103.931 143.086 104.013Z" fill="#1B1773"/>
<path d="M143.086 98.8599L144.778 99.8433V102.112C144.779 102.245 144.812 102.376 144.873 102.495C144.935 102.613 145.023 102.715 145.132 102.793L226.909 149.995V151.936C226.909 152.198 226.752 152.316 226.555 152.211L143.086 104.013C142.978 103.935 142.889 103.832 142.828 103.714C142.766 103.596 142.734 103.464 142.732 103.331V99.1353C142.719 98.8599 142.889 98.7419 143.086 98.8599Z" fill="#5778FF"/>
<path opacity="0.96" d="M96.186 284.823L26.6943 244.727C35.6496 239.561 43.2019 228.233 45.5095 217.416C45.9479 215.237 46.8428 213.175 48.1356 211.367C49.4283 209.559 51.0893 208.046 53.0094 206.926L105.456 176.638C112.67 172.51 118.746 166.656 123.139 159.601C127.533 152.546 130.107 144.51 130.63 136.215C131.469 121.989 142.221 107.999 150.573 103.187L220.065 143.282C211.844 148.029 202.784 161.298 201.708 175.275C201.166 183.563 198.601 191.592 194.237 198.659C189.874 205.727 183.845 211.618 176.678 215.816L122.527 247.074C120.607 248.194 118.946 249.707 117.653 251.515C116.361 253.323 115.466 255.385 115.027 257.563C112.72 268.394 105.167 279.709 96.2122 284.875L96.186 284.823Z" fill="url(#paint11_linear_4223_2)"/>
<path opacity="0.8" d="M150.56 103.174L220.052 143.27C219.501 143.597 218.951 143.938 218.4 144.305L148.908 104.21C149.459 103.843 150.01 103.502 150.56 103.174Z" fill="#1B1773"/>
<g opacity="0.32">
<path d="M176.677 150.598L188.857 157.652L188.949 156.25L176.795 149.222L176.677 150.598Z" fill="#5778FF"/>
<path d="M170.541 147.032L174.842 149.536L174.96 148.159L170.672 145.681L170.541 147.032Z" fill="#5778FF"/>
<path d="M165.834 144.305L168.719 145.983L168.85 144.633L165.965 142.955L165.834 144.305Z" fill="#5778FF"/>
<path d="M181.936 156.984L188.622 160.878L188.727 159.462L182.04 155.581L181.936 156.984Z" fill="#5778FF"/>
<path d="M172.01 151.201L180.073 155.895L180.178 154.506L172.128 149.825L172.01 151.201Z" fill="#5778FF"/>
<path d="M167.263 148.435L170.173 150.126L170.305 148.763L167.394 147.071L167.263 148.435Z" fill="#5778FF"/>
<path d="M162.779 145.826L165.677 147.504L165.808 146.153L162.924 144.475L162.779 145.826Z" fill="#5778FF"/>
<path d="M183.521 161.285L188.399 164.143L188.504 162.714L183.639 159.868L183.521 161.285Z" fill="#5778FF"/>
<path d="M179.995 159.212L181.647 160.183L181.765 158.767L180.113 157.81L179.995 159.212Z" fill="#5778FF"/>
<path d="M175.17 156.38L178.133 158.124L178.251 156.721L175.288 154.991L175.17 156.38Z" fill="#5778FF"/>
<path d="M170.332 156.918L188.164 167.42L188.269 165.978L170.463 155.515L170.332 156.918Z" fill="#5778FF"/>
<path d="M164.182 153.286L168.482 155.83L168.626 154.44L164.326 151.909L164.182 153.286Z" fill="#5778FF"/>
<path d="M183.023 167.827L187.94 170.725L188.032 169.282L183.141 166.385L183.023 167.827Z" fill="#5778FF"/>
<path d="M171.669 161.101L181.136 166.699L181.24 165.27L171.8 159.685L171.669 161.101Z" fill="#5778FF"/>
<path d="M166.87 158.255L169.82 159.999L169.951 158.596L167.001 156.852L166.87 158.255Z" fill="#5778FF"/>
<path d="M177.661 168.089L187.705 174.068L187.81 172.6L177.779 166.647L177.661 168.089Z" fill="#5778FF"/>
<path d="M168.653 162.727L175.773 166.975L175.904 165.533L168.784 161.311L168.653 162.727Z" fill="#5778FF"/>
<path d="M162.059 158.807L166.805 161.626L166.949 160.21L162.216 157.404L162.059 158.807Z" fill="#5778FF"/>
<path d="M184.032 175.379L187.467 177.438L187.572 175.956L184.15 173.911L184.032 175.379Z" fill="#5778FF"/>
<path d="M177.648 171.564L182.12 174.239L182.237 172.784L177.766 170.109L177.648 171.564Z" fill="#5778FF"/>
<path d="M168.641 166.175L175.76 170.423L175.878 168.981L168.785 164.733L168.641 166.175Z" fill="#5778FF"/>
<path d="M176.757 174.527L187.233 180.834L187.325 179.339L176.875 173.072L176.757 174.527Z" fill="#5778FF"/>
<path d="M165.257 167.618L174.855 173.387L174.986 171.931L165.401 166.175L165.257 167.618Z" fill="#5778FF"/>
<path d="M160.445 164.72L163.409 166.503L163.553 165.074L160.603 163.29L160.445 164.72Z" fill="#5778FF"/>
<path d="M155.883 161.966L158.807 163.723L158.964 162.307L156.04 160.55L155.883 161.966Z" fill="#5778FF"/>
<path d="M180.664 180.427L186.984 184.256L187.089 182.761L180.782 178.946L180.664 180.427Z" fill="#5778FF"/>
<path d="M152.801 136.753L144.882 132.163L145.052 130.865L152.959 135.441L152.801 136.753Z" fill="#5778FF"/>
<path d="M150.716 138.798L144.488 135.166L144.659 133.842L150.887 137.461L150.716 138.798Z" fill="#5778FF"/>
<path d="M148.606 140.83L144.082 138.181L144.252 136.857L148.776 139.493L148.606 140.83Z" fill="#5778FF"/>
<path d="M150.297 145.118L143.676 141.223L143.859 139.886L150.455 143.767L150.297 145.118Z" fill="#5778FF"/>
<path d="M147.832 146.98L143.282 144.292L143.453 142.941L148.002 145.629L147.832 146.98Z" fill="#5778FF"/>
<path d="M148.672 150.834L142.863 147.373L143.047 146.023L148.842 149.458L148.672 150.834Z" fill="#5778FF"/>
<path d="M145.617 152.395L142.457 150.494L142.641 149.13L145.801 151.018L145.617 152.395Z" fill="#5778FF"/>
<path d="M148.213 157.351L142.037 153.64L142.221 152.263L148.383 155.961L148.213 157.351Z" fill="#5778FF"/>
<path d="M147.491 160.367L141.617 156.8L141.801 155.411L147.662 158.951L147.491 160.367Z" fill="#5778FF"/>
<path d="M176.087 177.661L178.749 179.273L178.867 177.792L176.205 176.192L176.087 177.661Z" fill="#5778FF"/>
<path d="M168.273 172.941L174.187 176.52L174.318 175.038L168.418 171.485L168.273 172.941Z" fill="#5778FF"/>
</g>
</g>
<mask id="mask2_4223_2" style="mask-type:alpha" maskUnits="userSpaceOnUse" x="22" y="0" width="303" height="298">
<path d="M35.7773 0L180.926 19.8536L229.474 26.494L324.093 39.4361L309.157 108.045L316.236 144.844L293.002 185.571L289.411 211.826L280.98 232.878L262.556 297.477L257.384 224.604L217.058 209.5L203.963 183.485L167.377 166.874L169.414 140.91L133.251 135.964L120.443 122.605L98.9848 117.147L22 102L35.7773 0Z" fill="#D9D9D9"/>
</mask>
<g mask="url(#mask2_4223_2)">
<path d="M113.657 123.973L146.978 17.3671L145.582 16.541L147.981 15.5458C148.268 15.4364 148.581 15.4114 148.882 15.4737C149.183 15.5359 149.46 15.6829 149.68 15.8972L285.121 120.919C285.688 121.402 286.117 122.027 286.362 122.73C286.608 123.434 286.662 124.19 286.519 124.921L252.972 232.409C252.917 232.644 252.803 232.86 252.639 233.038C252.476 233.215 252.269 233.346 252.039 233.419L249.692 234.422L249.593 232.344L249.723 232.361L115.068 127.977C114.498 127.495 114.067 126.87 113.819 126.167C113.571 125.463 113.515 124.705 113.657 123.973Z" fill="url(#paint12_linear_4223_2)"/>
<path d="M283.896 123.781L286.458 123.047C286.654 123.649 286.676 124.294 286.521 124.908L252.972 232.409C252.918 232.643 252.803 232.86 252.64 233.037C252.476 233.215 252.269 233.346 252.04 233.419L249.693 234.422L249.593 232.344L249.723 232.361L242.916 227.076L283.896 123.781Z" fill="url(#paint13_linear_4223_2)"/>
<path d="M112.562 128.984L248.005 233.992C249.046 234.797 250.072 234.553 250.44 233.412L284.041 125.919C284.181 125.189 284.126 124.436 283.88 123.735C283.634 123.034 283.207 122.411 282.641 121.929L147.2 16.9078C146.146 16.1019 145.142 16.2822 144.73 17.5493L111.177 124.983C111.033 125.713 111.085 126.468 111.328 127.171C111.572 127.874 111.998 128.5 112.562 128.984Z" fill="#242993"/>
<g opacity="0.51">
<path d="M148.162 24.1989L278.711 125.415L246.96 226.637L116.495 125.486L148.162 24.1989Z" fill="#453C9E"/>
</g>
<path d="M13.0092 168.434L20.4635 173.728L107.284 138.267C108.158 138.012 109.08 137.963 109.976 138.125C110.873 138.286 111.719 138.654 112.45 139.198L240.282 238.309C241.683 237.746 248.16 235.668 248.16 235.668L244.233 242.899C244.025 243.269 243.69 243.552 243.291 243.696L151.831 281.051C150.957 281.306 150.035 281.354 149.138 281.193C148.242 281.031 147.395 280.664 146.665 280.119L15.8017 178.688C15.3022 178.335 14.9423 177.817 14.7842 177.226L13.0092 168.434Z" fill="url(#paint14_linear_4223_2)"/>
<path d="M14.0511 169.913L148.052 273.851C148.807 274.417 149.684 274.798 150.613 274.964C151.541 275.13 152.496 275.077 153.4 274.808L247.114 236.544C248.6 235.94 248.621 234.527 247.149 233.386L113.148 129.448C112.393 128.882 111.517 128.501 110.588 128.335C109.659 128.169 108.705 128.223 107.801 128.492L14.1121 166.759C12.6137 167.361 12.6054 168.776 14.0511 169.913Z" fill="url(#paint15_linear_4223_2)"/>
<path d="M194.524 261.694L194.742 260.096C194.764 259.94 194.682 259.863 194.556 259.912L188.487 262.39C188.418 262.426 188.359 262.477 188.314 262.54C188.268 262.602 188.238 262.675 188.226 262.751L188.011 264.323C187.989 264.479 188.071 264.556 188.197 264.507L194.266 262.029C194.331 261.995 194.388 261.948 194.432 261.89C194.477 261.832 194.508 261.765 194.524 261.694Z" fill="#2842A2"/>
<path d="M185.442 265.401L185.66 263.803C185.682 263.647 185.6 263.57 185.474 263.619L179.405 266.097C179.336 266.133 179.277 266.184 179.232 266.247C179.186 266.31 179.156 266.382 179.144 266.459L178.925 268.056C178.904 268.212 178.986 268.29 179.112 268.241L185.181 265.762C185.249 265.727 185.309 265.675 185.354 265.613C185.399 265.55 185.429 265.478 185.442 265.401Z" fill="#2842A2"/>
<path d="M225.19 228.768L113.786 142.385C113.422 142.103 112.991 141.922 112.535 141.86C112.079 141.797 111.614 141.856 111.188 142.03L64.7028 161.054C64.5485 161.115 64.4131 161.215 64.3106 161.345C64.2081 161.475 64.1422 161.631 64.1197 161.795C64.0973 161.959 64.119 162.126 64.1828 162.279C64.2466 162.432 64.35 162.565 64.4824 162.665L175.839 249.001C176.203 249.283 176.635 249.465 177.091 249.527C177.547 249.589 178.011 249.531 178.438 249.357L224.971 230.366C225.123 230.304 225.255 230.203 225.355 230.074C225.455 229.945 225.52 229.792 225.542 229.63C225.564 229.468 225.543 229.303 225.481 229.152C225.42 229 225.319 228.868 225.19 228.768Z" fill="#ADC8FF"/>
<path d="M224.973 230.366L224.51 230.554L113.5 144.49C113.136 144.208 112.704 144.027 112.248 143.964C111.792 143.902 111.328 143.961 110.902 144.135L64.8902 162.985L64.4953 162.68C64.3629 162.58 64.2594 162.447 64.1957 162.294C64.1319 162.141 64.1101 161.974 64.1326 161.81C64.155 161.646 64.2209 161.49 64.3234 161.36C64.4259 161.23 64.5613 161.129 64.7156 161.069L111.19 142.03C111.616 141.856 112.08 141.798 112.536 141.86C112.992 141.922 113.424 142.104 113.788 142.386L225.191 228.768C225.321 228.868 225.421 229.001 225.483 229.152C225.545 229.303 225.566 229.468 225.544 229.63C225.521 229.792 225.457 229.945 225.357 230.075C225.257 230.204 225.124 230.304 224.973 230.366Z" fill="#91AFFF"/>
<path d="M107.077 147.899L203.849 222.924L208.881 220.873L112.11 145.835L107.077 147.899Z" fill="#242993"/>
<path d="M94.7154 152.944L185.48 223.323L190.526 221.26L99.7616 150.882L94.7154 152.944Z" fill="#242993"/>
<path d="M86.6712 156.224L193.541 239.088L198.572 237.037L91.7027 154.173L86.6712 156.224Z" fill="#242993"/>
<path d="M78.6236 159.517L185.48 242.379L190.526 240.317L83.6568 157.453L78.6236 159.517Z" fill="#242993"/>
<path d="M70.5658 162.795L177.435 245.659L182.48 243.61L75.6102 160.746L70.5658 162.795Z" fill="#242993"/>
<path d="M209.685 227.467L213.994 230.796L219.025 228.745L214.731 225.405L209.685 227.467Z" fill="#242993"/>
<path d="M192.707 228.917L201.633 235.841L206.677 233.792L197.739 226.865L192.707 228.917Z" fill="#242993"/>
<path d="M97.2732 228.475L67.2283 205.19C66.9613 205.059 66.7423 204.847 66.6025 204.584C66.4627 204.322 66.4092 204.022 66.4495 203.727C66.4898 203.432 66.6219 203.158 66.8271 202.942C67.0323 202.727 67.3001 202.581 67.5926 202.527L91.6585 192.704C92.4227 192.44 93.2384 192.359 94.0396 192.469C94.8407 192.579 95.6049 192.875 96.2702 193.335L126.315 216.62C126.582 216.751 126.801 216.963 126.941 217.226C127.081 217.488 127.134 217.788 127.094 218.083C127.054 218.378 126.921 218.652 126.716 218.868C126.511 219.083 126.243 219.228 125.951 219.283L101.883 229.119C101.118 229.381 100.302 229.459 99.5013 229.347C98.7005 229.235 97.9372 228.937 97.2732 228.475Z" fill="url(#paint16_linear_4223_2)"/>
<path d="M126.167 217.711L96.1216 194.426C95.4563 193.967 94.6922 193.67 93.891 193.56C93.0899 193.451 92.2742 193.531 91.5099 193.795L67.444 203.618C67.0802 203.753 66.7629 203.99 66.5302 204.3C66.2813 203.605 66.6389 202.926 67.5933 202.527L91.6592 192.704C92.4235 192.44 93.2392 192.36 94.0403 192.469C94.8415 192.579 95.6056 192.875 96.2709 193.335L126.316 216.62C127.13 217.248 127.29 218.011 126.864 218.614C126.723 218.252 126.481 217.939 126.167 217.711Z" fill="#9198DB"/>
<g opacity="0.11">
<mask id="mask3_4223_2" style="mask-type:luminance" maskUnits="userSpaceOnUse" x="116" y="24" width="163" height="203">
<path d="M148.16 24.1986L278.709 125.414L246.958 226.637L116.494 125.486L148.16 24.1986Z" fill="white"/>
</mask>
<g mask="url(#mask3_4223_2)">
<path d="M113.054 129.263L247.055 233.201C247.81 233.766 248.687 234.148 249.616 234.314C250.544 234.48 251.499 234.426 252.403 234.157L346.118 195.893C347.603 195.289 347.624 193.876 346.153 192.735L212.152 88.7976C211.397 88.2319 210.52 87.8508 209.591 87.6847C208.663 87.5186 207.708 87.5722 206.804 87.8411L113.091 126.092C111.604 126.709 111.592 128.15 113.054 129.263Z" fill="url(#paint17_linear_4223_2)"/>
<path d="M256.997 164.29L226.952 141.004C226.685 140.873 226.466 140.661 226.326 140.399C226.186 140.136 226.133 139.836 226.173 139.541C226.213 139.247 226.346 138.972 226.551 138.757C226.756 138.541 227.024 138.396 227.316 138.341L251.382 128.518C252.146 128.254 252.962 128.174 253.763 128.283C254.564 128.393 255.328 128.69 255.994 129.149L286.039 152.434C286.306 152.566 286.525 152.778 286.664 153.04C286.804 153.303 286.858 153.603 286.818 153.897C286.777 154.192 286.645 154.467 286.44 154.682C286.235 154.898 285.967 155.043 285.674 155.098L261.609 164.92C260.844 165.185 260.029 165.265 259.227 165.155C258.426 165.046 257.662 164.749 256.997 164.29Z" fill="url(#paint18_linear_4223_2)"/>
<path d="M285.875 153.524L255.843 130.24C255.178 129.781 254.414 129.484 253.613 129.375C252.812 129.265 251.996 129.346 251.232 129.61L227.166 139.433C226.802 139.567 226.485 139.804 226.252 140.115C226.003 139.419 226.361 138.74 227.315 138.341L251.381 128.518C252.145 128.254 252.961 128.174 253.762 128.283C254.563 128.393 255.327 128.69 255.993 129.149L286.037 152.434C286.851 153.062 287.012 153.825 286.585 154.428C286.441 154.064 286.195 153.75 285.875 153.524Z" fill="#9198DB"/>
<path d="M294.215 199.368L182.811 112.985C182.448 112.703 182.016 112.522 181.56 112.459C181.104 112.397 180.639 112.456 180.213 112.63L133.728 131.654C133.574 131.714 133.438 131.815 133.336 131.945C133.233 132.075 133.168 132.23 133.145 132.395C133.123 132.559 133.144 132.726 133.208 132.879C133.272 133.032 133.375 133.165 133.508 133.265L244.865 219.601C245.229 219.883 245.66 220.064 246.116 220.127C246.572 220.189 247.037 220.13 247.463 219.956L293.997 200.965C294.148 200.904 294.28 200.803 294.381 200.674C294.481 200.545 294.545 200.392 294.567 200.23C294.589 200.068 294.569 199.903 294.507 199.751C294.445 199.6 294.344 199.468 294.215 199.368Z" fill="#ADB1F2"/>
<path d="M293.997 200.966L293.535 201.154L182.524 115.09C182.16 114.808 181.729 114.627 181.273 114.564C180.817 114.502 180.352 114.561 179.926 114.735L133.914 133.585L133.52 133.28C133.387 133.18 133.284 133.047 133.22 132.894C133.156 132.741 133.134 132.574 133.157 132.41C133.179 132.246 133.245 132.09 133.348 131.96C133.45 131.83 133.586 131.729 133.74 131.669L180.225 112.645C180.651 112.471 181.116 112.412 181.572 112.475C182.028 112.537 182.459 112.718 182.823 113L294.227 199.383C294.352 199.484 294.449 199.617 294.508 199.767C294.566 199.917 294.585 200.08 294.562 200.24C294.539 200.399 294.474 200.55 294.375 200.677C294.276 200.805 294.146 200.904 293.997 200.966Z" fill="#9198DB"/>
<path d="M145.223 131.506L242.282 206.755L237.783 208.588L140.724 133.339L145.223 131.506Z" fill="#24126A"/>
<path d="M157.207 126.608L249.456 198.129L244.956 199.975L152.707 128.453L157.207 126.608Z" fill="#24126A"/>
<path d="M256.347 203.479L264.961 210.162L260.449 211.993L251.835 205.31L256.347 203.479Z" fill="#24126A"/>
<path d="M246.986 210.39L252.979 215.047L248.48 216.88L242.472 212.234L246.986 210.39Z" fill="#24126A"/>
<path d="M164.719 123.546L272.462 207.085L267.962 208.931L160.207 125.377L164.719 123.546Z" fill="#24126A"/>
<path d="M172.219 120.483L279.975 204.024L275.461 205.868L167.72 122.316L172.219 120.483Z" fill="#24126A"/>
<path d="M179.733 117.408L287.474 200.96L282.975 202.793L175.219 119.252L179.733 117.408Z" fill="#24126A"/>
</g>
</g>
<path opacity="0.42" d="M169.999 214.88L203.998 199.865L139.065 149.522L102.736 167.341L169.999 214.88Z" fill="url(#paint19_radial_4223_2)"/>
<path opacity="0.42" d="M204 199.865L217.388 155.484L156.419 108.476L149.692 157.658L204 199.865Z" fill="url(#paint20_radial_4223_2)"/>
<path d="M152.509 85.4965L160.061 82.4271C160.118 82.4007 160.182 82.3912 160.244 82.3997C160.306 82.4082 160.364 82.4344 160.412 82.4751L241.182 145.134C241.321 145.271 241.428 145.437 241.494 145.62C241.561 145.803 241.585 145.999 241.567 146.193L239.303 162.743C239.299 162.815 239.28 162.886 239.246 162.95C239.212 163.014 239.165 163.069 239.107 163.113L231.484 166.213L232.578 158.21L158.043 100.374C157.905 100.237 157.798 100.071 157.732 99.8882C157.665 99.7051 157.64 99.5095 157.659 99.3156L158.428 93.6906L152.509 85.4965Z" fill="url(#paint21_linear_4223_2)"/>
<path d="M150.361 103.518L231.131 166.177C231.394 166.385 231.651 166.248 231.704 165.859L233.973 149.27C233.992 149.076 233.967 148.88 233.9 148.697C233.834 148.514 233.727 148.348 233.589 148.211L152.818 85.5519C152.556 85.3439 152.299 85.4808 152.245 85.8705L149.978 102.447C149.957 102.642 149.981 102.84 150.047 103.026C150.114 103.211 150.221 103.38 150.361 103.518Z" fill="url(#paint22_linear_4223_2)"/>
<path opacity="0.6" d="M162.916 101.808L225.69 151.3C223.27 152.88 221 154.678 218.907 156.671L155.488 107.541C157.767 105.388 160.255 103.467 162.916 101.808Z" fill="#24126A"/>
<path d="M153.548 98.8854L229.717 157.938C229.896 158.081 230.067 157.986 230.105 157.713L230.673 153.556C230.69 153.423 230.675 153.289 230.63 153.163C230.585 153.038 230.512 152.924 230.415 152.832L154.246 93.78C154.068 93.6365 153.896 93.7321 153.858 94.0049L153.295 98.1229C153.271 98.261 153.282 98.4028 153.326 98.5358C153.37 98.6688 153.447 98.7889 153.548 98.8854Z" fill="#1B1773"/>
<path d="M154.247 93.7801L155.789 94.9836L155.482 97.231C155.465 97.3634 155.48 97.4978 155.525 97.6235C155.57 97.7491 155.643 97.8625 155.74 97.9544L230.366 155.803L230.103 157.726C230.068 157.986 229.896 158.081 229.715 157.951L153.548 98.8854C153.452 98.7934 153.378 98.6801 153.333 98.5544C153.288 98.4287 153.273 98.2943 153.29 98.1619L153.859 94.0049C153.883 93.7303 154.068 93.6365 154.247 93.7801Z" fill="#5778FF"/>
<path opacity="0.96" d="M82.5783 271.671L19.1614 222.528C28.7341 218.623 37.7519 208.423 41.5042 198.018C42.2338 195.919 43.3999 193.998 44.9257 192.382C46.4515 190.766 48.3024 189.491 50.3564 188.642L106.424 165.741C114.13 162.629 120.944 157.652 126.253 151.257C131.562 144.863 135.201 137.25 136.844 129.103C139.603 115.122 152.151 102.718 161.079 99.0818L224.496 148.225C215.707 151.813 204.932 163.732 201.973 177.434C200.312 185.573 196.683 193.18 191.402 199.591C186.121 206.002 179.349 211.021 171.68 214.21L113.792 237.841C111.738 238.69 109.887 239.964 108.361 241.58C106.836 243.196 105.67 245.118 104.94 247.217C101.186 257.635 92.1699 267.822 82.5971 271.727L82.5783 271.671Z" fill="url(#paint23_linear_4223_2)"/>
<path opacity="0.8" d="M161.067 99.0674L224.484 148.21C223.894 148.461 223.303 148.724 222.707 149.013L159.29 99.8698C159.886 99.5807 160.477 99.3176 161.067 99.0674Z" fill="#1B1773"/>
<g opacity="0.32">
<path d="M180.516 149.593L191.628 158.233L191.909 156.856L180.819 148.245L180.516 149.593Z" fill="#5778FF"/>
<path d="M174.92 145.228L178.842 148.292L179.146 146.944L175.233 143.908L174.92 145.228Z" fill="#5778FF"/>
<path d="M170.626 141.889L173.256 143.942L173.569 142.622L170.938 140.568L170.626 141.889Z" fill="#5778FF"/>
<path d="M184.861 156.633L190.958 161.397L191.254 160.008L185.155 155.257L184.861 156.633Z" fill="#5778FF"/>
<path d="M175.81 149.558L183.164 155.302L183.456 153.939L176.114 148.21L175.81 149.558Z" fill="#5778FF"/>
<path d="M171.482 146.174L174.137 148.244L174.452 146.911L171.797 144.841L171.482 146.174Z" fill="#5778FF"/>
<path d="M167.394 142.981L170.038 145.037L170.351 143.717L167.72 141.663L167.394 142.981Z" fill="#5778FF"/>
<path d="M185.849 161.109L190.294 164.602L190.592 163.2L186.158 159.722L185.849 161.109Z" fill="#5778FF"/>
<path d="M182.636 158.578L184.141 159.763L184.45 158.376L182.943 157.204L182.636 158.578Z" fill="#5778FF"/>
<path d="M178.239 155.118L180.939 157.247L181.246 155.873L178.545 153.757L178.239 155.118Z" fill="#5778FF"/>
<path d="M173.373 154.995L189.617 167.817L189.917 166.402L173.693 153.623L173.373 154.995Z" fill="#5778FF"/>
<path d="M167.772 150.563L171.689 153.666L172.02 152.308L168.102 149.218L167.772 150.563Z" fill="#5778FF"/>
<path d="M184.47 167.523L188.948 171.06L189.235 169.644L184.782 166.11L184.47 167.523Z" fill="#5778FF"/>
<path d="M174.131 159.32L182.752 166.15L183.049 164.748L174.453 157.935L174.131 159.32Z" fill="#5778FF"/>
<path d="M169.762 155.851L172.449 157.978L172.769 156.606L170.082 154.478L169.762 155.851Z" fill="#5778FF"/>
<path d="M179.121 167.056L188.262 174.341L188.564 172.9L179.433 165.643L179.121 167.056Z" fill="#5778FF"/>
<path d="M170.923 160.523L177.402 165.697L177.727 164.285L171.245 159.137L170.923 160.523Z" fill="#5778FF"/>
<path d="M164.92 155.745L169.241 159.181L169.576 157.798L165.266 154.376L164.92 155.745Z" fill="#5778FF"/>
<path d="M184.446 175.143L187.57 177.648L187.875 176.194L184.761 173.704L184.446 175.143Z" fill="#5778FF"/>
<path d="M178.638 170.497L182.705 173.753L183.019 172.327L178.952 169.071L178.638 170.497Z" fill="#5778FF"/>
<path d="M170.443 163.937L176.921 169.111L177.234 167.698L170.782 162.528L170.443 163.937Z" fill="#5778FF"/>
<path d="M177.353 173.312L186.877 180.98L187.171 179.512L177.667 171.886L177.353 173.312Z" fill="#5778FF"/>
<path d="M166.895 164.908L175.623 171.924L175.95 170.5L167.234 163.498L166.895 164.908Z" fill="#5778FF"/>
<path d="M162.521 161.385L165.215 163.553L165.552 162.157L162.871 159.99L162.521 161.385Z" fill="#5778FF"/>
<path d="M158.374 158.039L161.032 160.175L161.38 158.794L158.721 156.657L158.374 158.039Z" fill="#5778FF"/>
<path d="M180.424 179.687L186.167 184.337L186.473 182.87L180.742 178.235L180.424 179.687Z" fill="#5778FF"/>
<path d="M158.737 132.64L151.513 127.02L151.857 125.757L159.071 131.362L158.737 132.64Z" fill="#5778FF"/>
<path d="M156.394 134.384L150.716 129.941L151.064 128.652L156.745 133.082L156.394 134.384Z" fill="#5778FF"/>
<path d="M154.027 136.111L149.905 132.874L150.253 131.585L154.377 134.809L154.027 136.111Z" fill="#5778FF"/>
<path d="M155.123 140.588L149.09 135.833L149.453 134.532L155.462 139.271L155.123 140.588Z" fill="#5778FF"/>
<path d="M152.427 142.099L148.284 138.819L148.636 137.504L152.779 140.784L152.427 142.099Z" fill="#5778FF"/>
<path d="M152.738 146.032L147.452 141.815L147.817 140.502L153.093 144.691L152.738 146.032Z" fill="#5778FF"/>
<path d="M149.499 147.164L146.626 144.852L146.992 143.526L149.867 145.825L149.499 147.164Z" fill="#5778FF"/>
<path d="M151.4 152.426L145.784 147.913L146.153 146.574L151.757 151.072L151.4 152.426Z" fill="#5778FF"/>
<path d="M150.276 155.317L144.94 150.987L145.31 149.635L150.637 153.937L150.276 155.317Z" fill="#5778FF"/>
<path d="M176.264 176.326L178.682 178.285L179 176.833L176.58 174.887L176.264 176.326Z" fill="#5778FF"/>
<path d="M169.162 170.591L174.536 174.938L174.867 173.488L169.502 169.168L169.162 170.591Z" fill="#5778FF"/>
</g>
</g>
<defs>
<linearGradient id="paint0_linear_4223_2" x1="278.377" y1="123.655" x2="106.936" y2="123.655" gradientUnits="userSpaceOnUse">
<stop stop-color="#C0D6FF"/>
<stop offset="0.3" stop-color="#C5DBFF"/>
<stop offset="0.65" stop-color="#D3E9FF"/>
<stop offset="1" stop-color="#E9FFFF"/>
</linearGradient>
<linearGradient id="paint1_linear_4223_2" x1="278.385" y1="167.618" x2="248.992" y2="167.618" gradientUnits="userSpaceOnUse">
<stop stop-color="#5778FF"/>
<stop offset="0.18" stop-color="#5C7DFF"/>
<stop offset="0.39" stop-color="#6A8AFF"/>
<stop offset="0.61" stop-color="#82A0FF"/>
<stop offset="0.85" stop-color="#A3BEFF"/>
<stop offset="1" stop-color="#BCD5FF"/>
</linearGradient>
<linearGradient id="paint2_linear_4223_2" x1="255.371" y1="217.011" x2="13.2778" y2="217.011" gradientUnits="userSpaceOnUse">
<stop stop-color="#5778FF"/>
<stop offset="0.18" stop-color="#5C7DFF"/>
<stop offset="0.39" stop-color="#6A8AFF"/>
<stop offset="0.61" stop-color="#82A0FF"/>
<stop offset="0.85" stop-color="#A3BEFF"/>
<stop offset="1" stop-color="#BCD5FF"/>
</linearGradient>
<linearGradient id="paint3_linear_4223_2" x1="173.998" y1="208.925" x2="-68.1961" y2="208.925" gradientUnits="userSpaceOnUse">
<stop stop-color="#C0D6FF"/>
<stop offset="0.3" stop-color="#C5DBFF"/>
<stop offset="0.65" stop-color="#D3E9FF"/>
<stop offset="1" stop-color="#E9FFFF"/>
</linearGradient>
<linearGradient id="paint4_linear_4223_2" x1="133.029" y1="222.7" x2="71.0108" y2="222.7" gradientUnits="userSpaceOnUse">
<stop stop-color="#C0BFF6"/>
<stop offset="0.29" stop-color="#C5C4F7"/>
<stop offset="0.64" stop-color="#D3D2F9"/>
<stop offset="1" stop-color="#E9E9FD"/>
</linearGradient>
<linearGradient id="paint5_linear_4223_2" x1="266.624" y1="155.24" x2="24.3345" y2="155.24" gradientUnits="userSpaceOnUse">
<stop stop-color="#C0BFF6"/>
<stop offset="0.29" stop-color="#C5C4F7"/>
<stop offset="0.64" stop-color="#D3D2F9"/>
<stop offset="1" stop-color="#E9E9FD"/>
</linearGradient>
<linearGradient id="paint6_linear_4223_2" x1="282.568" y1="137.461" x2="220.549" y2="137.461" gradientUnits="userSpaceOnUse">
<stop stop-color="#C0BFF6"/>
<stop offset="0.29" stop-color="#C5C4F7"/>
<stop offset="0.64" stop-color="#D3D2F9"/>
<stop offset="1" stop-color="#E9E9FD"/>
</linearGradient>
<radialGradient id="paint7_radial_4223_2" cx="0" cy="0" r="1" gradientUnits="userSpaceOnUse" gradientTransform="translate(184.846 186.42) rotate(180) scale(69.4523 69.4523)">
<stop stop-color="#2B237C"/>
<stop offset="1" stop-color="#180D5B"/>
</radialGradient>
<radialGradient id="paint8_radial_4223_2" cx="0" cy="0" r="1" gradientUnits="userSpaceOnUse" gradientTransform="translate(200.03 155.175) rotate(180) scale(53.1677 53.1677)">
<stop stop-color="#2B237C"/>
<stop offset="1" stop-color="#180D5B"/>
</radialGradient>
<linearGradient id="paint9_linear_4223_2" x1="225.122" y1="142.679" x2="170.048" y2="71.783" gradientUnits="userSpaceOnUse">
<stop stop-color="#5778FF"/>
<stop offset="0.18" stop-color="#5C7DFF"/>
<stop offset="0.39" stop-color="#6A8AFF"/>
<stop offset="0.61" stop-color="#82A0FF"/>
<stop offset="0.85" stop-color="#A3BEFF"/>
<stop offset="1" stop-color="#BCD5FF"/>
</linearGradient>
<linearGradient id="paint10_linear_4223_2" x1="184.663" y1="143.177" x2="197.097" y2="110.579" gradientUnits="userSpaceOnUse">
<stop stop-color="#C0D6FF"/>
<stop offset="0.3" stop-color="#C5DBFF"/>
<stop offset="0.65" stop-color="#D3E9FF"/>
<stop offset="1" stop-color="#E9FFFF"/>
</linearGradient>
<linearGradient id="paint11_linear_4223_2" x1="77.397" y1="280.365" x2="176.455" y2="104.826" gradientUnits="userSpaceOnUse">
<stop stop-color="#7594FF"/>
<stop offset="0.08" stop-color="#A6C1FF"/>
<stop offset="0.13" stop-color="#B9D2FF"/>
<stop offset="0.18" stop-color="#D6E4FF"/>
<stop offset="0.21" stop-color="#E2EFFF"/>
<stop offset="0.26" stop-color="#D7E5FE"/>
<stop offset="0.32" stop-color="#BBD3FE"/>
<stop offset="0.39" stop-color="#A9C3FE"/>
<stop offset="0.51" stop-color="#AAC4FE"/>
<stop offset="0.62" stop-color="#D7E4FE"/>
<stop offset="0.75" stop-color="#DEECFF"/>
<stop offset="1" stop-color="#A8C2FE"/>
</linearGradient>
<linearGradient id="paint12_linear_4223_2" x1="284.929" y1="136.68" x2="115.07" y2="113.447" gradientUnits="userSpaceOnUse">
<stop stop-color="#C0D6FF"/>
<stop offset="0.3" stop-color="#C5DBFF"/>
<stop offset="0.65" stop-color="#D3E9FF"/>
<stop offset="1" stop-color="#E9FFFF"/>
</linearGradient>
<linearGradient id="paint13_linear_4223_2" x1="278.98" y1="180.24" x2="249.858" y2="176.256" gradientUnits="userSpaceOnUse">
<stop stop-color="#5778FF"/>
<stop offset="0.18" stop-color="#5C7DFF"/>
<stop offset="0.39" stop-color="#6A8AFF"/>
<stop offset="0.61" stop-color="#82A0FF"/>
<stop offset="0.85" stop-color="#A3BEFF"/>
<stop offset="1" stop-color="#BCD5FF"/>
</linearGradient>
<linearGradient id="paint14_linear_4223_2" x1="249.484" y1="226.058" x2="9.62419" y2="193.249" gradientUnits="userSpaceOnUse">
<stop stop-color="#5778FF"/>
<stop offset="0.18" stop-color="#5C7DFF"/>
<stop offset="0.39" stop-color="#6A8AFF"/>
<stop offset="0.61" stop-color="#82A0FF"/>
<stop offset="0.85" stop-color="#A3BEFF"/>
<stop offset="1" stop-color="#BCD5FF"/>
</linearGradient>
<linearGradient id="paint15_linear_4223_2" x1="169.958" y1="207.019" x2="-70.0015" y2="174.197" gradientUnits="userSpaceOnUse">
<stop stop-color="#C0D6FF"/>
<stop offset="0.3" stop-color="#C5DBFF"/>
<stop offset="0.65" stop-color="#D3E9FF"/>
<stop offset="1" stop-color="#E9FFFF"/>
</linearGradient>
<linearGradient id="paint16_linear_4223_2" x1="127.5" y1="215.115" x2="66.0543" y2="206.71" gradientUnits="userSpaceOnUse">
<stop stop-color="#C0BFF6"/>
<stop offset="0.29" stop-color="#C5C4F7"/>
<stop offset="0.64" stop-color="#D3D2F9"/>
<stop offset="1" stop-color="#E9E9FD"/>
</linearGradient>
<linearGradient id="paint17_linear_4223_2" x1="269.005" y1="166.382" x2="28.9503" y2="133.547" gradientUnits="userSpaceOnUse">
<stop stop-color="#C0BFF6"/>
<stop offset="0.29" stop-color="#C5C4F7"/>
<stop offset="0.64" stop-color="#D3D2F9"/>
<stop offset="1" stop-color="#E9E9FD"/>
</linearGradient>
<linearGradient id="paint18_linear_4223_2" x1="287.211" y1="150.927" x2="225.765" y2="142.523" gradientUnits="userSpaceOnUse">
<stop stop-color="#C0BFF6"/>
<stop offset="0.29" stop-color="#C5C4F7"/>
<stop offset="0.64" stop-color="#D3D2F9"/>
<stop offset="1" stop-color="#E9E9FD"/>
</linearGradient>
<radialGradient id="paint19_radial_4223_2" cx="0" cy="0" r="1" gradientUnits="userSpaceOnUse" gradientTransform="translate(183.755 186.191) rotate(-172.211) scale(69.4523 69.4523)">
<stop stop-color="#2B237C"/>
<stop offset="1" stop-color="#180D5B"/>
</radialGradient>
<radialGradient id="paint20_radial_4223_2" cx="0" cy="0" r="1" gradientUnits="userSpaceOnUse" gradientTransform="translate(203.034 157.292) rotate(-172.211) scale(53.1677 53.1677)">
<stop stop-color="#2B237C"/>
<stop offset="1" stop-color="#180D5B"/>
</radialGradient>
<linearGradient id="paint21_linear_4223_2" x1="229.587" y1="148.312" x2="184.629" y2="70.6068" gradientUnits="userSpaceOnUse">
<stop stop-color="#5778FF"/>
<stop offset="0.18" stop-color="#5C7DFF"/>
<stop offset="0.39" stop-color="#6A8AFF"/>
<stop offset="0.61" stop-color="#82A0FF"/>
<stop offset="0.85" stop-color="#A3BEFF"/>
<stop offset="1" stop-color="#BCD5FF"/>
</linearGradient>
<linearGradient id="paint22_linear_4223_2" x1="189.434" y1="143.322" x2="206.171" y2="112.711" gradientUnits="userSpaceOnUse">
<stop stop-color="#C0D6FF"/>
<stop offset="0.3" stop-color="#C5DBFF"/>
<stop offset="0.65" stop-color="#D3E9FF"/>
<stop offset="1" stop-color="#E9FFFF"/>
</linearGradient>
<linearGradient id="paint23_linear_4223_2" x1="64.5668" y1="264.708" x2="186.5" y2="104.213" gradientUnits="userSpaceOnUse">
<stop stop-color="#7594FF"/>
<stop offset="0.08" stop-color="#A6C1FF"/>
<stop offset="0.13" stop-color="#B9D2FF"/>
<stop offset="0.18" stop-color="#D6E4FF"/>
<stop offset="0.21" stop-color="#E2EFFF"/>
<stop offset="0.26" stop-color="#D7E5FE"/>
<stop offset="0.32" stop-color="#BBD3FE"/>
<stop offset="0.39" stop-color="#A9C3FE"/>
<stop offset="0.51" stop-color="#AAC4FE"/>
<stop offset="0.62" stop-color="#D7E4FE"/>
<stop offset="0.75" stop-color="#DEECFF"/>
<stop offset="1" stop-color="#A8C2FE"/>
</linearGradient>
</defs>
</svg>
