<svg width="481" height="478" viewBox="0 0 481 478" fill="none" xmlns="http://www.w3.org/2000/svg">
<path d="M170.091 203.883L203.821 3.83611L201.114 2.69891L205.141 0.357609C205.63 0.0901165 206.186 -0.0315494 206.743 0.00697319C207.299 0.0454958 207.833 0.242599 208.281 0.575015L477.486 156.104C478.621 156.832 479.543 157.849 480.157 159.051C480.77 160.252 481.054 161.596 480.977 162.944L447.013 364.596C446.975 365.033 446.825 365.452 446.576 365.813C446.327 366.174 445.988 366.463 445.593 366.653L441.617 368.961L440.932 365.232H441.166L173.582 210.74C172.444 210.011 171.521 208.991 170.907 207.786C170.293 206.581 170.011 205.234 170.091 203.883Z" fill="url(#paint0_linear_4005_291)"/>
<path d="M475.965 161.656L480.392 159.699C480.895 160.738 481.092 161.898 480.96 163.044L447.013 364.596C446.975 365.033 446.825 365.452 446.576 365.813C446.327 366.173 445.988 366.463 445.593 366.653L441.617 368.961L440.932 365.232H441.166L427.634 357.405L475.965 161.656Z" fill="url(#paint1_linear_4005_291)"/>
<path d="M169.372 213.148L438.577 368.677C440.648 369.881 442.436 369.178 442.803 367.004L476.734 165.452C476.81 164.104 476.527 162.761 475.913 161.559C475.3 160.357 474.378 159.34 473.242 158.612L204.038 3.03309C201.966 1.829 200.179 2.53139 199.811 4.70545L165.864 206.308C165.789 207.657 166.075 209.002 166.692 210.204C167.308 211.406 168.234 212.422 169.372 213.148Z" fill="#242993"/>
<g opacity="0.51">
<path d="M207.563 15.8936L467.044 165.87L434.868 355.766L175.554 205.89L207.563 15.8936Z" fill="#4553C7"/>
</g>
<path d="M0.138489 308.623L14.8233 316.299L162.139 231.159C163.662 230.468 165.327 230.144 166.998 230.214C168.669 230.284 170.301 230.745 171.762 231.561L425.83 378.393C428.269 377.039 439.345 371.704 439.345 371.704L433.966 385.735C433.683 386.456 433.149 387.05 432.462 387.407L277.328 477.045C275.805 477.737 274.141 478.06 272.469 477.991C270.798 477.921 269.166 477.46 267.706 476.644L7.68971 326.383C6.70884 325.891 5.93354 325.068 5.50119 324.058L0.138489 308.623Z" fill="url(#paint2_linear_4005_291)"/>
<path d="M2.4103 311.081L268.875 465.088C270.372 465.922 272.044 466.392 273.755 466.462C275.467 466.532 277.172 466.199 278.731 465.49L437.741 373.51C440.264 372.055 439.947 369.496 437.04 367.807L170.575 213.85C169.078 213.017 167.406 212.547 165.695 212.477C163.983 212.407 162.279 212.74 160.719 213.449L1.67523 305.345C-0.814003 306.8 -0.496585 309.409 2.4103 311.081Z" fill="url(#paint3_linear_4005_291)"/>
<path d="M437.708 371.905L278.698 463.884C277.138 464.593 275.434 464.926 273.722 464.857C272.01 464.787 270.339 464.316 268.841 463.483L2.41034 309.409C1.40895 308.905 0.616539 308.064 0.1717 307.034C-0.329487 308.372 0.422293 309.911 2.41034 311.048L268.875 465.055C270.372 465.888 272.044 466.359 273.755 466.429C275.467 466.498 277.172 466.165 278.732 465.456L437.741 373.477C438.374 373.219 438.883 372.729 439.166 372.107C439.449 371.485 439.483 370.779 439.262 370.132C438.976 370.892 438.424 371.522 437.708 371.905Z" fill="white"/>
<path d="M349.249 431.724V428.798C349.249 428.513 349.081 428.396 348.864 428.513L338.557 434.467C338.441 434.548 338.345 434.656 338.279 434.781C338.212 434.905 338.175 435.044 338.172 435.186V438.179C338.172 438.464 338.339 438.581 338.557 438.464L348.864 432.51C348.99 432.422 349.091 432.304 349.158 432.167C349.225 432.029 349.256 431.877 349.249 431.724Z" fill="#2859CB"/>
<path d="M333.845 440.622V437.695C333.845 437.411 333.678 437.294 333.461 437.411L323.153 443.364C323.037 443.446 322.942 443.553 322.876 443.678C322.809 443.803 322.772 443.942 322.769 444.083V447.01C322.769 447.294 322.936 447.411 323.153 447.294L333.461 441.341C333.577 441.259 333.672 441.152 333.739 441.027C333.806 440.902 333.842 440.763 333.845 440.622Z" fill="#2859CB"/>
<path d="M396.293 364.93L174.852 236.962C174.126 236.54 173.302 236.318 172.463 236.318C171.624 236.318 170.8 236.54 170.074 236.962L91.2374 282.65C90.9722 282.794 90.7506 283.006 90.5962 283.265C90.4418 283.524 90.3603 283.82 90.3603 284.122C90.3603 284.424 90.4418 284.72 90.5962 284.979C90.7506 285.238 90.9722 285.451 91.2374 285.594L312.562 413.512C313.285 413.931 314.106 414.151 314.942 414.151C315.778 414.151 316.599 413.931 317.323 413.512L396.293 367.941C396.576 367.804 396.814 367.59 396.981 367.324C397.147 367.057 397.236 366.75 397.236 366.435C397.236 366.121 397.147 365.813 396.981 365.547C396.814 365.281 396.576 365.067 396.293 364.93Z" fill="#ADC8FF"/>
<path d="M396.293 367.941L395.508 368.393L174.852 240.842C174.126 240.421 173.302 240.199 172.463 240.199C171.624 240.199 170.8 240.421 170.074 240.842L92.0226 285.996L91.2374 285.544C90.9722 285.401 90.7506 285.189 90.5962 284.93C90.4418 284.67 90.3603 284.374 90.3603 284.073C90.3603 283.771 90.4418 283.475 90.5962 283.216C90.7506 282.957 90.9722 282.744 91.2374 282.601L170.091 236.929C170.817 236.508 171.641 236.286 172.48 236.286C173.319 236.286 174.143 236.508 174.869 236.929L396.293 364.931C396.576 365.068 396.814 365.282 396.981 365.548C397.147 365.814 397.236 366.122 397.236 366.436C397.236 366.75 397.147 367.058 396.981 367.324C396.814 367.59 396.576 367.804 396.293 367.941Z" fill="#91AFFF"/>
<path d="M164.143 248.535L356.482 359.696L365.036 354.746L172.68 243.584L164.143 248.535Z" fill="#242993"/>
<path d="M143.16 260.643L323.571 364.915L332.125 359.981L151.714 255.71L143.16 260.643Z" fill="#242993"/>
<path d="M129.511 268.536L341.931 391.304L350.485 386.354L138.065 263.603L129.511 268.536Z" fill="#242993"/>
<path d="M115.862 276.43L328.265 399.197L336.819 394.247L124.416 271.496L115.862 276.43Z" fill="#242993"/>
<path d="M102.197 284.324L314.616 407.091L323.17 402.141L110.75 279.39L102.197 284.324Z" fill="#242993"/>
<path d="M368.093 366.42L376.647 371.353L385.2 366.42L376.647 361.47L368.093 366.42Z" fill="#242993"/>
<path d="M337.938 373.209L355.68 383.478L364.234 378.527L346.492 368.276L337.938 373.209Z" fill="#242993"/>
<path d="M166.332 395.903L106.624 361.403C104.285 360.048 104.285 357.874 106.624 356.519L147.454 332.922C148.764 332.257 150.212 331.91 151.681 331.91C153.149 331.91 154.597 332.257 155.907 332.922L215.615 367.423C217.954 368.778 217.954 370.952 215.615 372.306L174.785 395.903C173.476 396.569 172.027 396.916 170.559 396.916C169.09 396.916 167.642 396.569 166.332 395.903Z" fill="url(#paint4_linear_4005_291)"/>
<path d="M215.615 369.43L155.907 334.912C154.597 334.247 153.149 333.9 151.681 333.9C150.212 333.9 148.764 334.247 147.454 334.912L106.624 358.509C106.007 358.838 105.496 359.337 105.154 359.947C104.536 358.76 105.003 357.439 106.624 356.502L147.454 332.905C148.764 332.24 150.212 331.893 151.681 331.893C153.149 331.893 154.597 332.24 155.907 332.905L215.615 367.406C217.286 368.343 217.704 369.664 217.085 370.851C216.74 370.247 216.23 369.754 215.615 369.43Z" fill="#91AFFF"/>
<g opacity="0.11">
<mask id="mask0_4005_291" style="mask-type:luminance" maskUnits="userSpaceOnUse" x="175" y="15" width="293" height="341">
<path d="M207.563 15.8936L467.044 165.87L434.868 355.766L175.554 205.89L207.563 15.8936Z" fill="white"/>
</mask>
<g mask="url(#mask0_4005_291)">
<path d="M170.308 213.533L436.772 367.54C438.27 368.373 439.941 368.844 441.653 368.914C443.365 368.983 445.069 368.65 446.629 367.941L605.639 275.962C608.162 274.507 607.844 271.948 604.937 270.259L338.456 116.352C336.959 115.519 335.287 115.048 333.576 114.979C331.864 114.909 330.16 115.242 328.6 115.951L169.59 207.931C167.067 209.302 167.384 211.844 170.308 213.533Z" fill="url(#paint5_linear_4005_291)"/>
<path d="M437.558 241.144L377.85 206.643C375.511 205.288 375.511 203.114 377.85 201.76L418.68 178.163C419.989 177.497 421.437 177.15 422.906 177.15C424.375 177.15 425.823 177.497 427.133 178.163L486.841 212.663C489.18 214.018 489.18 216.192 486.841 217.547L446.061 241.144C444.745 241.817 443.288 242.169 441.809 242.169C440.331 242.169 438.874 241.817 437.558 241.144Z" fill="url(#paint6_linear_4005_291)"/>
<path d="M486.841 214.653L427.133 180.152C425.823 179.486 424.375 179.14 422.906 179.14C421.437 179.14 419.989 179.486 418.68 180.152L377.85 203.749C377.232 204.078 376.722 204.577 376.379 205.187C375.761 204 376.229 202.679 377.85 201.742L418.68 178.145C419.989 177.48 421.437 177.133 422.906 177.133C424.375 177.133 425.823 177.48 427.133 178.145L486.841 212.646C488.512 213.582 488.929 214.903 488.311 216.091C487.969 215.481 487.458 214.981 486.841 214.653Z" fill="#91AFFF"/>
<path d="M513.087 295.06L291.662 167.092C290.936 166.67 290.112 166.448 289.273 166.448C288.434 166.448 287.61 166.67 286.884 167.092L208.031 212.764C207.765 212.907 207.544 213.119 207.389 213.378C207.235 213.638 207.154 213.934 207.154 214.235C207.154 214.537 207.235 214.833 207.389 215.092C207.544 215.351 207.765 215.564 208.031 215.707L429.355 343.625C430.079 344.044 430.9 344.264 431.735 344.264C432.571 344.264 433.392 344.044 434.116 343.625L513.07 298.02C513.34 297.88 513.567 297.668 513.726 297.408C513.884 297.148 513.969 296.85 513.971 296.545C513.973 296.241 513.891 295.941 513.735 295.679C513.579 295.418 513.355 295.204 513.087 295.06Z" fill="#ADC8FF"/>
<path d="M513.087 298.02L512.301 298.471L291.662 170.954C290.936 170.533 290.112 170.311 289.273 170.311C288.434 170.311 287.61 170.533 286.884 170.954L208.833 216.108L208.047 215.656C207.782 215.513 207.561 215.3 207.406 215.041C207.252 214.782 207.17 214.486 207.17 214.185C207.17 213.883 207.252 213.587 207.406 213.328C207.561 213.069 207.782 212.856 208.047 212.713L286.901 167.041C287.627 166.619 288.451 166.397 289.29 166.397C290.129 166.397 290.953 166.619 291.679 167.041L513.103 295.009C513.385 295.148 513.622 295.363 513.787 295.63C513.952 295.897 514.039 296.206 514.037 296.52C514.036 296.834 513.945 297.141 513.777 297.407C513.609 297.672 513.37 297.884 513.087 298.02Z" fill="#91AFFF"/>
<path d="M228.68 209.652L421.57 321.131L413.935 325.546L221.028 214.067L228.68 209.652Z" fill="#242993"/>
<path d="M248.994 197.896L432.345 303.874L424.711 308.289L241.36 202.311L248.994 197.896Z" fill="#242993"/>
<path d="M446.044 311.784L463.168 321.684L455.517 326.099L438.393 316.199L446.044 311.784Z" fill="#242993"/>
<path d="M430.909 326.534L442.837 333.424L435.202 337.839L423.274 330.949L430.909 326.534Z" fill="#242993"/>
<path d="M261.741 190.538L475.898 314.326L468.264 318.741L254.09 194.953L261.741 190.538Z" fill="#242993"/>
<path d="M274.471 183.179L488.645 306.95L480.994 311.382L266.837 187.594L274.471 183.179Z" fill="#242993"/>
<path d="M287.202 175.821L501.375 299.592L493.724 304.007L279.567 180.236L287.202 175.821Z" fill="#242993"/>
<path d="M256.362 181.524L392.868 260.425C396.594 262.583 399.551 260.292 399.551 255.308V178.714C399.551 173.697 396.527 167.944 392.868 165.787L256.362 86.902C252.636 84.7447 249.679 87.0358 249.679 92.0194V168.613C249.612 173.58 252.636 179.366 256.362 181.524Z" fill="url(#paint7_linear_4005_291)"/>
</g>
</g>
<path opacity="0.6" d="M250.03 201.375L386.537 280.277C390.262 282.434 393.219 280.143 393.219 275.159V198.565C393.219 193.548 390.195 187.795 386.537 185.638L250.03 106.753C246.305 104.596 243.348 106.887 243.348 111.871V188.464C243.281 193.448 246.305 199.218 250.03 201.375Z" fill="#242993"/>
<path d="M232.89 92.5887L236.799 89.7958C237.512 89.3176 238.356 89.0721 239.215 89.093C240.073 89.114 240.904 89.4004 241.594 89.9129L378.1 168.815C381.826 170.972 384.783 176.758 384.783 181.742V258.336C384.888 259.336 384.746 260.347 384.37 261.28C383.995 262.213 383.396 263.039 382.628 263.687L378.568 266.597L378.351 263.62L378.017 263.453L241.577 184.535C237.851 182.377 234.894 176.591 234.894 171.607V95.0136C234.894 94.3396 234.961 93.6673 235.095 93.0068L232.89 92.5887Z" fill="url(#paint8_linear_4005_291)"/>
<path d="M384.499 178.663L348.463 199.484L339.392 194.233L380.305 170.603C382.391 172.87 383.838 175.652 384.499 178.663Z" fill="url(#paint9_linear_4005_291)"/>
<path d="M237.5 187.444L374.007 266.345C377.733 268.503 380.69 266.212 380.69 261.228V184.634C380.69 179.617 377.666 173.864 374.007 171.707L237.5 92.822C233.775 90.6646 230.818 92.9557 230.818 97.9394V174.533C230.751 179.5 233.775 185.286 237.5 187.444Z" fill="url(#paint10_linear_4005_291)"/>
<path d="M250.13 139.212L361.544 203.548C362.413 204.049 363.215 204.317 363.633 203.548C363.633 203.431 363.633 203.247 363.633 203.079V186.155C363.611 185.498 363.439 184.854 363.129 184.274C362.819 183.694 362.38 183.193 361.845 182.811L249.562 117.923C249.479 117.923 249.395 117.789 249.295 117.806C248.46 117.94 248.426 118.726 248.426 119.913L248.159 136.135C248.213 136.77 248.42 137.382 248.764 137.918C249.107 138.455 249.576 138.899 250.13 139.212Z" fill="#5778FF"/>
<path d="M249.897 176.004L361.494 240.39C362.346 240.892 363.466 241.41 363.633 240.39C363.646 240.234 363.646 240.078 363.633 239.922V223.048C363.611 222.39 363.439 221.746 363.129 221.166C362.819 220.586 362.38 220.086 361.845 219.703L249.562 154.816L249.312 154.699C248.443 154.364 248.226 155.485 248.226 156.672V172.693C248.227 173.337 248.379 173.972 248.669 174.547C248.959 175.122 249.379 175.621 249.897 176.004Z" fill="#5778FF"/>
<path d="M249.362 117.74C249.35 117.89 249.35 118.041 249.362 118.191V135.116C249.383 135.773 249.555 136.417 249.865 136.997C250.175 137.577 250.615 138.078 251.149 138.46L363.432 203.348L363.699 203.465C363.532 204.451 362.814 204.853 362.029 204.351L249.746 139.464C249.212 139.081 248.772 138.58 248.462 138C248.152 137.42 247.98 136.776 247.959 136.119V119.211C247.842 118.007 248.493 117.422 249.362 117.74Z" fill="white"/>
<path d="M249.362 154.633C249.349 154.789 249.349 154.945 249.362 155.101V172.025C249.383 172.683 249.555 173.326 249.865 173.907C250.175 174.487 250.615 174.987 251.149 175.37L363.432 240.257L363.699 240.374C363.532 241.361 362.814 241.762 362.029 241.261L249.746 176.373C249.212 175.991 248.772 175.49 248.462 174.91C248.152 174.33 247.98 173.686 247.959 173.029V156.088C247.842 154.9 248.493 154.298 249.362 154.633Z" fill="white"/>
<path d="M331.59 178.329L330.22 180.938L327.614 177.593L329.602 175.553L326.628 172.526L327.597 170.017L330.27 173.362L329.903 169.432L333.244 171.322L332.893 174.817L335.583 174.65L336.568 178.262L333.645 177.878L335.616 182.242L333.043 182.51L331.59 178.329Z" fill="white"/>
<path d="M318.676 170.871L317.306 173.48L314.7 170.135L316.688 168.095L313.714 165.068L314.683 162.559L317.356 165.904L316.989 161.974L320.33 163.864L319.979 167.359L322.669 167.192L323.655 170.804L320.731 170.42L322.702 174.784L320.13 175.052L318.676 170.871Z" fill="white"/>
<path d="M305.729 163.412L304.359 166.02L301.753 162.676L303.741 160.635L300.767 157.609L301.736 155.1L304.409 158.445L304.058 154.515L307.399 156.404L307.049 159.9L309.738 159.732L310.724 163.345L307.8 162.96L309.772 167.325L307.199 167.592L305.729 163.412Z" fill="white"/>
<path d="M292.865 155.953L291.495 158.562L288.889 155.217L290.877 153.177L287.903 150.15L288.872 147.641L291.545 150.986L291.178 147.056L294.519 148.946L294.168 152.441L296.858 152.274L297.843 155.886L294.87 155.552L296.841 159.917L294.268 160.184L292.865 155.953Z" fill="white"/>
<path d="M279.968 148.494L278.598 151.103L275.992 147.758L277.98 145.718L275.006 142.691L275.975 140.182L278.648 143.527L278.28 139.597L281.622 141.487L281.271 144.982L283.961 144.815L284.946 148.427L282.023 148.043L284.011 152.424L281.438 152.692L279.968 148.494Z" fill="white"/>
<path d="M331.59 215.222L330.22 217.831L327.614 214.486L329.602 212.446L326.628 209.419L327.597 206.911L330.27 210.255L329.903 206.325L333.244 208.215L332.893 211.71L335.583 211.543L336.568 215.155L333.645 214.771L335.616 219.135L333.043 219.403L331.59 215.222Z" fill="white"/>
<path d="M318.676 207.764L317.306 210.372L314.7 207.028L316.688 204.988L313.714 201.961L314.683 199.452L317.356 202.797L316.989 198.867L320.33 200.756L319.979 204.252L322.669 204.084L323.655 207.697L320.764 207.396L322.736 211.761L320.163 212.028L318.676 207.764Z" fill="white"/>
<path d="M305.729 200.304L304.359 202.913L301.753 199.568L303.741 197.528L300.767 194.501L301.736 191.992L304.409 195.337L304.041 191.407L307.383 193.296L307.032 196.792L309.722 196.624L310.707 200.237L307.784 199.852L309.755 204.217L307.182 204.485L305.729 200.304Z" fill="white"/>
<path d="M292.865 192.845L291.495 195.454L288.889 192.11L290.877 190.069L287.903 187.042L288.872 184.534L291.545 187.879L291.194 183.982L294.536 185.872L294.185 189.367L296.874 189.2L297.86 192.812L294.87 192.344L296.841 196.709L294.268 196.976L292.865 192.845Z" fill="white"/>
<path d="M279.968 185.387L278.598 187.996L275.992 184.651L277.98 182.611L275.006 179.584L275.975 177.075L278.648 180.42L278.28 176.49L281.622 178.38L281.271 181.875L283.961 181.707L284.946 185.32L282.023 184.935L283.994 189.3L281.421 189.568L279.968 185.387Z" fill="white"/>
<defs>
<linearGradient id="paint0_linear_4005_291" x1="481.011" y1="184.517" x2="170.041" y2="184.517" gradientUnits="userSpaceOnUse">
<stop stop-color="#C0D6FF"/>
<stop offset="0.3" stop-color="#C5DBFF"/>
<stop offset="0.65" stop-color="#D3E9FF"/>
<stop offset="1" stop-color="#E9FFFF"/>
</linearGradient>
<linearGradient id="paint1_linear_4005_291" x1="481.011" y1="264.355" x2="427.617" y2="264.355" gradientUnits="userSpaceOnUse">
<stop stop-color="#5778FF"/>
<stop offset="0.18" stop-color="#5C7DFF"/>
<stop offset="0.39" stop-color="#6A8AFF"/>
<stop offset="0.61" stop-color="#82A0FF"/>
<stop offset="0.85" stop-color="#A3BEFF"/>
<stop offset="1" stop-color="#BCD5FF"/>
</linearGradient>
<linearGradient id="paint2_linear_4005_291" x1="439.362" y1="354.094" x2="0.155191" y2="354.094" gradientUnits="userSpaceOnUse">
<stop stop-color="#5778FF"/>
<stop offset="0.18" stop-color="#5C7DFF"/>
<stop offset="0.39" stop-color="#6A8AFF"/>
<stop offset="0.61" stop-color="#82A0FF"/>
<stop offset="0.85" stop-color="#A3BEFF"/>
<stop offset="1" stop-color="#BCD5FF"/>
</linearGradient>
<linearGradient id="paint3_linear_4005_291" x1="291.779" y1="339.444" x2="-147.662" y2="339.444" gradientUnits="userSpaceOnUse">
<stop stop-color="#C0D6FF"/>
<stop offset="0.3" stop-color="#C5DBFF"/>
<stop offset="0.65" stop-color="#D3E9FF"/>
<stop offset="1" stop-color="#E9FFFF"/>
</linearGradient>
<linearGradient id="paint4_linear_4005_291" x1="217.353" y1="364.413" x2="104.87" y2="364.413" gradientUnits="userSpaceOnUse">
<stop stop-color="#C0D6FF"/>
<stop offset="0.3" stop-color="#C5DBFF"/>
<stop offset="0.65" stop-color="#D3E9FF"/>
<stop offset="1" stop-color="#E9FFFF"/>
</linearGradient>
<linearGradient id="paint5_linear_4005_291" x1="459.677" y1="241.946" x2="20.2359" y2="241.946" gradientUnits="userSpaceOnUse">
<stop stop-color="#C0D6FF"/>
<stop offset="0.3" stop-color="#C5DBFF"/>
<stop offset="0.65" stop-color="#D3E9FF"/>
<stop offset="1" stop-color="#E9FFFF"/>
</linearGradient>
<linearGradient id="paint6_linear_4005_291" x1="488.595" y1="209.653" x2="376.112" y2="209.653" gradientUnits="userSpaceOnUse">
<stop stop-color="#C0D6FF"/>
<stop offset="0.3" stop-color="#C5DBFF"/>
<stop offset="0.65" stop-color="#D3E9FF"/>
<stop offset="1" stop-color="#E9FFFF"/>
</linearGradient>
<linearGradient id="paint7_linear_4005_291" x1="324.438" y1="218.249" x2="365.172" y2="147.446" gradientUnits="userSpaceOnUse">
<stop stop-color="#C0D6FF"/>
<stop offset="0.3" stop-color="#C5DBFF"/>
<stop offset="0.65" stop-color="#D3E9FF"/>
<stop offset="1" stop-color="#E9FFFF"/>
</linearGradient>
<linearGradient id="paint8_linear_4005_291" x1="366.573" y1="224.32" x2="231.204" y2="110.855" gradientUnits="userSpaceOnUse">
<stop stop-color="#5778FF"/>
<stop offset="0.18" stop-color="#5C7DFF"/>
<stop offset="0.39" stop-color="#6A8AFF"/>
<stop offset="0.61" stop-color="#82A0FF"/>
<stop offset="0.85" stop-color="#A3BEFF"/>
<stop offset="1" stop-color="#BCD5FF"/>
</linearGradient>
<linearGradient id="paint9_linear_4005_291" x1="369.296" y1="190.353" x2="354.515" y2="177.959" gradientUnits="userSpaceOnUse">
<stop stop-color="#C0D6FF"/>
<stop offset="0.3" stop-color="#C5DBFF"/>
<stop offset="0.65" stop-color="#D3E9FF"/>
<stop offset="1" stop-color="#E9FFFF"/>
</linearGradient>
<linearGradient id="paint10_linear_4005_291" x1="305.5" y1="224.104" x2="346.233" y2="153.301" gradientUnits="userSpaceOnUse">
<stop stop-color="#C0D6FF"/>
<stop offset="0.3" stop-color="#C5DBFF"/>
<stop offset="0.65" stop-color="#D3E9FF"/>
<stop offset="1" stop-color="#E9FFFF"/>
</linearGradient>
</defs>
</svg>
