<svg width="398" height="376" viewBox="0 0 398 376" fill="none" xmlns="http://www.w3.org/2000/svg">
<path d="M333.67 293.787V293.879C333.566 294.168 333.426 294.442 333.255 294.695L333.162 294.834C332.959 295.114 332.727 295.372 332.47 295.604C332.273 295.769 332.068 295.923 331.854 296.066C331.67 296.189 331.516 296.328 331.316 296.451L205.048 369.893C204.652 370.117 204.241 370.313 203.817 370.478L203.478 370.601L202.647 370.848L201.77 371.063C201.416 371.063 201.063 371.202 200.709 371.248H200.447C199.955 371.248 199.462 371.325 198.908 371.325H198.647C198.154 371.325 197.677 371.325 197.185 371.248H196.97C196.494 371.19 196.021 371.108 195.554 371.002H195.308C194.896 370.9 194.49 370.777 194.092 370.632H193.877C193.415 370.456 192.967 370.245 192.538 370.001L3.15153 260.415C2.38989 259.998 1.72825 259.42 1.21273 258.721C0.802084 258.163 0.576132 257.49 0.566467 256.796V261.324C0.642483 262.093 0.92015 262.829 1.37138 263.456C1.82261 264.083 2.43139 264.58 3.13614 264.897L192.6 374.374C193.005 374.605 193.427 374.806 193.861 374.975H194.077L194.861 375.237L195.292 375.344H195.539H195.769L196.631 375.498H196.939H197.154H197.477H198.339H199.231H200.201H200.309H200.57L201.309 375.391L201.632 375.314L202.509 375.098L202.971 374.975L203.324 374.836L203.663 374.713C204.087 374.548 204.498 374.352 204.894 374.128L331.162 300.686H331.27C331.439 300.578 331.562 300.47 331.7 300.363C331.914 300.22 332.12 300.066 332.316 299.901C332.511 299.72 332.691 299.524 332.855 299.315L332.947 299.177L333.039 299.038L333.208 298.792C333.298 298.634 333.375 298.469 333.439 298.299V298.222V298.13C333.476 298.024 333.507 297.916 333.532 297.806C333.546 297.637 333.546 297.467 333.532 297.298V292.678C333.645 293.036 333.692 293.412 333.67 293.787Z" fill="url(#paint0_linear_4008_879)"/>
<path d="M331.239 289.275C334.67 291.261 334.686 294.48 331.239 296.466L204.971 369.908C203.053 370.886 200.93 371.395 198.778 371.395C196.625 371.395 194.503 370.886 192.584 369.908L3.15154 260.415C-0.27982 258.429 -0.310594 255.21 3.15154 253.224L129.404 179.797C131.323 178.822 133.445 178.313 135.597 178.313C137.75 178.313 139.872 178.822 141.791 179.797L331.239 289.275Z" fill="url(#paint1_linear_4008_879)"/>
<g style="mix-blend-mode:overlay" opacity="0.49">
<path d="M190.553 302.025L111.124 256.134C110.6 255.867 110.02 255.728 109.431 255.728C108.843 255.728 108.263 255.867 107.739 256.134L63.4542 281.836C63.2496 281.905 63.0718 282.036 62.9459 282.212C62.8199 282.387 62.7521 282.598 62.7521 282.814C62.7521 283.03 62.8199 283.241 62.9459 283.416C63.0718 283.591 63.2496 283.723 63.4542 283.792L142.883 329.683C143.407 329.951 143.987 330.091 144.576 330.091C145.164 330.091 145.744 329.951 146.269 329.683L190.568 303.919C190.773 303.85 190.951 303.719 191.077 303.544C191.203 303.368 191.271 303.158 191.271 302.941C191.271 302.725 191.203 302.515 191.077 302.339C190.951 302.164 190.773 302.033 190.568 301.964" fill="#E0E0E0"/>
<path d="M144.699 200.217L137.467 196.028C137.164 195.874 136.83 195.794 136.49 195.794C136.15 195.794 135.816 195.874 135.513 196.028L128.081 200.356C127.961 200.396 127.857 200.472 127.784 200.574C127.71 200.677 127.67 200.799 127.67 200.925C127.67 201.052 127.71 201.174 127.784 201.277C127.857 201.379 127.961 201.455 128.081 201.495L135.313 205.684C135.618 205.839 135.955 205.92 136.298 205.92C136.64 205.92 136.977 205.839 137.282 205.684L144.714 201.357C144.834 201.317 144.938 201.24 145.012 201.138C145.085 201.036 145.125 200.913 145.125 200.787C145.125 200.661 145.085 200.538 145.012 200.436C144.938 200.333 144.834 200.257 144.714 200.217" fill="white"/>
<path d="M155.747 206.669L148.515 202.481C148.212 202.326 147.878 202.246 147.538 202.246C147.198 202.246 146.864 202.326 146.561 202.481L139.129 206.808C139.009 206.848 138.905 206.924 138.832 207.026C138.758 207.129 138.719 207.252 138.719 207.378C138.719 207.504 138.758 207.627 138.832 207.729C138.905 207.831 139.009 207.908 139.129 207.947L146.361 212.136C146.666 212.291 147.003 212.373 147.346 212.373C147.688 212.373 148.025 212.291 148.33 212.136L155.763 207.809C155.882 207.769 155.986 207.692 156.06 207.59C156.133 207.488 156.173 207.365 156.173 207.239C156.173 207.113 156.133 206.99 156.06 206.888C155.986 206.786 155.882 206.709 155.763 206.669" fill="white"/>
<path d="M166.795 213.06L159.563 208.887C159.258 208.731 158.921 208.65 158.578 208.65C158.236 208.65 157.899 208.731 157.594 208.887L150.162 213.214C150.042 213.254 149.938 213.33 149.864 213.433C149.791 213.535 149.751 213.658 149.751 213.784C149.751 213.91 149.791 214.033 149.864 214.135C149.938 214.237 150.042 214.314 150.162 214.354L157.394 218.527C157.699 218.681 158.036 218.762 158.378 218.762C158.72 218.762 159.058 218.681 159.363 218.527L166.795 214.2C167.334 213.892 167.318 213.368 166.795 213.06Z" fill="white"/>
<path d="M177.859 219.436L170.627 215.247C170.324 215.093 169.989 215.013 169.649 215.013C169.31 215.013 168.975 215.093 168.672 215.247L161.24 219.574C161.121 219.614 161.017 219.691 160.943 219.793C160.87 219.895 160.83 220.018 160.83 220.144C160.83 220.27 160.87 220.393 160.943 220.495C161.017 220.598 161.121 220.674 161.24 220.714L168.472 224.903C168.777 225.058 169.115 225.139 169.457 225.139C169.799 225.139 170.137 225.058 170.442 224.903L177.874 220.575C177.993 220.536 178.097 220.459 178.171 220.357C178.245 220.255 178.284 220.132 178.284 220.006C178.284 219.88 178.245 219.757 178.171 219.654C178.097 219.552 177.993 219.476 177.874 219.436" fill="white"/>
<path d="M188.907 225.827L181.675 221.638C181.372 221.484 181.037 221.404 180.697 221.404C180.358 221.404 180.023 221.484 179.72 221.638L172.288 225.965C172.169 226.005 172.065 226.082 171.991 226.184C171.918 226.286 171.878 226.409 171.878 226.535C171.878 226.661 171.918 226.784 171.991 226.886C172.065 226.989 172.169 227.065 172.288 227.105L179.52 231.293C179.825 231.449 180.163 231.53 180.505 231.53C180.847 231.53 181.185 231.449 181.49 231.293L188.922 226.966C189.041 226.926 189.145 226.85 189.219 226.748C189.293 226.645 189.332 226.523 189.332 226.396C189.332 226.27 189.293 226.148 189.219 226.045C189.145 225.943 189.041 225.867 188.922 225.827" fill="white"/>
<path d="M199.955 232.202L192.723 228.029C192.418 227.873 192.08 227.792 191.738 227.792C191.396 227.792 191.058 227.873 190.753 228.029L183.26 232.356C183.14 232.396 183.036 232.472 182.962 232.575C182.889 232.677 182.849 232.8 182.849 232.926C182.849 233.052 182.889 233.175 182.962 233.277C183.036 233.379 183.14 233.456 183.26 233.496L190.492 237.669C190.797 237.823 191.134 237.903 191.476 237.903C191.818 237.903 192.156 237.823 192.461 237.669L199.893 233.342C200.432 233.034 200.416 232.51 199.893 232.202" fill="white"/>
<path d="M210.957 238.593L203.725 234.42C203.422 234.266 203.087 234.186 202.747 234.186C202.408 234.186 202.073 234.266 201.77 234.42L194.385 238.716C194.265 238.756 194.161 238.833 194.087 238.935C194.014 239.037 193.974 239.16 193.974 239.286C193.974 239.412 194.014 239.535 194.087 239.637C194.161 239.74 194.265 239.816 194.385 239.856L201.617 244.045C201.922 244.2 202.259 244.281 202.601 244.281C202.944 244.281 203.281 244.2 203.586 244.045L211.018 239.717C211.138 239.678 211.242 239.601 211.315 239.499C211.389 239.397 211.429 239.274 211.429 239.148C211.429 239.022 211.389 238.899 211.315 238.796C211.242 238.694 211.138 238.618 211.018 238.578" fill="white"/>
<path d="M222.051 244.984L214.819 240.796C214.516 240.642 214.181 240.561 213.842 240.561C213.502 240.561 213.167 240.642 212.865 240.796L205.433 245.123C205.313 245.163 205.209 245.239 205.136 245.342C205.062 245.444 205.022 245.567 205.022 245.693C205.022 245.819 205.062 245.942 205.136 246.044C205.209 246.146 205.313 246.223 205.433 246.263L212.665 250.451C212.97 250.607 213.307 250.688 213.649 250.688C213.992 250.688 214.329 250.607 214.634 250.451L222.066 246.124C222.186 246.084 222.29 246.008 222.363 245.905C222.437 245.803 222.477 245.68 222.477 245.554C222.477 245.428 222.437 245.305 222.363 245.203C222.29 245.101 222.186 245.024 222.066 244.984" fill="white"/>
<path d="M233.099 251.36L225.867 247.187C225.562 247.031 225.224 246.95 224.882 246.95C224.54 246.95 224.202 247.031 223.897 247.187L216.465 251.514C216.346 251.554 216.242 251.63 216.168 251.732C216.095 251.835 216.055 251.957 216.055 252.083C216.055 252.21 216.095 252.332 216.168 252.435C216.242 252.537 216.346 252.613 216.465 252.653L223.697 256.826C224.003 256.981 224.34 257.061 224.682 257.061C225.024 257.061 225.362 256.981 225.667 256.826L233.114 252.576C233.653 252.268 233.638 251.745 233.114 251.437" fill="white"/>
<path d="M244.162 257.751L236.93 253.562C236.628 253.408 236.293 253.328 235.953 253.328C235.614 253.328 235.279 253.408 234.976 253.562L227.544 257.889C227.425 257.929 227.321 258.006 227.247 258.108C227.173 258.21 227.134 258.333 227.134 258.459C227.134 258.585 227.173 258.708 227.247 258.81C227.321 258.913 227.425 258.989 227.544 259.029L234.776 263.218C235.081 263.373 235.419 263.454 235.761 263.454C236.103 263.454 236.441 263.373 236.746 263.218L244.178 258.89C244.297 258.85 244.401 258.774 244.475 258.672C244.548 258.569 244.588 258.447 244.588 258.321C244.588 258.194 244.548 258.072 244.475 257.969C244.401 257.867 244.297 257.791 244.178 257.751" fill="white"/>
<path d="M255.21 264.142L247.978 259.953C247.676 259.799 247.341 259.719 247.001 259.719C246.662 259.719 246.327 259.799 246.024 259.953L238.654 264.28C238.534 264.32 238.43 264.397 238.357 264.499C238.283 264.601 238.243 264.724 238.243 264.85C238.243 264.976 238.283 265.099 238.357 265.201C238.43 265.303 238.534 265.38 238.654 265.42L245.886 269.608C246.191 269.764 246.528 269.845 246.87 269.845C247.213 269.845 247.55 269.764 247.855 269.608L255.287 265.281C255.407 265.241 255.511 265.165 255.584 265.063C255.658 264.96 255.698 264.837 255.698 264.711C255.698 264.585 255.658 264.462 255.584 264.36C255.511 264.258 255.407 264.181 255.287 264.142" fill="white"/>
<path d="M266.259 270.517L259.027 266.344C258.721 266.188 258.384 266.107 258.042 266.107C257.699 266.107 257.362 266.188 257.057 266.344L249.625 270.671C249.505 270.711 249.401 270.788 249.328 270.89C249.254 270.992 249.214 271.115 249.214 271.241C249.214 271.367 249.254 271.49 249.328 271.592C249.401 271.694 249.505 271.771 249.625 271.811L256.857 275.984C257.162 276.138 257.5 276.219 257.842 276.219C258.184 276.219 258.521 276.138 258.826 275.984L266.259 271.657C266.797 271.349 266.782 270.825 266.259 270.517Z" fill="white"/>
<path d="M277.307 276.908L270.075 272.72C269.772 272.565 269.437 272.485 269.097 272.485C268.758 272.485 268.423 272.565 268.12 272.72L260.688 277.047C260.569 277.087 260.465 277.163 260.391 277.265C260.318 277.368 260.278 277.491 260.278 277.617C260.278 277.743 260.318 277.866 260.391 277.968C260.465 278.07 260.569 278.147 260.688 278.186L267.92 282.375C268.225 282.53 268.563 282.612 268.905 282.612C269.247 282.612 269.585 282.53 269.89 282.375L277.322 278.048C277.441 278.008 277.545 277.931 277.619 277.829C277.693 277.727 277.732 277.604 277.732 277.478C277.732 277.352 277.693 277.229 277.619 277.127C277.545 277.025 277.441 276.948 277.322 276.908" fill="white"/>
<path d="M293.909 286.456L280.953 278.972C280.651 278.818 280.316 278.737 279.976 278.737C279.637 278.737 279.302 278.818 278.999 278.972L271.567 283.376C271.448 283.416 271.344 283.492 271.27 283.595C271.196 283.697 271.157 283.82 271.157 283.946C271.157 284.072 271.196 284.195 271.27 284.297C271.344 284.399 271.448 284.476 271.567 284.516L284.523 292C284.828 292.155 285.166 292.236 285.508 292.236C285.85 292.236 286.188 292.155 286.493 292L293.925 287.672C294.044 287.633 294.148 287.556 294.222 287.454C294.296 287.352 294.335 287.229 294.335 287.103C294.335 286.977 294.296 286.854 294.222 286.751C294.148 286.649 294.044 286.573 293.925 286.533" fill="white"/>
<path d="M282.538 293.109L275.306 288.935C275.003 288.781 274.669 288.701 274.329 288.701C273.989 288.701 273.655 288.781 273.352 288.935L265.92 293.263C265.8 293.303 265.696 293.379 265.623 293.481C265.549 293.584 265.51 293.706 265.51 293.832C265.51 293.958 265.549 294.081 265.623 294.184C265.696 294.286 265.8 294.362 265.92 294.402L273.152 298.591C273.457 298.746 273.794 298.827 274.137 298.827C274.479 298.827 274.816 298.746 275.121 298.591L282.554 294.264C282.673 294.224 282.777 294.147 282.851 294.045C282.924 293.943 282.964 293.82 282.964 293.694C282.964 293.568 282.924 293.445 282.851 293.343C282.777 293.24 282.673 293.164 282.554 293.124" fill="white"/>
<path d="M271.49 286.733L264.258 282.56C263.953 282.404 263.616 282.323 263.273 282.323C262.931 282.323 262.594 282.404 262.289 282.56L254.857 286.887C254.737 286.927 254.633 287.003 254.559 287.106C254.486 287.208 254.446 287.331 254.446 287.457C254.446 287.583 254.486 287.706 254.559 287.808C254.633 287.91 254.737 287.987 254.857 288.027L262.089 292.2C262.394 292.354 262.731 292.434 263.073 292.434C263.415 292.434 263.753 292.354 264.058 292.2L271.49 287.873C272.029 287.565 272.013 287.041 271.49 286.733Z" fill="white"/>
<path d="M260.442 280.296L253.21 276.107C252.907 275.953 252.572 275.873 252.233 275.873C251.893 275.873 251.558 275.953 251.256 276.107L243.824 280.435C243.704 280.474 243.6 280.551 243.527 280.653C243.453 280.755 243.413 280.878 243.413 281.004C243.413 281.13 243.453 281.253 243.527 281.355C243.6 281.458 243.704 281.534 243.824 281.574L251.056 285.763C251.361 285.918 251.698 285.999 252.041 285.999C252.383 285.999 252.72 285.918 253.025 285.763L260.457 281.435C260.577 281.396 260.681 281.319 260.754 281.217C260.828 281.115 260.868 280.992 260.868 280.866C260.868 280.74 260.828 280.617 260.754 280.515C260.681 280.412 260.577 280.336 260.457 280.296" fill="white"/>
<path d="M249.425 273.967L242.193 269.778C241.89 269.624 241.555 269.543 241.216 269.543C240.876 269.543 240.541 269.624 240.239 269.778L232.76 274.136C232.641 274.176 232.537 274.252 232.463 274.355C232.39 274.457 232.35 274.58 232.35 274.706C232.35 274.832 232.39 274.955 232.463 275.057C232.537 275.159 232.641 275.236 232.76 275.276L239.993 279.464C240.298 279.62 240.635 279.701 240.977 279.701C241.32 279.701 241.657 279.62 241.962 279.464L249.394 275.137C249.514 275.097 249.618 275.021 249.691 274.918C249.765 274.816 249.805 274.693 249.805 274.567C249.805 274.441 249.765 274.318 249.691 274.216C249.618 274.114 249.514 274.037 249.394 273.997" fill="white"/>
<path d="M238.331 267.576L231.114 263.356C230.809 263.201 230.471 263.12 230.129 263.12C229.787 263.12 229.449 263.201 229.144 263.356L221.728 267.714C221.608 267.754 221.504 267.831 221.431 267.933C221.357 268.035 221.317 268.158 221.317 268.284C221.317 268.41 221.357 268.533 221.431 268.635C221.504 268.738 221.608 268.814 221.728 268.854L228.96 273.027C229.265 273.181 229.602 273.262 229.944 273.262C230.287 273.262 230.624 273.181 230.929 273.027L238.361 268.7C238.9 268.392 238.884 267.868 238.361 267.56" fill="white"/>
<path d="M227.298 261.185L220.066 256.996C219.763 256.842 219.428 256.762 219.089 256.762C218.749 256.762 218.414 256.842 218.112 256.996L210.68 261.324C210.56 261.364 210.456 261.44 210.383 261.542C210.309 261.645 210.269 261.767 210.269 261.893C210.269 262.02 210.309 262.142 210.383 262.245C210.456 262.347 210.56 262.423 210.68 262.463L217.912 266.652C218.217 266.807 218.554 266.888 218.896 266.888C219.239 266.888 219.576 266.807 219.881 266.652L227.313 262.325C227.433 262.285 227.537 262.208 227.61 262.106C227.684 262.004 227.724 261.881 227.724 261.755C227.724 261.629 227.684 261.506 227.61 261.404C227.537 261.301 227.433 261.225 227.313 261.185" fill="white"/>
<path d="M216.234 254.809L209.002 250.621C208.7 250.467 208.365 250.386 208.025 250.386C207.686 250.386 207.351 250.467 207.048 250.621L199.616 254.948C199.497 254.988 199.393 255.064 199.319 255.167C199.245 255.269 199.206 255.392 199.206 255.518C199.206 255.644 199.245 255.767 199.319 255.869C199.393 255.971 199.497 256.048 199.616 256.087L206.848 260.276C207.153 260.432 207.491 260.513 207.833 260.513C208.175 260.513 208.513 260.432 208.818 260.276L216.25 255.949C216.369 255.909 216.473 255.833 216.547 255.73C216.621 255.628 216.66 255.505 216.66 255.379C216.66 255.253 216.621 255.13 216.547 255.028C216.473 254.926 216.369 254.849 216.25 254.809" fill="white"/>
<path d="M205.186 248.418L197.954 244.245C197.649 244.09 197.312 244.009 196.97 244.009C196.627 244.009 196.29 244.09 195.985 244.245L188.553 248.572C188.433 248.612 188.329 248.689 188.256 248.791C188.182 248.893 188.142 249.016 188.142 249.142C188.142 249.268 188.182 249.391 188.256 249.493C188.329 249.596 188.433 249.672 188.553 249.712L195.785 253.885C196.09 254.041 196.427 254.122 196.77 254.122C197.112 254.122 197.449 254.041 197.754 253.885L205.186 249.558C205.725 249.25 205.725 248.742 205.186 248.418Z" fill="white"/>
<path d="M194.138 242.027L186.906 237.839C186.604 237.685 186.269 237.604 185.929 237.604C185.59 237.604 185.255 237.685 184.952 237.839L177.52 242.166C177.401 242.206 177.297 242.282 177.223 242.385C177.149 242.487 177.11 242.61 177.11 242.736C177.11 242.862 177.149 242.985 177.223 243.087C177.297 243.189 177.401 243.266 177.52 243.306L184.752 247.494C185.057 247.65 185.395 247.731 185.737 247.731C186.079 247.731 186.417 247.65 186.722 247.494L194.154 243.167C194.273 243.127 194.377 243.051 194.451 242.948C194.524 242.846 194.564 242.723 194.564 242.597C194.564 242.471 194.524 242.348 194.451 242.246C194.377 242.144 194.273 242.067 194.154 242.027" fill="white"/>
<path d="M183.09 235.637L175.858 231.448C175.556 231.294 175.221 231.214 174.881 231.214C174.542 231.214 174.207 231.294 173.904 231.448L166.472 235.775C166.353 235.815 166.249 235.892 166.175 235.994C166.101 236.096 166.062 236.219 166.062 236.345C166.062 236.471 166.101 236.594 166.175 236.696C166.249 236.799 166.353 236.875 166.472 236.915L173.704 241.088C174.009 241.244 174.347 241.325 174.689 241.325C175.031 241.325 175.369 241.244 175.674 241.088L183.106 236.761C183.225 236.721 183.329 236.645 183.403 236.542C183.476 236.44 183.516 236.317 183.516 236.191C183.516 236.065 183.476 235.942 183.403 235.84C183.329 235.738 183.225 235.661 183.106 235.621" fill="white"/>
<path d="M172.027 229.261L164.795 225.088C164.49 224.932 164.152 224.851 163.81 224.851C163.468 224.851 163.13 224.932 162.825 225.088L155.409 229.477C155.289 229.517 155.185 229.593 155.111 229.695C155.038 229.798 154.998 229.92 154.998 230.046C154.998 230.173 155.038 230.295 155.111 230.398C155.185 230.5 155.289 230.576 155.409 230.616L162.641 234.789C162.946 234.945 163.283 235.026 163.625 235.026C163.968 235.026 164.305 234.945 164.61 234.789L172.042 230.462C172.581 230.154 172.581 229.646 172.042 229.323" fill="white"/>
<path d="M160.994 222.886L153.762 218.697C153.459 218.543 153.125 218.462 152.785 218.462C152.445 218.462 152.111 218.543 151.808 218.697L144.376 223.024C144.256 223.064 144.152 223.14 144.079 223.243C144.005 223.345 143.965 223.468 143.965 223.594C143.965 223.72 144.005 223.843 144.079 223.945C144.152 224.047 144.256 224.124 144.376 224.164L151.608 228.352C151.913 228.508 152.25 228.589 152.593 228.589C152.935 228.589 153.272 228.508 153.577 228.352L161.009 224.025C161.129 223.985 161.233 223.909 161.307 223.807C161.38 223.704 161.42 223.581 161.42 223.455C161.42 223.329 161.38 223.206 161.307 223.104C161.233 223.002 161.129 222.925 161.009 222.886" fill="white"/>
<path d="M149.931 216.495L142.699 212.306C142.396 212.152 142.061 212.072 141.722 212.072C141.382 212.072 141.047 212.152 140.745 212.306L133.313 216.633C133.193 216.673 133.089 216.75 133.015 216.852C132.942 216.954 132.902 217.077 132.902 217.203C132.902 217.329 132.942 217.452 133.015 217.554C133.089 217.656 133.193 217.733 133.313 217.773L140.545 221.961C140.85 222.117 141.187 222.198 141.529 222.198C141.872 222.198 142.209 222.117 142.514 221.961L149.946 217.634C150.066 217.594 150.17 217.518 150.243 217.416C150.317 217.313 150.357 217.19 150.357 217.064C150.357 216.938 150.317 216.816 150.243 216.713C150.17 216.611 150.066 216.535 149.946 216.495" fill="white"/>
<path d="M139.052 210.211L126.096 202.727C125.793 202.573 125.458 202.493 125.119 202.493C124.779 202.493 124.444 202.573 124.142 202.727L116.71 207.054C116.59 207.094 116.486 207.171 116.412 207.273C116.339 207.375 116.299 207.498 116.299 207.624C116.299 207.75 116.339 207.873 116.412 207.975C116.486 208.078 116.59 208.154 116.71 208.194L129.666 215.678C129.971 215.833 130.308 215.915 130.65 215.915C130.993 215.915 131.33 215.833 131.635 215.678L139.067 211.351C139.187 211.311 139.291 211.234 139.364 211.132C139.438 211.03 139.478 210.907 139.478 210.781C139.478 210.655 139.438 210.532 139.364 210.43C139.291 210.328 139.187 210.251 139.067 210.211" fill="white"/>
<path d="M130.666 218.573L114.694 209.333C114.391 209.179 114.056 209.099 113.717 209.099C113.377 209.099 113.042 209.179 112.74 209.333L105.308 213.661C105.188 213.7 105.084 213.777 105.011 213.879C104.937 213.981 104.897 214.104 104.897 214.23C104.897 214.356 104.937 214.479 105.011 214.582C105.084 214.684 105.188 214.76 105.308 214.8L121.28 224.04C121.584 224.196 121.922 224.278 122.264 224.278C122.607 224.278 122.945 224.196 123.249 224.04L130.681 219.713C130.801 219.673 130.905 219.596 130.978 219.494C131.052 219.392 131.092 219.269 131.092 219.143C131.092 219.017 131.052 218.894 130.978 218.792C130.905 218.689 130.801 218.613 130.681 218.573" fill="white"/>
<path d="M271.152 299.746L255.195 290.507C254.89 290.35 254.553 290.268 254.21 290.268C253.868 290.268 253.53 290.35 253.225 290.507L245.793 294.834C245.239 295.157 245.255 295.665 245.793 295.973L261.75 305.213C262.055 305.37 262.392 305.451 262.735 305.451C263.077 305.451 263.415 305.37 263.72 305.213L271.152 300.886C271.271 300.846 271.375 300.769 271.449 300.667C271.522 300.565 271.562 300.442 271.562 300.316C271.562 300.19 271.522 300.067 271.449 299.965C271.375 299.862 271.271 299.786 271.152 299.746Z" fill="white"/>
<path d="M141.268 224.687L134.036 220.498C133.733 220.344 133.398 220.264 133.059 220.264C132.719 220.264 132.384 220.344 132.082 220.498L124.649 224.856C124.53 224.896 124.426 224.973 124.352 225.075C124.279 225.177 124.239 225.3 124.239 225.426C124.239 225.552 124.279 225.675 124.352 225.777C124.426 225.88 124.53 225.956 124.649 225.996L131.881 230.185C132.186 230.341 132.524 230.423 132.866 230.423C133.209 230.423 133.546 230.341 133.851 230.185L141.283 225.857C141.403 225.818 141.507 225.741 141.58 225.639C141.654 225.537 141.694 225.414 141.694 225.288C141.694 225.162 141.654 225.039 141.58 224.936C141.507 224.834 141.403 224.758 141.283 224.718" fill="white"/>
<path d="M152.316 231.016L145.084 226.843C144.779 226.686 144.441 226.605 144.099 226.605C143.756 226.605 143.419 226.686 143.114 226.843L135.682 231.17C135.128 231.494 135.144 232.002 135.682 232.31L142.914 236.483C143.219 236.639 143.557 236.72 143.899 236.72C144.241 236.72 144.579 236.639 144.884 236.483L152.316 232.156C152.854 231.848 152.839 231.324 152.316 231.016Z" fill="white"/>
<path d="M163.364 237.454L156.132 233.265C155.829 233.111 155.494 233.031 155.155 233.031C154.815 233.031 154.48 233.111 154.178 233.265L146.746 237.592C146.626 237.632 146.522 237.709 146.448 237.811C146.375 237.913 146.335 238.036 146.335 238.162C146.335 238.288 146.375 238.411 146.448 238.513C146.522 238.615 146.626 238.692 146.746 238.732L153.978 242.92C154.282 243.077 154.62 243.159 154.962 243.159C155.305 243.159 155.643 243.077 155.947 242.92L163.379 238.593C163.499 238.553 163.603 238.477 163.676 238.375C163.75 238.272 163.79 238.149 163.79 238.023C163.79 237.897 163.75 237.774 163.676 237.672C163.603 237.57 163.499 237.493 163.379 237.454" fill="white"/>
<path d="M174.427 243.845L167.195 239.656C166.893 239.502 166.558 239.422 166.218 239.422C165.879 239.422 165.544 239.502 165.241 239.656L157.809 243.983C157.69 244.023 157.586 244.1 157.512 244.202C157.438 244.304 157.399 244.427 157.399 244.553C157.399 244.679 157.438 244.802 157.512 244.904C157.586 245.007 157.69 245.083 157.809 245.123L165.041 249.312C165.346 249.468 165.683 249.55 166.026 249.55C166.368 249.55 166.706 249.468 167.011 249.312L174.443 244.984C174.562 244.944 174.666 244.868 174.74 244.766C174.813 244.663 174.853 244.541 174.853 244.415C174.853 244.288 174.813 244.166 174.74 244.063C174.666 243.961 174.562 243.885 174.443 243.845" fill="white"/>
<path d="M185.46 250.22L178.228 246.047C177.923 245.89 177.586 245.809 177.243 245.809C176.901 245.809 176.563 245.89 176.258 246.047L168.826 250.374C168.272 250.698 168.288 251.206 168.826 251.514L176.058 255.687C176.363 255.843 176.701 255.924 177.043 255.924C177.385 255.924 177.723 255.843 178.028 255.687L185.46 251.36C185.999 251.052 185.983 250.528 185.46 250.22Z" fill="white"/>
<path d="M196.523 256.611L189.291 252.423C188.989 252.269 188.654 252.188 188.314 252.188C187.975 252.188 187.64 252.269 187.337 252.423L179.905 256.75C179.786 256.79 179.682 256.866 179.608 256.969C179.534 257.071 179.495 257.194 179.495 257.32C179.495 257.446 179.534 257.569 179.608 257.671C179.682 257.773 179.786 257.85 179.905 257.889L187.137 262.078C187.442 262.235 187.779 262.317 188.122 262.317C188.464 262.317 188.802 262.235 189.107 262.078L196.539 257.751C196.658 257.711 196.762 257.635 196.836 257.532C196.91 257.43 196.949 257.307 196.949 257.181C196.949 257.055 196.91 256.932 196.836 256.83C196.762 256.728 196.658 256.651 196.539 256.611" fill="white"/>
<path d="M207.571 263.002L200.339 258.814C200.037 258.659 199.702 258.579 199.362 258.579C199.023 258.579 198.688 258.659 198.385 258.814L190.953 263.141C190.834 263.181 190.73 263.257 190.656 263.359C190.582 263.462 190.543 263.585 190.543 263.711C190.543 263.837 190.582 263.96 190.656 264.062C190.73 264.164 190.834 264.241 190.953 264.28L198.185 268.454C198.49 268.61 198.827 268.692 199.17 268.692C199.513 268.692 199.85 268.61 200.155 268.454L207.587 264.126C207.706 264.087 207.81 264.01 207.884 263.908C207.958 263.806 207.997 263.683 207.997 263.557C207.997 263.431 207.958 263.308 207.884 263.205C207.81 263.103 207.706 263.027 207.587 262.987" fill="white"/>
<path d="M218.65 269.378L211.418 265.205C211.114 265.048 210.776 264.966 210.433 264.966C210.091 264.966 209.753 265.048 209.449 265.205L201.986 269.516C201.432 269.84 201.447 270.348 201.986 270.656L209.218 274.829C209.523 274.985 209.86 275.066 210.203 275.066C210.545 275.066 210.882 274.985 211.187 274.829L218.62 270.502C219.158 270.194 219.143 269.67 218.62 269.362" fill="white"/>
<path d="M229.668 275.769L222.435 271.595C222.133 271.441 221.798 271.361 221.458 271.361C221.119 271.361 220.784 271.441 220.481 271.595L213.049 275.923C212.93 275.962 212.826 276.039 212.752 276.141C212.678 276.243 212.639 276.366 212.639 276.492C212.639 276.618 212.678 276.741 212.752 276.844C212.826 276.946 212.93 277.022 213.049 277.062L220.281 281.251C220.586 281.407 220.924 281.489 221.266 281.489C221.609 281.489 221.946 281.407 222.251 281.251L229.683 276.924C229.802 276.884 229.906 276.807 229.98 276.705C230.054 276.603 230.093 276.48 230.093 276.354C230.093 276.228 230.054 276.105 229.98 276.003C229.906 275.9 229.802 275.824 229.683 275.784" fill="white"/>
<path d="M240.716 282.144L233.484 277.971C233.181 277.817 232.846 277.736 232.507 277.736C232.167 277.736 231.832 277.817 231.529 277.971L224.097 282.298C223.978 282.338 223.874 282.414 223.8 282.517C223.727 282.619 223.687 282.742 223.687 282.868C223.687 282.994 223.727 283.117 223.8 283.219C223.874 283.321 223.978 283.398 224.097 283.438L231.329 287.611C231.634 287.768 231.972 287.849 232.314 287.849C232.657 287.849 232.994 287.768 233.299 287.611L240.731 283.284C241.27 282.976 241.27 282.467 240.731 282.144" fill="white"/>
<path d="M251.764 288.535L244.532 284.362C244.227 284.205 243.889 284.124 243.547 284.124C243.204 284.124 242.867 284.205 242.562 284.362L235.13 288.689C234.576 289.013 234.591 289.521 235.13 289.829L242.362 294.002C242.667 294.159 243.004 294.24 243.347 294.24C243.689 294.24 244.027 294.159 244.332 294.002L251.764 289.675C251.883 289.635 251.987 289.558 252.061 289.456C252.134 289.354 252.174 289.231 252.174 289.105C252.174 288.979 252.134 288.856 252.061 288.754C251.987 288.652 251.883 288.575 251.764 288.535Z" fill="white"/>
<path d="M124.788 228.321L110.939 220.329L109.124 219.282L103.353 215.956C103.051 215.802 102.716 215.721 102.376 215.721C102.037 215.721 101.702 215.802 101.399 215.956L94.0134 220.237C93.8939 220.277 93.7899 220.353 93.7163 220.455C93.6426 220.558 93.603 220.68 93.603 220.806C93.603 220.933 93.6426 221.055 93.7163 221.158C93.7899 221.26 93.8939 221.336 94.0134 221.376L99.7836 224.703L101.599 225.75L115.448 233.742C115.75 233.896 116.085 233.976 116.425 233.976C116.765 233.976 117.099 233.896 117.402 233.742L124.788 229.476C124.907 229.436 125.011 229.36 125.085 229.258C125.159 229.155 125.198 229.033 125.198 228.907C125.198 228.78 125.159 228.658 125.085 228.555C125.011 228.453 124.907 228.377 124.788 228.337" fill="white"/>
<path d="M259.796 306.352L245.947 298.36L244.147 297.313L238.377 293.987C238.074 293.833 237.739 293.752 237.4 293.752C237.06 293.752 236.725 293.833 236.423 293.987L228.975 298.314C228.856 298.354 228.752 298.43 228.678 298.533C228.604 298.635 228.565 298.758 228.565 298.884C228.565 299.01 228.604 299.133 228.678 299.235C228.752 299.337 228.856 299.414 228.975 299.453L234.745 302.78L236.546 303.827L250.394 311.819C250.697 311.973 251.032 312.054 251.371 312.054C251.711 312.054 252.046 311.973 252.348 311.819L259.796 307.492C259.915 307.452 260.019 307.376 260.093 307.273C260.167 307.171 260.206 307.048 260.206 306.922C260.206 306.796 260.167 306.673 260.093 306.571C260.019 306.469 259.915 306.392 259.796 306.352Z" fill="white"/>
<path d="M135.436 234.482L128.204 230.293C127.901 230.139 127.566 230.059 127.227 230.059C126.887 230.059 126.552 230.139 126.25 230.293L118.802 234.62C118.683 234.66 118.579 234.737 118.505 234.839C118.431 234.941 118.392 235.064 118.392 235.19C118.392 235.316 118.431 235.439 118.505 235.541C118.579 235.644 118.683 235.72 118.802 235.76L126.034 239.948C126.337 240.103 126.672 240.183 127.011 240.183C127.351 240.183 127.686 240.103 127.988 239.948L135.436 235.621C135.555 235.581 135.659 235.505 135.733 235.403C135.807 235.3 135.846 235.178 135.846 235.051C135.846 234.925 135.807 234.803 135.733 234.7C135.659 234.598 135.555 234.522 135.436 234.482Z" fill="white"/>
<path d="M146.484 240.872L139.252 236.684C138.949 236.53 138.615 236.449 138.275 236.449C137.935 236.449 137.601 236.53 137.298 236.684L129.85 241.011C129.731 241.051 129.627 241.127 129.553 241.23C129.48 241.332 129.44 241.455 129.44 241.581C129.44 241.707 129.48 241.83 129.553 241.932C129.627 242.034 129.731 242.111 129.85 242.15L137.082 246.339C137.385 246.493 137.72 246.574 138.06 246.574C138.399 246.574 138.734 246.493 139.037 246.339L146.484 242.012C146.604 241.972 146.707 241.896 146.781 241.793C146.855 241.691 146.894 241.568 146.894 241.442C146.894 241.316 146.855 241.193 146.781 241.091C146.707 240.989 146.604 240.912 146.484 240.872Z" fill="white"/>
<path d="M157.532 247.263L150.3 243.09C149.995 242.933 149.658 242.852 149.315 242.852C148.973 242.852 148.635 242.933 148.33 243.09L140.883 247.417C140.344 247.725 140.344 248.233 140.883 248.557L148.115 252.73C148.42 252.885 148.758 252.967 149.1 252.967C149.442 252.967 149.78 252.885 150.085 252.73L157.532 248.403C158.071 248.095 158.055 247.571 157.532 247.263Z" fill="white"/>
<path d="M168.58 253.639L161.348 249.45C161.045 249.296 160.711 249.216 160.371 249.216C160.031 249.216 159.697 249.296 159.394 249.45L151.946 253.778C151.827 253.817 151.723 253.894 151.649 253.996C151.576 254.098 151.536 254.221 151.536 254.347C151.536 254.473 151.576 254.596 151.649 254.699C151.723 254.801 151.827 254.877 151.946 254.917L159.178 259.106C159.481 259.26 159.816 259.34 160.156 259.34C160.495 259.34 160.83 259.26 161.133 259.106L168.58 254.778C168.7 254.739 168.804 254.662 168.877 254.56C168.951 254.458 168.991 254.335 168.991 254.209C168.991 254.083 168.951 253.96 168.877 253.858C168.804 253.755 168.7 253.679 168.58 253.639Z" fill="white"/>
<path d="M179.644 260.03L172.412 255.841C172.109 255.687 171.774 255.607 171.434 255.607C171.095 255.607 170.76 255.687 170.457 255.841L163.01 260.169C162.89 260.208 162.786 260.285 162.713 260.387C162.639 260.489 162.6 260.612 162.6 260.738C162.6 260.864 162.639 260.987 162.713 261.09C162.786 261.192 162.89 261.268 163.01 261.308L170.242 265.481C170.545 265.636 170.879 265.716 171.219 265.716C171.559 265.716 171.893 265.636 172.196 265.481L179.644 261.154C179.763 261.114 179.867 261.038 179.941 260.936C180.014 260.833 180.054 260.71 180.054 260.584C180.054 260.458 180.014 260.335 179.941 260.233C179.867 260.131 179.763 260.055 179.644 260.015" fill="white"/>
<path d="M190.676 266.436L183.444 262.263C183.139 262.106 182.802 262.024 182.459 262.024C182.117 262.024 181.779 262.106 181.475 262.263L174.027 266.559C173.489 266.867 173.489 267.375 174.027 267.699L181.259 271.872C181.564 272.028 181.902 272.109 182.244 272.109C182.586 272.109 182.924 272.028 183.229 271.872L190.676 267.545C191.215 267.237 191.199 266.713 190.676 266.405" fill="white"/>
<path d="M201.724 272.796L194.492 268.623C194.19 268.469 193.855 268.389 193.515 268.389C193.175 268.389 192.841 268.469 192.538 268.623L185.091 272.95C184.971 272.99 184.867 273.067 184.793 273.169C184.72 273.271 184.68 273.394 184.68 273.52C184.68 273.646 184.72 273.769 184.793 273.871C184.867 273.974 184.971 274.05 185.091 274.09L192.323 278.279C192.625 278.433 192.96 278.513 193.3 278.513C193.639 278.513 193.974 278.433 194.277 278.279L201.724 273.951C201.844 273.911 201.948 273.835 202.021 273.733C202.095 273.63 202.135 273.508 202.135 273.382C202.135 273.255 202.095 273.133 202.021 273.03C201.948 272.928 201.844 272.852 201.724 272.812" fill="white"/>
<path d="M212.772 279.188L205.54 275.014C205.238 274.86 204.903 274.78 204.563 274.78C204.224 274.78 203.889 274.86 203.586 275.014L196.139 279.342C196.019 279.381 195.915 279.458 195.842 279.56C195.768 279.662 195.728 279.785 195.728 279.911C195.728 280.037 195.768 280.16 195.842 280.262C195.915 280.365 196.019 280.441 196.139 280.481L203.371 284.654C203.675 284.811 204.013 284.893 204.355 284.893C204.698 284.893 205.036 284.811 205.34 284.654L212.788 280.327C213.326 280.019 213.326 279.511 212.788 279.188" fill="white"/>
<path d="M223.836 285.563L216.604 281.39C216.299 281.233 215.962 281.151 215.619 281.151C215.276 281.151 214.939 281.233 214.634 281.39L207.187 285.717C206.648 286.025 206.648 286.533 207.187 286.856L214.419 291.03C214.721 291.184 215.056 291.264 215.396 291.264C215.735 291.264 216.07 291.184 216.373 291.03L223.82 286.702C223.94 286.663 224.044 286.586 224.117 286.484C224.191 286.381 224.231 286.259 224.231 286.133C224.231 286.007 224.191 285.884 224.117 285.781C224.044 285.679 223.94 285.603 223.82 285.563" fill="white"/>
<path d="M234.884 291.954L227.652 287.765C227.349 287.611 227.014 287.531 226.675 287.531C226.335 287.531 226 287.611 225.698 287.765L218.25 292.092C218.131 292.132 218.027 292.209 217.953 292.311C217.879 292.413 217.84 292.536 217.84 292.662C217.84 292.788 217.879 292.911 217.953 293.013C218.027 293.116 218.131 293.192 218.25 293.232L225.482 297.421C225.785 297.575 226.12 297.655 226.459 297.655C226.799 297.655 227.134 297.575 227.436 297.421L234.884 293.093C235.003 293.054 235.107 292.977 235.181 292.875C235.255 292.773 235.294 292.65 235.294 292.524C235.294 292.398 235.255 292.275 235.181 292.172C235.107 292.07 235.003 291.994 234.884 291.954Z" fill="white"/>
<path d="M99.2143 226.735L91.9822 222.547C91.6796 222.393 91.3448 222.312 91.0051 222.312C90.6655 222.312 90.3307 222.393 90.0281 222.547L82.5806 226.874C82.4611 226.914 82.3572 226.99 82.2835 227.093C82.2099 227.195 82.1702 227.318 82.1702 227.444C82.1702 227.57 82.2099 227.693 82.2835 227.795C82.3572 227.897 82.4611 227.974 82.5806 228.014L89.8126 232.202C90.1153 232.356 90.4501 232.437 90.7897 232.437C91.1293 232.437 91.4641 232.356 91.7668 232.202L99.2143 227.875C99.3338 227.835 99.4377 227.759 99.5114 227.656C99.585 227.554 99.6247 227.431 99.6247 227.305C99.6247 227.179 99.585 227.056 99.5114 226.954C99.4377 226.852 99.3338 226.775 99.2143 226.735Z" fill="white"/>
<path d="M110.278 233.127L103.046 228.938C102.743 228.784 102.408 228.704 102.069 228.704C101.729 228.704 101.394 228.784 101.091 228.938L93.644 233.265C93.5245 233.305 93.4206 233.382 93.3469 233.484C93.2733 233.586 93.2336 233.709 93.2336 233.835C93.2336 233.961 93.2733 234.084 93.3469 234.186C93.4206 234.289 93.5245 234.365 93.644 234.405L100.876 238.593C101.179 238.748 101.514 238.828 101.853 238.828C102.193 238.828 102.528 238.748 102.83 238.593L110.278 234.266C110.397 234.226 110.501 234.15 110.575 234.048C110.648 233.945 110.688 233.823 110.688 233.697C110.688 233.57 110.648 233.448 110.575 233.345C110.501 233.243 110.397 233.167 110.278 233.127Z" fill="white"/>
<path d="M121.326 239.502L114.017 235.328C113.712 235.173 113.374 235.092 113.032 235.092C112.69 235.092 112.352 235.173 112.047 235.328L104.6 239.656C104.061 239.964 104.077 240.487 104.6 240.795L111.832 244.968C112.137 245.124 112.474 245.205 112.817 245.205C113.159 245.205 113.496 245.124 113.801 244.968L121.249 240.641C121.787 240.333 121.772 239.81 121.249 239.502" fill="white"/>
<path d="M135.128 247.479L125.142 241.704C124.839 241.55 124.504 241.47 124.165 241.47C123.825 241.47 123.49 241.55 123.188 241.704L115.74 246.031C115.621 246.071 115.517 246.148 115.443 246.25C115.369 246.352 115.33 246.475 115.33 246.601C115.33 246.727 115.369 246.85 115.443 246.952C115.517 247.055 115.621 247.131 115.74 247.171L125.727 252.946C126.029 253.1 126.364 253.18 126.704 253.18C127.043 253.18 127.378 253.1 127.681 252.946L135.128 248.619C135.248 248.579 135.352 248.502 135.425 248.4C135.499 248.298 135.539 248.175 135.539 248.049C135.539 247.923 135.499 247.8 135.425 247.698C135.352 247.595 135.248 247.519 135.128 247.479Z" fill="white"/>
<path d="M237.377 306.568L230.052 302.333C229.764 302.187 229.445 302.111 229.121 302.111C228.798 302.111 228.479 302.187 228.19 302.333L225.79 303.719C225.678 303.758 225.58 303.83 225.511 303.927C225.442 304.024 225.405 304.14 225.405 304.258C225.405 304.377 225.442 304.493 225.511 304.589C225.58 304.686 225.678 304.759 225.79 304.797L233.114 309.032C233.403 309.178 233.722 309.254 234.045 309.254C234.369 309.254 234.688 309.178 234.976 309.032L237.377 307.646C237.489 307.608 237.586 307.535 237.655 307.438C237.724 307.342 237.761 307.226 237.761 307.107C237.761 306.988 237.724 306.873 237.655 306.776C237.586 306.679 237.489 306.607 237.377 306.568Z" fill="white"/>
<path d="M232.222 309.556L224.897 305.321C224.607 305.172 224.285 305.095 223.959 305.095C223.632 305.095 223.311 305.172 223.02 305.321L220.635 306.707C220.523 306.745 220.426 306.818 220.357 306.915C220.288 307.011 220.25 307.127 220.25 307.246C220.25 307.365 220.288 307.48 220.357 307.577C220.426 307.674 220.523 307.746 220.635 307.785L227.96 312.02C228.248 312.167 228.567 312.244 228.89 312.244C229.214 312.244 229.533 312.167 229.821 312.02L232.206 310.634C232.319 310.595 232.416 310.523 232.485 310.426C232.554 310.329 232.591 310.213 232.591 310.095C232.591 309.976 232.554 309.86 232.485 309.764C232.416 309.667 232.319 309.594 232.206 309.556" fill="white"/>
<path d="M248.44 312.959L241.208 308.771C240.905 308.617 240.571 308.536 240.231 308.536C239.891 308.536 239.556 308.617 239.254 308.771L231.806 313.098C231.687 313.138 231.583 313.214 231.509 313.316C231.436 313.419 231.396 313.542 231.396 313.668C231.396 313.794 231.436 313.917 231.509 314.019C231.583 314.121 231.687 314.198 231.806 314.237L239.038 318.426C239.341 318.58 239.676 318.661 240.015 318.661C240.355 318.661 240.69 318.58 240.993 318.426L248.44 314.099C248.56 314.059 248.663 313.982 248.737 313.88C248.811 313.778 248.85 313.655 248.85 313.529C248.85 313.403 248.811 313.28 248.737 313.178C248.663 313.076 248.56 312.999 248.44 312.959Z" fill="white"/>
<path d="M226.344 300.147L219.112 295.973C218.807 295.818 218.469 295.737 218.127 295.737C217.785 295.737 217.447 295.818 217.142 295.973L209.633 300.316C209.095 300.624 209.11 301.148 209.633 301.456L216.865 305.629C217.17 305.784 217.508 305.865 217.85 305.865C218.192 305.865 218.53 305.784 218.835 305.629L226.282 301.302C226.821 300.994 226.806 300.47 226.282 300.162" fill="white"/>
<path d="M215.219 293.771L207.987 289.582C207.684 289.428 207.349 289.348 207.01 289.348C206.67 289.348 206.335 289.428 206.033 289.582L198.647 293.91C198.527 293.949 198.423 294.026 198.35 294.128C198.276 294.23 198.236 294.353 198.236 294.479C198.236 294.605 198.276 294.728 198.35 294.831C198.423 294.933 198.527 295.009 198.647 295.049L205.879 299.222C206.182 299.377 206.516 299.457 206.856 299.457C207.196 299.457 207.53 299.377 207.833 299.222L215.28 294.895C215.4 294.855 215.504 294.779 215.578 294.677C215.651 294.574 215.691 294.451 215.691 294.325C215.691 294.199 215.651 294.076 215.578 293.974C215.504 293.872 215.4 293.795 215.28 293.756" fill="white"/>
<path d="M204.171 287.38L194.2 281.621C193.897 281.467 193.562 281.386 193.223 281.386C192.883 281.386 192.548 281.467 192.246 281.621L184.798 285.948C184.679 285.988 184.575 286.064 184.501 286.167C184.427 286.269 184.388 286.392 184.388 286.518C184.388 286.644 184.427 286.767 184.501 286.869C184.575 286.971 184.679 287.048 184.798 287.088L194.769 292.847C195.072 293.001 195.407 293.081 195.746 293.081C196.086 293.081 196.421 293.001 196.723 292.847L204.171 288.52C204.29 288.48 204.394 288.403 204.468 288.301C204.542 288.199 204.581 288.076 204.581 287.95C204.581 287.824 204.542 287.701 204.468 287.599C204.394 287.496 204.29 287.42 204.171 287.38Z" fill="white"/>
<path d="M190.369 279.403L182.783 275.03L182.521 274.937C182.433 274.849 182.335 274.771 182.229 274.706L179.659 273.166L171.75 268.546L168.673 266.729L160.763 262.109L157.686 260.292L149.762 255.672L138.99 249.512C138.686 249.355 138.348 249.274 138.006 249.274C137.663 249.274 137.326 249.355 137.021 249.512L129.573 253.84C129.035 254.148 129.035 254.656 129.573 254.979L140.345 261.139L148.269 265.759L151.346 267.576L159.256 272.196L162.333 274.013L170.242 278.633L172.812 280.173C172.934 280.241 173.063 280.298 173.196 280.343L173.366 280.497L180.952 284.87C181.254 285.024 181.589 285.105 181.929 285.105C182.268 285.105 182.603 285.024 182.906 284.87L190.353 280.543C190.473 280.503 190.577 280.427 190.65 280.324C190.724 280.222 190.764 280.099 190.764 279.973C190.764 279.847 190.724 279.724 190.65 279.622C190.577 279.52 190.473 279.443 190.353 279.403" fill="white"/>
</g>
<path d="M397.773 118.428C397.773 118.428 397.773 118.336 397.773 118.29C397.773 118.244 397.773 117.859 397.773 117.659C397.773 117.458 397.773 117.12 397.681 116.842C397.681 116.55 397.558 116.273 397.496 115.995C397.435 115.718 397.404 115.487 397.327 115.241V115.071C397.327 114.933 397.204 114.794 397.143 114.656C397.005 114.282 396.846 113.917 396.666 113.562V113.393C396.542 113.167 396.414 112.951 396.281 112.746L396.065 112.453V112.376V112.269L395.742 111.884L395.435 111.56L395.142 111.283L394.85 111.021L394.557 110.79L394.265 110.59L393.957 110.405L204.186 0.789087L203.894 0.635088L203.586 0.48109H203.478H203.34L203.017 0.373291H202.801H202.678H202.309H202.063H201.263L198.616 0.48109C198.857 0.464295 199.098 0.464295 199.339 0.48109C199.567 0.507416 199.793 0.548569 200.016 0.604289C200.247 0.666852 200.473 0.744007 200.693 0.835286C200.937 0.938034 201.173 1.05634 201.401 1.18948L390.988 110.374C391.419 110.627 391.822 110.927 392.188 111.268C392.55 111.605 392.88 111.976 393.173 112.376C393.425 112.734 393.651 113.11 393.85 113.501C394.03 113.855 394.189 114.22 394.327 114.594C394.327 114.794 394.496 114.979 394.557 115.179C394.634 115.441 394.681 115.734 394.742 115.995C394.804 116.257 394.881 116.534 394.927 116.827C395.006 117.362 395.047 117.903 395.05 118.444C395.05 118.995 395.009 119.546 394.927 120.092C394.839 120.661 394.705 121.223 394.527 121.77L340.856 285.471C340.73 285.849 340.581 286.219 340.41 286.579C340.255 286.908 340.08 287.227 339.887 287.534V287.611C339.713 287.879 339.523 288.136 339.317 288.381L339.225 288.489C339.028 288.713 338.817 288.923 338.594 289.12C338.44 289.259 338.286 289.367 338.132 289.475L337.794 289.736C337.624 289.837 337.45 289.93 337.271 290.014L336.932 290.198C336.731 290.277 336.526 290.344 336.317 290.399L336.009 290.491C335.7 290.56 335.386 290.602 335.07 290.614L337.717 290.506C338.033 290.494 338.347 290.453 338.656 290.383L338.963 290.291C339.167 290.236 339.367 290.169 339.563 290.091L339.917 289.906C340.087 289.813 340.271 289.736 340.44 289.629L340.794 289.367C340.948 289.259 341.102 289.136 341.256 289.013C341.42 288.859 341.584 288.694 341.748 288.52L341.825 288.427L341.918 288.32L342.118 288.089L342.41 287.688L342.502 287.55L342.61 287.38L342.825 287.011L343.01 286.641L343.149 286.318L343.302 285.933L343.441 285.548L397.235 121.863L397.343 121.493L397.45 121.093L397.543 120.677C397.543 120.533 397.568 120.389 397.62 120.246V120.138V119.814C397.62 119.66 397.62 119.501 397.62 119.337C397.62 119.173 397.62 119.003 397.62 118.829C397.62 118.721 397.62 118.598 397.62 118.49C397.62 118.382 397.773 118.459 397.773 118.428Z" fill="url(#paint2_linear_4008_879)"/>
<path d="M390.988 110.375C394.419 112.361 396.035 117.551 394.573 121.971L340.856 285.471C339.41 289.891 335.44 291.862 332.008 289.875L142.545 180.398C139.113 178.411 137.498 173.222 138.96 168.802L192.692 5.31714C194.138 0.897381 198.108 -1.0738 201.54 0.912781L390.988 110.375Z" fill="#242993"/>
<path d="M386.772 124.296L196.723 14.5723L147.423 164.782L337.378 274.552L337.471 274.506L386.772 124.296Z" fill="#353EAE"/>
<path d="M145.176 78.9121L161.363 69.5032C160.83 69.8101 160.28 70.0877 159.717 70.3347L159.178 70.5503L158.101 70.9353C157.578 71.1047 157.04 71.2433 156.563 71.3819L155.855 71.5513L154.916 71.6899C154.531 71.6899 154.147 71.7977 153.747 71.8285H153.054C152.577 71.8285 152.116 71.8285 151.623 71.8285H150.946C150.315 71.8285 149.669 71.7515 149.023 71.6591H148.915C148.207 71.5667 147.499 71.4281 146.776 71.2741L146.33 71.1663C145.576 70.9969 144.791 70.7967 144.068 70.5503L127.865 79.9901L128.25 80.1133L129.696 80.5137L130.127 80.6061L130.573 80.6985L131.174 80.8371L132.712 81.0834H132.851C133.343 81.0834 133.82 81.2066 134.297 81.2374H135.99H136.836H137.529H137.805C138.113 81.2374 138.406 81.145 138.698 81.1142L139.637 80.9757H139.837L140.344 80.8371C140.883 80.7139 141.421 80.5753 141.883 80.3905L142.237 80.2981L142.976 80.0055L143.514 79.7899C144.084 79.5281 144.639 79.2351 145.176 78.9121Z" fill="url(#paint3_linear_4008_879)"/>
<path d="M170.888 37.3643L154.701 46.7886L204.432 53.3949L220.62 43.986L170.888 37.3643Z" fill="url(#paint4_linear_4008_879)"/>
<path d="M295.171 168.247C295.433 166.954 295.679 165.629 295.91 164.29C295.91 164.059 296.002 163.828 296.033 163.597C296.3 162.067 296.551 160.527 296.787 158.977L280.599 168.386C280.363 169.967 280.112 171.507 279.845 173.006C279.845 173.268 279.753 173.499 279.707 173.76C279.476 175.1 279.23 176.425 278.968 177.718C278.861 178.257 278.738 178.796 278.63 179.258C278.43 180.244 278.214 181.229 277.999 182.2C277.876 182.739 277.753 183.262 277.63 183.74C277.383 184.771 277.137 185.772 276.891 186.819L276.46 188.498C276.204 189.453 275.942 190.392 275.675 191.316L275.245 192.856C274.814 194.396 274.368 195.767 273.906 197.184V197.384C273.414 198.924 272.906 200.294 272.367 201.696C272.1 202.414 271.834 203.128 271.567 203.836L271.259 204.653C270.859 205.679 270.449 206.706 270.028 207.732L269.751 208.364C269.413 209.144 269.074 209.914 268.736 210.674L268.29 211.644L267.474 213.369L266.674 214.986L265.951 216.403L265.12 217.943L264.381 219.298L263.535 220.838L262.781 222.131L261.904 223.548L261.119 224.78L260.257 226.104L259.457 227.306L258.565 228.568L257.749 229.708L256.841 230.909L256.011 231.987L255.087 233.142L254.256 234.174L253.318 235.267L252.487 236.238L251.533 237.285L250.687 238.209L249.733 239.21L248.886 240.072L247.917 241.027L247.071 241.843L246.086 242.752L245.239 243.522L244.239 244.384L243.408 245.092L242.408 245.909L241.577 246.586L240.562 247.356L239.746 247.988L238.715 248.742L237.93 249.312L236.838 250.051L236.115 250.544L234.853 251.345L234.314 251.684L232.514 252.762L248.702 243.352L250.502 242.274L250.964 241.797L252.225 240.996L252.948 240.503L254.041 239.764L254.826 239.194L255.857 238.44L256.672 237.808L257.688 237.038L258.519 236.361L259.519 235.545L260.35 234.821L261.335 233.958L262.181 233.188L263.15 232.295L263.997 231.479L264.966 230.524L265.812 229.662L266.766 228.661L267.613 227.737L268.551 226.69L269.397 225.704L270.321 224.611L271.167 223.579L272.075 222.439L272.906 221.361L273.814 220.16L274.629 219.021L275.506 217.773L276.306 216.572L277.168 215.263L277.445 214.847L277.953 214.031L278.83 212.614L279.584 211.321L280.43 209.781L281.169 208.425L281.984 206.885L282.707 205.469L283.508 203.929L283.861 203.22L284.338 202.204L284.785 201.249C285.133 200.489 285.472 199.719 285.8 198.939L286.077 198.308C286.498 197.281 286.908 196.254 287.308 195.228L287.631 194.396C287.847 193.842 288.062 193.287 288.278 192.718L288.432 192.271C288.955 190.87 289.462 189.437 289.97 187.959V187.743C290.432 186.342 290.878 184.894 291.309 183.416L291.478 182.877C291.571 182.554 291.663 182.215 291.74 181.907C292.006 180.973 292.268 180.028 292.525 179.073L292.955 177.41C293.217 176.409 293.463 175.393 293.694 174.33C293.786 173.961 293.879 173.591 293.971 173.221L294.079 172.744C294.294 171.774 294.509 170.788 294.709 169.803C294.94 169.31 295.063 168.786 295.171 168.247Z" fill="url(#paint5_linear_4008_879)"/>
<path d="M294.048 156.435L293.74 156.143C292.889 155.332 292.053 154.495 291.232 153.633L290.893 153.278C290.083 152.416 289.293 151.533 288.524 150.63L288.201 150.245C287.452 149.352 286.718 148.443 286 147.519L285.539 146.903C285.031 146.225 284.523 145.532 284 144.824L283.061 143.484C282.769 143.053 282.492 142.606 282.2 142.16C281.564 141.195 280.948 140.214 280.353 139.218C280.015 138.664 279.691 138.11 279.368 137.555L278.645 136.246C278.091 135.245 277.553 134.244 277.106 133.166C276.511 131.955 275.942 130.738 275.398 129.517L275.321 129.332C274.819 128.172 274.342 127.006 273.89 125.836L273.752 125.466C273.331 124.337 272.936 123.208 272.567 122.078L272.429 121.647C272.07 120.528 271.741 119.409 271.444 118.29L271.321 117.828C271.034 116.709 270.772 115.595 270.536 114.486L270.444 114.04C270.218 112.921 270.028 111.807 269.874 110.698V110.313C269.721 109.184 269.603 108.059 269.52 106.94V106.648C269.444 105.447 269.397 104.276 269.397 103.106C269.397 102.428 269.397 101.751 269.397 101.088C269.397 100.888 269.397 100.703 269.397 100.519C269.397 100.046 269.433 99.5844 269.505 99.1326C269.505 98.917 269.505 98.7014 269.505 98.4858C269.505 98.2703 269.613 97.6081 269.69 97.1615C269.69 96.9613 269.69 96.7457 269.782 96.5455C269.89 95.9295 269.997 95.3135 270.136 94.7129L254.041 104.168C253.918 104.713 253.81 105.262 253.718 105.816V106.001C253.718 106.201 253.718 106.401 253.625 106.617C253.533 106.833 253.533 107.218 253.487 107.526C253.441 107.834 253.487 107.803 253.487 107.941C253.487 108.08 253.487 108.373 253.487 108.604C253.487 108.835 253.487 109.004 253.487 109.204C253.487 109.404 253.487 109.728 253.487 109.99C253.487 110.251 253.487 110.375 253.487 110.559C253.487 110.744 253.487 110.744 253.487 110.852C253.487 111.386 253.487 111.93 253.487 112.484V112.577C253.487 113.1 253.487 113.614 253.487 114.117C253.487 114.62 253.513 115.184 253.564 115.811C253.564 115.903 253.564 115.98 253.564 116.072V116.365C253.564 116.75 253.564 117.135 253.656 117.52C253.749 117.905 253.779 118.675 253.856 119.26C253.856 119.414 253.856 119.584 253.856 119.738V120.123C253.856 120.415 253.933 120.723 253.979 121.016C254.072 121.611 254.174 122.212 254.287 122.818C254.287 123.033 254.379 123.249 254.41 123.464L254.503 123.911C254.503 124.157 254.595 124.404 254.656 124.666C254.79 125.292 254.933 125.918 255.087 126.544L255.272 127.268L255.395 127.73L255.58 128.423C255.754 129.049 255.939 129.676 256.134 130.302L256.38 131.087L256.518 131.519L256.718 132.135C256.923 132.74 257.134 133.346 257.349 133.952L257.703 134.906L257.842 135.276L257.995 135.707C258.221 136.282 258.452 136.857 258.688 137.432L259.257 138.772L259.334 138.972V139.126C259.591 139.711 259.857 140.296 260.134 140.882C260.411 141.467 260.693 142.047 260.981 142.622C261.34 143.351 261.714 144.075 262.104 144.793L262.565 145.625L263.289 146.934L263.812 147.873C263.95 148.12 264.12 148.366 264.273 148.612C264.868 149.639 265.484 150.619 266.12 151.554C266.305 151.831 266.458 152.124 266.643 152.385L266.982 152.863L267.92 154.202C268.213 154.618 268.49 155.034 268.797 155.45L269.428 156.281L269.89 156.897L270.321 157.467C270.782 158.052 271.244 158.627 271.705 159.192L272.075 159.623L272.413 160.008L273.06 160.763L274.444 162.303L274.783 162.657L275.121 163.011L275.875 163.812L277.414 165.352L277.645 165.568L277.968 165.86L278.968 166.784L280.507 168.17L280.63 168.278L296.818 158.869C295.879 158.083 294.971 157.267 294.048 156.435Z" fill="url(#paint6_linear_4008_879)"/>
<path d="M204.432 53.3951L220.62 43.9858L270.198 94.7591L254.026 104.168L204.432 53.3951Z" fill="url(#paint7_linear_4008_879)"/>
<path d="M204.432 53.3953L254.026 104.215C253.424 106.977 253.125 109.796 253.133 112.623C253.133 131.873 264.766 155.019 280.615 168.324C268.12 251.899 215.573 261.185 203.832 262.263C191.443 246.478 180.441 229.65 170.95 211.968C154.901 182.492 134.697 136.077 127.865 80.0063C143.745 85.0266 155.562 75.3863 155.562 56.1981C155.554 53.043 155.27 49.8947 154.716 46.7888L204.432 53.3953Z" fill="url(#paint8_linear_4008_879)"/>
<path d="M203.848 254.117C193.261 240.098 183.75 225.298 175.397 209.842C160.856 183.139 141.991 140.543 134.59 88.6918C150.669 90.9556 161.471 79.3133 161.533 59.6169C161.533 58.0769 161.533 56.537 161.348 54.997L204.432 60.7257L247.347 104.738C247.224 106.155 247.147 107.634 247.147 109.112C247.147 128.808 257.795 152.878 273.829 169.171C261.258 239.841 217.481 252.053 203.832 254.132M204.386 59.4167L160.179 53.4878V53.996C160.332 55.69 160.394 57.3532 160.394 58.9547C160.394 78.3123 149.623 89.662 133.743 87.2134H133.312V87.7678C140.714 140.127 159.778 183.247 174.473 210.258C182.967 225.972 192.654 241.011 203.448 255.241L203.74 255.611H204.032C217.45 253.655 262.258 241.628 274.814 169.587L274.906 169.125L274.475 168.694C258.626 152.817 248.009 129.147 248.071 109.79C248.077 108.247 248.159 106.705 248.317 105.17V104.708L204.402 59.7401L204.202 59.5399" fill="url(#paint9_linear_4008_879)"/>
<path d="M238.192 161.302C238.192 161.21 238.192 161.112 238.192 161.009C238.192 160.907 238.192 160.809 238.192 160.717V160.424V160.132V159.854V159.546V159.238L238.115 158.93V158.684L238.023 158.376L237.915 158.068L237.807 157.775L237.684 157.483L237.592 157.267L237.469 156.975L237.315 156.667L237.13 156.313L236.915 155.943V155.866L236.484 155.173L236.115 154.634L235.853 154.295L235.622 154.018L235.392 153.756L235.161 153.494L234.976 153.31L234.73 153.063L234.468 152.817L234.207 152.586L234.068 152.478L233.961 152.401L233.699 152.201L233.437 152.016L233.191 151.847L232.945 151.693L172.935 117.043L172.75 116.935L172.504 116.812L172.258 116.704L172.027 116.596L171.781 116.504H171.611H171.365H171.119H170.857H169.411H169.073L168.672 116.612C168.507 116.669 168.347 116.741 168.195 116.827L152.008 126.237C152.281 126.082 152.577 125.973 152.885 125.913C153.217 125.865 153.554 125.865 153.885 125.913C154.258 125.952 154.625 126.035 154.978 126.16C155.395 126.305 155.797 126.491 156.178 126.714L216.188 161.364C216.599 161.605 216.99 161.878 217.358 162.18C217.739 162.495 218.098 162.834 218.435 163.196C219.143 163.961 219.762 164.803 220.281 165.706C220.536 166.151 220.768 166.608 220.974 167.077C221.182 167.549 221.361 168.032 221.512 168.525C221.658 169.004 221.771 169.493 221.851 169.988C221.93 170.461 221.971 170.94 221.974 171.42L221.835 218.204C221.835 218.633 221.794 219.062 221.712 219.483C221.641 219.844 221.527 220.195 221.374 220.53C221.253 220.778 221.103 221.01 220.928 221.223L220.758 221.423C220.57 221.633 220.353 221.815 220.112 221.962L236.3 212.553C236.54 212.406 236.758 212.224 236.946 212.014L237.115 211.814C237.192 211.73 237.264 211.643 237.33 211.552C237.41 211.423 237.482 211.289 237.546 211.151L237.669 210.859L237.777 210.551L237.854 210.243V210.12V209.996C237.854 209.904 237.854 209.812 237.854 209.719C237.854 209.627 237.854 209.534 237.854 209.442C237.854 209.35 237.854 209.257 237.854 209.165C237.854 209.072 237.854 208.98 237.854 208.872L237.992 162.087C238.125 161.656 238.192 161.394 238.192 161.302Z" fill="url(#paint10_linear_4008_879)"/>
<path d="M216.111 160.763C217.828 161.879 219.257 163.386 220.281 165.161C221.306 166.935 221.896 168.927 222.005 170.973L221.866 217.758C221.866 221.515 219.204 223.025 215.942 221.146L155.932 186.496C154.21 185.38 152.777 183.871 151.75 182.094C150.723 180.317 150.131 178.321 150.023 176.271L150.162 129.486C150.162 125.728 152.824 124.219 156.101 126.113L216.111 160.763Z" fill="url(#paint11_linear_4008_879)"/>
<path d="M184.906 154.819C187.214 156.319 189.134 158.345 190.511 160.729C191.889 163.114 192.683 165.79 192.83 168.54C192.83 171.343 191.707 173.16 189.968 173.853V188.19C189.968 191.424 187.66 192.81 184.844 191.101C183.36 190.136 182.125 188.834 181.24 187.301C180.355 185.767 179.845 184.045 179.751 182.277V167.94C178.031 165.394 177.056 162.417 176.935 159.346C176.951 154.326 180.521 152.293 184.906 154.819Z" fill="url(#paint12_radial_4008_879)"/>
<path d="M181.151 101.274V101.074C181.254 100.591 181.372 100.129 181.505 99.6876L181.582 99.4412C181.72 99.0327 181.879 98.6317 182.059 98.24V98.1168C182.258 97.6968 182.484 97.2904 182.736 96.9002L182.844 96.7462C183.043 96.4516 183.259 96.1688 183.49 95.8992L183.752 95.622C183.951 95.4059 184.162 95.2002 184.383 95.006L184.66 94.775C184.966 94.5257 185.29 94.2992 185.629 94.0974L178.674 98.1476C178.335 98.3494 178.011 98.5759 177.705 98.8252L177.428 99.0562C177.207 99.2504 176.996 99.456 176.797 99.6722L176.535 99.9494C176.304 100.219 176.088 100.502 175.889 100.796L175.781 100.95C175.547 101.322 175.337 101.708 175.15 102.105V102.229C175.027 102.49 174.92 102.752 174.812 103.029C174.704 103.307 174.72 103.307 174.673 103.445L174.596 103.692V103.923C174.514 104.2 174.443 104.487 174.381 104.785V105.093V105.293V105.601C174.381 105.858 174.34 106.125 174.258 106.402C174.258 106.556 174.258 106.71 174.258 106.848V107.203C174.258 107.459 174.258 107.721 174.258 107.988C174.258 108.255 174.258 108.527 174.258 108.804V128.578C174.258 128.903 174.227 129.228 174.166 129.548C174.11 129.824 174.022 130.093 173.904 130.349C173.812 130.536 173.699 130.712 173.565 130.872L173.442 131.026C173.298 131.183 173.132 131.318 172.95 131.427L179.905 127.376C180.088 127.268 180.254 127.133 180.397 126.976L180.521 126.822C180.581 126.758 180.637 126.692 180.69 126.622L180.859 126.314L180.951 126.083L181.028 125.852V125.621V125.405V125.19C181.028 125.19 181.028 125.051 181.028 124.974C181.028 124.897 181.028 124.836 181.028 124.759C181.028 124.682 181.028 124.62 181.028 124.543V104.769C181.028 104.138 181.028 103.522 181.121 102.937V102.783C181.039 102.28 181.049 101.777 181.151 101.274Z" fill="url(#paint13_linear_4008_879)"/>
<path d="M223.405 128.3C223.405 127.89 223.405 127.474 223.405 127.053C223.405 126.868 223.405 126.668 223.405 126.468V126.298C223.405 126.16 223.405 126.006 223.405 125.867C223.405 125.446 223.359 125.025 223.266 124.604C223.174 124.183 223.113 123.752 223.082 123.311V123.203C223.02 122.803 222.954 122.402 222.882 122.002C222.81 121.601 222.718 121.155 222.605 120.662L222.497 120.169V119.892L222.359 119.322C222.246 118.87 222.128 118.414 222.005 117.952C221.912 117.613 221.805 117.274 221.712 116.935V116.75V116.581C221.579 116.14 221.435 115.693 221.282 115.241C221.128 114.789 220.974 114.348 220.82 113.917L220.728 113.655L220.651 113.455L220.343 112.654L219.835 111.391L219.435 110.467V110.313V110.144L218.866 108.896L218.204 107.526L218.096 107.31L217.958 107.048L217.404 105.97C217.158 105.524 216.912 105.077 216.65 104.631L216.265 103.953L216.111 103.691C215.881 103.306 215.634 102.937 215.404 102.567C215.173 102.198 214.727 101.443 214.357 100.904L214.188 100.642C213.675 99.8721 213.162 99.1124 212.649 98.363C212.27 97.8496 211.885 97.3363 211.495 96.823L210.557 95.668L209.556 94.4976L208.556 93.3888L208.402 93.2194L208.233 93.0346L207.51 92.28L206.417 91.202L206.094 90.894L205.833 90.663L205.279 90.1548L204.14 89.1539L203.648 88.7535L203.386 88.5379L203.001 88.2145L201.878 87.3521L201.063 86.7669L200.909 86.6591L200.755 86.5513L199.662 85.8275L198.57 85.1653L198.324 85.0113L197.508 84.5493L197.2 84.3799L196.785 84.1643L196.462 83.9949L195.939 83.7485L195.569 83.5791H195.416L194.385 83.1479L193.4 82.7783H193.261L192.877 82.6551L192.369 82.4857H192.107L191.646 82.3625L191.307 82.2701L190.938 82.1931L190.476 82.0853H190.245H189.815L189.291 81.9929H189.107H188.676H188.122H186.476H185.66H185.414H185.229C184.829 81.9929 184.429 82.0853 184.029 82.1623H183.26C182.702 82.2753 182.152 82.4245 181.613 82.6089H181.459H181.352L180.659 82.8861L180.336 83.0247C180.013 83.1787 179.69 83.3481 179.367 83.5329L172.412 87.5831C172.719 87.3983 173.042 87.2289 173.381 87.0749L173.704 86.9363L174.381 86.6591L174.643 86.5667C175.181 86.3823 175.731 86.2331 176.289 86.1201H176.428C176.812 86.1201 177.228 85.9815 177.628 85.9507H178.043H178.859H179.982H180.521H181.075H181.69L182.213 86.0431L182.875 86.1663L183.337 86.2741L184.044 86.4435L184.506 86.5667L185.291 86.8131L185.66 86.9363L186.783 87.3521L187.968 87.8603L188.337 88.0297L189.184 88.4455L189.599 88.6611L190.722 89.277C191.599 89.7852 192.446 90.3242 193.307 90.9248L193.461 91.0326C194.251 91.587 195.031 92.1722 195.8 92.7882L196.062 93.0038C196.8 93.6095 197.534 94.2512 198.262 94.9288L198.508 95.1598C199.237 95.8476 199.955 96.5612 200.663 97.3004L200.832 97.4852C201.581 98.286 202.309 99.1124 203.017 99.9645C203.735 100.837 204.432 101.73 205.11 102.644C205.71 103.476 206.294 104.307 206.864 105.17C207.218 105.709 207.571 106.278 207.91 106.833C208.249 107.387 208.495 107.757 208.772 108.234L209.156 108.912C209.603 109.713 210.049 110.452 210.464 111.314L210.603 111.576C211.105 112.603 211.577 113.604 212.018 114.579V114.733C212.449 115.76 212.849 116.756 213.219 117.721V117.921C213.598 118.947 213.942 119.974 214.25 121.001V121.17C214.547 122.197 214.814 123.188 215.05 124.142V124.419C215.281 125.436 215.481 126.452 215.65 127.499C215.814 128.526 215.937 129.553 216.019 130.579V130.826C216.096 131.827 216.142 132.828 216.142 133.813V153.587C216.142 153.912 216.111 154.237 216.05 154.557C215.994 154.833 215.906 155.102 215.788 155.358C215.696 155.545 215.583 155.721 215.45 155.881L215.327 156.035C215.183 156.192 215.017 156.327 214.834 156.436L221.789 152.386C221.972 152.277 222.138 152.142 222.282 151.985L222.405 151.831C222.465 151.768 222.521 151.701 222.574 151.631L222.743 151.323L222.836 151.092L222.913 150.861V150.63V150.414V150.199C222.913 150.199 222.913 150.06 222.913 149.983C222.913 149.906 222.913 149.845 222.913 149.768C222.913 149.691 222.913 149.629 222.913 149.552V129.779C223.251 129.173 223.415 128.68 223.405 128.3Z" fill="url(#paint14_linear_4008_879)"/>
<path d="M190.722 88.8919C204.956 97.1154 216.496 117.12 216.45 133.551V153.325C216.45 156.189 214.419 157.344 211.926 155.912C210.614 155.061 209.521 153.912 208.737 152.557C207.954 151.203 207.501 149.682 207.418 148.12V128.346C207.418 117.705 199.939 104.692 190.692 99.3484C181.444 94.0046 173.873 98.3012 173.843 108.958V128.731C173.843 131.596 171.811 132.751 169.319 131.318C167.993 130.462 166.891 129.301 166.104 127.932C165.317 126.564 164.868 125.027 164.795 123.449V103.676C164.795 87.2903 176.489 80.6684 190.722 88.8919Z" fill="url(#paint15_linear_4008_879)"/>
<path d="M189.938 163.088C190.083 163.042 190.232 163.011 190.384 162.996C190.527 162.976 190.672 162.976 190.815 162.996C190.95 163.027 191.08 163.079 191.199 163.15L184.921 159.5H184.783H184.644H183.937H183.69H183.583H183.49H183.367L182.983 159.685L110.662 201.434L116.94 205.084L189.261 163.335C189.422 163.243 189.592 163.165 189.768 163.104L189.938 163.088Z" fill="url(#paint16_linear_4008_879)"/>
<path d="M107.108 223.317C107.108 217.512 105.031 213.415 101.722 211.475L95.429 207.917C98.7372 209.842 100.799 213.939 100.815 219.76C100.815 220.438 100.815 221.115 100.738 221.793C100.738 222.008 100.738 222.224 100.738 222.44C100.738 222.655 100.645 223.317 100.584 223.764C100.522 224.211 100.43 224.734 100.338 225.304C100.245 225.874 100.214 225.981 100.137 226.32C100.061 226.659 99.9836 226.952 99.9067 227.26C99.8297 227.568 99.6759 228.137 99.5528 228.569L99.3219 229.323C99.1681 229.816 99.0039 230.329 98.8296 230.863L98.6141 231.479C98.3526 232.157 98.091 232.834 97.7986 233.512L97.6909 233.743C97.4242 234.338 97.1421 234.934 96.8446 235.529L96.5676 236.084C96.2804 236.638 95.9829 237.187 95.6752 237.732L95.4905 238.055C95.1212 238.692 94.7314 239.323 94.3211 239.949L93.9672 240.488C93.6697 240.93 93.3671 241.371 93.0593 241.813L92.5362 242.506L91.7053 243.568L90.9821 244.446L90.2742 245.247C89.8742 245.698 89.4638 246.135 89.0433 246.556L88.2585 247.341L87.643 247.926L86.5967 248.835L85.9658 249.358C85.5811 249.666 85.1964 249.944 84.8118 250.236L84.2578 250.637C83.6731 251.037 83.0884 251.407 82.5037 251.745C81.9189 252.084 81.365 252.361 80.8111 252.623L80.3802 252.823C79.8417 253.07 79.3031 253.285 78.8415 253.455H78.7338C78.2876 253.609 77.8413 253.717 77.3951 253.824L76.6411 253.978L75.6563 254.132H75.1024C74.7026 254.153 74.302 254.153 73.9022 254.132H73.5483C73.0885 254.107 72.631 254.05 72.1788 253.963H71.8557C71.5119 253.885 71.1729 253.787 70.8401 253.67L70.5324 253.563C70.1134 253.404 69.7071 253.213 69.3168 252.993L75.5486 256.504H75.6563C75.9549 256.676 76.2631 256.83 76.5796 256.966H76.7642L77.072 257.074L77.5644 257.243L78.0875 257.366H78.4107H78.5953C78.9672 257.428 79.3422 257.469 79.7186 257.49H80.1648C80.4572 257.49 80.7649 257.49 81.0573 257.49H81.3496H81.9036H82.4267L82.8883 257.397L83.6423 257.243L84.0578 257.151L84.981 256.874H85.0887L86.2274 256.442L86.6736 256.242L87.1045 256.042C87.6584 255.78 88.2277 255.488 88.7971 255.164C89.3664 254.841 89.9665 254.44 90.5512 254.055L91.1052 253.655C91.4898 253.378 91.8745 253.085 92.2592 252.777L92.8901 252.254L93.9364 251.345L94.5519 250.76L94.9366 250.406L95.3367 249.974C95.7572 249.554 96.1676 249.117 96.5676 248.665L96.9523 248.25L97.2755 247.865L97.9986 246.987L98.4603 246.417L98.8296 245.909L99.3373 245.216L99.6759 244.754L100.245 243.907L100.599 243.368L100.738 243.152C101.066 242.639 101.384 242.126 101.692 241.612V241.505L101.876 241.166C102.092 240.796 102.292 240.427 102.492 240.057L102.769 239.518L103.046 238.964L103.292 238.486C103.507 238.055 103.692 237.624 103.892 237.177L104 236.946C104.236 236.392 104.461 235.837 104.677 235.283L104.784 234.975L105 234.359C105.092 234.082 105.2 233.805 105.292 233.527C105.385 233.25 105.415 233.096 105.492 232.881L105.723 232.111L105.862 231.633C105.938 231.356 106 231.079 106.062 230.802C106.123 230.524 106.231 230.17 106.292 229.847L106.369 229.508C106.369 229.277 106.369 229.061 106.492 228.83C106.585 228.338 106.677 227.845 106.739 227.29C106.739 227.152 106.739 227.013 106.739 226.875C106.739 226.736 106.739 226.259 106.831 225.966C106.923 225.674 106.831 225.535 106.831 225.319C107.077 224.703 107.108 224.026 107.108 223.317Z" fill="url(#paint17_linear_4008_879)"/>
<path d="M109.847 196.675L110.216 196.86L103.938 193.21L103.769 193.118L103.569 193.026C103.2 192.82 102.825 192.635 102.446 192.471L102.23 192.363H102.046C101.584 192.179 101.122 192.009 100.645 191.871C100.153 191.732 99.6451 191.609 99.1065 191.516H98.9219H98.6757C98.2295 191.516 97.7678 191.393 97.2908 191.347H97.0754C96.5061 191.347 95.9214 191.347 95.3213 191.347H94.9212C94.2595 191.347 93.5825 191.439 92.8901 191.547L91.5206 191.794L91.0744 191.901L90.2127 192.117H90.1358C89.5921 192.261 89.0484 192.43 88.5047 192.625L88.197 192.748L86.8429 193.257H86.6736L86.3505 193.411L84.781 194.057L84.2271 194.319C83.5808 194.642 82.9345 194.981 82.2883 195.366C81.3035 195.936 80.3495 196.552 79.3954 197.214L78.4722 197.876C77.826 198.338 77.1951 198.816 76.5642 199.324L75.5179 200.186C74.9331 200.679 74.3638 201.172 73.7945 201.726L72.7635 202.681L72.1327 203.266C71.5582 203.831 70.994 204.411 70.4401 205.007C69.8861 205.602 69.3424 206.208 68.809 206.824L68.2858 207.455C67.8858 207.933 67.4857 208.41 67.101 208.903C66.7163 209.396 66.5779 209.519 66.3317 209.842L65.7316 210.658L64.8853 211.813L64.3159 212.599C63.9928 213.061 63.7004 213.523 63.3773 214L62.7926 214.878L62.5464 215.232C62.0027 216.084 61.4898 216.947 61.0077 217.819L60.9153 217.989L60.6076 218.528C60.2537 219.144 59.8998 219.76 59.5766 220.376L59.1304 221.253L58.6688 222.177L58.2687 222.978C57.9302 223.687 57.6071 224.395 57.2839 225.119L57.0993 225.519V225.627C56.7095 226.541 56.3351 227.454 55.976 228.368L55.7914 228.861C55.6683 229.2 55.5452 229.523 55.4375 229.862C55.3298 230.201 55.099 230.786 54.9451 231.248C54.7912 231.71 54.7297 231.956 54.6219 232.311C54.5142 232.665 54.3604 233.142 54.2373 233.573C54.1142 234.005 54.068 234.097 53.9911 234.359C53.9141 234.62 53.7756 235.283 53.6525 235.745C53.5294 236.207 53.391 236.792 53.2679 237.285C53.2679 237.469 53.1755 237.654 53.1294 237.839C52.9447 238.686 52.7909 239.533 52.6524 240.38L52.5754 240.904C52.5754 241.289 52.4523 241.674 52.4062 242.059C52.36 242.444 52.3139 243.06 52.2523 243.599C52.1908 244.138 52.1754 244.322 52.1446 244.677C52.0677 245.816 52.0061 246.94 52.0061 248.034C52.0061 257.628 55.4375 264.388 60.9 267.576L67.178 271.226C61.7001 268.038 58.3149 261.278 58.2841 251.684C58.2841 250.575 58.2841 249.451 58.4226 248.326C58.4226 247.972 58.4226 247.603 58.5303 247.248C58.6226 246.371 58.715 245.477 58.8534 244.584L58.9304 244.061C59.0996 243.029 59.2997 241.997 59.5305 240.981C59.6536 240.457 59.7767 239.933 59.9152 239.441C60.0536 238.948 60.2845 237.993 60.4999 237.269C60.623 236.853 60.7461 236.422 60.8846 236.006C61.141 235.195 61.4129 234.384 61.7001 233.573C61.8232 233.235 61.9309 232.896 62.054 232.572C62.4695 231.448 62.9157 230.339 63.4081 229.231L63.5927 228.815C64.0236 227.788 64.4852 226.813 64.9776 225.889L65.4392 224.965C65.9111 224.041 66.424 223.127 66.9779 222.224L67.2857 221.685C67.9012 220.622 68.5474 219.59 69.2091 218.605L69.7938 217.727C70.2862 216.988 70.7991 216.264 71.3325 215.555L72.1788 214.401C72.625 213.8 73.0867 213.23 73.5483 212.645C74.0099 212.06 74.333 211.675 74.7331 211.197C75.4409 210.366 76.1487 209.534 76.8873 208.749C77.6413 207.948 78.426 207.209 79.2108 206.423L80.2418 205.469C80.806 204.955 81.3804 204.442 81.9651 203.929L83.0115 203.066C83.6423 202.558 84.2732 202.096 84.9195 201.619L85.8427 200.956C86.7967 200.294 87.7661 199.678 88.7355 199.108C89.3818 198.739 90.0281 198.385 90.6743 198.061L91.2283 197.799L92.767 197.137L93.2594 196.922L94.6135 196.413L94.9366 196.29C95.4905 196.105 96.0342 195.936 96.5676 195.782L97.5217 195.551L97.9679 195.443L99.3373 195.197C100.03 195.089 100.707 195.027 101.368 194.997H101.769C102.369 194.997 102.953 194.997 103.523 194.997H103.815C104.277 194.997 104.738 195.089 105.2 195.166H105.615C106.139 195.258 106.646 195.382 107.154 195.52C107.631 195.659 108.093 195.828 108.554 196.013L108.939 196.182C109.185 196.316 109.488 196.48 109.847 196.675Z" fill="url(#paint18_linear_4008_879)"/>
<path d="M189.337 163.366C191.199 162.288 192.523 163.612 191.953 165.968L188.537 180.29C188.166 181.802 187.237 183.117 185.937 183.971L165.426 195.813C164.628 196.331 163.964 197.031 163.488 197.856C163.012 198.68 162.737 199.605 162.687 200.556C162.636 201.507 162.362 202.432 161.886 203.257C161.41 204.081 160.746 204.781 159.948 205.299L117.094 230.032C112.755 245.739 101.707 261.555 88.7047 269.055C71.9018 278.772 58.1918 270.934 58.1456 251.622C58.0995 232.311 71.7018 208.687 88.5201 198.985C101.492 191.486 112.632 194.458 117.048 205.145L189.337 163.366ZM88.7201 255.226C98.8911 249.343 107.185 235.036 107.108 223.348C107.031 211.659 98.768 206.916 88.6432 212.784C78.5184 218.651 70.1785 232.973 70.1785 244.661C70.1785 256.35 78.5184 261.093 88.6432 255.226" fill="url(#paint19_linear_4008_879)"/>
<path d="M137.436 205.469C136.113 206.239 135.021 205.623 135.021 204.083C135.065 203.249 135.306 202.438 135.723 201.716C136.14 200.993 136.722 200.379 137.421 199.925C138.76 199.155 139.837 199.771 139.852 201.295C139.807 202.132 139.565 202.947 139.145 203.672C138.725 204.397 138.139 205.013 137.436 205.469ZM144.684 201.28C143.345 202.05 142.268 201.434 142.268 199.909C142.311 199.076 142.551 198.264 142.969 197.541C143.386 196.819 143.968 196.205 144.668 195.751C145.992 194.981 147.084 195.597 147.084 197.122C147.04 197.955 146.799 198.766 146.382 199.489C145.965 200.211 145.383 200.825 144.684 201.28ZM151.931 197.091C150.592 197.861 149.515 197.245 149.515 195.72C149.559 194.887 149.799 194.075 150.216 193.353C150.633 192.63 151.216 192.016 151.916 191.562C153.254 190.792 154.332 191.408 154.332 192.948C154.288 193.782 154.048 194.593 153.631 195.316C153.213 196.039 152.631 196.652 151.931 197.106M159.179 192.918C157.84 193.688 156.763 193.072 156.763 191.532C156.806 190.698 157.046 189.887 157.464 189.164C157.881 188.441 158.463 187.828 159.163 187.374C160.502 186.604 161.579 187.22 161.579 188.744C161.536 189.578 161.295 190.389 160.878 191.112C160.461 191.835 159.878 192.448 159.179 192.902M166.426 188.714C165.087 189.484 164.01 188.868 164.01 187.343C164.054 186.509 164.294 185.698 164.711 184.975C165.128 184.252 165.711 183.639 166.411 183.185C167.749 182.415 168.826 183.031 168.826 184.571C168.783 185.405 168.543 186.216 168.126 186.939C167.708 187.661 167.126 188.275 166.426 188.729M173.673 184.54C172.35 185.31 171.258 184.694 171.258 183.17C171.302 182.336 171.543 181.525 171.96 180.803C172.377 180.08 172.959 179.466 173.658 179.012C174.997 178.242 176.074 178.858 176.074 180.382C176.03 181.216 175.79 182.027 175.373 182.75C174.956 183.473 174.373 184.086 173.673 184.54ZM182.213 171.158L128.866 201.957C128.36 202.286 127.939 202.729 127.637 203.251C127.335 203.772 127.16 204.358 127.127 204.96V212.306C127.127 213.415 127.912 213.846 128.881 213.307L182.229 182.507C182.742 182.171 183.167 181.715 183.467 181.179C183.767 180.642 183.934 180.042 183.952 179.427V172.082C183.952 170.988 183.183 170.542 182.213 171.096" fill="url(#paint20_linear_4008_879)"/>
<path d="M137.421 199.94C136.722 200.395 136.14 201.009 135.723 201.731C135.306 202.454 135.065 203.265 135.021 204.098C135.021 205.638 136.113 206.239 137.437 205.484C138.14 205.029 138.725 204.413 139.145 203.688C139.565 202.962 139.808 202.148 139.853 201.311C139.853 199.771 138.76 199.17 137.421 199.94Z" fill="url(#paint21_linear_4008_879)"/>
<path d="M144.684 195.736C143.984 196.19 143.401 196.803 142.984 197.526C142.567 198.249 142.327 199.06 142.283 199.894C142.283 201.434 143.36 202.05 144.699 201.264C145.399 200.81 145.98 200.196 146.398 199.473C146.815 198.751 147.055 197.94 147.1 197.107C147.1 195.567 146.007 194.966 144.684 195.736Z" fill="url(#paint22_linear_4008_879)"/>
<path d="M151.916 191.547C151.216 192.001 150.634 192.615 150.216 193.337C149.799 194.06 149.559 194.872 149.515 195.705C149.515 197.245 150.593 197.861 151.931 197.076C152.631 196.622 153.214 196.008 153.631 195.286C154.049 194.563 154.289 193.751 154.332 192.918C154.332 191.378 153.255 190.762 151.916 191.532" fill="url(#paint23_linear_4008_879)"/>
<path d="M159.163 187.374C158.463 187.828 157.881 188.441 157.464 189.164C157.046 189.887 156.806 190.698 156.763 191.532C156.763 193.072 157.84 193.688 159.179 192.918C159.879 192.464 160.461 191.85 160.879 191.128C161.296 190.405 161.536 189.593 161.58 188.76C161.58 187.22 160.502 186.604 159.163 187.389" fill="url(#paint24_linear_4008_879)"/>
<path d="M166.411 183.185C165.711 183.639 165.128 184.253 164.711 184.975C164.294 185.698 164.054 186.51 164.01 187.343C164.01 188.883 165.087 189.499 166.426 188.714C167.126 188.26 167.709 187.646 168.126 186.923C168.543 186.201 168.784 185.389 168.827 184.556C168.827 183.016 167.75 182.4 166.411 183.17" fill="url(#paint25_linear_4008_879)"/>
<path d="M173.658 178.996C172.959 179.451 172.377 180.065 171.96 180.787C171.543 181.51 171.302 182.321 171.258 183.154C171.258 184.694 172.35 185.295 173.674 184.525C174.374 184.071 174.956 183.457 175.374 182.734C175.791 182.012 176.031 181.2 176.074 180.367C176.074 178.827 174.997 178.211 173.658 178.996Z" fill="url(#paint26_linear_4008_879)"/>
<path style="mix-blend-mode:screen" d="M117.956 225.981C131.357 225.981 142.222 215.108 142.222 201.696C142.222 188.283 131.357 177.41 117.956 177.41C104.554 177.41 93.6901 188.283 93.6901 201.696C93.6901 215.108 104.554 225.981 117.956 225.981Z" fill="url(#paint27_radial_4008_879)"/>
<defs>
<linearGradient id="paint0_linear_4008_879" x1="333.688" y1="316.143" x2="0.579135" y2="316.143" gradientUnits="userSpaceOnUse">
<stop stop-color="#5778FF"/>
<stop offset="0.18" stop-color="#5C7DFF"/>
<stop offset="0.39" stop-color="#6A8AFF"/>
<stop offset="0.61" stop-color="#82A0FF"/>
<stop offset="0.85" stop-color="#A3BEFF"/>
<stop offset="1" stop-color="#BCD5FF"/>
</linearGradient>
<linearGradient id="paint1_linear_4008_879" x1="221.836" y1="274.835" x2="-111.413" y2="274.835" gradientUnits="userSpaceOnUse">
<stop stop-color="#C0D6FF"/>
<stop offset="0.3" stop-color="#C5DBFF"/>
<stop offset="0.65" stop-color="#D3E9FF"/>
<stop offset="1" stop-color="#E9FFFF"/>
</linearGradient>
<linearGradient id="paint2_linear_4008_879" x1="397.787" y1="145.523" x2="198.592" y2="145.523" gradientUnits="userSpaceOnUse">
<stop stop-color="#C0D6FF"/>
<stop offset="0.3" stop-color="#C5DBFF"/>
<stop offset="0.65" stop-color="#D3E9FF"/>
<stop offset="1" stop-color="#E9FFFF"/>
</linearGradient>
<linearGradient id="paint3_linear_4008_879" x1="127.835" y1="75.4011" x2="161.363" y2="75.4011" gradientUnits="userSpaceOnUse">
<stop stop-color="#F4F7FF"/>
<stop offset="1" stop-color="#7693FF"/>
</linearGradient>
<linearGradient id="paint4_linear_4008_879" x1="154.793" y1="38.088" x2="237.814" y2="56.4782" gradientUnits="userSpaceOnUse">
<stop stop-color="#DAE2FF"/>
<stop offset="1" stop-color="#7593FF"/>
</linearGradient>
<linearGradient id="paint5_linear_4008_879" x1="289.069" y1="230.424" x2="221.846" y2="185.308" gradientUnits="userSpaceOnUse">
<stop stop-color="#5778FF"/>
<stop offset="0.18" stop-color="#5C7DFF"/>
<stop offset="0.39" stop-color="#6A8AFF"/>
<stop offset="0.61" stop-color="#82A0FF"/>
<stop offset="0.85" stop-color="#A3BEFF"/>
<stop offset="1" stop-color="#BCD5FF"/>
</linearGradient>
<linearGradient id="paint6_linear_4008_879" x1="253.364" y1="75.5247" x2="289.207" y2="182.967" gradientUnits="userSpaceOnUse">
<stop stop-color="#6485FF"/>
<stop offset="1" stop-color="#AFC0FF"/>
</linearGradient>
<linearGradient id="paint7_linear_4008_879" x1="211.126" y1="45.4334" x2="270.327" y2="110.065" gradientUnits="userSpaceOnUse">
<stop stop-color="#DEE5FF"/>
<stop offset="1" stop-color="#7492FF"/>
</linearGradient>
<linearGradient id="paint8_linear_4008_879" x1="203.982" y1="209.298" x2="258.298" y2="131.082" gradientUnits="userSpaceOnUse">
<stop stop-color="#C0D6FF"/>
<stop offset="0.3" stop-color="#C5DBFF"/>
<stop offset="0.65" stop-color="#D3E9FF"/>
<stop offset="1" stop-color="#E9FFFF"/>
</linearGradient>
<linearGradient id="paint9_linear_4008_879" x1="133.359" y1="154.511" x2="275.075" y2="154.511" gradientUnits="userSpaceOnUse">
<stop stop-color="#F0F3FF"/>
<stop offset="1" stop-color="#7894FF"/>
</linearGradient>
<linearGradient id="paint10_linear_4008_879" x1="151.916" y1="168.725" x2="238.192" y2="168.725" gradientUnits="userSpaceOnUse">
<stop stop-color="#242993"/>
<stop offset="1" stop-color="#353EAE"/>
</linearGradient>
<linearGradient id="paint11_linear_4008_879" x1="186.003" y1="124.071" x2="186.003" y2="232.685" gradientUnits="userSpaceOnUse">
<stop stop-color="#D8E0FF"/>
<stop offset="1" stop-color="#7592FF"/>
</linearGradient>
<radialGradient id="paint12_radial_4008_879" cx="0" cy="0" r="1" gradientUnits="userSpaceOnUse" gradientTransform="translate(169.072 202.774) scale(68.658 68.7141)">
<stop stop-color="#819CFF"/>
<stop offset="0.53" stop-color="#5E65CB"/>
<stop offset="1" stop-color="#323BAA"/>
</radialGradient>
<linearGradient id="paint13_linear_4008_879" x1="172.936" y1="112.582" x2="185.629" y2="112.582" gradientUnits="userSpaceOnUse">
<stop stop-color="#242993"/>
<stop offset="1" stop-color="#353EAE"/>
</linearGradient>
<linearGradient id="paint14_linear_4008_879" x1="172.357" y1="118.856" x2="223.405" y2="118.856" gradientUnits="userSpaceOnUse">
<stop stop-color="#242993"/>
<stop offset="1" stop-color="#353EAE"/>
</linearGradient>
<linearGradient id="paint15_linear_4008_879" x1="190.615" y1="84.4567" x2="190.615" y2="164.428" gradientUnits="userSpaceOnUse">
<stop stop-color="#D8E0FF"/>
<stop offset="1" stop-color="#7592FF"/>
</linearGradient>
<linearGradient id="paint16_linear_4008_879" x1="153.22" y1="164.684" x2="141.15" y2="193.623" gradientUnits="userSpaceOnUse">
<stop stop-color="#D0D2FF"/>
<stop offset="0.52" stop-color="#B0B4FF"/>
<stop offset="0.78" stop-color="#9598F2"/>
<stop offset="1" stop-color="#9297F2"/>
</linearGradient>
<linearGradient id="paint17_linear_4008_879" x1="77.2874" y1="202.943" x2="99.6781" y2="271.585" gradientUnits="userSpaceOnUse">
<stop stop-color="#BABDFF"/>
<stop offset="1" stop-color="#1D26BE"/>
</linearGradient>
<linearGradient id="paint18_linear_4008_879" x1="82.7654" y1="200.43" x2="53.0005" y2="229.866" gradientUnits="userSpaceOnUse">
<stop stop-color="#D0D2FF"/>
<stop offset="0.52" stop-color="#B0B4FF"/>
<stop offset="0.78" stop-color="#9598F2"/>
<stop offset="1" stop-color="#9297F2"/>
</linearGradient>
<linearGradient id="paint19_linear_4008_879" x1="58.002" y1="217.575" x2="192.087" y2="217.575" gradientUnits="userSpaceOnUse">
<stop stop-color="#242993"/>
<stop offset="1" stop-color="#353EAE"/>
</linearGradient>
<linearGradient id="paint20_linear_4008_879" x1="158.255" y1="219.067" x2="153.015" y2="167.201" gradientUnits="userSpaceOnUse">
<stop stop-color="white"/>
<stop offset="1" stop-color="#416CED"/>
</linearGradient>
<linearGradient id="paint21_linear_4008_879" x1="140.038" y1="221.886" x2="137.075" y2="199.868" gradientUnits="userSpaceOnUse">
<stop stop-color="#343DAD"/>
<stop offset="1" stop-color="#4F57C0"/>
</linearGradient>
<linearGradient id="paint22_linear_4008_879" x1="147.285" y1="217.687" x2="144.311" y2="195.666" gradientUnits="userSpaceOnUse">
<stop stop-color="#343DAD"/>
<stop offset="1" stop-color="#4F57C0"/>
</linearGradient>
<linearGradient id="paint23_linear_4008_879" x1="154.517" y1="213.53" x2="151.531" y2="191.467" gradientUnits="userSpaceOnUse">
<stop stop-color="#343DAD"/>
<stop offset="1" stop-color="#4F57C0"/>
</linearGradient>
<linearGradient id="paint24_linear_4008_879" x1="161.764" y1="209.322" x2="158.793" y2="187.312" gradientUnits="userSpaceOnUse">
<stop stop-color="#343DAD"/>
<stop offset="1" stop-color="#4F57C0"/>
</linearGradient>
<linearGradient id="paint25_linear_4008_879" x1="169.012" y1="205.168" x2="166.026" y2="183.105" gradientUnits="userSpaceOnUse">
<stop stop-color="#343DAD"/>
<stop offset="1" stop-color="#4F57C0"/>
</linearGradient>
<linearGradient id="paint26_linear_4008_879" x1="176.259" y1="200.94" x2="173.285" y2="178.92" gradientUnits="userSpaceOnUse">
<stop stop-color="#343DAD"/>
<stop offset="1" stop-color="#4F57C0"/>
</linearGradient>
<radialGradient id="paint27_radial_4008_879" cx="0" cy="0" r="1" gradientUnits="userSpaceOnUse" gradientTransform="translate(117.956 201.696) scale(24.2657 24.2856)">
<stop stop-color="white"/>
<stop offset="0.04" stop-color="#EAEAEA" stop-opacity="0.92"/>
<stop offset="0.15" stop-color="#B4B4B4" stop-opacity="0.71"/>
<stop offset="0.26" stop-color="#848484" stop-opacity="0.52"/>
<stop offset="0.37" stop-color="#5B5B5B" stop-opacity="0.36"/>
<stop offset="0.49" stop-color="#3A3A3A" stop-opacity="0.23"/>
<stop offset="0.61" stop-color="#212121" stop-opacity="0.13"/>
<stop offset="0.73" stop-color="#0E0E0E" stop-opacity="0.06"/>
<stop offset="0.86" stop-color="#040404" stop-opacity="0.01"/>
<stop offset="1" stop-opacity="0"/>
</radialGradient>
</defs>
</svg>
