<svg width="56" height="56" viewBox="0 0 56 56" fill="none" xmlns="http://www.w3.org/2000/svg">
<circle cx="27.999" cy="28" r="28" fill="#ED2F2F"/>
<path d="M19.2238 36.7767L19.2238 36.7766C18.7254 36.2786 18.7254 35.4706 19.2238 34.9726L26.1963 28.0002L19.2238 21.0277C19.2238 21.0277 19.2238 21.0277 19.2238 21.0277C18.7254 20.5297 18.7254 19.7218 19.2238 19.2238L19.2238 36.7767ZM19.2238 36.7767C19.4729 37.0254 19.7997 37.15 20.1257 37.15C20.4517 37.15 20.7785 37.0254 21.0276 36.7762L28.0002 29.8037L34.9724 36.7762C35.2215 37.0254 35.5483 37.15 35.8743 37.15C36.2003 37.15 36.5271 37.0254 36.7762 36.7763C37.2746 36.2783 37.2746 35.4703 36.7762 34.9723C36.7762 34.9723 36.7762 34.9723 36.7762 34.9723L29.804 28.0002L36.7762 21.0277C37.2746 20.5297 37.2746 19.7217 36.7762 19.2237C36.2779 18.7254 35.4707 18.7254 34.9724 19.2238L28.0002 26.1963M19.2238 36.7767L28.0002 26.1963M28.0002 26.1963L21.0276 19.2238C21.0276 19.2238 21.0276 19.2238 21.0276 19.2238C20.5293 18.7254 19.7221 18.7254 19.2238 19.2237L28.0002 26.1963Z" fill="white" stroke="white" stroke-width="0.3"/>
</svg>
