<svg width="252" height="277" viewBox="0 0 252 277" fill="none" xmlns="http://www.w3.org/2000/svg">
<g clip-path="url(#clip0_4020_224)">
<path d="M126.933 236.178C186.817 236.178 235.363 187.665 235.363 127.821C235.363 67.9774 186.817 19.4644 126.933 19.4644C67.0495 19.4644 18.5039 67.9774 18.5039 127.821C18.5039 187.665 67.0495 236.178 126.933 236.178Z" fill="url(#paint0_radial_4020_224)"/>
<g style="mix-blend-mode:overlay">
<path d="M162.655 230.131L162.976 230.018C158.32 231.639 153.563 232.956 148.737 233.961C147.616 234.258 146.466 234.431 145.308 234.477H145.397H145.486H145.575H145.664H145.759H145.859H145.972H146.091C151.736 233.549 157.293 232.149 162.703 230.291M224.227 114.772C224.292 78.3566 206.855 48.6645 180.389 33.6406C187.55 38.034 192.255 40.9332 200.466 48.2969C207.71 55.4887 208.303 56.0757 212.557 61.4354C218.739 70.0264 219.083 70.5363 222.239 76.2103C227.093 86.0167 227.276 86.3962 229.359 92.3963C232.58 103.068 232.705 103.46 233.791 109.75C235.227 121.051 235.28 121.495 235.292 128.017C234.811 139.478 234.782 140.166 233.512 147.387L232.325 152.996V153.055C232.515 152.023 232.753 150.998 232.919 149.96C231.311 157.075 230.338 161.385 223.106 173.676C223.574 168.34 227.484 164.19 228.475 159.043C229.466 153.897 228.76 148.454 229.822 143.243C229.905 142.543 229.851 142.484 229.822 142.425L229.667 142.258L229.513 142.092L229.359 141.932L229.199 141.772L229.039 141.612L228.872 141.452L228.7 141.286C229.074 139.756 229.044 139.555 228.736 137.035C228.647 136.549 228.611 136.756 228.576 136.964L228.475 137.557L228.38 138.085L228.291 138.577L228.202 139.033L228.101 139.419L228.024 139.816L227.947 140.195C226.938 141.737 225.686 143.1 224.761 144.695C223.752 146.438 224.963 149.545 222.186 150.132C221.741 149.266 221.741 149.266 221.759 147.725L221.011 147.814C219.113 151.46 218.128 155.557 215.553 158.877C221.195 144.852 224.132 129.888 224.209 114.772" fill="white"/>
<path d="M25.5106 89.7514C25.3524 90.1902 25.1982 90.6289 25.0479 91.0677C25.8263 88.8298 26.7235 86.635 27.7355 84.4925C26.8925 86.2009 26.1497 87.9569 25.5106 89.7514ZM22.7459 157.798L21.233 151.916C19.3938 141.997 18.9014 139.329 18.5454 127.655C19.0378 115.957 19.0497 115.732 20.1176 109.388C22.4908 98.2476 22.5382 98.0341 24.6148 92.04C28.6432 81.8482 28.7975 81.4509 31.8292 75.8659C37.3764 66.6049 37.5959 66.2433 41.571 61.1088C48.1506 53.3301 48.6904 52.6897 53.7215 47.994C56.4922 45.6225 60.2477 42.5098 63.1311 40.2864C67.652 37.322 67.652 37.322 68.2156 37.2093C67.9368 37.6836 67.9961 37.654 68.0613 37.6244L68.2453 37.5413L68.4351 37.4583L68.6309 37.3753L68.8326 37.2864L69.0403 37.1975L69.2539 37.1085L69.4793 37.0137C68.6606 37.7548 68.4589 37.9445 67.6994 38.7331L67.9605 38.6323L68.2215 38.5315L68.4885 38.4248L68.7614 38.318L69.0403 38.2113L69.3251 38.1046L69.6158 37.9979L69.9124 37.8911C69.153 39.2667 66.59 40.6185 63.3388 42.326C64.0626 42.4979 64.0626 42.4979 66.3052 41.4011C66.6733 41.5325 67.0726 41.549 67.4503 41.4485C67.4087 41.5671 65.0771 44.4782 62.342 45.5987L61.9742 45.0592L61.3275 45.1482C61.1205 45.7896 60.8055 46.3912 60.396 46.9268C60.8349 46.7692 61.258 46.5707 61.6598 46.3339L61.3097 46.9268C61.7297 46.8877 62.1438 46.8001 62.5438 46.666C62.5438 47.3834 62.7989 48.0652 62.8226 48.7767C62.2936 49.354 61.667 49.8336 60.9715 50.1937L61.4462 50.6146C61.1911 50.9466 60.8529 51.3735 60.5384 51.6818C60.224 51.9901 60.1291 52.002 60.0579 52.0257L59.8443 52.0909L59.6307 52.1561L59.4231 52.2214L59.2213 52.2866L59.0196 52.3518L58.8238 52.417L58.628 52.4822L58.901 51.8182C58.017 52.8735 57.6313 54.1898 56.9728 55.3755C56.065 55.3755 55.2582 55.8973 54.3504 55.921C53.7571 56.1997 53.6681 56.2945 53.6147 56.3835L53.4486 56.6562L53.2825 56.9289L53.1223 57.1957L52.9621 57.4625L52.8019 57.7353L52.6418 58.008L52.4816 58.2866C54.1606 59.6325 56.4269 59.6266 58.189 60.7709L58.2602 61.506C56.777 63.095 52.179 64.2215 50.3576 59.1345H49.6219C49.7524 58.4942 49.7524 58.4942 50.6305 56.6028L50.2627 56.0989C50.322 55.9151 50.322 55.9151 51.1407 53.917C50.3635 54.0415 50.3635 54.0415 49.5151 55.1384L50.1084 55.3933C49.705 56.84 47.6937 58.6898 47.6759 58.7017C47.2191 57.3617 47.9607 56.2708 48.7379 55.1147C46.7029 56.8933 46.7029 56.8933 45.6587 58.2392C45.457 58.4764 45.4214 58.5001 45.3858 58.5238L45.279 58.5949L45.1722 58.6661L45.0654 58.7372L44.9587 58.8084L44.8519 58.8795L44.7451 58.9507L44.6383 59.0218L44.5196 59.1048L44.401 59.1878L44.2882 59.2649L44.1814 59.342L44.0806 59.4131L43.9916 59.4784L43.9145 59.5376L43.8492 59.5851C37.9163 66.2729 37.9163 66.2729 31.8826 76.2454C31.6956 76.5048 31.5289 76.7784 31.3842 77.0635L31.1053 77.609L30.8384 78.1426L30.5773 78.6703L30.3281 79.1861L30.0849 79.6901L29.8535 80.1881L29.6281 80.6802C16.7418 105.463 20.0168 141.873 20.8058 148.904C19.8506 145.726 19.4235 139.815 19.109 135.499C19.02 133.127 19.287 130.797 18.8302 128.467C18.6531 138.385 19.9732 148.273 22.7459 157.798ZM109.366 234.708C108.868 234.672 108.868 234.672 104.899 233.913C100.259 232.87 99.9803 232.81 97.3105 232.051C95.4891 231.488 93.0507 230.747 91.2471 230.136L91.3776 230.184C91.8345 230.344 92.6888 230.634 93.4897 230.878L92.7363 230.634C105.943 234.785 118.42 233.599 126.554 231.915L126.453 231.957C122.893 232.97 119.15 233.19 115.536 234.032C116.019 234.032 116.503 234.01 116.99 233.967C115.721 234.221 114.428 234.337 113.134 234.31C113.267 234.348 113.391 234.41 113.501 234.494C112.677 234.808 112.677 234.808 108.417 234.441C108.916 234.551 109.421 234.63 109.93 234.678C109.735 234.717 109.535 234.729 109.336 234.714" fill="white"/>
<path d="M187.069 217.94C182.091 221.254 182.091 221.254 170.309 226.987C170.754 226.987 174.616 225.108 174.658 225.09C177.671 223.501 181.646 221.301 184.577 219.558L188.078 217.264L187.075 217.94" fill="white"/>
<path d="M188.944 216.661L188.487 216.975L189.709 216.121L188.944 216.661Z" fill="white"/>
<path d="M208.214 173.936C209.341 173.043 210.608 172.344 211.964 171.866C212.367 171.742 212.763 171.596 213.15 171.428C213.43 171.079 213.632 170.675 213.744 170.242C213.686 169.761 213.508 169.303 213.228 168.908C213.026 168.807 212.83 168.908 212.45 169.21C212.354 169.289 212.253 169.362 212.148 169.43L212.077 169.471C211.388 169.88 210.89 170.615 210.012 170.698C209.434 171.785 208.841 172.864 208.232 173.936" fill="white"/>
<path d="M221.177 173.089C220.382 174.583 220.347 174.642 220.216 175.158C220.121 175.519 220.216 175.94 220.448 175.917C220.934 175.869 223.183 171.719 224.073 168.992C223.171 169.585 222.358 170.871 221.177 173.089Z" fill="white"/>
<path d="M48.2218 59.8879C47.5514 61.1686 47.6285 61.7378 47.8006 62.1232C49.444 60.6587 49.444 60.6291 49.6101 59.1587L49.5092 59.2002L49.4143 59.2417L49.3194 59.2832L49.2304 59.3247L49.1414 59.3603L49.0583 59.3958L48.9753 59.4314L48.8981 59.467L48.821 59.5026L48.7439 59.5381L48.6668 59.5737L48.5896 59.6093L48.5125 59.6449L48.4354 59.6804L48.3582 59.716L48.2811 59.7516L48.2218 59.8642" fill="white"/>
<path d="M230.089 108.967C229.798 109.418 229.798 109.418 229.774 109.424C229.549 109.192 229.513 108.771 229.104 108.712C228.831 108.671 228.635 109.103 228.57 109.246L228.434 108.718L228.303 108.226L228.178 107.763L228.06 107.319L227.941 106.898L227.828 106.489L227.716 106.086L227.603 105.688C227.864 104.734 227.769 103.862 227.265 102.469L227.342 102.38L227.419 102.291L227.49 102.202L227.561 102.113L227.633 102.024L227.704 101.935L227.769 101.846L227.834 101.758C228.736 104.265 229.407 106.335 230.13 108.872L230.089 108.931M226.915 118.341C226.95 118.602 226.974 118.934 226.998 119.206C226.541 118.874 226.215 118.649 225.604 118.24C226.321 120.884 227.573 123.374 227.852 126.143C227.947 127.056 227.852 127.222 226.808 130.044C224.435 128.266 224.435 128.266 224.31 127.756C224.052 126.319 224.052 124.847 224.31 123.41C224.488 122.832 224.504 122.217 224.358 121.631C224.18 120.973 223.936 120.872 223.634 120.742C221.565 118.62 220.159 115.942 219.588 113.034C219.591 112.814 219.631 112.595 219.706 112.388C219.86 111.534 220.098 110.07 220.371 107.924L220.697 107.728L221.017 107.532L221.332 107.337L221.64 107.141L221.943 106.945L222.24 106.75L222.53 106.554L222.815 106.358C223.07 107.58 223.213 108.315 223.408 109.501L223.319 109.56L223.224 109.625L223.13 109.69L223.035 109.756L222.94 109.815L222.851 109.874L222.768 109.928L222.69 109.975C222.518 110.799 223.64 111.973 222.572 112.459C222.572 113.349 222.75 116.165 224.453 114.914C225.479 117.659 225.479 117.659 225.639 117.724C225.564 117.013 225.479 116.303 225.384 115.596C225.912 115.791 226.636 116.058 226.932 118.364M216.769 122.396C216.847 122.924 216.9 123.457 216.983 123.985C212.492 125.876 212.492 125.876 210.196 123.576C209.917 123.291 209.917 123.291 209.674 123.309C208.303 124.94 208.303 124.94 207.858 125.278C207.2 125.776 206.333 125.829 205.681 126.327C205.048 126.884 204.267 127.244 203.432 127.365C202.554 127.584 202.554 127.584 201.332 128.841C200.796 126.001 200.73 123.093 201.136 120.232C201.184 119.9 201.362 119.876 201.498 119.859C201.872 119.805 202.192 120.06 202.566 120.036C202.596 119.366 202.821 118.72 202.845 118.044C202.845 117.617 202.691 117.214 202.679 116.787C202.679 116.675 202.744 114.73 202.744 114.724C202.833 114.273 202.94 114.268 203.741 114.196C204.85 116.1 204.85 116.1 206.001 116.657C206.138 117.932 204.969 118.691 204.755 119.829C206.743 120.837 207.484 120.155 209.549 117.048C209.268 116.825 208.917 116.709 208.558 116.722C207.704 116.663 207.556 116.55 207.146 115.596C207.651 114.89 207.906 114.042 208.452 113.36C208.699 113.08 209.03 112.885 209.395 112.803C209.626 112.661 209.626 112.661 210.777 110.55C210.848 111.101 210.961 111.647 210.985 112.198C210.914 112.252 209.205 113.58 210.291 117.315C211.424 117.208 211.424 117.208 211.685 117.41C212.569 118.098 213.204 119.058 214.195 119.627C214.699 119.918 215.286 119.289 215.779 119.764C216.25 120.578 216.589 121.463 216.781 122.384M180.389 33.6401L180.223 33.5452C182.074 34.648 184.483 36.2251 184.969 36.5097C176.485 31.5116 176.485 31.5116 174.403 30.978C174.996 31.3575 175.844 31.8437 176.479 32.1638C174.373 31.4227 174.373 31.4227 173.614 31.3219C177.974 33.9721 181.22 38.1817 186.073 40.1738C186.885 44.4604 191.294 44.1758 193.833 46.2687C192.816 45.6833 191.732 45.2215 190.605 44.8932C191.049 45.6272 191.631 46.2676 192.32 46.7786C191.578 46.6363 191.578 46.6363 187.989 44.6145C189.674 46.6541 196.402 51.1364 196.467 51.1364L197.387 50.6087C198.36 51.1126 199.214 51.7945 200.175 52.334L198.081 51.6581C199.528 53.6146 201.279 55.3281 202.578 57.4032L201.391 57.3439C198.977 51.6581 185.07 43.9446 184.934 43.8794C187.93 48.9545 193.649 50.8755 197.63 54.8004C193.418 53.1107 193.418 53.1107 192.112 53.6739C192.818 54.9783 194.112 55.7372 195.019 56.8578L194.966 56.8993L194.913 56.9408L194.877 57.006L194.83 57.0416L194.782 57.0771L194.735 57.1127L194.687 57.1483L194.64 57.1839L192.984 55.6779C193.323 56.7036 192.984 57.7768 193.186 58.8084L192.071 58.34C191.216 60.2254 192.308 62.2175 191.75 64.1207L191.513 63.8243L191.282 63.5337L191.056 63.2551L190.837 62.9823L190.623 62.7215L190.416 62.4665L190.214 62.2234L190.024 61.9922L187.93 60.7649C187.639 60.6345 187.597 60.6523 187.556 60.6701L187.437 60.7175L187.324 60.7649L187.212 60.8124L187.099 60.8598L186.986 60.9072L186.874 60.9547L186.761 61.0021C188.369 62.8875 190.291 64.4705 191.946 66.3381C191.286 66.1872 190.595 66.2624 189.982 66.5516C189.864 67.2097 189.727 68.0931 189.632 68.7571C190.285 69.5931 191.288 70.0674 191.899 70.9508C192.106 71.3481 192.065 71.3658 192.023 71.3836L191.905 71.4311L191.792 71.4726L191.679 71.5141L191.567 71.5556L191.454 71.5971L191.335 71.6445L191.205 71.6919L191.033 71.4311L190.86 71.1702L190.694 70.9152L190.528 70.6603L190.362 70.4113L190.196 70.1623L190.03 69.9133L189.864 69.6702L188.82 70.0793L188.653 71.1583C189.227 71.7575 189.866 72.2905 190.558 72.7473L189.371 72.9607C187.639 71.6027 186.074 70.0444 184.708 68.3184C187.912 67.6543 187.912 67.6543 188.268 67.518C188.001 66.1188 187.675 64.5535 186.856 64.0377C182.62 61.5357 177.553 61.1325 173.293 58.7017L172.7 59.7452C172.013 59.4492 171.362 59.0752 170.76 58.6305L171.199 59.6266H170.012C170.196 60.3358 170.558 60.9866 171.062 61.5179C170.397 61.3805 169.745 61.182 169.116 60.925L169.496 61.9744C169.075 61.5179 168.505 60.9132 168.072 60.4685C167.248 67.5832 167.248 67.5832 165.925 67.7492C164.898 71.0635 164.477 72.439 164.613 77.8699L163.67 78.5398C163.243 79.1327 163.261 79.1742 163.278 79.2217L163.326 79.3699L163.379 79.5241L163.433 79.6841L163.486 79.8561L163.545 80.0399L163.611 80.2355L163.682 80.449C161.309 81.1486 158.597 84.9609 158.574 84.9964L158.704 85.5241L158.835 86.0399L158.959 86.5439L159.078 87.036L159.197 87.5162L159.309 87.9906L159.422 88.453L159.529 88.9095L160.567 88.9748C163.415 94.9037 163.415 94.9037 167.236 92.2001C169.419 90.6704 173.726 95.9887 173.762 98.55L175.613 99.884C177.986 95.3543 178.146 94.6072 177.233 91.8918C179.013 89.4135 179.742 88.3878 175.933 85.1091C175.085 84.362 175.032 84.2138 174.978 84.0656L174.812 83.6209L174.646 83.1763L174.474 82.7375L174.302 82.2988L174.13 81.866L173.958 81.4332L173.786 81.0063C175.304 76.2631 175.304 76.2631 175.287 72.5872C177.951 71.8639 178.253 72.3263 179.386 74.0398L178.384 73.8145C177.037 90.2317 184.678 85.1625 184.756 85.0794C185.163 84.5495 185.678 84.1128 186.268 83.7988C186.801 84.2419 187.299 84.7256 187.758 85.2455C187.061 85.6375 186.283 85.8627 185.485 85.9036C184.216 87.6822 184.204 87.9965 184.168 89.2178L186.12 90.7001L186.15 91.8384L185.112 92.0756L183.094 90.2139C182.727 92.9886 184.708 95.5203 183.937 98.3306C183.166 101.141 181.433 100.192 180.496 99.7061C179.274 100.169 179.274 100.169 176.859 102.635C175.02 102.22 173.044 104.046 171.282 102.309C168.879 99.9373 171.098 95.6922 167.793 93.6823L167.081 94.4649C167.707 94.8382 168.212 95.3837 168.535 96.0361C167.957 96.5587 167.247 96.9134 166.482 97.0618C166.114 97.293 166.138 97.4175 166.168 97.5361L166.251 97.8978L166.328 98.2535L166.405 98.6033L166.482 98.9531L166.559 99.297L166.636 99.6409L166.714 99.9847L168.707 101.497L168.784 101.858L168.861 102.214L168.938 102.558L169.01 102.896L169.081 103.222L169.146 103.536L169.211 103.839L169.271 104.123C166.47 105.677 165.847 106.014 163.178 107.408C163.267 108.226 163.385 109.317 163.474 110.141C163.415 111.078 163.261 111.096 163.1 111.113L162.65 111.161L162.216 111.208L161.789 111.25L161.368 111.291L160.953 111.333L160.537 111.374L160.116 111.416C159.594 113.058 159.594 113.058 156.325 116.26L154.207 115.074C153.827 115.009 153.845 115.163 153.863 115.317L153.904 115.744L153.946 116.135L153.982 116.497L154.017 116.835L154.047 117.149V117.451V117.742C151.306 118.536 151.021 118.643 149.894 119.947L150.327 121.015C152.659 121.821 154.023 123.884 155.898 125.289C155.305 126.303 155.305 126.303 154.872 131.349C154.729 131.272 141.754 131.272 142.24 133.934C143.083 138.535 143.083 138.535 141.006 142.365C141.036 142.471 146.886 151.726 156.598 147.108C158.473 141.345 162.946 136.815 164.352 130.827C166.197 129.932 168.185 130.602 170.083 130.323C170.45 129.664 171.026 129.147 171.721 128.853L171.923 128.817H172.166C172.767 128.458 173.291 127.985 173.708 127.424L174.865 127.365C177.915 131.1 182.549 133.074 185.509 136.904V137.183V137.485V137.811V138.155V138.511V138.878V139.252V139.631C186.618 139.234 186.618 139.234 187.977 137.295C187.535 136.698 187.202 136.028 186.992 135.315C187.744 135.25 188.501 135.25 189.253 135.315L189.846 134.414C178.876 127.003 176.598 125.461 179.22 122.017C179.695 122.283 190.878 128.61 194.254 139.08C194.557 139.673 194.681 139.62 194.806 139.596L195.162 139.513L195.506 139.436L195.844 139.359L196.17 139.282L196.491 139.205L196.799 139.133L197.102 139.062L196.621 138.161C196.956 137.557 197.398 137.018 197.927 136.572C197.46 136.017 196.863 135.587 196.188 135.321C195.773 135.12 195.767 135.054 195.761 134.983V134.782V134.58V134.378V134.177V133.981V133.786V133.59L196.746 133.133C197.339 132.778 197.339 132.701 197.339 132.623V132.398V132.179V131.959V131.74V131.521V131.295V131.058C201.362 129.76 201.362 129.76 202.086 129.155C201.006 135.914 200.715 137.734 205.408 139.892C205.871 139.299 206.476 138.517 206.933 137.924L208.012 137.841L208.849 138.701C209.763 138.463 209.763 138.463 211.637 137.094C212.788 138.558 213.874 139.94 211.044 148.887C206.084 150.985 206.084 150.985 205.954 151.987C205.331 151.702 204.75 151.333 204.227 150.89C203.592 150.481 203.468 150.517 203.337 150.553L202.964 150.653L202.584 150.754L202.204 150.855L201.824 150.956L201.445 151.057L201.059 151.157L200.673 151.258L200.258 149.989C197.921 149.331 195.103 148.566 195.097 148.566C194.256 149.46 193.501 150.431 192.842 151.466C192.799 151.604 192.779 151.748 192.783 151.892V151.958C192.783 152.1 192.783 152.242 192.783 152.385C192.783 152.527 192.783 152.673 192.783 152.823C192.783 152.974 192.783 153.126 192.783 153.28C192.783 153.434 192.783 153.59 192.783 153.748C192.783 153.91 192.783 154.072 192.783 154.234C192.783 154.396 192.783 154.566 192.783 154.744C192.783 154.922 192.783 155.098 192.783 155.272C190.766 155.272 190.766 155.272 189.324 154.46C188.867 153.932 188.772 153.95 188.683 153.968L188.392 154.021L188.09 154.08L187.775 154.14L187.455 154.199L187.123 154.258L186.785 154.317L186.446 154.377L186.274 153.191C183.966 151.691 180.935 152.474 178.698 150.695C178.514 143.408 178.514 143.408 177.268 143.171C177.15 143.171 160.448 146.918 160.223 147.179C158.805 148.792 156.77 149.551 155.121 150.849C151.294 150.327 151.294 150.327 149.686 149.592L141.92 159.132C141.92 166.424 134.741 167.065 134.67 167.065C134.783 167.49 134.831 167.929 134.812 168.369C133.958 171.926 130.897 174.203 129.55 177.47C127.954 181.341 130.671 185.284 129.366 189.162C129.147 189.808 128.5 190.644 126.661 190.94C128.802 193.312 128.802 193.312 128.921 193.525C128.561 194.207 128.358 194.961 128.328 195.731C128.992 196.025 129.681 196.259 130.387 196.431C133.062 202.644 136.557 203.516 136.942 203.593C137.575 204.713 138.426 205.696 139.445 206.482C140.464 207.268 141.63 207.842 142.875 208.17C147.764 203.942 161.718 202.638 161.861 202.626C162.374 203.257 162.694 204.023 162.78 204.832C164.857 205.727 167.283 204.962 169.306 206.213C164.969 212.925 164.969 212.925 167.859 215.99C161.457 221.646 158.366 230.747 149.467 233.777C154.094 232.815 158.653 231.547 163.112 229.982L163.231 229.941C166.251 228.802 166.251 228.802 176.8 223.638C176.983 223.544 177.043 223.502 177.108 223.466L177.286 223.354L177.458 223.247L177.63 223.14L177.796 223.04L177.956 222.939L178.117 222.838L178.277 222.737C195.69 213.619 218.917 183.132 219.688 179.1C214.776 183.428 214.776 183.428 213.756 183.12L213.275 182.171C213.803 180.79 213.803 180.79 214.064 177.814L213.346 177.079C214.865 168.322 209.045 160.667 209.597 152.058C210.154 153.606 210.362 154.217 210.783 155.562L211.97 155.183L212.824 155.776C212.824 156.191 212.889 156.748 212.919 157.163C213.257 161.616 215.019 165.719 216.052 169.999C217.007 173.948 213.595 177.405 214.788 181.377C218.763 176.005 223.521 171.221 226.743 165.292L227.105 164.551C230.16 159.808 230.071 157.531 229.691 149.912C228.291 154.335 228.291 154.335 227.419 155.248L226.559 154.655C226.469 154.528 226.432 154.37 226.458 154.217L226.505 153.896L226.547 153.582L226.588 153.28L226.624 153.001L226.66 152.746V152.527V152.349C224.678 148.139 224.429 147.606 224.773 145.377L225.799 145.471L226.232 144.505C226.636 148.341 226.689 148.43 227.555 149.918C228.819 149.681 228.819 149.681 230.267 146.912C229.952 149.07 229.952 149.07 230.19 150.505L230.468 150.232L230.73 149.96L230.979 149.693L231.216 149.426L231.441 149.165L231.655 148.904L231.857 148.649L232.047 148.4L232.278 147.345L232.474 148.353L232.99 147.292C233.209 148.958 233.233 149.136 232.48 152.592L233.577 147.333C235.138 136.305 235.262 135.404 235.357 127.963C234.906 116.266 234.9 116.04 233.856 109.696C231.519 98.544 231.483 98.3306 229.424 92.3424C225.431 82.1268 225.271 81.7296 222.305 76.1564C216.775 66.8599 216.562 66.4982 212.622 61.3815C205.9 53.3775 205.503 52.8973 200.531 48.243C194.432 43.0019 189.615 38.8576 180.454 33.5867" fill="white"/>
<path d="M80.5145 211.235V211.294C80.515 211.34 80.5032 211.385 80.4802 211.424C80.4572 211.464 80.424 211.497 80.384 211.519L80.2119 211.329C80.2119 211.329 80.1645 211.329 80.1763 211.27C80.1882 211.211 80.1763 211.27 80.467 211.205M105.611 220.887C105.117 220.406 104.583 219.967 104.015 219.577L103.979 218.563C89.2715 211.869 89.2715 211.869 85.3854 211.288C84.837 211.702 84.1876 211.962 83.5047 212.041L83.9319 211.158C83.2436 210.464 83.2436 210.464 80.651 210.76C82.0274 205.306 70.565 199.869 70.4642 199.857L69.8709 200.705C61.1495 192.997 61.1495 192.997 61.2089 191.491C59.4765 191.219 59.4765 191.219 46.6555 184.851L46.4716 185.983L45.3621 186.126C45.1743 187.508 45.2265 188.912 45.5164 190.276C43.3983 187.75 43.0602 187.406 41.5295 186.197C33.8582 187.697 39.536 173.171 31.7224 172.792C30.3934 168.967 30.8799 164.604 28.2932 161.153L27.3439 161.372C27.2771 162.238 27.305 163.109 27.427 163.969L26.6082 164.497C26.5489 164.432 20.7762 156.955 22.5323 142.418C22.9544 142.981 23.2811 143.61 23.4994 144.279L23.7782 143.2C24.1461 142.607 24.152 142.684 24.158 142.791V143.105V143.408V143.698V143.977V144.238V144.481V144.7C24.4609 145.322 24.8162 145.917 25.2199 146.479C25.4818 145.857 25.5956 145.184 25.5522 144.511L26.448 144.09C32.5945 148.026 30.8859 155.698 34.4397 160.868C35.2109 154.27 29.7527 147.279 35.7093 141.012L37.0086 141.072C40.6158 137.076 38.7885 130.097 44.6027 127.305C45.2704 127.532 45.9606 127.687 46.6614 127.767L47.4802 126.836C47.0827 125.526 47.0589 125.194 47.6166 123.51C51.2357 122.016 54.0004 118.886 57.9932 118.121C57.4474 120.682 52.7426 121.251 54.1369 124.453L62.0573 120.57C61.8022 119.241 61.7962 119.212 60.0164 118.038L59.257 117.73C57.038 115.88 60.1291 113.022 58.0051 111.16C56.4982 111.267 56.0413 111.303 53.7868 112.506C54.7064 110.39 57.0262 110.016 58.5687 108.67C58.6162 108.718 63.4456 113.277 68.5063 109.091C68.9988 108.824 69.1293 108.848 69.2657 108.878L69.6751 108.961L70.0904 109.044L70.5117 109.127L70.9329 109.21L71.3601 109.293L71.7932 109.376L72.2322 109.459C73.5256 103.708 73.5256 103.708 72.1491 102.48C71.2599 102.881 70.3 103.1 69.3251 103.127C70.4112 102.525 71.4094 101.777 72.2915 100.903C71.8487 100.342 71.5257 99.6966 71.3423 99.0061L70.3159 99.0891C69.9184 98.2412 69.5743 97.512 70.9092 93.0001L70.2328 92.1641L70.3099 91.9566L70.3871 91.7372L70.4701 91.506L70.5532 91.2688L70.6422 91.0257L70.7312 90.7826L70.8202 90.5336L70.9092 90.2846L70.1141 89.4309C70.1913 88.2984 70.5057 87.2016 70.5947 86.0751C63.232 90.4803 63.232 90.4803 63.8846 87.4032C65.5162 79.6956 65.5162 79.6956 62.698 77.822L62.5794 76.8437C60.2062 76.6955 60.2062 76.6955 45.724 101.71C45.1119 101.447 44.4309 101.391 43.784 101.55C43.3449 100.696 43.3449 100.696 46.2876 92.7095C45.9608 92.1129 45.4792 91.6153 44.8934 91.2688C44.2286 88.7627 43.4002 86.3029 42.4135 83.9051C42.5143 82.162 43.9679 80.6916 43.4399 78.824C46.9165 73.1619 54.5522 73.3635 58.3967 68.2112C58.2725 67.5504 58.3384 66.8678 58.5865 66.2428C58.9685 66.7911 59.5246 67.1943 60.1647 67.3871C60.7764 66.8518 61.3605 66.2859 61.9149 65.6914C62.3853 66.192 62.7202 66.8042 62.8879 67.4701C67.5986 67.1203 70.2981 60.1835 70.304 60.1123L69.3903 59.6143C68.9869 59.7862 64.4779 62.7448 63.0421 64.5472L62.965 63.3614C65.2551 61.0254 65.2551 61.0254 65.6763 59.5847C65.0071 59.9172 64.3662 60.3039 63.76 60.7408C65.2788 58.1914 69.7582 57.2902 68.5894 53.2644C64.7567 54.6814 63.1964 59.0926 59.2392 60.3495L59.6723 59.3712L59.2095 58.4997C58.576 58.8455 57.9152 59.139 57.2338 59.3771C56.7592 59.0273 56.1481 58.5293 55.7031 58.138C55.851 57.4526 56.1095 56.7958 56.4685 56.1933C54.92 56.4245 54.6886 56.6676 53.9707 57.6755C53.9622 56.9293 54.1483 56.1937 54.5106 55.5411L53.508 55.4166C55.9167 52.5826 56.1481 48.5154 58.9247 45.8948C58.3314 46.1912 57.5957 46.6062 57.038 46.9383C57.5305 46.5114 58.1831 45.9422 58.6815 45.5213C57.4949 45.7762 57.4949 45.7762 55.8752 46.873C57.7203 44.3829 62.3539 40.867 62.4014 40.8374C59.7612 42.9244 56.2786 45.7584 53.7453 47.9521C46.5131 55.0668 45.9198 55.6597 41.5947 61.0669C35.3949 69.6105 35.027 70.1203 31.8529 75.824C26.9761 85.6541 26.7566 86.0573 24.6029 92.0514C21.3398 102.682 21.2152 103.097 20.1058 109.399C18.6285 120.664 18.5692 121.133 18.5336 127.666C18.937 138.149 19.0319 140.639 21.2212 151.928L22.74 157.857L22.829 158.165C25.7895 167.716 38.6342 185.574 38.741 185.663C39.2275 186.137 39.2572 186.191 39.2809 186.256L39.358 186.404L39.4352 186.547L39.5063 186.689L39.5775 186.825L39.6487 186.956L39.7199 187.086L39.7852 187.217C40.6929 188.112 41.7134 188.877 42.6686 189.713L42.7932 188.717C49.0939 194.053 50.2568 202.881 56.1659 208.484L56.2312 208.519L56.2905 208.555L56.3498 208.584L56.4092 208.614H56.4626H56.51H56.5516H56.5812C72.4398 222.713 87.4975 229.104 97.3402 231.974C102.276 233.278 102.276 233.278 104.928 233.836L107.978 234.429H107.865C106.53 234.019 106.53 234.02 103.51 232.591C104.104 232.205 104.104 232.205 106.477 231.932C103.813 224.741 103.813 224.741 105.652 220.857" fill="white"/>
<path d="M131.864 39.8537C131.27 41.0039 131.27 41.0039 127.657 42.7588C128.017 42.992 128.381 43.2213 128.749 43.4466C128.191 44.9822 126.702 46.0138 126.453 47.7154C128.417 47.7154 128.417 47.7154 128.874 48.2075C128.874 48.2075 129.141 49.9447 128.743 50.3004C127.788 51.1601 127.788 51.1601 127.812 52.506C128.458 52.9625 128.791 53.1937 129.752 53.8459C128.126 56.6681 128.126 56.6681 127.379 56.8519C127.379 57.3973 127.379 57.3973 125.895 58.3815L125.771 59.01C123.433 58.8914 123.433 58.8914 123.042 59.4547C123.439 61.2334 125.788 61.2808 126.186 63.0535C126.263 63.3974 125.966 65.5674 124.163 64.4646C120.413 62.176 120.413 62.1761 120.603 64.6484C124.074 65.3125 124.074 65.3124 124.448 65.6741C123.997 67.8915 120.74 70.4172 119.755 71.1169C119.151 71.595 118.395 71.8393 117.625 71.8046C116.622 71.7513 115.875 70.9568 114.89 70.8619C111.923 70.5833 112.73 74.5675 110.737 75.6051C109.598 76.1979 109.598 76.198 103.795 76.5715H103.599H103.564C103.336 76.5877 103.117 76.6636 102.929 76.7917C102.74 76.9198 102.589 77.0954 102.49 77.3007C101.713 78.5162 101.826 80.117 100.799 81.2316C98.9422 83.2474 98.9422 83.2474 97.8327 85.5657C95.2044 90.9373 93.7509 90.1013 93.6797 90.0598C93.6085 90.0183 89.6275 85.4886 89.5267 84.3858C89.5267 84.2731 88.7376 73.0497 91.8227 69.1188C92.3416 68.5276 93.0323 68.1131 93.7983 67.933C95.3409 67.4646 95.3409 67.4646 96.6343 64.435C94.5755 63.9607 94.5755 63.9607 94.8544 62.6089H96.4919L96.5987 62.3717L96.7055 62.1345L96.8182 61.8915L96.9368 61.6365L97.0614 61.3697L97.192 61.0851L97.3343 60.7828L97.4886 60.4567L95.2341 61.5772C98.9422 51.1067 98.9422 51.1068 98.8828 50.3123C98.8828 50.0336 98.8828 50.0336 94.3382 49.0672H94.2789H94.2196H94.1602H94.1009H94.0416H93.9823H93.9229H93.8636C93.6382 48.7648 93.561 48.664 93.7034 47.0751C94.7417 46.2865 96.747 47.1759 97.1623 45.415C96.48 44.8221 95.6435 45.6403 94.9493 45.1838C94.9493 44.7035 94.9493 44.7035 99.2269 42.7292C100.354 42.2074 101.6 42.0889 102.745 41.5849C102.929 41.5019 103.048 41.2232 103.131 41.0454L109.627 37.3754L111.609 36.9722C111.722 37.2034 111.722 37.2034 111.811 38.1995C112.128 37.9134 112.42 37.5999 112.683 37.2627C112.837 37.1145 112.867 37.1145 112.896 37.1204H112.979H113.068H113.157H113.246H113.341H113.442H113.549L113.407 37.322L113.258 37.5236L113.11 37.7311L112.956 37.9446L112.801 38.1639L112.647 38.3892L112.487 38.6145L112.327 38.8457H112.439H112.546H112.653H112.76H112.867H112.973H113.08H113.193L113.335 38.6264L113.478 38.407L113.62 38.1876L113.763 37.9683L113.911 37.7489L114.059 37.5295L114.207 37.3102L114.362 37.0848H114.563H114.759H114.955H115.145H115.329H115.507H115.679H115.851C115.764 37.4801 115.683 37.8596 115.608 38.2232C116.302 37.5651 116.201 36.3971 117.109 35.8516C117.263 35.7627 117.263 35.7627 118.503 36.5394C121.73 34.0196 121.73 34.0196 123.202 33.8892L123.522 33.9425C123.665 34.3338 123.771 34.737 123.896 35.1283C123.409 35.7212 122.603 35.7212 122.009 36.1244L122.33 36.6698C123.255 36.4564 123.896 35.6441 124.839 35.4544C125.114 35.4082 125.396 35.4191 125.666 35.4864C125.937 35.5537 126.19 35.6761 126.411 35.8457C126.483 35.9346 126.483 35.9702 126.483 35.9999V36.735C121.808 38.2054 121.808 38.2054 121.368 38.6442C122.49 38.4189 123.564 38.0038 124.691 37.7904V38.0098V38.2113V38.407V38.5908V38.7687V38.9465V39.1244V39.3023C125.658 39.7232 125.877 38.2528 126.726 38.3655C126.821 38.7272 126.821 38.7272 125.836 40.9327C125.941 40.9771 126.054 40.9999 126.168 40.9999C126.282 40.9999 126.395 40.9771 126.5 40.9327C127.325 40.494 127.61 39.5572 128.28 38.988C128.951 38.4189 129.894 38.988 130.523 38.3951C130.846 38.4198 131.159 38.5256 131.43 38.7028C131.702 38.8801 131.925 39.123 132.077 39.409L132.03 39.5039" fill="white"/>
<path d="M82.2647 71.1165C81.3688 72.4327 79.8915 73.2509 79.1024 74.6738L78.9304 74.6383L78.7583 74.6027L78.5863 74.5671L78.4142 74.5316L78.2362 74.496L78.0583 74.4545L77.8743 74.413L77.6845 74.3715C77.7853 71.9525 77.7379 71.1699 77.1921 69.8833C74.0832 71.9643 75.1749 73.0612 75.7919 73.4406C77.993 74.7865 73.0628 79.9625 73.0094 80.004C72.2322 76.9743 72.2322 76.9743 72.2144 76.9565C71.9789 76.9574 71.7471 77.0143 71.538 77.1225C71.4431 77.3656 71.3185 77.668 71.538 78.836C71.7575 80.004 71.4905 80.6146 70.215 81.4743C68.9691 79.7371 68.1978 78.0533 67.9189 74.5968C67.8537 73.8142 67.7113 73.7667 67.0527 73.909C64.8635 74.3833 64.3414 74.5019 64.0863 73.6304C63.8312 72.7588 65.5873 70.073 66.6315 70.1916C67.5511 70.2805 68.4944 70.1916 69.3962 70.4584C75.9224 66.901 75.1215 64.0433 74.6053 63.8713C74.0891 63.6994 73.6798 63.6105 73.217 63.4682C74.1544 62.0037 75.9046 59.2824 74.2612 59.5255C73.5967 59.6262 73.0746 60.3021 72.3449 60.0768C71.4015 59.7982 72.778 58.1677 71.7991 58.0669C70.8201 57.9661 69.9302 58.6598 68.9928 58.0669C68.9388 58.0245 68.8891 57.9768 68.8445 57.9246C69.0521 57.5333 69.0521 57.5333 70.9803 55.8851C69.7285 54.9365 72.5941 52.2151 77.376 49.8198C77.5599 49.7724 77.6014 49.7902 77.6489 49.8198L77.7853 49.8791L77.9218 49.9384L78.0642 49.9977L78.2125 50.057L78.3668 50.1222L78.5329 50.1874L78.7109 50.2585C75.2223 52.4819 75.2223 52.4819 74.7655 53.5313C76.8123 53.2823 77.7853 51.4384 79.3398 50.4601L79.5533 50.5431L79.7729 50.6261L79.9924 50.7091L80.2178 50.7921L80.4433 50.8752L80.6747 50.9582L80.912 51.0412L81.1552 51.1242C80.1348 52.7131 78.3015 53.4483 77.1624 54.9127C78.2956 54.6815 78.9067 53.5254 80.0458 53.306C80.117 53.306 82.0333 53.4187 82.4605 53.8989C82.3774 55.1618 80.9713 55.8851 81.0781 57.231C81.2086 58.9029 83.4513 59.6025 83.0597 61.5176C82.8315 62.1922 82.4696 62.8139 81.9956 63.3457C81.5216 63.8774 80.9452 64.3082 80.3009 64.6125C79.8559 66.3911 79.583 67.488 80.3899 67.8615C81.4875 68.3714 83.5225 69.3141 82.2647 71.1699" fill="white"/>
<path d="M109.087 36.8769C108.067 37.8374 105.895 37.4698 105.67 37.3275C101.974 41.7327 99.1912 41.7742 99.1852 41.1517C99.1852 40.2564 98.1529 40.8552 97.4765 41.2584C93.6142 43.5292 92.7302 43.8909 91.2589 43.8316C90.7368 44.3296 90.5825 45.0885 90.0248 45.5569C89.1315 46.2175 88.1757 46.7894 87.1711 47.2644C86.4948 47.5549 86.1329 46.8375 85.5752 46.7545C85.1386 46.727 84.7002 46.7529 84.2699 46.8316C84.0089 46.2387 83.0833 45.8948 83.4393 45.0529C83.62 44.556 83.9303 44.1164 84.3382 43.7797C84.7461 43.4429 85.2367 43.2214 85.7591 43.1379C85.593 43.4106 85.4308 43.6853 85.2726 43.962C87.3016 43.0904 89.4256 42.4383 91.3479 41.3296C92.4633 40.6892 93.1693 39.5509 94.2016 38.8394C94.0948 39.8948 94.166 39.9007 94.8305 39.9363C95.139 38.4007 96.9189 39.207 97.9334 38.7505C98.5876 38.4743 99.2005 38.1092 99.7548 37.6655C98.3427 37.873 97.0256 38.5548 95.5543 38.4659C95.0559 38.4362 95.667 37.7722 95.7085 37.4224L95.584 37.2979C95.8509 36.5271 96.9663 35.1279 101.434 34.4402L101.523 34.5765C101.257 34.9711 100.949 35.335 100.603 35.6615C101.867 35.4836 102.792 34.3927 104.115 34.3809L104.204 34.5172L104.11 34.8255C104.703 35.033 105.077 34.4639 105.593 34.3986L105.652 34.5528C105.381 34.8528 105.129 35.1696 104.899 35.5014C105.124 35.5785 105.124 35.5785 107.462 34.4224C108.464 35.1161 108.464 35.116 110.102 35.4006C109.875 35.9662 109.532 36.4774 109.093 36.9007" fill="white"/>
<path d="M63.0065 53.1879L62.2589 52.8855C61.5173 53.5792 61.0723 54.5279 60.3367 55.2215C60.1836 55.383 59.9997 55.5123 59.796 55.6019C59.5922 55.6915 59.3727 55.7396 59.1501 55.7433C58.1059 55.7433 56.2667 52.7788 56.2489 52.7788C57.0854 51.6642 57.5541 50.3124 58.5568 49.3163C58.5568 49.3163 59.3518 48.6404 59.4586 49.3163C59.4586 49.4646 59.5179 49.6661 59.9154 49.5298C60.6392 49.2748 60.6392 49.1444 60.6452 48.9013C60.6511 48.6582 60.3129 48.4804 60.3248 48.1898C60.3786 47.9201 60.5083 47.6712 60.6986 47.4724C61.0367 47.0456 62.3301 46.1977 62.425 46.6661C62.5022 47.0396 62.5022 47.0396 63.6116 46.3341C64.3295 45.8716 64.4363 45.8005 66.5247 45.3617L67.2782 45.2017C66.6374 45.7115 66.0006 46.2274 65.3678 46.7491C65.9255 46.7491 66.2992 46.2689 66.8332 46.2274C66.8035 46.3282 66.8035 46.3341 66.3823 46.8203C65.8711 47.383 65.3955 47.977 64.9584 48.5989C66.1924 47.8697 67.1595 46.7076 68.6071 46.3104C67.7943 47.8934 67.7943 47.8934 67.1061 48.2432C65.9195 48.8361 63.6057 51.2077 63.8727 51.6998C63.8727 51.7413 63.8727 51.7413 63.1548 53.2887L63.0005 53.2294" fill="white"/>
<path d="M189.935 215.967L189.721 216.121L188.499 216.975L188.078 217.265L184.578 219.56C181.641 221.291 177.683 223.52 174.658 225.091C177.993 223.475 181.212 221.631 184.293 219.571L184.957 219.145C186.197 218.338 187.467 217.579 188.683 216.737C190.321 215.605 191.798 214.259 193.471 213.18L193.59 213.103C193.441 213.299 191.543 214.811 189.941 215.967" fill="white"/>
<path d="M158.633 108.025L158.68 108.368L158.728 108.718L158.775 109.074L158.829 109.442L158.882 109.821L158.936 110.212L158.989 110.621L158.111 111.001C158.075 111.54 158.704 112.276 158.016 112.625C157.328 112.975 156.438 113.023 155.72 113.42C155.267 113.66 154.899 114.032 154.664 114.487H154.355C153.169 113.782 152.498 114.036 151.436 114.872C150.374 115.708 150.315 115.756 147.687 116.402C149.508 112.465 149.508 112.465 151.442 111.582L148.962 111.469C148.802 110.361 149.941 109.139 148.725 108.131C149.579 107.189 150.914 106.785 151.573 105.617C151.015 104.787 149.983 103.246 147.716 103.898C147.307 102.481 147.289 102.451 145.486 101.183C147.093 98.811 146.815 98.1114 143.985 97.5363C143.866 96.1608 143.866 96.1608 144.578 95.0343C144.823 95.8485 145.072 96.6647 145.325 97.4829C145.715 97.0379 146.082 96.5728 146.423 96.0896C146.666 95.6983 146.643 95.1884 146.957 94.8268C147.098 94.6669 147.272 94.5388 147.466 94.4509C147.66 94.363 147.871 94.3173 148.084 94.3169C148.307 94.3006 148.531 94.3006 148.755 94.3169C148.881 94.9019 149.004 95.4948 149.122 96.0956H149.461H149.799H150.137H150.475H150.807H151.134H151.454H151.763C152.154 96.8307 152.285 97.0798 152.089 97.6311C151.828 98.3604 150.997 98.562 150.641 99.2023C152.421 99.9553 152.421 99.9553 152.848 100.489C153.483 101.23 153.442 102.268 153.934 103.062C154.426 103.857 155.198 104.384 155.631 105.202C155.987 105.866 155.821 106.72 156.39 107.307C156.752 107.681 157.173 107.722 158.58 107.853L158.627 108.191" fill="white"/>
<path d="M177.559 40.2034C178.336 40.7963 178.324 40.9445 178.312 41.0394C178.271 41.5374 178.372 42.0117 179.06 43.2035C179.06 43.2509 182.685 48.8004 182.863 48.9486C183.949 49.8557 184.839 50.9881 186.079 51.7115C186.719 52.0909 187.455 52.2688 188.084 52.672C188.585 53.0086 189.041 53.407 189.443 53.8577C189.294 54.0297 189.294 54.0297 188.042 54.8004L187.574 54.5099C186.98 54.1542 186.571 53.6146 186.001 53.253C185.432 52.8913 184.898 52.838 184.4 52.5178C184.299 52.4526 184.168 52.3636 184.079 52.2925C183.138 51.4511 182.252 50.5501 181.427 49.5948C181.516 49.3221 181.516 49.3221 179.742 47.6917C179.843 47.5671 179.944 47.4426 180.039 47.3181L179.778 47.1047L179.511 46.8913L179.244 46.6719L178.971 46.4525L178.692 46.2331L178.413 46.0138L178.128 45.7885L177.838 45.5632C177.819 45.4691 177.805 45.3741 177.796 45.2786C178.229 45.0651 178.045 44.8517 177.428 44.1402C177.078 43.7371 177.078 43.7371 177.351 43.3576C177.227 42.824 176.574 42.6402 176.491 42.071C176.426 41.6264 176.883 41.5256 177.049 41.2351C176.574 40.7607 176.26 40.4584 175.69 39.9248C175.749 39.9248 175.749 39.9248 175.987 39.6283C176.432 39.4327 177.547 40.1679 177.559 40.1738" fill="white"/>
<path d="M66.4891 44.6857C65.9529 45.0205 65.3596 45.2536 64.7389 45.3734C64.199 45.5098 63.6472 45.3734 63.1073 45.4801C62.2767 45.6817 61.5885 46.2509 60.7342 46.411C60.3723 46.4821 60.4494 46.2153 60.4553 46.1857C61.1253 45.1684 61.9904 44.2938 63.0005 43.6125C63.5108 43.2805 69.4199 40.239 69.77 40.0552L68.9749 40.8259L70.292 40.3279C69.9005 40.8556 69.3072 41.1817 68.9097 41.7034C68.8504 41.7599 68.8034 41.828 68.7718 41.9035C68.7401 41.9791 68.7244 42.0603 68.7258 42.1421C68.7258 42.3259 68.6012 42.5157 68.2333 42.99C68.0494 43.2271 67.8655 43.4643 67.64 43.6896C67.2939 44.0729 66.8942 44.4044 66.4535 44.6738" fill="white"/>
<path d="M156.906 44.8341C157.268 45.4804 157.565 46.0199 157.672 46.257C156.515 46.0377 156.052 46.1563 155.773 46.7254C154.065 44.8282 154.065 44.8282 153.317 44.5851C153.388 45.178 153.424 45.6286 153.454 46.2748L153.655 46.5476L153.857 46.8203L154.065 47.099L154.272 47.3776L154.474 47.6563L154.676 47.9349L154.877 48.2136L155.073 48.4923C154.51 49.6247 150.79 46.0673 150.754 46.0199C150.422 45.5397 150.523 44.9171 150.214 44.4309C150.03 44.1404 149.692 44.1049 149.425 43.9388C149.455 44.7274 149.52 46.3638 147.942 44.8875C144.803 41.9527 146.5 41.6859 146.524 41.6859C146.672 41.6859 146.672 41.6859 147.71 42.8716C147.71 42.51 147.71 42.2787 147.71 41.8874L149.639 42.9072C149.211 42.4329 148.606 42.1187 148.369 41.4783C148.39 41.3393 148.445 41.2078 148.53 41.0959C148.615 40.984 148.727 40.8953 148.856 40.838C148.982 40.8308 149.107 40.8595 149.217 40.921C150.641 41.6325 151.668 42.9546 153.204 43.4823C153.798 43.672 154.391 43.6661 154.943 43.8736C156.723 44.5377 156.758 44.591 156.906 44.8638" fill="white"/>
<path d="M133.638 79.7257C132.267 81.1961 131.757 81.706 131.757 81.706C131.375 81.7227 130.992 81.7108 130.612 81.6704C130.447 81.6471 130.28 81.6568 130.119 81.6989C129.958 81.741 129.807 81.8147 129.675 81.9157C129.543 82.0167 129.433 82.143 129.35 82.2872C129.267 82.4313 129.214 82.5905 129.194 82.7554C129.105 83.2297 129.105 83.2297 128.951 83.2712C128.072 83.4965 127.918 83.372 127.26 82.8562C125.385 81.3858 125.29 81.4214 122.768 82.2633C123.124 81.0775 123.124 81.0775 123.213 80.9886C123.466 80.7843 123.667 80.5243 123.802 80.2291C123.937 79.9338 124.002 79.6113 123.991 79.2869C123.991 78.694 123.397 78.4866 122.721 78.8364C121.956 79.2336 121.956 79.2336 121.742 79.2751L120.876 78.2672C122.11 75.6169 122.11 75.6169 122.282 75.4035C122.454 75.1901 122.436 75.2138 123.736 74.6802C124.099 75.277 124.467 75.8699 124.839 76.4589C125.029 76.4055 125.248 76.4588 125.432 76.2869C125.735 76.026 125.8 75.5814 126.138 75.3442C126.351 75.2349 126.591 75.1923 126.828 75.2219C127.066 75.2516 127.288 75.352 127.467 75.5102C127.907 75.8037 128.428 75.9529 128.956 75.9371C129.165 75.9274 129.368 75.8685 129.55 75.7652C130.245 75.376 131.039 75.1988 131.834 75.2553C132.369 75.2769 132.906 75.2471 133.436 75.1664C133.614 75.7 133.614 75.7 133.851 79.4826L133.638 79.7138" fill="white"/>
<path d="M83.3385 50.0103L82.3596 51.0242C82.2502 50.6935 82.1591 50.357 82.0867 50.0163C82.0392 49.6783 82.2587 49.3344 82.0867 48.9965C81.9621 48.7712 81.4934 48.8601 81.2027 48.9135C79.2804 49.2633 78.2362 49.1684 78.6575 47.6388C79.3101 45.1783 82.3359 41.8996 84.5548 42.8126C84.7802 42.9727 84.7327 43.1091 83.7301 43.9984C81.2086 46.281 82.2291 46.6546 83.2139 47.0162C85.0768 47.704 85.0769 47.704 85.0946 47.8641C85.1009 47.9172 85.1009 47.971 85.0946 48.0241C85.0531 48.2613 84.5014 48.8364 83.3741 49.9807" fill="white"/>
<path d="M92.5228 39.1002C91.2449 40.0789 89.8643 40.9158 88.4054 41.5963L88.2571 41.537L88.1087 41.4777L87.9545 41.4125L87.8002 41.3472L87.646 41.282L87.4917 41.2168L87.3434 41.1516L87.1951 41.0864C87.907 40.114 88.1206 39.8235 89.7581 38.9223C89.5682 38.7385 89.2478 38.4302 90.5234 37.6772C92.2744 36.7932 94.0706 36.0016 95.9046 35.3057H95.9639L95.9995 35.3412C95.9995 35.4065 94.2196 37.9144 94.184 37.9322C93.6747 38.3732 93.1198 38.7588 92.5287 39.0824" fill="white"/>
<path d="M73.3772 44.4905L72.7839 44.8581C73.1696 43.7494 72.4636 43.3996 70.6837 43.8087C69.7404 44.028 69.1886 43.7316 70.215 42.5755C70.3455 42.4272 72.7068 40.8976 73.3416 40.7968L73.3713 40.8264C73.2467 41.0577 72.8611 41.111 72.9382 41.4667C73.045 41.5023 73.1221 41.526 73.7332 41.2533C74.6765 40.8383 75.1749 40.6604 75.1393 41.0399L75.3944 40.8798L75.6199 40.7375L75.8216 40.613L76.0055 40.4944L76.1835 40.3877L76.3496 40.281L76.5157 40.1802L76.6878 40.0734L77.9515 39.9312C75.869 41.5913 75.869 41.5913 75.8928 41.7098C75.9462 41.9707 75.4359 43.1565 73.3713 44.4786" fill="white"/>
<path d="M73.8934 119.609C73.3357 121.352 71.7991 121.477 71.3482 120.493C71.1526 119.988 70.9843 119.474 70.8439 118.951C70.6125 119.372 70.4048 119.811 70.1735 120.232C70.1379 120.303 70.0963 120.416 70.0251 120.445C69.8027 120.439 69.5857 120.375 69.3954 120.259C69.2052 120.144 69.048 119.981 68.9394 119.787C68.8326 119.514 68.8326 119.514 68.6902 117.659C67.1002 117.7 66.2518 117.712 64.7508 117.724C64.4957 115.512 66.1035 113.443 66.1688 113.36C66.6968 112.69 67.6164 112.655 68.2097 112.091C68.803 111.528 69.1115 110.751 69.776 110.265C69.9226 110.143 70.0943 110.055 70.2788 110.007C70.4634 109.959 70.6563 109.952 70.8439 109.987C71.0947 110.04 71.3339 110.139 71.5499 110.277L71.4728 110.615L71.3956 110.965L71.3185 111.327L71.2355 111.7L71.1524 112.085L71.0693 112.483L70.9863 112.886L70.8973 113.301L71.2592 113.366L71.6033 113.431L71.9355 113.491L72.2559 113.55L72.5644 113.603L72.867 113.657L73.1577 113.71L73.4484 113.763C73.9646 116.639 73.9646 116.639 73.0331 117.546C73.0232 117.888 73.1394 118.221 73.3594 118.483C73.7985 118.726 74.1188 118.904 73.8934 119.609Z" fill="white"/>
<path d="M146.981 105.338C146.981 106.109 146.5 106.779 146.494 107.556C146.578 108.74 146.733 109.918 146.957 111.083C144.038 111.249 144.038 111.249 143.807 111.315C143.72 111.336 143.635 111.364 143.552 111.398C143.018 111.635 142.685 112.15 142.157 112.388C141.544 112.602 140.916 112.769 140.277 112.886C139.553 110.982 139.719 110.052 140.947 109.186C141.012 108.522 140.846 108.356 140.146 108.077C139.843 107.953 139.209 107.698 139.553 106.85C140.045 105.724 140.045 105.724 142.519 105.457C142.519 104.864 142.555 104.318 142.567 103.749L145.462 102.984C146.055 103.429 146.963 104.105 146.921 105.356" fill="white"/>
<path d="M68.9691 51.3499C68.7021 51.5455 68.7021 51.5455 66.3942 52.6839C66.3005 52.5381 66.244 52.3717 66.2295 52.1991C66.2151 52.0265 66.2431 51.853 66.3111 51.6937C66.4891 51.1661 66.9578 50.8281 67.2011 50.3479C67.3257 50.1048 67.296 49.8143 67.4265 49.5712L67.4858 49.4704C68.104 48.7941 68.8035 48.1967 69.5683 47.6917C69.3013 48.2431 69.1292 48.6166 68.8445 49.2985C70.3277 48.1127 70.3277 48.1127 70.5235 47.9645C70.7193 47.8162 70.8973 47.3716 71.2117 47.1937C72.0542 46.7075 73.039 46.5356 73.3475 46.7075C73.4009 46.7905 73.5552 47.0158 72.9263 47.6799C72.2974 48.3439 71.3659 48.6759 70.6837 49.3103C70.1734 49.7846 69.948 50.4961 69.4378 50.9467C69.289 51.0877 69.1325 51.2203 68.9691 51.3439" fill="white"/>
<path d="M41.5888 171.156C41.7372 172.49 41.7372 172.49 37.8037 170.705C37.8333 170.201 37.8689 169.703 37.9164 169.199C37.9164 169.134 37.9638 169.045 37.9164 168.992C37.1127 167.748 36.2267 166.56 35.2644 165.434C33.7278 163.656 32.2979 162.837 31.1114 162.98C30.8562 160.94 31.23 160.81 32.114 161.284C33.9785 162.535 35.6326 164.074 37.0146 165.843C37.9757 167.154 39.3877 167.966 40.5209 169.122C41.0641 169.68 41.4366 170.382 41.5948 171.144" fill="white"/>
<path d="M153.679 39.9905C153.936 40.247 154.125 40.5636 154.228 40.9114C154.332 41.2593 154.347 41.6274 154.272 41.9826C154.244 42.0347 154.204 42.0795 154.156 42.1134C154.108 42.1474 154.052 42.1696 153.993 42.1783L152.273 42.5043C151.935 42.4451 151.721 42.1783 151.442 42.0182L150.908 41.698L150.742 41.5142L150.57 41.3186L150.386 41.117L150.19 40.9035L149.983 40.6723L149.787 40.4055L149.55 40.1446L149.295 39.866C149.951 39.7914 150.614 39.7914 151.27 39.866C151.55 39.9536 151.845 39.9819 152.136 39.949C152.54 39.866 152.439 39.5162 152.392 39.3561C152.392 39.3087 152.392 39.2612 152.463 39.2375C152.534 39.2138 152.676 39.2375 152.777 39.1782C153.099 39.4269 153.402 39.6984 153.685 39.9905" fill="white"/>
<path d="M78.5923 37.6361L78.177 37.8674L77.7676 38.0986L77.3583 38.3298L76.943 38.567L76.5217 38.8101L76.0886 39.0591L75.6436 39.32C75.5013 39.1895 75.3589 39.0591 75.2224 38.9227C74.0358 39.403 73.3358 39.6994 72.2975 40.1085C71.4313 39.5986 74.3443 37.8377 75.4004 37.6539C75.4955 37.6274 75.596 37.6274 75.6911 37.6539C75.7979 37.7073 75.9759 37.7903 76.8777 37.6539C77.5184 37.5531 78.1117 37.2804 78.7643 37.2271C78.8771 37.2271 78.9186 37.3219 78.9957 37.3693L78.5686 37.6006" fill="white"/>
<path d="M78.0525 44.1401C75.4776 46.0195 75.0445 45.7171 74.2614 45.1658C74.8696 44.2842 75.5918 43.4868 76.4091 42.7942C77.3287 42.0412 78.4678 41.2171 78.6873 41.5373C78.6458 41.6736 78.6458 41.6736 77.8686 42.5926C79.3755 42.2072 79.6484 42.1361 79.8857 42.2547C79.9866 42.3851 80.1527 42.5985 78.0525 44.1341" fill="white"/>
<path d="M75.9045 49.3997C75.2264 50.0436 74.4168 50.533 73.5314 50.8345L73.3237 50.9175C72.7305 51.1487 72.06 51.1606 71.443 51.3562C70.826 51.5519 70.381 52.0974 69.7521 52.2811C69.6038 52.3227 69.3546 52.3523 69.3665 52.0558C69.4185 51.7632 69.5498 51.4905 69.7462 51.2673C69.8069 51.2298 69.8729 51.2018 69.942 51.1843C70.3943 50.942 70.8099 50.6366 71.176 50.2772C71.6135 49.8346 72.0945 49.4374 72.6118 49.0914C73.6441 48.457 75.0324 47.7692 75.8215 48.0835C76.1656 48.2851 76.1537 48.4155 76.0825 49.2693L75.9283 49.3938" fill="white"/>
<path d="M49.26 176.604C49.3015 176.799 49.3371 177.001 49.3846 177.197C47.7293 176.675 45.9079 176.052 45.7418 176.011C45.52 175.9 45.2899 175.807 45.0536 175.732C44.6502 175.631 44.3416 176.123 43.9204 175.916C42.8999 175.412 42.2058 174.493 41.3099 173.835C41.7312 173.064 41.7312 173.064 41.7727 173.035C41.8142 173.005 42.0575 173.035 42.6152 173.627C43.0127 174.066 43.2085 174.013 43.3686 173.752C43.5288 173.491 43.606 173.349 43.25 172.857C42.7457 172.157 42.4372 171.143 44.4781 171.784C44.9231 171.955 45.0061 171.985 46.1749 173.159C49.1414 176.177 49.2185 176.444 49.2541 176.598" fill="white"/>
<path d="M83.1012 40.4051C81.5349 41.3181 81.4875 40.5058 81.4934 40.494C81.6773 39.9367 82.4486 39.9722 82.6147 39.3971C82.6775 39.1916 82.761 38.9929 82.8639 38.8042L82.9351 38.7212C83.0916 38.557 83.258 38.4026 83.4335 38.2588C84.5014 37.4169 85.5396 37.0315 85.8066 37.1204C85.86 37.1797 85.9015 37.2568 85.9787 37.2983C86.8211 38.0394 83.1131 40.3991 83.0775 40.4228" fill="white"/>
<path d="M165.645 29.4248C167.983 30.2252 168.647 30.7529 168.796 31.0493V31.079C168.576 31.2568 166.245 30.3794 166.221 30.3734C166.197 30.3675 163.088 28.8497 163.065 28.8141C163.041 28.7785 163.658 28.737 165.645 29.407" fill="white"/>
<path d="M60.1468 72.5453C59.2866 71.8635 58.5865 72.2726 57.5245 73.3161C56.5515 74.2707 56.2015 73.7074 56.1896 73.2805C56.1303 71.5019 58.45 68.5907 60.0104 68.484C60.1409 68.4822 60.2709 68.5002 60.396 68.5374C60.696 68.7168 60.9526 68.9603 61.1474 69.2503C61.3423 69.5404 61.4706 69.8699 61.5233 70.2153C61.4356 70.6796 61.2315 71.1141 60.93 71.4781C60.6688 71.8315 60.4348 72.2041 60.2299 72.5928L60.1706 72.5453" fill="white"/>
<path d="M170.552 30.6874C171.952 31.3574 171.952 31.3574 172.023 31.5412C171.976 31.6124 171.851 31.6242 171.199 31.5116C170.825 31.4887 170.454 31.4331 170.089 31.3456C170.042 31.3456 167.123 29.804 167.123 29.7922C167.437 29.6677 170.202 30.557 170.528 30.7171" fill="white"/>
<path d="M171.383 30.3796C172.332 30.8183 173.4 31.3104 173.37 31.6246C173.037 31.6126 172.708 31.5445 172.397 31.4231C170.973 30.8302 169.609 30.1246 168.191 29.5317C168.61 29.7097 169.054 29.8217 169.508 29.8638C169.508 29.8282 169.508 29.8282 169.389 29.7037C170.07 29.8903 170.737 30.12 171.389 30.3914" fill="white"/>
<path d="M85.8245 40.5828C85.005 41.1731 84.0463 41.5408 83.042 41.65C83.7796 40.7704 84.665 40.0261 85.6584 39.4503C86.7738 38.7922 87.0052 38.6559 87.6163 38.9582L87.812 39.0709C87.1476 39.5689 86.5246 40.1262 85.8245 40.5828Z" fill="white"/>
<path d="M62.7395 56.7326C62.472 57.0071 62.1563 57.2301 61.8081 57.3907L61.6835 57.4322C61.4521 57.4796 61.2207 57.4322 60.9893 57.4322C60.758 57.4322 60.6096 57.6279 60.3961 57.6575C60.3545 57.6575 60.2596 57.6575 60.2537 57.5626C60.2537 57.1832 60.93 56.3768 60.4139 56.4599C62.8997 54.5804 63.2794 54.2899 63.6057 54.4381C63.6532 54.4796 63.7481 54.5685 63.6057 54.9124C63.0125 56.4361 63.0125 56.4361 62.7336 56.6911" fill="white"/>
<path d="M80.8942 38.2703C80.3723 38.6213 79.8132 38.9136 79.2271 39.1419C79.0194 39.1952 77.7023 39.3553 77.6904 39.3553C77.4746 39.3608 77.259 39.3369 77.0497 39.2842C80.0161 37.7427 80.6094 37.4166 81.0366 37.8316C81.1078 37.9087 81.1493 38.0095 81.2264 38.0806L80.9001 38.2703" fill="white"/>
<path d="M83.3385 37.0669C82.4901 37.3812 82.4901 37.3811 82.4129 37.3811C81.9153 37.3344 81.4241 37.235 80.9475 37.0847C81.2738 36.9187 81.7129 36.6875 82.229 36.4918C82.9172 36.2132 83.6351 36.0116 84.3293 35.7329C84.2937 35.8278 84.3293 35.8752 84.4361 35.9701C84.5428 36.0649 84.5606 36.1242 84.4361 36.2962C84.1153 36.615 83.7445 36.8794 83.3385 37.0788" fill="white"/>
<path d="M78.1533 46.1331C77.7338 46.5246 77.2475 46.8378 76.7175 47.058C76.409 47.1529 75.9284 47.058 75.9581 46.809C76.084 46.4997 76.2737 46.2205 76.515 45.9896C76.7563 45.7587 77.0436 45.5813 77.3583 45.469C77.6925 45.2996 78.0448 45.1684 78.4084 45.0777C78.7169 45.0362 79.0017 45.2082 79.2805 45.226L78.1592 46.1271" fill="white"/>
<path d="M89.9062 37.4409C89.313 37.7611 88.1264 38.3125 88.2272 37.9864C88.3281 37.6603 88.6129 37.601 88.5951 37.2927C89.2892 36.9607 89.9596 36.5872 90.6835 36.3145C90.799 36.3174 90.9133 36.3395 91.0216 36.3797C91.3776 36.6109 89.924 37.435 89.9122 37.4409" fill="white"/>
<path d="M94.6999 65.9531C94.4147 66.3527 93.9923 66.6334 93.5133 66.7417C93.2043 66.7711 92.8925 66.743 92.5937 66.6587C92.1673 66.5302 91.7187 66.4919 91.2766 66.546L93.0565 64.4116C93.3985 64.5256 93.7581 64.5778 94.1185 64.5658C94.2562 64.5753 94.3889 64.6215 94.5026 64.6997C94.6164 64.778 94.7071 64.8853 94.7651 65.0104C94.8516 65.1546 94.8933 65.3212 94.8848 65.489C94.8764 65.6569 94.8182 65.8184 94.7177 65.9531" fill="white"/>
<path d="M175.963 137.165C176 137.613 175.903 138.062 175.685 138.454C175.466 138.847 175.135 139.166 174.735 139.37C173.548 138.629 173.548 138.629 173.507 138.546C173.249 138.13 173.115 137.648 173.121 137.159C173.147 136.713 173.298 136.283 173.557 135.919C173.816 135.555 174.173 135.272 174.586 135.101H174.705C175.095 135.065 175.485 135.166 175.809 135.386C175.809 135.979 175.939 136.572 175.963 137.165Z" fill="white"/>
<path d="M139.375 64.3756C139.375 64.8025 139.043 65.3302 138.342 66.3085C137.951 65.9943 137.571 65.6741 137.156 65.3539C137.34 64.8144 137.387 64.2334 137.607 63.7057C137.706 63.4027 137.897 63.1378 138.153 62.9468C138.959 63.6523 139.339 63.9725 139.339 64.3816" fill="white"/>
<path d="M71.0692 66.4923C70.6717 67.0081 69.8826 67.3401 68.6664 67.7907C69.7402 65.9587 70.1377 65.2709 71.4786 64.6543C71.5382 65.2921 71.3971 65.9325 71.0751 66.4863" fill="white"/>
<path d="M40.3606 173.847C40.1826 174.44 39.7376 174.274 39.0732 173.847C38.6341 173.574 38.6341 173.574 37.5425 172.069C37.9628 171.967 38.4043 171.998 38.8062 172.157C39.431 172.523 39.9758 173.011 40.4081 173.592C40.4081 173.657 40.4081 173.746 40.3606 173.812" fill="white"/>
<path d="M192.065 54.4979C191.981 54.513 191.902 54.5456 191.833 54.5937C191.763 54.6417 191.705 54.7041 191.661 54.7766C191.549 54.9248 191.388 55.1205 190.878 54.913C190.368 54.7054 190.285 54.5987 190.22 54.4979C189.959 54.1481 189.739 53.8043 189.905 53.6145L189.964 53.5612C190.036 53.5137 190.404 53.3299 190.409 53.3299C190.448 53.3184 190.489 53.3184 190.528 53.3299C191.091 53.6653 191.623 54.0502 192.118 54.4802H192.077" fill="white"/>
<path d="M185.687 139.815V139.964V140.112V140.266V140.42V140.58V140.74V140.906V141.078V141.256V141.44V141.63V141.825V142.027V142.234V142.454C185.164 142.218 184.619 142.034 184.061 141.902C183.901 141.884 183.74 141.884 183.581 141.902C183.284 141.902 182.987 141.997 182.691 142.033V140.177H182.792H182.892H182.993H183.094H183.195H183.29H183.385H183.48H183.575H183.67H183.765H183.859H183.954H184.049H184.144H184.239H184.328H184.417H184.506H184.595H184.684H184.773H184.862H184.951H185.04H185.129H185.218H185.301H185.384H185.467H185.55H185.633V140.319" fill="white"/>
<path d="M188.909 58.3039C189.204 58.5888 189.44 58.9294 189.603 59.3059C189.686 59.6853 189.241 59.7743 189.241 59.7743C189.081 59.7743 189.081 59.7743 187.461 57.9956H187.52H187.58H187.633H187.686H187.74H187.793H187.847H187.894H187.942H187.989H188.036H188.084H188.131H188.179H188.226H188.274C188.499 58.2268 188.731 58.464 188.944 58.7011" fill="white"/>
<path d="M69.936 47.0107C69.4614 47.0107 69.1766 46.9751 69.1232 46.7971C69.0698 46.6191 69.5919 45.9487 69.5978 45.9427C69.6038 45.9368 70.4522 45.385 70.7844 45.5749C70.8196 45.622 70.8386 45.6792 70.8386 45.738C70.8386 45.7968 70.8196 45.8541 70.7844 45.9012C70.5395 46.2869 70.2741 46.6592 69.9894 47.0166H69.9242" fill="white"/>
<path d="M72.7247 62.0036L70.6364 63.7052C71.1169 62.3949 71.4907 61.4937 71.4907 61.4937C71.5678 61.3929 71.6983 61.3692 71.8051 61.304L72.1611 61.0905L73.0926 60.5332C73.0095 60.9897 72.968 61.4522 72.8553 61.9028C72.8553 61.9502 72.7663 61.9739 72.7307 62.0036" fill="white"/>
<path d="M165.913 64.9029C166.239 65.555 166.411 66.2724 166.767 66.9128C166.479 66.5029 166.107 66.1593 165.675 65.9049C164.601 65.14 164.127 64.6538 164.447 63.4858C165.096 63.7573 165.62 64.2633 165.913 64.9029Z" fill="white"/>
<path d="M211.026 139.086C210.996 139.716 210.766 140.321 210.368 140.811C209.834 141.356 209.039 141.345 208.428 141.73C208.962 140.408 209.258 140.123 211.062 138.73C211.062 138.837 211.062 138.979 211.026 139.086Z" fill="white"/>
<path d="M73.5316 40.0254L73.4426 40.0787L73.3536 40.1321L73.2646 40.1855L73.1756 40.2388L73.0866 40.2922L72.9976 40.3455L72.9086 40.3989L72.8196 40.4523L72.7306 40.5056L72.6416 40.559L72.5526 40.6123L72.4636 40.6657L72.3746 40.7191L72.2857 40.7724L72.1967 40.8258L72.1077 40.8791L72.0187 40.9384L71.9297 40.9977L71.8407 41.057L71.7458 41.1163L71.6508 41.1756L71.5559 41.2349L71.461 41.2942L71.366 41.3535L71.2711 41.4127L71.1703 41.478L71.0694 41.5432L70.9685 41.6084L70.8677 41.6736L70.7668 41.7388L70.66 41.8041C71.0753 41.2764 71.4135 40.8851 71.4135 40.8851C71.4135 40.8851 73.312 39.7823 73.6265 39.9542L73.5375 40.0076" fill="white"/>
<path d="M200.584 138.351C200.193 141.002 200.08 140.972 197.185 140.189C197.832 140.008 198.46 139.764 199.06 139.46C199.625 139.038 200.149 138.563 200.626 138.043L200.578 138.351" fill="white"/>
<path d="M175.298 130.928V131.076V131.23V131.384V131.544V131.71V131.882V132.054V132.232V132.41V132.594V132.778V132.961V133.145V133.329V133.513C174.598 133.957 174.302 133.774 173.797 133.394C173.552 133.159 173.252 132.988 172.925 132.896C173.584 132.303 174.444 131.58 175.298 130.803V130.94" fill="white"/>
<path d="M51.8942 176.995V177.084V177.173V177.262V177.351V177.44V177.529V177.618V177.707V177.796V177.885V177.974V178.069V178.163V178.258V178.353C51.7696 178.537 51.7399 178.531 51.4908 178.466C51.1892 178.388 50.9105 178.24 50.6779 178.033C50.2056 177.566 49.8605 176.987 49.6753 176.349H49.7465H49.8117H49.877H49.9423H50.0075H50.0728H50.1381H50.1974H50.2567H50.316H50.3754H50.4347H50.494H50.5534H50.6127H50.6661H50.7195H50.7729H50.8263H50.8797H50.9331H50.9865H51.0399H51.0933H51.1466H51.2H51.2534H51.3068H51.3602H51.4136H51.467H51.5204V176.438" fill="white"/>
<path d="M152.225 90.1242C152.238 90.4012 152.183 90.6771 152.065 90.9281C151.948 91.1791 151.77 91.3977 151.549 91.5649C150.321 90.2961 150.321 90.2961 151.739 89.0273C151.986 89.3491 152.153 89.7251 152.225 90.1242Z" fill="white"/>
<path d="M164.091 65.7334C164.091 65.7334 164.239 66.5279 163.943 66.7414C163.646 66.9548 163.35 66.8718 162.756 66.6584C163.077 66.0358 163.35 65.5141 163.528 65.105C164.056 65.6979 164.056 65.6979 164.061 65.7334" fill="white"/>
<path d="M167.182 64.15C167.206 64.2552 167.218 64.3626 167.218 64.4704C167.218 64.6187 167.218 64.7611 167.253 64.9094C167.052 64.7433 166.832 64.595 166.631 64.4289C166.539 64.3586 166.458 64.2768 166.387 64.1856C166.359 64.1413 166.345 64.0897 166.346 64.0373C166.346 63.9008 166.381 63.7644 166.393 63.6279C167.153 64.0551 167.153 64.0551 167.188 64.15" fill="white"/>
<path d="M183.741 43.1805C184.041 43.4653 184.338 43.7541 184.631 44.0467C183.664 43.3882 182.987 42.9492 182.453 42.5991C183.676 43.1153 183.676 43.1153 183.747 43.1924" fill="white"/>
<path d="M150.932 93.0771C150.891 93.1958 150.861 93.3144 150.813 93.4272C150.766 93.5399 150.754 93.5221 150.754 93.5221C150.667 93.532 150.58 93.532 150.493 93.5221C150.309 93.5221 150.131 93.445 149.947 93.4094C149.974 93.2874 150.011 93.1683 150.06 93.0534C150.06 93.0059 150.107 93.0059 150.179 93C150.437 93.0001 150.694 93.0179 150.95 93.0534V93.0949" fill="white"/>
</g>
<g style="mix-blend-mode:overlay" opacity="0.8">
<path d="M145.42 19.4167C146.321 19.4167 147.052 18.6867 147.052 17.7862C147.052 16.8857 146.321 16.1558 145.42 16.1558C144.519 16.1558 143.789 16.8857 143.789 17.7862C143.789 18.6867 144.519 19.4167 145.42 19.4167Z" fill="white"/>
<path d="M77.0971 27.6402C77.6509 27.6402 78.0998 27.1916 78.0998 26.6382C78.0998 26.0848 77.6509 25.6362 77.0971 25.6362C76.5434 25.6362 76.0945 26.0848 76.0945 26.6382C76.0945 27.1916 76.5434 27.6402 77.0971 27.6402Z" fill="white"/>
<path d="M197.036 41.27C197.554 41.27 197.974 40.8506 197.974 40.3333C197.974 39.8159 197.554 39.3965 197.036 39.3965C196.519 39.3965 196.099 39.8159 196.099 40.3333C196.099 40.8506 196.519 41.27 197.036 41.27Z" fill="white"/>
<path d="M157.648 75.415C158.166 75.415 158.585 74.9956 158.585 74.4783C158.585 73.9609 158.166 73.5415 157.648 73.5415C157.13 73.5415 156.711 73.9609 156.711 74.4783C156.711 74.9956 157.13 75.415 157.648 75.415Z" fill="white"/>
<path d="M54.6946 158.397C55.2123 158.397 55.632 157.978 55.632 157.46C55.632 156.943 55.2123 156.523 54.6946 156.523C54.1769 156.523 53.7572 156.943 53.7572 157.46C53.7572 157.978 54.1769 158.397 54.6946 158.397Z" fill="white"/>
<path d="M16.3798 182.61C16.8975 182.61 17.3172 182.191 17.3172 181.674C17.3172 181.156 16.8975 180.737 16.3798 180.737C15.8621 180.737 15.4424 181.156 15.4424 181.674C15.4424 182.191 15.8621 182.61 16.3798 182.61Z" fill="white"/>
<path d="M53.1281 89.3782C53.9964 89.3782 54.7003 88.6747 54.7003 87.807C54.7003 86.9393 53.9964 86.2358 53.1281 86.2358C52.2598 86.2358 51.5559 86.9393 51.5559 87.807C51.5559 88.6747 52.2598 89.3782 53.1281 89.3782Z" fill="white"/>
<path d="M11.9302 114.12C12.4643 114.12 12.8973 113.687 12.8973 113.153C12.8973 112.62 12.4643 112.187 11.9302 112.187C11.3961 112.187 10.9631 112.62 10.9631 113.153C10.9631 113.687 11.3961 114.12 11.9302 114.12Z" fill="white"/>
<path d="M47.3498 52.2563C47.9821 52.2563 48.4948 51.744 48.4948 51.1121C48.4948 50.4801 47.9821 49.9678 47.3498 49.9678C46.7174 49.9678 46.2047 50.4801 46.2047 51.1121C46.2047 51.744 46.7174 52.2563 47.3498 52.2563Z" fill="white"/>
<path d="M231.068 82.3408C231.585 82.3408 232.005 81.9214 232.005 81.404C232.005 80.8867 231.585 80.4673 231.068 80.4673C230.55 80.4673 230.13 80.8867 230.13 81.404C230.13 81.9214 230.55 82.3408 231.068 82.3408Z" fill="white"/>
<path d="M237.38 122.438C237.898 122.438 238.317 122.019 238.317 121.501C238.317 120.984 237.898 120.564 237.38 120.564C236.862 120.564 236.443 120.984 236.443 121.501C236.443 122.019 236.862 122.438 237.38 122.438Z" fill="white"/>
<path d="M200.834 119.788C201.351 119.788 201.771 119.368 201.771 118.851C201.771 118.333 201.351 117.914 200.834 117.914C200.316 117.914 199.896 118.333 199.896 118.851C199.896 119.368 200.316 119.788 200.834 119.788Z" fill="white"/>
<path d="M108.933 108.048C109.903 108.048 110.689 107.262 110.689 106.293C110.689 105.324 109.903 104.538 108.933 104.538C107.963 104.538 107.177 105.324 107.177 106.293C107.177 107.262 107.963 108.048 108.933 108.048Z" fill="white"/>
<path d="M105.373 176.48C106.346 176.48 107.135 175.691 107.135 174.719C107.135 173.746 106.346 172.958 105.373 172.958C104.4 172.958 103.611 173.746 103.611 174.719C103.611 175.691 104.4 176.48 105.373 176.48Z" fill="white"/>
<path d="M75.5487 238.977C76.0664 238.977 76.4861 238.557 76.4861 238.04C76.4861 237.522 76.0664 237.103 75.5487 237.103C75.031 237.103 74.6113 237.522 74.6113 238.04C74.6113 238.557 75.031 238.977 75.5487 238.977Z" fill="white"/>
<path d="M157.648 142.021C158.467 142.021 159.131 141.357 159.131 140.538C159.131 139.72 158.467 139.056 157.648 139.056C156.829 139.056 156.165 139.72 156.165 140.538C156.165 141.357 156.829 142.021 157.648 142.021Z" fill="white"/>
<path d="M236.443 151.424C236.96 151.424 237.38 151.005 237.38 150.488C237.38 149.97 236.96 149.551 236.443 149.551C235.925 149.551 235.505 149.97 235.505 150.488C235.505 151.005 235.925 151.424 236.443 151.424Z" fill="white"/>
<path d="M165.557 189.061C166.074 189.061 166.494 188.642 166.494 188.124C166.494 187.607 166.074 187.188 165.557 187.188C165.039 187.188 164.619 187.607 164.619 188.124C164.619 188.642 165.039 189.061 165.557 189.061Z" fill="white"/>
<path d="M131.911 246.394C132.429 246.394 132.849 245.974 132.849 245.457C132.849 244.939 132.429 244.52 131.911 244.52C131.393 244.52 130.974 244.939 130.974 245.457C130.974 245.974 131.393 246.394 131.911 246.394Z" fill="white"/>
<path d="M227.265 188.13C228.103 188.13 228.783 187.45 228.783 186.612C228.783 185.774 228.103 185.094 227.265 185.094C226.426 185.094 225.746 185.774 225.746 186.612C225.746 187.45 226.426 188.13 227.265 188.13Z" fill="white"/>
<path d="M189.721 235.846C190.278 235.846 190.73 235.395 190.73 234.838C190.73 234.281 190.278 233.83 189.721 233.83C189.164 233.83 188.713 234.281 188.713 234.838C188.713 235.395 189.164 235.846 189.721 235.846Z" fill="white"/>
<path d="M47.3498 51.1132C48.2635 50.4313 77.1033 26.6326 77.1033 26.6326L145.426 17.7808L197.043 40.3107L231.068 81.404L237.38 121.501L236.443 150.488L227.265 186.613L189.721 234.839L131.911 245.457L75.5488 238.046L16.3801 181.822L11.9304 113.284L47.3498 51.1132Z" stroke="white" stroke-width="0.148322" stroke-linecap="round" stroke-linejoin="round"/>
<path d="M53.1283 87.8069L47.3496 51.1128L77.1031 26.6382L53.1283 87.8069Z" stroke="white" stroke-width="0.148322" stroke-linecap="round" stroke-linejoin="round"/>
<path d="M108.933 106.293L53.1283 87.8069L77.1031 26.6382L108.933 106.293Z" stroke="white" stroke-width="0.148322" stroke-linecap="round" stroke-linejoin="round"/>
<path d="M145.42 17.7861L108.933 106.293L157.648 74.4785L145.42 17.7861Z" stroke="white" stroke-width="0.148322" stroke-linecap="round" stroke-linejoin="round"/>
<path d="M200.834 118.851L157.648 74.4786L197.037 40.334L200.834 118.851Z" stroke="white" stroke-width="0.148322" stroke-linecap="round" stroke-linejoin="round"/>
<path d="M231.068 81.4036L200.834 118.851L197.036 40.334L231.068 81.4036Z" stroke="white" stroke-width="0.148322" stroke-linecap="round" stroke-linejoin="round"/>
<path d="M108.933 106.293L200.834 118.851L157.648 74.4785L108.933 106.293Z" stroke="white" stroke-width="0.148322" stroke-linecap="round" stroke-linejoin="round"/>
<path d="M54.6947 157.46L11.9304 113.278L53.7573 87.8071L54.6947 157.46Z" stroke="white" stroke-width="0.148322" stroke-linecap="round" stroke-linejoin="round"/>
<path d="M105.373 174.719L108.933 106.293L157.648 140.538L105.373 174.719Z" stroke="white" stroke-width="0.148322" stroke-linecap="round" stroke-linejoin="round"/>
<path d="M16.3799 181.822L54.6945 157.46L75.5486 238.046L16.3799 181.822Z" stroke="white" stroke-width="0.148322" stroke-linecap="round" stroke-linejoin="round"/>
<path d="M105.373 174.719L54.6945 157.46L108.933 106.293L105.373 174.719Z" stroke="white" stroke-width="0.148322" stroke-linecap="round" stroke-linejoin="round"/>
<path d="M165.557 188.124L105.373 174.719L157.648 140.539L165.557 188.124Z" stroke="white" stroke-width="0.148322" stroke-linecap="round" stroke-linejoin="round"/>
<path d="M75.5486 238.046L105.373 174.719L131.911 245.457L75.5486 238.046Z" stroke="white" stroke-width="0.148322" stroke-linecap="round" stroke-linejoin="round"/>
<path d="M165.557 188.124L189.721 234.838L226.814 187.188L165.557 188.124Z" stroke="white" stroke-width="0.148322" stroke-linecap="round" stroke-linejoin="round"/>
<path d="M157.648 140.539L200.834 118.851L236.443 150.487L157.648 140.539Z" stroke="white" stroke-width="0.148322" stroke-linecap="round" stroke-linejoin="round"/>
<path d="M237.38 121.501L200.833 118.851L236.443 150.6L237.38 121.501Z" stroke="white" stroke-width="0.148322" stroke-linecap="round" stroke-linejoin="round"/>
</g>
<g style="mix-blend-mode:overlay">
<path d="M235.137 73.8792C235.895 73.2741 236.018 72.1698 235.413 71.4127C234.807 70.6555 233.702 70.5322 232.945 71.1373C232.187 71.7424 232.063 72.8467 232.669 73.6039C233.274 74.361 234.38 74.4843 235.137 73.8792Z" fill="white"/>
<path d="M181.381 21.9225C181.847 21.5503 181.923 20.8711 181.551 20.4053C181.178 19.9396 180.498 19.8637 180.032 20.2359C179.566 20.608 179.491 21.2872 179.863 21.753C180.236 22.2187 180.915 22.2946 181.381 21.9225Z" fill="white"/>
<path d="M250.376 131.784C250.811 131.437 250.882 130.802 250.534 130.367C250.186 129.932 249.551 129.861 249.116 130.209C248.681 130.557 248.61 131.191 248.958 131.626C249.306 132.061 249.941 132.132 250.376 131.784Z" fill="white"/>
<path d="M195.195 121.642C195.63 121.295 195.701 120.66 195.353 120.225C195.005 119.79 194.37 119.719 193.935 120.067C193.5 120.414 193.429 121.049 193.777 121.484C194.125 121.919 194.759 121.99 195.195 121.642Z" fill="white"/>
<path d="M56.2672 90.9148C56.7024 90.5671 56.7733 89.9327 56.4254 89.4977C56.0775 89.0626 55.4426 88.9918 55.0073 89.3394C54.5721 89.687 54.5013 90.3214 54.8492 90.7565C55.197 91.1915 55.8319 91.2624 56.2672 90.9148Z" fill="white"/>
<path d="M10.1717 74.9948C10.607 74.6472 10.6778 74.0128 10.3299 73.5777C9.98203 73.1427 9.34715 73.0718 8.91189 73.4194C8.47663 73.767 8.4058 74.4015 8.75369 74.8365C9.10158 75.2716 9.73645 75.3424 10.1717 74.9948Z" fill="white"/>
<path d="M114.217 43.3434C114.946 42.7609 115.065 41.6976 114.482 40.9685C113.899 40.2395 112.835 40.1208 112.105 40.7034C111.376 41.286 111.257 42.3493 111.84 43.0783C112.423 43.8073 113.487 43.926 114.217 43.3434Z" fill="white"/>
<path d="M64.8237 25.2629C65.2718 24.9051 65.3447 24.2519 64.9866 23.8041C64.6285 23.3563 63.9749 23.2833 63.5269 23.6412C63.0788 23.999 63.0059 24.6521 63.364 25.0999C63.7221 25.5478 64.3757 25.6207 64.8237 25.2629Z" fill="white"/>
<path d="M140.91 13.4904C141.442 13.0652 141.529 12.2892 141.103 11.7571C140.678 11.2251 139.901 11.1384 139.369 11.5636C138.837 11.9888 138.75 12.7648 139.175 13.2969C139.601 13.8289 140.377 13.9156 140.91 13.4904Z" fill="white"/>
<path d="M238.687 187.964C239.122 187.616 239.193 186.982 238.845 186.546C238.497 186.111 237.862 186.041 237.427 186.388C236.992 186.736 236.921 187.37 237.269 187.805C237.616 188.24 238.251 188.311 238.687 187.964Z" fill="white"/>
<path d="M209.205 220.191C209.64 219.844 209.711 219.209 209.363 218.774C209.015 218.339 208.381 218.268 207.945 218.616C207.51 218.963 207.439 219.598 207.787 220.033C208.135 220.468 208.77 220.539 209.205 220.191Z" fill="white"/>
<path d="M186.889 187.724C187.324 187.376 187.395 186.742 187.047 186.307C186.699 185.872 186.064 185.801 185.629 186.148C185.194 186.496 185.123 187.13 185.471 187.566C185.819 188.001 186.454 188.071 186.889 187.724Z" fill="white"/>
<path d="M136.279 102.785C137.095 102.133 137.228 100.943 136.575 100.127C135.923 99.3113 134.732 99.1784 133.915 99.8305C133.099 100.483 132.966 101.673 133.619 102.489C134.271 103.305 135.462 103.438 136.279 102.785Z" fill="white"/>
<path d="M75.2146 145.792C76.0299 145.145 76.1655 143.959 75.5175 143.145C74.8694 142.33 73.6831 142.194 72.8678 142.842C72.0525 143.49 71.917 144.675 72.565 145.49C73.2131 146.305 74.3993 146.44 75.2146 145.792Z" fill="white"/>
<path d="M2.50618 162.546C2.94144 162.198 3.01228 161.564 2.66439 161.129C2.3165 160.694 1.68162 160.623 1.24636 160.971C0.811101 161.318 0.740277 161.953 1.08817 162.388C1.43606 162.823 2.07092 162.894 2.50618 162.546Z" fill="white"/>
<path d="M140.01 166.471C140.699 165.921 140.811 164.918 140.261 164.23C139.71 163.542 138.706 163.43 138.018 163.979C137.329 164.529 137.217 165.533 137.767 166.221C138.317 166.909 139.322 167.021 140.01 166.471Z" fill="white"/>
<path d="M184.2 238.873C184.636 238.526 184.706 237.891 184.359 237.456C184.011 237.021 183.376 236.95 182.941 237.298C182.505 237.645 182.434 238.28 182.782 238.715C183.13 239.15 183.765 239.221 184.2 238.873Z" fill="white"/>
<path d="M104.941 204.613C105.377 204.265 105.447 203.631 105.099 203.196C104.752 202.761 104.117 202.69 103.681 203.038C103.246 203.385 103.175 204.02 103.523 204.455C103.871 204.89 104.506 204.961 104.941 204.613Z" fill="white"/>
<path d="M34.1218 214.863C34.557 214.515 34.6279 213.881 34.28 213.446C33.9321 213.011 33.2972 212.94 32.862 213.288C32.4267 213.635 32.3559 214.27 32.7038 214.705C33.0517 215.14 33.6865 215.211 34.1218 214.863Z" fill="white"/>
<path d="M148.046 255.907C148.75 255.345 148.864 254.319 148.302 253.615C147.739 252.912 146.713 252.797 146.009 253.36C145.305 253.922 145.19 254.948 145.753 255.651C146.315 256.355 147.342 256.469 148.046 255.907Z" fill="white"/>
<path d="M81.9254 256.337C82.3914 255.965 82.4672 255.286 82.0948 254.82C81.7223 254.354 81.0426 254.278 80.5767 254.65C80.1107 255.023 80.0348 255.702 80.4073 256.168C80.7797 256.633 81.4594 256.709 81.9254 256.337Z" fill="white"/>
<path d="M140.14 12.5396C141.326 12.8538 180.709 21.0831 180.709 21.0831L234.034 72.4988L249.738 130.994L238.056 187.158L208.582 219.388L183.604 238.07L147.064 254.623L81.2618 255.483L33.502 214.064L1.87964 161.753L9.42035 74.3011L64.0682 24.5278L140.14 12.5396Z" stroke="white" stroke-width="0.160188" stroke-linecap="round" stroke-linejoin="round"/>
<path d="M113.163 42.0184L140.14 12.522L180.709 21.0656L113.163 42.0184Z" stroke="white" stroke-width="0.160188" stroke-linecap="round" stroke-linejoin="round"/>
<path d="M135.097 101.302L113.163 42.0182L180.709 21.0654L135.097 101.302Z" stroke="white" stroke-width="0.160188" stroke-linecap="round" stroke-linejoin="round"/>
<path d="M234.034 72.4985L135.097 101.301L194.574 120.849L234.034 72.4985Z" stroke="white" stroke-width="0.160188" stroke-linecap="round" stroke-linejoin="round"/>
<path d="M186.262 186.922L194.574 120.85L249.744 130.994L186.262 186.922Z" stroke="white" stroke-width="0.160188" stroke-linecap="round" stroke-linejoin="round"/>
<path d="M238.062 187.158L186.262 186.921L249.744 130.994L238.062 187.158Z" stroke="white" stroke-width="0.160188" stroke-linecap="round" stroke-linejoin="round"/>
<path d="M135.097 101.302L186.262 186.921L194.574 120.849L135.097 101.302Z" stroke="white" stroke-width="0.160188" stroke-linecap="round" stroke-linejoin="round"/>
<path d="M55.6437 90.12L64.0743 24.5283L113.584 42.5522L55.6437 90.12Z" stroke="white" stroke-width="0.160188" stroke-linecap="round" stroke-linejoin="round"/>
<path d="M75.1628 144.275L135.097 101.302L139.019 165.216L75.1628 144.275Z" stroke="white" stroke-width="0.160188" stroke-linecap="round" stroke-linejoin="round"/>
<path d="M9.42035 74.3008L55.6435 90.1191L1.87964 161.752L9.42035 74.3008Z" stroke="white" stroke-width="0.160188" stroke-linecap="round" stroke-linejoin="round"/>
<path d="M75.1629 144.274L55.6437 90.1191L135.097 101.301L75.1629 144.274Z" stroke="white" stroke-width="0.160188" stroke-linecap="round" stroke-linejoin="round"/>
<path d="M104.311 203.819L75.1628 144.274L139.019 165.215L104.311 203.819Z" stroke="white" stroke-width="0.160188" stroke-linecap="round" stroke-linejoin="round"/>
<path d="M1.87964 161.753L75.1628 144.274L33.502 214.064L1.87964 161.753Z" stroke="white" stroke-width="0.160188" stroke-linecap="round" stroke-linejoin="round"/>
<path d="M104.311 203.818L81.2618 255.483L146.245 254.635L104.311 203.818Z" stroke="white" stroke-width="0.160188" stroke-linecap="round" stroke-linejoin="round"/>
<path d="M139.019 165.215L186.262 186.921L183.575 238.069L139.019 165.215Z" stroke="white" stroke-width="0.160188" stroke-linecap="round" stroke-linejoin="round"/>
<path d="M208.582 219.388L186.262 186.921L183.48 238.147L208.582 219.388Z" stroke="white" stroke-width="0.160188" stroke-linecap="round" stroke-linejoin="round"/>
</g>
<g style="mix-blend-mode:overlay">
<path d="M235.137 73.8792C235.895 73.2741 236.018 72.1698 235.413 71.4127C234.807 70.6555 233.702 70.5322 232.945 71.1373C232.187 71.7424 232.063 72.8467 232.669 73.6039C233.274 74.361 234.38 74.4843 235.137 73.8792Z" fill="white"/>
<path d="M181.381 21.9225C181.847 21.5503 181.923 20.8711 181.551 20.4053C181.178 19.9396 180.498 19.8637 180.032 20.2359C179.566 20.608 179.491 21.2872 179.863 21.753C180.236 22.2187 180.915 22.2946 181.381 21.9225Z" fill="white"/>
<path d="M250.376 131.784C250.811 131.437 250.882 130.802 250.534 130.367C250.186 129.932 249.551 129.861 249.116 130.209C248.681 130.557 248.61 131.191 248.958 131.626C249.306 132.061 249.941 132.132 250.376 131.784Z" fill="white"/>
<path d="M195.195 121.642C195.63 121.295 195.701 120.66 195.353 120.225C195.005 119.79 194.37 119.719 193.935 120.067C193.5 120.414 193.429 121.049 193.777 121.484C194.125 121.919 194.759 121.99 195.195 121.642Z" fill="white"/>
<path d="M56.2672 90.9148C56.7024 90.5671 56.7733 89.9327 56.4254 89.4977C56.0775 89.0626 55.4426 88.9918 55.0073 89.3394C54.5721 89.687 54.5013 90.3214 54.8492 90.7565C55.197 91.1915 55.8319 91.2624 56.2672 90.9148Z" fill="white"/>
<path d="M10.1717 74.9948C10.607 74.6472 10.6778 74.0128 10.3299 73.5777C9.98203 73.1427 9.34715 73.0718 8.91189 73.4194C8.47663 73.767 8.4058 74.4015 8.75369 74.8365C9.10158 75.2716 9.73645 75.3424 10.1717 74.9948Z" fill="white"/>
<path d="M114.217 43.3434C114.946 42.7609 115.065 41.6976 114.482 40.9685C113.899 40.2395 112.835 40.1208 112.105 40.7034C111.376 41.286 111.257 42.3493 111.84 43.0783C112.423 43.8073 113.487 43.926 114.217 43.3434Z" fill="white"/>
<path d="M64.8237 25.2629C65.2718 24.9051 65.3447 24.2519 64.9866 23.8041C64.6285 23.3563 63.9749 23.2833 63.5269 23.6412C63.0788 23.999 63.0059 24.6521 63.364 25.0999C63.7221 25.5478 64.3757 25.6207 64.8237 25.2629Z" fill="white"/>
<path d="M140.91 13.4904C141.442 13.0652 141.529 12.2892 141.103 11.7571C140.678 11.2251 139.901 11.1384 139.369 11.5636C138.837 11.9888 138.75 12.7648 139.175 13.2969C139.601 13.8289 140.377 13.9156 140.91 13.4904Z" fill="white"/>
<path d="M238.687 187.964C239.122 187.616 239.193 186.982 238.845 186.546C238.497 186.111 237.862 186.041 237.427 186.388C236.992 186.736 236.921 187.37 237.269 187.805C237.616 188.24 238.251 188.311 238.687 187.964Z" fill="white"/>
<path d="M209.205 220.191C209.64 219.844 209.711 219.209 209.363 218.774C209.015 218.339 208.381 218.268 207.945 218.616C207.51 218.963 207.439 219.598 207.787 220.033C208.135 220.468 208.77 220.539 209.205 220.191Z" fill="white"/>
<path d="M186.889 187.724C187.324 187.376 187.395 186.742 187.047 186.307C186.699 185.872 186.064 185.801 185.629 186.148C185.194 186.496 185.123 187.13 185.471 187.566C185.819 188.001 186.454 188.071 186.889 187.724Z" fill="white"/>
<path d="M136.279 102.785C137.095 102.133 137.228 100.943 136.575 100.127C135.923 99.3113 134.732 99.1784 133.915 99.8305C133.099 100.483 132.966 101.673 133.619 102.489C134.271 103.305 135.462 103.438 136.279 102.785Z" fill="white"/>
<path d="M75.2146 145.792C76.0299 145.145 76.1655 143.959 75.5175 143.145C74.8694 142.33 73.6831 142.194 72.8678 142.842C72.0525 143.49 71.917 144.675 72.565 145.49C73.2131 146.305 74.3993 146.44 75.2146 145.792Z" fill="white"/>
<path d="M2.50618 162.546C2.94144 162.198 3.01228 161.564 2.66439 161.129C2.3165 160.694 1.68162 160.623 1.24636 160.971C0.811101 161.318 0.740277 161.953 1.08817 162.388C1.43606 162.823 2.07092 162.894 2.50618 162.546Z" fill="white"/>
<path d="M140.01 166.471C140.699 165.921 140.811 164.918 140.261 164.23C139.71 163.542 138.706 163.43 138.018 163.979C137.329 164.529 137.217 165.533 137.767 166.221C138.317 166.909 139.322 167.021 140.01 166.471Z" fill="white"/>
<path d="M184.2 238.873C184.636 238.526 184.706 237.891 184.359 237.456C184.011 237.021 183.376 236.95 182.941 237.298C182.505 237.645 182.434 238.28 182.782 238.715C183.13 239.15 183.765 239.221 184.2 238.873Z" fill="white"/>
<path d="M104.941 204.613C105.377 204.265 105.447 203.631 105.099 203.196C104.752 202.761 104.117 202.69 103.681 203.038C103.246 203.385 103.175 204.02 103.523 204.455C103.871 204.89 104.506 204.961 104.941 204.613Z" fill="white"/>
<path d="M34.1218 214.863C34.557 214.515 34.6279 213.881 34.28 213.446C33.9321 213.011 33.2972 212.94 32.862 213.288C32.4267 213.635 32.3559 214.27 32.7038 214.705C33.0517 215.14 33.6865 215.211 34.1218 214.863Z" fill="white"/>
<path d="M148.046 255.907C148.75 255.345 148.864 254.319 148.302 253.615C147.739 252.912 146.713 252.797 146.009 253.36C145.305 253.922 145.19 254.948 145.753 255.651C146.315 256.355 147.342 256.469 148.046 255.907Z" fill="white"/>
<path d="M81.9254 256.337C82.3914 255.965 82.4672 255.286 82.0948 254.82C81.7223 254.354 81.0426 254.278 80.5767 254.65C80.1107 255.023 80.0348 255.702 80.4073 256.168C80.7797 256.633 81.4594 256.709 81.9254 256.337Z" fill="white"/>
<path d="M140.14 12.5396C141.326 12.8538 180.709 21.0831 180.709 21.0831L234.034 72.4988L249.738 130.994L238.056 187.158L208.582 219.388L183.604 238.07L147.064 254.623L81.2618 255.483L33.502 214.064L1.87964 161.753L9.42035 74.3011L64.0682 24.5278L140.14 12.5396Z" stroke="white" stroke-width="0.160188" stroke-linecap="round" stroke-linejoin="round"/>
<path d="M113.163 42.0184L140.14 12.522L180.709 21.0656L113.163 42.0184Z" stroke="white" stroke-width="0.160188" stroke-linecap="round" stroke-linejoin="round"/>
<path d="M135.097 101.302L113.163 42.0182L180.709 21.0654L135.097 101.302Z" stroke="white" stroke-width="0.160188" stroke-linecap="round" stroke-linejoin="round"/>
<path d="M234.034 72.4985L135.097 101.301L194.574 120.849L234.034 72.4985Z" stroke="white" stroke-width="0.160188" stroke-linecap="round" stroke-linejoin="round"/>
<path d="M186.262 186.922L194.574 120.85L249.744 130.994L186.262 186.922Z" stroke="white" stroke-width="0.160188" stroke-linecap="round" stroke-linejoin="round"/>
<path d="M238.062 187.158L186.262 186.921L249.744 130.994L238.062 187.158Z" stroke="white" stroke-width="0.160188" stroke-linecap="round" stroke-linejoin="round"/>
<path d="M135.097 101.302L186.262 186.921L194.574 120.849L135.097 101.302Z" stroke="white" stroke-width="0.160188" stroke-linecap="round" stroke-linejoin="round"/>
<path d="M55.6437 90.12L64.0743 24.5283L113.584 42.5522L55.6437 90.12Z" stroke="white" stroke-width="0.160188" stroke-linecap="round" stroke-linejoin="round"/>
<path d="M75.1628 144.275L135.097 101.302L139.019 165.216L75.1628 144.275Z" stroke="white" stroke-width="0.160188" stroke-linecap="round" stroke-linejoin="round"/>
<path d="M9.42035 74.3008L55.6435 90.1191L1.87964 161.752L9.42035 74.3008Z" stroke="white" stroke-width="0.160188" stroke-linecap="round" stroke-linejoin="round"/>
<path d="M75.1629 144.274L55.6437 90.1191L135.097 101.301L75.1629 144.274Z" stroke="white" stroke-width="0.160188" stroke-linecap="round" stroke-linejoin="round"/>
<path d="M104.311 203.819L75.1628 144.274L139.019 165.215L104.311 203.819Z" stroke="white" stroke-width="0.160188" stroke-linecap="round" stroke-linejoin="round"/>
<path d="M1.87964 161.753L75.1628 144.274L33.502 214.064L1.87964 161.753Z" stroke="white" stroke-width="0.160188" stroke-linecap="round" stroke-linejoin="round"/>
<path d="M104.311 203.818L81.2618 255.483L146.245 254.635L104.311 203.818Z" stroke="white" stroke-width="0.160188" stroke-linecap="round" stroke-linejoin="round"/>
<path d="M139.019 165.215L186.262 186.921L183.575 238.069L139.019 165.215Z" stroke="white" stroke-width="0.160188" stroke-linecap="round" stroke-linejoin="round"/>
<path d="M208.582 219.388L186.262 186.921L183.48 238.147L208.582 219.388Z" stroke="white" stroke-width="0.160188" stroke-linecap="round" stroke-linejoin="round"/>
</g>
<path style="mix-blend-mode:screen" d="M134.26 122.495C146.885 122.495 157.119 112.268 157.119 99.6522C157.119 87.0363 146.885 76.8091 134.26 76.8091C121.636 76.8091 111.402 87.0363 111.402 99.6522C111.402 112.268 121.636 122.495 134.26 122.495Z" fill="url(#paint1_radial_4020_224)"/>
<path style="mix-blend-mode:screen" d="M75.2334 167.603C87.8577 167.603 98.0918 157.375 98.0918 144.76C98.0918 132.144 87.8577 121.917 75.2334 121.917C62.6091 121.917 52.375 132.144 52.375 144.76C52.375 157.375 62.6091 167.603 75.2334 167.603Z" fill="url(#paint2_radial_4020_224)"/>
<path style="mix-blend-mode:screen" d="M114.585 68.7125C127.209 68.7125 137.443 58.4854 137.443 45.8695C137.443 33.2536 127.209 23.0264 114.585 23.0264C101.96 23.0264 91.7262 33.2536 91.7262 45.8695C91.7262 58.4854 101.96 68.7125 114.585 68.7125Z" fill="url(#paint3_radial_4020_224)"/>
<path style="mix-blend-mode:screen" d="M138.89 187.843C151.514 187.843 161.748 177.616 161.748 165C161.748 152.384 151.514 142.157 138.89 142.157C126.265 142.157 116.031 152.384 116.031 165C116.031 177.616 126.265 187.843 138.89 187.843Z" fill="url(#paint4_radial_4020_224)"/>
<path style="mix-blend-mode:screen" d="M201.389 142.735C214.013 142.735 224.247 132.508 224.247 119.892C224.247 107.277 214.013 97.0493 201.389 97.0493C188.764 97.0493 178.53 107.277 178.53 119.892C178.53 132.508 188.764 142.735 201.389 142.735Z" fill="url(#paint5_radial_4020_224)"/>
</g>
<defs>
<radialGradient id="paint0_radial_4020_224" cx="0" cy="0" r="1" gradientUnits="userSpaceOnUse" gradientTransform="translate(424.978 -40.394) scale(676.67 676.217)">
<stop stop-color="#5D63D2"/>
<stop offset="1" stop-color="#242993"/>
</radialGradient>
<radialGradient id="paint1_radial_4020_224" cx="0" cy="0" r="1" gradientUnits="userSpaceOnUse" gradientTransform="translate(134.26 99.6522) scale(22.8584 22.8431)">
<stop stop-color="#686FFF"/>
<stop offset="0.04" stop-color="#6D72E6"/>
<stop offset="0.1" stop-color="#666AD2"/>
<stop offset="0.16" stop-color="#4D52BF"/>
<stop offset="0.23" stop-color="#373CA7"/>
<stop offset="0.31" stop-color="#25297E"/>
<stop offset="1"/>
</radialGradient>
<radialGradient id="paint2_radial_4020_224" cx="0" cy="0" r="1" gradientUnits="userSpaceOnUse" gradientTransform="translate(75.2334 144.76) scale(22.8584 22.8431)">
<stop stop-color="#686FFF"/>
<stop offset="0.04" stop-color="#6D72E6"/>
<stop offset="0.1" stop-color="#666AD2"/>
<stop offset="0.16" stop-color="#4D52BF"/>
<stop offset="0.23" stop-color="#373CA7"/>
<stop offset="0.31" stop-color="#25297E"/>
<stop offset="1"/>
</radialGradient>
<radialGradient id="paint3_radial_4020_224" cx="0" cy="0" r="1" gradientUnits="userSpaceOnUse" gradientTransform="translate(114.585 45.8695) scale(22.8584 22.8431)">
<stop stop-color="#686FFF"/>
<stop offset="0.04" stop-color="#6D72E6"/>
<stop offset="0.1" stop-color="#666AD2"/>
<stop offset="0.16" stop-color="#4D52BF"/>
<stop offset="0.23" stop-color="#373CA7"/>
<stop offset="0.31" stop-color="#25297E"/>
<stop offset="1"/>
</radialGradient>
<radialGradient id="paint4_radial_4020_224" cx="0" cy="0" r="1" gradientUnits="userSpaceOnUse" gradientTransform="translate(138.89 165) scale(22.8584 22.8431)">
<stop stop-color="#686FFF"/>
<stop offset="0.04" stop-color="#6D72E6"/>
<stop offset="0.1" stop-color="#666AD2"/>
<stop offset="0.16" stop-color="#4D52BF"/>
<stop offset="0.23" stop-color="#373CA7"/>
<stop offset="0.31" stop-color="#25297E"/>
<stop offset="1"/>
</radialGradient>
<radialGradient id="paint5_radial_4020_224" cx="0" cy="0" r="1" gradientUnits="userSpaceOnUse" gradientTransform="translate(201.389 119.892) scale(22.8584 22.8431)">
<stop stop-color="#686FFF"/>
<stop offset="0.04" stop-color="#6D72E6"/>
<stop offset="0.1" stop-color="#666AD2"/>
<stop offset="0.16" stop-color="#4D52BF"/>
<stop offset="0.23" stop-color="#373CA7"/>
<stop offset="0.31" stop-color="#25297E"/>
<stop offset="1"/>
</radialGradient>
<clipPath id="clip0_4020_224">
<rect width="250.368" height="276.288" fill="white" transform="translate(0.871338 0.0888672)"/>
</clipPath>
</defs>
</svg>
