<svg width="478" height="424" viewBox="0 0 478 424" fill="none" xmlns="http://www.w3.org/2000/svg">
<path d="M222.477 193.874L203.179 213.045L205.838 252.92L211.305 278.56L225.99 263.753C226.18 263.563 226.325 263.332 226.415 263.079C226.614 262.792 226.745 262.462 226.798 262.117C226.851 261.771 226.824 261.418 226.72 261.084C219.094 218.155 220.306 200.568 222.578 193.381L222.477 193.874Z" fill="url(#paint0_linear_4008_19)"/>
<path d="M214.454 163.74L199.77 178.547L204.923 211.549L222.52 193.861C222.63 193.745 222.706 193.6 222.738 193.443C222.77 193.286 222.758 193.123 222.702 192.973L214.776 163.374L214.454 163.74Z" fill="#C1C4FE"/>
<path d="M164.787 169.266C164.483 169.347 164.515 169.992 164.734 170.633C164.952 171.274 168.988 186.521 170.142 190.83C171.501 195.819 172.28 200.949 172.464 206.117C172.574 213.318 171.349 220.412 170.781 227.515C170.016 235.455 170.033 243.452 170.832 251.388C170.832 251.388 172.241 265.007 174.751 268.112C180.376 275.189 205.828 283.527 211.438 278.71C211.666 278.446 211.816 278.124 211.871 277.779C211.927 277.435 211.887 277.082 211.755 276.759C201.965 224.006 207.387 209.256 207.473 208.533L199.465 178.629L164.787 169.266Z" fill="url(#paint1_linear_4008_19)"/>
<path style="mix-blend-mode:screen" opacity="0.3" d="M168.416 175.852L172.903 192.61C175.162 199.965 175.901 207.704 175.077 215.354C173.505 232.291 171.162 248.268 176.236 267.389C176.133 268.396 184.304 272.97 193.402 275.429C197.527 276.814 201.914 277.233 206.226 276.656C196.328 223.326 201.792 207.865 201.792 207.865C199.391 198.898 196.71 188.886 195.101 182.879L168.416 175.852Z" fill="url(#paint2_linear_4008_19)"/>
<path d="M215.174 195.505C215.104 198.312 213.946 200.981 211.945 202.949L219.004 195.878C221.005 193.91 222.162 191.241 222.232 188.434L215.174 195.505Z" fill="#3036AD"/>
<path d="M213.087 174.651L206.028 181.722C206.538 184.521 207.612 187.186 209.184 189.555C210.756 191.925 212.795 193.95 215.174 195.506L222.232 188.435C218.17 184.601 215.041 179.886 213.087 174.651Z" fill="#4D52BF"/>
<path d="M206.04 181.766L211.728 203.008C213.823 201.062 215.062 198.364 215.174 195.506C211.002 191.786 207.856 187.054 206.04 181.766Z" fill="#242993"/>
<path d="M127.632 77.5246C120.376 84.9899 115.101 94.1536 112.289 104.181C109.477 114.208 109.218 124.78 111.534 134.933C112.905 141.267 115.867 147.148 120.141 152.018C124.414 156.888 129.859 160.588 135.959 162.768L164.105 66.9524C157.636 65.3035 150.844 65.4141 144.431 67.2729C138.019 69.1316 132.219 72.6709 127.632 77.5246Z" fill="#242993"/>
<path d="M164.105 66.9518C157.071 65.0589 148.824 67.69 140.901 75.3658C124.843 90.9616 116.321 121.472 121.836 143.46C124.82 154.603 130.616 161.447 137.859 163.424L195.155 178.9L221.401 82.4278L164.105 66.9518Z" fill="#4D52BF"/>
<path d="M218.5 170.493C234.559 154.897 243.092 124.431 237.565 102.399C233.579 87.5122 224.467 80.2979 213.814 82.1279C207.878 83.4365 202.477 86.5111 198.319 90.9478C193.187 96.0976 188.989 102.101 185.912 108.69C183.79 113.128 182.062 117.744 180.748 122.485C177.196 134.345 176.727 146.915 179.384 159.007C184.832 180.92 202.363 185.97 218.5 170.493Z" fill="#3036AD"/>
<path d="M376.733 57.1091C361.678 53.1212 344.336 58.0042 327.725 72.5818C323.815 75.3065 319.682 77.6945 315.369 79.7201C304.969 84.6375 293.952 88.1249 282.618 90.0876C280.286 90.4329 275.807 91.1204 270.801 91.5764C265.794 92.0323 262.67 92.0303 259.818 92.0017L258.594 91.9568C255.336 91.8039 252.319 91.6798 249.136 91.4601L248.414 91.3739L247.979 91.4905C241.542 90.7863 235.166 89.6113 228.901 87.9748L224.553 86.7144C218.024 84.966 210.374 87.3903 203.055 94.5313C195.346 102.915 189.733 113.006 186.674 123.979C183.615 134.952 183.198 146.494 185.458 157.66C188.22 167.976 193.557 174.15 200.353 176.2L204.787 177.437C214.442 180.021 223.739 183.797 232.462 188.678C239.53 192.727 246.225 197.396 252.469 202.629C264.851 212.94 274.98 225.693 282.223 240.092C282.071 239.526 281.861 238.742 281.698 238.133C281.003 236.406 374.562 58.5776 376.733 57.1091Z" fill="url(#paint3_linear_4008_19)"/>
<path d="M323.485 76.4237C286.453 112.245 267.123 182.137 280.012 232.706C292.901 283.275 333.169 295.059 370.058 259.229C406.948 223.398 426.42 153.516 413.531 102.946C400.643 52.3771 360.201 40.6401 323.485 76.4237Z" fill="#393735"/>
<path d="M288.824 236.361C302.228 286.419 342.765 297.291 379.259 260.68C415.753 224.069 434.563 153.804 421.159 103.747C407.754 53.689 367.218 42.8171 330.723 79.4277C294.229 116.038 275.419 186.303 288.824 236.361Z" fill="#4349C8"/>
<path d="M385.441 59.1588L377.054 56.7421C360.498 51.8504 340.988 58.3877 322.456 76.9328C285.657 113.625 267.151 183.809 280.556 233.866C287.176 258.59 300.551 273.713 316.535 278.384L324.922 280.801C308.819 276.208 295.575 261.051 288.943 236.283C275.538 186.225 294.348 115.96 330.842 79.3495C349.387 60.8479 368.932 54.4412 385.441 59.1588Z" fill="#242993"/>
<mask id="mask0_4008_19" style="mask-type:luminance" maskUnits="userSpaceOnUse" x="289" y="65" width="133" height="210">
<path d="M416.724 107.036C429.834 153.207 412.956 218.848 379.054 253.645C345.151 288.441 307.012 279.212 293.902 233.041C280.793 186.87 297.845 121.181 331.573 86.4319C365.302 51.6824 403.615 60.8646 416.724 107.036Z" fill="white"/>
</mask>
<g mask="url(#mask0_4008_19)">
<path d="M414.609 109.235C427.253 153.665 411.016 217.175 378.241 250.783C357.793 271.754 335.757 276.169 318.997 265.641L238.73 215.222C250.842 222.845 266.771 219.647 281.591 204.477C305.292 180.16 317.073 134.313 307.891 102.112C302.318 82.5185 290.296 72.4456 276.424 73.2256L371.067 69.0309C390.29 68.2154 406.889 82.1465 414.609 109.235Z" fill="url(#paint4_linear_4008_19)"/>
<path d="M279.089 225.256L288.246 230.545C292.266 227.743 296.003 224.554 299.403 221.022C328.377 191.326 342.783 135.259 331.556 95.7674C330.135 90.6159 328.13 85.6435 325.582 80.947C305.513 78.2569 285.46 75.2823 265.33 72.1887C263.047 74.0476 260.87 76.0331 258.81 78.1357C230.545 107.175 216.197 160.848 225.716 200.051C244.37 206.485 262.267 214.937 279.089 225.256Z" fill="#242993"/>
<path d="M348.837 158.736L347.232 160.752C345.611 162.594 344.448 164.794 343.837 167.171C343.226 169.548 343.184 172.035 343.715 174.432C343.576 174.018 343.463 173.597 343.377 173.169L343.731 175.361C343.846 175.936 343.998 176.503 344.185 177.058C345.549 182.151 349.441 183.627 353.264 181.015C353.837 180.613 354.371 180.158 354.858 179.655C357.437 176.786 359.141 173.237 359.766 169.428C360.312 166.745 360.239 163.972 359.553 161.321C357.817 155.535 353.079 154.379 348.837 158.736Z" fill="#2F35A8"/>
<path d="M359.466 161.343C360.151 163.994 360.224 166.767 359.679 169.45C359.053 173.259 357.35 176.808 354.771 179.677C354.284 180.18 353.75 180.635 353.177 181.038C349.223 183.684 345.549 182.15 344.098 177.08C343.911 176.525 343.759 175.958 343.643 175.383L343.29 173.191C343.376 173.619 343.488 174.041 343.628 174.454C344.642 178.241 347.556 179.372 350.361 177.314C350.799 177.012 351.207 176.668 351.579 176.288C353.514 174.14 354.793 171.482 355.262 168.628C355.679 166.619 355.633 164.542 355.127 162.553C353.962 158.2 350.332 157.354 347.153 160.632L348.758 158.616C353.078 154.378 357.817 155.534 359.466 161.343Z" fill="#3C47D2"/>
<path d="M310.117 110.426C302.907 107.181 293.99 109.572 285.601 118.119C278.105 126.642 272.726 136.815 269.902 147.812C267.078 158.808 266.889 170.317 269.35 181.4C272.323 192.5 278.947 198.608 286.595 199.31L344.378 204.765C333.127 177.55 339.252 153.934 363.089 134.479L310.117 110.426Z" fill="#3D43BA"/>
<path opacity="0.6" d="M320.242 202.559C313.545 201.928 307.862 196.547 305.109 186.788C302.922 177.084 303.059 167.001 305.51 157.36C307.96 147.719 312.654 138.795 319.208 131.316C326.231 124.114 333.71 121.922 339.878 124.234L310.117 110.426C302.907 107.181 293.99 109.572 285.602 118.119C278.105 126.642 272.726 136.815 269.902 147.812C267.078 158.808 266.889 170.317 269.35 181.4C272.323 192.5 278.947 198.608 286.595 199.31L320.242 202.559Z" fill="#262C9C"/>
<path d="M343.648 140.577C338.699 145.907 334.956 152.241 332.675 159.148C328.93 169.257 328.256 180.248 330.738 190.739C335.253 206.557 348.262 209.694 359.904 197.802C365.851 191.057 370.121 183.001 372.366 174.292C374.612 165.582 374.769 156.465 372.826 147.683C370.168 137.759 363.87 132.869 356.766 133.328C351.666 134.09 347.009 136.663 343.648 140.577ZM359.454 161.299C360.171 164.509 360.12 167.843 359.304 171.029C358.488 174.216 356.93 177.164 354.759 179.633C350.517 183.99 345.735 182.846 344.086 177.036C343.369 173.826 343.421 170.492 344.237 167.306C345.053 164.12 346.61 161.172 348.781 158.702C353.078 154.378 357.817 155.533 359.466 161.343L359.454 161.299Z" fill="#525DEE"/>
</g>
<path d="M330.216 81.7102C294.444 118.407 276.665 187.649 290.495 236.333C304.324 285.017 344.558 294.758 380.242 258.084C415.927 221.411 433.926 152.296 420.097 103.612C406.268 54.9277 366.066 45.1323 330.216 81.7102ZM414.609 109.235C427.253 153.665 411.016 217.175 378.241 250.783C345.465 284.391 308.664 275.456 296.017 230.84C283.371 186.225 299.741 122.865 332.397 89.3363C365.054 55.8072 401.931 64.6747 414.609 109.235Z" fill="#3036AD"/>
<path style="mix-blend-mode:screen" d="M332.676 159.15C337.334 149.037 345.737 135.494 356.79 133.417C347.452 133.541 336.804 144.794 332.676 159.15Z" fill="url(#paint5_radial_4008_19)"/>
<path style="mix-blend-mode:screen" d="M367.944 58.0661C365.083 58.3858 362.261 58.9862 359.519 59.8585C355.629 61.0863 351.878 62.7174 348.327 64.7254C344.285 67.0697 340.449 69.7526 336.86 72.7452C333.334 75.8107 330.01 79.1018 326.91 82.5977C324.216 85.6364 321.691 88.8209 319.347 92.1367C317.049 95.345 314.938 98.6836 313.026 102.136L314.937 99.5239C316.122 97.8533 317.918 95.5057 320.11 92.7251C325.408 85.8873 331.378 79.5981 337.929 73.9515C341.408 70.9661 345.135 68.2814 349.068 65.9263C352.493 63.8643 356.098 62.117 359.839 60.7058C362.514 59.7467 365.264 59.0094 368.06 58.5014C370.061 57.9648 371.262 57.9228 371.262 57.9228C371.262 57.9228 370.026 57.8343 367.944 58.0661Z" fill="url(#paint6_radial_4008_19)"/>
<path style="mix-blend-mode:screen" d="M185.802 108.627C192.287 98.0237 201.84 85.2921 213.715 82.108C202.466 82.2318 189.63 97.8498 185.802 108.627Z" fill="url(#paint7_radial_4008_19)"/>
<defs>
<linearGradient id="paint0_linear_4008_19" x1="198.549" y1="217.692" x2="235.462" y2="254.618" gradientUnits="userSpaceOnUse">
<stop stop-color="#B6B9FE"/>
<stop offset="0.46" stop-color="#C4C7FE"/>
<stop offset="1" stop-color="#C6C8FF"/>
</linearGradient>
<linearGradient id="paint1_linear_4008_19" x1="207.344" y1="152.164" x2="175.764" y2="270.107" gradientUnits="userSpaceOnUse">
<stop stop-color="#4D52BF"/>
<stop offset="1" stop-color="#B8BBFF"/>
</linearGradient>
<linearGradient id="paint2_linear_4008_19" x1="188.424" y1="156.724" x2="186.448" y2="282.378" gradientUnits="userSpaceOnUse">
<stop stop-color="#686CCF"/>
<stop offset="1" stop-color="#B2B5FB"/>
</linearGradient>
<linearGradient id="paint3_linear_4008_19" x1="282.218" y1="88.4219" x2="254.575" y2="191.456" gradientUnits="userSpaceOnUse">
<stop stop-color="#D0D2FF"/>
<stop offset="0.52" stop-color="#B0B4FF"/>
<stop offset="0.78" stop-color="#9598F2"/>
<stop offset="1" stop-color="#9297F2"/>
</linearGradient>
<linearGradient id="paint4_linear_4008_19" x1="333.489" y1="261.024" x2="416.901" y2="113.936" gradientUnits="userSpaceOnUse">
<stop stop-color="#D0D2FF"/>
<stop offset="0.52" stop-color="#B0B4FF"/>
<stop offset="0.78" stop-color="#9598F2"/>
<stop offset="1" stop-color="#9297F2"/>
</linearGradient>
<radialGradient id="paint5_radial_4008_19" cx="0" cy="0" r="1" gradientUnits="userSpaceOnUse" gradientTransform="translate(342.273 143.803) rotate(-15.0091) scale(24.6857 28.1832)">
<stop stop-color="#E1E3FF"/>
<stop offset="0.22" stop-color="#888FF8"/>
<stop offset="0.26" stop-color="#878FF5"/>
<stop offset="0.34" stop-color="#464FD8"/>
<stop offset="0.42" stop-color="#151F9F"/>
<stop offset="0.51"/>
<stop offset="0.59"/>
<stop offset="0.68"/>
<stop offset="0.78" stop-color="#0C030D"/>
<stop offset="0.88" stop-color="#030103"/>
<stop offset="1"/>
</radialGradient>
<radialGradient id="paint6_radial_4008_19" cx="0" cy="0" r="1" gradientUnits="userSpaceOnUse" gradientTransform="translate(337.085 76.2934) rotate(-15.0091) scale(55.7933 42.7823)">
<stop stop-color="#E1E3FF"/>
<stop offset="0.22" stop-color="#888FF8"/>
<stop offset="0.26" stop-color="#878FF5"/>
<stop offset="0.34" stop-color="#464FD8"/>
<stop offset="0.42" stop-color="#151F9F"/>
<stop offset="0.51"/>
<stop offset="0.59"/>
<stop offset="0.68"/>
<stop offset="0.78" stop-color="#0C030D"/>
<stop offset="0.88" stop-color="#030103"/>
<stop offset="1"/>
</radialGradient>
<radialGradient id="paint7_radial_4008_19" cx="0" cy="0" r="1" gradientUnits="userSpaceOnUse" gradientTransform="translate(197.085 92.9583) rotate(-15.0091) scale(27.8781 27.8934)">
<stop stop-color="#E1E3FF"/>
<stop offset="0.22" stop-color="#888FF8"/>
<stop offset="0.26" stop-color="#878FF5"/>
<stop offset="0.34" stop-color="#464FD8"/>
<stop offset="0.42" stop-color="#151F9F"/>
<stop offset="0.51"/>
<stop offset="0.59"/>
<stop offset="0.68"/>
<stop offset="0.78" stop-color="#0C030D"/>
<stop offset="0.88" stop-color="#030103"/>
<stop offset="1"/>
</radialGradient>
</defs>
</svg>
