<svg width="395" height="373" viewBox="0 0 395 373" fill="none" xmlns="http://www.w3.org/2000/svg">
<g filter="url(#filter0_f_4103_6)">
<path d="M380.938 254.195L390.463 259.698V270.705L380.938 276.209L371.413 270.705V259.698L380.938 254.195Z" fill="url(#paint0_linear_4103_6)" fill-opacity="0.8"/>
</g>
<path d="M26.9876 340.253L40.8421 348.258V364.269L26.9876 372.274L13.1332 364.269V348.258L26.9876 340.253Z" fill="url(#paint1_linear_4103_6)"/>
<path d="M96.9777 0.0229492L103.905 4.02551V12.0306L96.9777 16.0332L90.0505 12.0306V4.02551L96.9777 0.0229492Z" fill="url(#paint2_linear_4103_6)"/>
<g filter="url(#filter1_f_4103_6)">
<path d="M10.9898 144.12L17.9171 148.123V156.128L10.9898 160.131L4.06261 156.128V148.123L10.9898 144.12Z" fill="url(#paint3_linear_4103_6)" fill-opacity="0.8"/>
</g>
<g filter="url(#filter2_f_4103_6)">
<path d="M377.938 30.1541L371.399 29.7568L368.936 24.0391L366.473 29.7568L359.941 30.1541L364.951 34.0856L363.307 40.0493L368.936 36.7612L374.565 40.0493L372.921 34.0856L377.938 30.1541Z" fill="#ED2F2F"/>
</g>
<defs>
<filter id="filter0_f_4103_6" x="367.413" y="250.195" width="27.0499" height="30.0142" filterUnits="userSpaceOnUse" color-interpolation-filters="sRGB">
<feFlood flood-opacity="0" result="BackgroundImageFix"/>
<feBlend mode="normal" in="SourceGraphic" in2="BackgroundImageFix" result="shape"/>
<feGaussianBlur stdDeviation="2" result="effect1_foregroundBlur_4103_6"/>
</filter>
<filter id="filter1_f_4103_6" x="0.0626221" y="140.12" width="21.8544" height="24.0103" filterUnits="userSpaceOnUse" color-interpolation-filters="sRGB">
<feFlood flood-opacity="0" result="BackgroundImageFix"/>
<feBlend mode="normal" in="SourceGraphic" in2="BackgroundImageFix" result="shape"/>
<feGaussianBlur stdDeviation="2" result="effect1_foregroundBlur_4103_6"/>
</filter>
<filter id="filter2_f_4103_6" x="354.941" y="19.0391" width="27.9975" height="26.0103" filterUnits="userSpaceOnUse" color-interpolation-filters="sRGB">
<feFlood flood-opacity="0" result="BackgroundImageFix"/>
<feBlend mode="normal" in="SourceGraphic" in2="BackgroundImageFix" result="shape"/>
<feGaussianBlur stdDeviation="2.5" result="effect1_foregroundBlur_4103_6"/>
</filter>
<linearGradient id="paint0_linear_4103_6" x1="376.224" y1="254.195" x2="388.808" y2="276.2" gradientUnits="userSpaceOnUse">
<stop stop-color="#212F84"/>
<stop offset="1" stop-color="#5466D8"/>
</linearGradient>
<linearGradient id="paint1_linear_4103_6" x1="20.1314" y1="340.253" x2="38.4371" y2="372.261" gradientUnits="userSpaceOnUse">
<stop stop-color="#212F84"/>
<stop offset="1" stop-color="#5466D8"/>
</linearGradient>
<linearGradient id="paint2_linear_4103_6" x1="93.5496" y1="0.0229494" x2="102.702" y2="16.027" gradientUnits="userSpaceOnUse">
<stop stop-color="#212F84"/>
<stop offset="1" stop-color="#5466D8"/>
</linearGradient>
<linearGradient id="paint3_linear_4103_6" x1="7.56175" y1="144.12" x2="16.7141" y2="160.124" gradientUnits="userSpaceOnUse">
<stop stop-color="#212F84"/>
<stop offset="1" stop-color="#5466D8"/>
</linearGradient>
</defs>
</svg>
