<svg width="16" height="18" viewBox="0 0 16 18" fill="none" xmlns="http://www.w3.org/2000/svg">
<path d="M8 11.7778C4.11172 11.7778 4.11172 6.22222 8 6.22222C11.8441 6.22222 12.0102 11.7778 8 11.7778ZM8 7.33333C5.64346 7.33333 5.64346 10.6667 8 10.6667C10.3565 10.6667 10.3565 7.33333 8 7.33333Z" fill="#8189B6"/>
<path d="M8 14C5.08438 14 2.29247 12.5394 0.341257 9.99222C0.11944 9.70367 0 9.35639 0 9C0 8.64361 0.11944 8.29633 0.341257 8.00778C2.29247 5.46056 5.08438 4 8 4C10.9156 4 13.7075 5.46056 15.6587 8.00778C15.8806 8.29633 16 8.64361 16 9C16 9.35639 15.8806 9.70367 15.6587 9.99222C13.7075 12.5394 10.9156 14 8 14ZM1.29389 9.34111C3.04833 11.6289 5.42961 12.8889 8 12.8889C10.5704 12.8889 12.9517 11.6289 14.7061 9.34111C14.7824 9.24183 14.8235 9.12234 14.8235 8.99972C14.8235 8.8771 14.7824 8.75761 14.7061 8.65833C12.9517 6.37111 10.5704 5.11111 8 5.11111C5.42961 5.11111 3.04833 6.37111 1.29389 8.65889C1.21757 8.75817 1.17647 8.87766 1.17647 9.00028C1.17647 9.1229 1.21757 9.24183 1.29389 9.34111Z" fill="#8189B6"/>
</svg>
